%TF.GenerationSoftware,KiCad,Pcbnew,(6.0.9)*%
%TF.CreationDate,2022-11-22T19:39:32+02:00*%
%TF.ProjectId,PCB,5043422e-6b69-4636-9164-5f7063625858,rev?*%
%TF.SameCoordinates,Original*%
%TF.FileFunction,Legend,Top*%
%TF.FilePolarity,Positive*%
%FSLAX46Y46*%
G04 Gerber Fmt 4.6, Leading zero omitted, Abs format (unit mm)*
G04 Created by KiCad (PCBNEW (6.0.9)) date 2022-11-22 19:39:32*
%MOMM*%
%LPD*%
G01*
G04 APERTURE LIST*
G04 Aperture macros list*
%AMRoundRect*
0 Rectangle with rounded corners*
0 $1 Rounding radius*
0 $2 $3 $4 $5 $6 $7 $8 $9 X,Y pos of 4 corners*
0 Add a 4 corners polygon primitive as box body*
4,1,4,$2,$3,$4,$5,$6,$7,$8,$9,$2,$3,0*
0 Add four circle primitives for the rounded corners*
1,1,$1+$1,$2,$3*
1,1,$1+$1,$4,$5*
1,1,$1+$1,$6,$7*
1,1,$1+$1,$8,$9*
0 Add four rect primitives between the rounded corners*
20,1,$1+$1,$2,$3,$4,$5,0*
20,1,$1+$1,$4,$5,$6,$7,0*
20,1,$1+$1,$6,$7,$8,$9,0*
20,1,$1+$1,$8,$9,$2,$3,0*%
%AMHorizOval*
0 Thick line with rounded ends*
0 $1 width*
0 $2 $3 position (X,Y) of the first rounded end (center of the circle)*
0 $4 $5 position (X,Y) of the second rounded end (center of the circle)*
0 Add line between two ends*
20,1,$1,$2,$3,$4,$5,0*
0 Add two circle primitives to create the rounded ends*
1,1,$1,$2,$3*
1,1,$1,$4,$5*%
%AMRotRect*
0 Rectangle, with rotation*
0 The origin of the aperture is its center*
0 $1 length*
0 $2 width*
0 $3 Rotation angle, in degrees counterclockwise*
0 Add horizontal line*
21,1,$1,$2,0,0,$3*%
G04 Aperture macros list end*
%TA.AperFunction,Profile*%
%ADD10C,0.100000*%
%TD*%
%ADD11C,0.150000*%
%ADD12C,0.254000*%
%ADD13C,0.120000*%
%ADD14C,0.200000*%
%ADD15C,0.100000*%
%ADD16C,0.400000*%
%ADD17RoundRect,0.243750X0.243750X0.456250X-0.243750X0.456250X-0.243750X-0.456250X0.243750X-0.456250X0*%
%ADD18RoundRect,0.450000X-1.270000X-0.450000X1.270000X-0.450000X1.270000X0.450000X-1.270000X0.450000X0*%
%ADD19RoundRect,0.250000X-0.262500X-0.450000X0.262500X-0.450000X0.262500X0.450000X-0.262500X0.450000X0*%
%ADD20RoundRect,0.150000X-0.150000X-0.587500X0.150000X-0.587500X0.150000X0.587500X-0.150000X0.587500X0*%
%ADD21RoundRect,0.150000X-0.587500X-0.150000X0.587500X-0.150000X0.587500X0.150000X-0.587500X0.150000X0*%
%ADD22RoundRect,0.250000X0.362500X1.425000X-0.362500X1.425000X-0.362500X-1.425000X0.362500X-1.425000X0*%
%ADD23R,1.200000X0.400000*%
%ADD24RoundRect,0.250000X-0.450000X0.262500X-0.450000X-0.262500X0.450000X-0.262500X0.450000X0.262500X0*%
%ADD25RoundRect,0.250000X0.475000X-0.250000X0.475000X0.250000X-0.475000X0.250000X-0.475000X-0.250000X0*%
%ADD26RoundRect,0.250000X0.250000X0.475000X-0.250000X0.475000X-0.250000X-0.475000X0.250000X-0.475000X0*%
%ADD27R,0.500000X0.250000*%
%ADD28R,0.900000X1.600000*%
%ADD29R,2.800000X1.000000*%
%ADD30RoundRect,0.250000X0.787500X1.025000X-0.787500X1.025000X-0.787500X-1.025000X0.787500X-1.025000X0*%
%ADD31R,0.400000X1.200000*%
%ADD32RoundRect,0.250000X0.262500X0.450000X-0.262500X0.450000X-0.262500X-0.450000X0.262500X-0.450000X0*%
%ADD33RoundRect,0.250000X-0.475000X0.250000X-0.475000X-0.250000X0.475000X-0.250000X0.475000X0.250000X0*%
%ADD34RoundRect,0.250000X-0.250000X-0.475000X0.250000X-0.475000X0.250000X0.475000X-0.250000X0.475000X0*%
%ADD35RoundRect,0.250000X-1.025000X0.787500X-1.025000X-0.787500X1.025000X-0.787500X1.025000X0.787500X0*%
%ADD36R,1.000000X1.000000*%
%ADD37RotRect,1.000000X1.000000X135.000000*%
%ADD38RotRect,1.000000X1.000000X45.000000*%
%ADD39RotRect,1.700000X1.700000X120.000000*%
%ADD40HorizOval,1.700000X0.000000X0.000000X0.000000X0.000000X0*%
%ADD41RoundRect,0.250000X0.450000X-0.262500X0.450000X0.262500X-0.450000X0.262500X-0.450000X-0.262500X0*%
%ADD42RoundRect,0.075000X-0.662500X-0.075000X0.662500X-0.075000X0.662500X0.075000X-0.662500X0.075000X0*%
%ADD43RoundRect,0.075000X-0.075000X-0.662500X0.075000X-0.662500X0.075000X0.662500X-0.075000X0.662500X0*%
%ADD44R,0.890000X2.080000*%
%ADD45R,2.325000X1.520000*%
%ADD46RoundRect,0.250000X-0.362500X-1.425000X0.362500X-1.425000X0.362500X1.425000X-0.362500X1.425000X0*%
%ADD47RoundRect,0.250000X1.025000X-0.787500X1.025000X0.787500X-1.025000X0.787500X-1.025000X-0.787500X0*%
%ADD48R,2.000000X1.800000*%
%ADD49C,2.000000*%
%ADD50C,3.000000*%
%ADD51RotRect,1.700000X1.700000X45.000000*%
%ADD52HorizOval,1.700000X0.000000X0.000000X0.000000X0.000000X0*%
%ADD53RotRect,1.700000X1.700000X240.000000*%
%ADD54HorizOval,1.700000X0.000000X0.000000X0.000000X0.000000X0*%
%ADD55RotRect,2.000000X4.000000X135.000000*%
%ADD56RoundRect,0.250000X-0.787500X-1.025000X0.787500X-1.025000X0.787500X1.025000X-0.787500X1.025000X0*%
%ADD57RotRect,2.000000X4.000000X30.000000*%
G04 APERTURE END LIST*
D10*
X175615600Y-38887400D02*
X187248800Y-40665400D01*
X199390000Y-42799000D01*
X200710800Y-44831000D01*
X203250800Y-49199800D01*
X204622400Y-51892200D01*
X206857600Y-56769000D01*
X208889600Y-62204600D01*
X210515200Y-67437000D01*
X211988400Y-73025000D01*
X213360000Y-79629000D01*
X213969600Y-83235800D01*
X214731600Y-89433400D01*
X214985600Y-92532200D01*
X215138000Y-99491800D01*
X215442800Y-107365800D01*
X215392000Y-113614200D01*
X215138000Y-118237000D01*
X214680800Y-121386600D01*
X213918800Y-124739400D01*
X213004400Y-127330200D01*
X211937600Y-129311400D01*
X210769200Y-130784600D01*
X209600800Y-131800600D01*
X208127600Y-132664200D01*
X206197200Y-133375400D01*
X203047600Y-134289800D01*
X201523600Y-134594600D01*
X200558400Y-134747000D01*
X200304400Y-134696200D01*
X199948800Y-134543800D01*
X199491600Y-134035800D01*
X198780400Y-132969000D01*
X197815200Y-130987800D01*
X195986400Y-126669800D01*
X192989200Y-118541800D01*
X190398400Y-112141000D01*
X188264800Y-107670600D01*
X186639200Y-104825800D01*
X184810400Y-102133400D01*
X183083200Y-100203000D01*
X181559200Y-98983800D01*
X179679600Y-97866200D01*
X177800000Y-97256600D01*
X175666400Y-96901000D01*
X173126400Y-96901000D01*
X171450000Y-97002600D01*
X169113200Y-97510600D01*
X166522400Y-98475800D01*
X163880800Y-99796600D01*
X161036000Y-101625400D01*
X158242000Y-103962200D01*
X155346400Y-106756200D01*
X151790400Y-110769400D01*
X149758400Y-112750600D01*
X147878800Y-114071400D01*
X145897600Y-115087400D01*
X143713200Y-115747800D01*
X141325600Y-116052600D01*
X138734800Y-116052600D01*
X136398000Y-115747800D01*
X134213600Y-115087400D01*
X132181600Y-114122200D01*
X130302000Y-112750600D01*
X128320800Y-110769400D01*
X124714000Y-106807000D01*
X121818400Y-103911400D01*
X119024400Y-101676200D01*
X116230400Y-99847400D01*
X113538000Y-98475800D01*
X110998000Y-97561400D01*
X108610400Y-97053400D01*
X106934000Y-96901000D01*
X104394000Y-96901000D01*
X102311200Y-97256600D01*
X100431600Y-97866200D01*
X98552000Y-98933000D01*
X97028000Y-100203000D01*
X95250000Y-102133400D01*
X93421200Y-104775000D01*
X91795600Y-107619800D01*
X89712800Y-112141000D01*
X87122000Y-118491000D01*
X84124800Y-126568200D01*
X82346800Y-130987800D01*
X81280000Y-132969000D01*
X80568800Y-133985000D01*
X79959200Y-134543800D01*
X79552800Y-134696200D01*
X78536800Y-134594600D01*
X77063600Y-134289800D01*
X73863200Y-133375400D01*
X71882000Y-132664200D01*
X70459600Y-131800600D01*
X69291200Y-130784600D01*
X68122800Y-129260600D01*
X67056000Y-127330200D01*
X66141600Y-124790200D01*
X65379600Y-121437400D01*
X64922400Y-118237000D01*
X64668400Y-113563400D01*
X64668400Y-107365800D01*
X64973200Y-94665800D01*
X65176400Y-91059000D01*
X65633600Y-86537800D01*
X66344800Y-81457800D01*
X67310000Y-76377800D01*
X68884800Y-69824600D01*
X70307200Y-64998600D01*
X72186800Y-59461400D01*
X74269600Y-54330600D01*
X76098400Y-50520600D01*
X78079600Y-46964600D01*
X80670400Y-42799000D01*
X86360000Y-41783000D01*
X99822000Y-39547800D01*
X108762800Y-38328600D01*
X109575600Y-45745400D01*
X110083600Y-49453800D01*
X110337600Y-50469800D01*
X110794800Y-51485800D01*
X111455200Y-52501800D01*
X112369600Y-53416200D01*
X113334800Y-54076600D01*
X114858800Y-54940200D01*
X116941600Y-55651400D01*
X118973600Y-56057800D01*
X120751600Y-56261000D01*
X123342400Y-56311800D01*
X126390400Y-56159400D01*
X130606800Y-55753000D01*
X135280400Y-55397400D01*
X138836400Y-55295800D01*
X141681200Y-55295800D01*
X145491200Y-55448200D01*
X150418800Y-55854600D01*
X154076400Y-56159400D01*
X157073600Y-56261000D01*
X159715200Y-56210200D01*
X161340800Y-56007000D01*
X163271200Y-55600600D01*
X165303200Y-54838600D01*
X166370000Y-54330600D01*
X167538400Y-53517800D01*
X168605200Y-52501800D01*
X169214800Y-51587400D01*
X169621200Y-50571400D01*
X169976800Y-49453800D01*
X170332400Y-46710600D01*
X171145200Y-40360600D01*
X171297600Y-38328600D01*
X175615600Y-38887400D01*
X79886044Y-128933444D02*
G75*
G03*
X79886044Y-128933444I-1273044J0D01*
G01*
X177523644Y-53927244D02*
G75*
G03*
X177523644Y-53927244I-1273044J0D01*
G01*
X133073644Y-79606644D02*
G75*
G03*
X133073644Y-79606644I-1273044J0D01*
G01*
X202822044Y-128908044D02*
G75*
G03*
X202822044Y-128908044I-1273044J0D01*
G01*
X76758800Y-87553800D02*
X90627200Y-91770200D01*
X91033600Y-91973400D01*
X91236800Y-92227400D01*
X91287600Y-92481400D01*
X91338400Y-92684600D01*
X91338400Y-93040200D01*
X84480400Y-115392200D01*
X84429600Y-115544600D01*
X84277200Y-115798600D01*
X84023200Y-116001800D01*
X83667600Y-116103400D01*
X83261200Y-116103400D01*
X69392800Y-111836200D01*
X69138800Y-111683800D01*
X68986400Y-111531400D01*
X68783200Y-111277400D01*
X68681600Y-111023400D01*
X68681600Y-110566200D01*
X75539600Y-88214200D01*
X75590400Y-88011000D01*
X75742800Y-87858600D01*
X76047600Y-87655400D01*
X76403200Y-87503000D01*
X76758800Y-87553800D01*
X149659844Y-79606644D02*
G75*
G03*
X149659844Y-79606644I-1273044J0D01*
G01*
X203962000Y-87604600D02*
X204114400Y-87655400D01*
X204266800Y-87858600D01*
X204368400Y-88011000D01*
X204520800Y-88214200D01*
X211277200Y-110363000D01*
X211328000Y-110566200D01*
X211378800Y-110871000D01*
X211328000Y-111175800D01*
X211226400Y-111429800D01*
X211023200Y-111633000D01*
X210667600Y-111836200D01*
X196850000Y-116052600D01*
X196697600Y-116103400D01*
X196392800Y-116103400D01*
X195884800Y-115900200D01*
X195681600Y-115646200D01*
X195529200Y-115392200D01*
X188722000Y-93091000D01*
X188671200Y-92735400D01*
X188772800Y-92329000D01*
X188874400Y-92176600D01*
X189179200Y-91871800D01*
X189382400Y-91770200D01*
X203250800Y-87553800D01*
X203708000Y-87553800D01*
X203962000Y-87604600D01*
X211000844Y-119383044D02*
G75*
G03*
X211000844Y-119383044I-1273044J0D01*
G01*
X105209844Y-53927244D02*
G75*
G03*
X105209844Y-53927244I-1273044J0D01*
G01*
X71732644Y-119383044D02*
G75*
G03*
X71732644Y-119383044I-1273044J0D01*
G01*
D11*
%TO.C,D1*%
X178662104Y-93213180D02*
X178662104Y-92213180D01*
X178900200Y-92213180D01*
X179043057Y-92260800D01*
X179138295Y-92356038D01*
X179185914Y-92451276D01*
X179233533Y-92641752D01*
X179233533Y-92784609D01*
X179185914Y-92975085D01*
X179138295Y-93070323D01*
X179043057Y-93165561D01*
X178900200Y-93213180D01*
X178662104Y-93213180D01*
X180185914Y-93213180D02*
X179614485Y-93213180D01*
X179900200Y-93213180D02*
X179900200Y-92213180D01*
X179804961Y-92356038D01*
X179709723Y-92451276D01*
X179614485Y-92498895D01*
%TO.C,TP14*%
X85688704Y-79792580D02*
X86260133Y-79792580D01*
X85974419Y-80792580D02*
X85974419Y-79792580D01*
X86593466Y-80792580D02*
X86593466Y-79792580D01*
X86974419Y-79792580D01*
X87069657Y-79840200D01*
X87117276Y-79887819D01*
X87164895Y-79983057D01*
X87164895Y-80125914D01*
X87117276Y-80221152D01*
X87069657Y-80268771D01*
X86974419Y-80316390D01*
X86593466Y-80316390D01*
X88117276Y-80792580D02*
X87545847Y-80792580D01*
X87831561Y-80792580D02*
X87831561Y-79792580D01*
X87736323Y-79935438D01*
X87641085Y-80030676D01*
X87545847Y-80078295D01*
X88974419Y-80125914D02*
X88974419Y-80792580D01*
X88736323Y-79744961D02*
X88498228Y-80459247D01*
X89117276Y-80459247D01*
%TO.C,R31*%
X180992542Y-53005980D02*
X180659209Y-52529790D01*
X180421114Y-53005980D02*
X180421114Y-52005980D01*
X180802066Y-52005980D01*
X180897304Y-52053600D01*
X180944923Y-52101219D01*
X180992542Y-52196457D01*
X180992542Y-52339314D01*
X180944923Y-52434552D01*
X180897304Y-52482171D01*
X180802066Y-52529790D01*
X180421114Y-52529790D01*
X181325876Y-52005980D02*
X181944923Y-52005980D01*
X181611590Y-52386933D01*
X181754447Y-52386933D01*
X181849685Y-52434552D01*
X181897304Y-52482171D01*
X181944923Y-52577409D01*
X181944923Y-52815504D01*
X181897304Y-52910742D01*
X181849685Y-52958361D01*
X181754447Y-53005980D01*
X181468733Y-53005980D01*
X181373495Y-52958361D01*
X181325876Y-52910742D01*
X182897304Y-53005980D02*
X182325876Y-53005980D01*
X182611590Y-53005980D02*
X182611590Y-52005980D01*
X182516352Y-52148838D01*
X182421114Y-52244076D01*
X182325876Y-52291695D01*
%TO.C,U5*%
X130048095Y-89469980D02*
X130048095Y-90279504D01*
X130095714Y-90374742D01*
X130143333Y-90422361D01*
X130238571Y-90469980D01*
X130429047Y-90469980D01*
X130524285Y-90422361D01*
X130571904Y-90374742D01*
X130619523Y-90279504D01*
X130619523Y-89469980D01*
X131571904Y-89469980D02*
X131095714Y-89469980D01*
X131048095Y-89946171D01*
X131095714Y-89898552D01*
X131190952Y-89850933D01*
X131429047Y-89850933D01*
X131524285Y-89898552D01*
X131571904Y-89946171D01*
X131619523Y-90041409D01*
X131619523Y-90279504D01*
X131571904Y-90374742D01*
X131524285Y-90422361D01*
X131429047Y-90469980D01*
X131190952Y-90469980D01*
X131095714Y-90422361D01*
X131048095Y-90374742D01*
%TO.C,R1*%
X134326333Y-73709780D02*
X133993000Y-73233590D01*
X133754904Y-73709780D02*
X133754904Y-72709780D01*
X134135857Y-72709780D01*
X134231095Y-72757400D01*
X134278714Y-72805019D01*
X134326333Y-72900257D01*
X134326333Y-73043114D01*
X134278714Y-73138352D01*
X134231095Y-73185971D01*
X134135857Y-73233590D01*
X133754904Y-73233590D01*
X135278714Y-73709780D02*
X134707285Y-73709780D01*
X134993000Y-73709780D02*
X134993000Y-72709780D01*
X134897761Y-72852638D01*
X134802523Y-72947876D01*
X134707285Y-72995495D01*
D12*
%TO.C,IC3*%
X162158438Y-92090723D02*
X162158438Y-90820723D01*
X163488914Y-91969771D02*
X163428438Y-92030247D01*
X163247009Y-92090723D01*
X163126057Y-92090723D01*
X162944628Y-92030247D01*
X162823676Y-91909295D01*
X162763200Y-91788342D01*
X162702723Y-91546438D01*
X162702723Y-91365009D01*
X162763200Y-91123104D01*
X162823676Y-91002152D01*
X162944628Y-90881200D01*
X163126057Y-90820723D01*
X163247009Y-90820723D01*
X163428438Y-90881200D01*
X163488914Y-90941676D01*
X163912247Y-90820723D02*
X164698438Y-90820723D01*
X164275104Y-91304533D01*
X164456533Y-91304533D01*
X164577485Y-91365009D01*
X164637961Y-91425485D01*
X164698438Y-91546438D01*
X164698438Y-91848819D01*
X164637961Y-91969771D01*
X164577485Y-92030247D01*
X164456533Y-92090723D01*
X164093676Y-92090723D01*
X163972723Y-92030247D01*
X163912247Y-91969771D01*
D11*
%TO.C,R22*%
X118054380Y-88806257D02*
X117578190Y-89139590D01*
X118054380Y-89377685D02*
X117054380Y-89377685D01*
X117054380Y-88996733D01*
X117102000Y-88901495D01*
X117149619Y-88853876D01*
X117244857Y-88806257D01*
X117387714Y-88806257D01*
X117482952Y-88853876D01*
X117530571Y-88901495D01*
X117578190Y-88996733D01*
X117578190Y-89377685D01*
X117149619Y-88425304D02*
X117102000Y-88377685D01*
X117054380Y-88282447D01*
X117054380Y-88044352D01*
X117102000Y-87949114D01*
X117149619Y-87901495D01*
X117244857Y-87853876D01*
X117340095Y-87853876D01*
X117482952Y-87901495D01*
X118054380Y-88472923D01*
X118054380Y-87853876D01*
X117149619Y-87472923D02*
X117102000Y-87425304D01*
X117054380Y-87330066D01*
X117054380Y-87091971D01*
X117102000Y-86996733D01*
X117149619Y-86949114D01*
X117244857Y-86901495D01*
X117340095Y-86901495D01*
X117482952Y-86949114D01*
X118054380Y-87520542D01*
X118054380Y-86901495D01*
%TO.C,D4*%
X178662104Y-86812380D02*
X178662104Y-85812380D01*
X178900200Y-85812380D01*
X179043057Y-85860000D01*
X179138295Y-85955238D01*
X179185914Y-86050476D01*
X179233533Y-86240952D01*
X179233533Y-86383809D01*
X179185914Y-86574285D01*
X179138295Y-86669523D01*
X179043057Y-86764761D01*
X178900200Y-86812380D01*
X178662104Y-86812380D01*
X180090676Y-86145714D02*
X180090676Y-86812380D01*
X179852580Y-85764761D02*
X179614485Y-86479047D01*
X180233533Y-86479047D01*
%TO.C,C25*%
X127556742Y-84462857D02*
X127604361Y-84510476D01*
X127651980Y-84653333D01*
X127651980Y-84748571D01*
X127604361Y-84891428D01*
X127509123Y-84986666D01*
X127413885Y-85034285D01*
X127223409Y-85081904D01*
X127080552Y-85081904D01*
X126890076Y-85034285D01*
X126794838Y-84986666D01*
X126699600Y-84891428D01*
X126651980Y-84748571D01*
X126651980Y-84653333D01*
X126699600Y-84510476D01*
X126747219Y-84462857D01*
X126747219Y-84081904D02*
X126699600Y-84034285D01*
X126651980Y-83939047D01*
X126651980Y-83700952D01*
X126699600Y-83605714D01*
X126747219Y-83558095D01*
X126842457Y-83510476D01*
X126937695Y-83510476D01*
X127080552Y-83558095D01*
X127651980Y-84129523D01*
X127651980Y-83510476D01*
X126651980Y-82605714D02*
X126651980Y-83081904D01*
X127128171Y-83129523D01*
X127080552Y-83081904D01*
X127032933Y-82986666D01*
X127032933Y-82748571D01*
X127080552Y-82653333D01*
X127128171Y-82605714D01*
X127223409Y-82558095D01*
X127461504Y-82558095D01*
X127556742Y-82605714D01*
X127604361Y-82653333D01*
X127651980Y-82748571D01*
X127651980Y-82986666D01*
X127604361Y-83081904D01*
X127556742Y-83129523D01*
D12*
%TO.C,IC9*%
X164531523Y-87193361D02*
X163261523Y-87193361D01*
X164410571Y-85862885D02*
X164471047Y-85923361D01*
X164531523Y-86104790D01*
X164531523Y-86225742D01*
X164471047Y-86407171D01*
X164350095Y-86528123D01*
X164229142Y-86588600D01*
X163987238Y-86649076D01*
X163805809Y-86649076D01*
X163563904Y-86588600D01*
X163442952Y-86528123D01*
X163322000Y-86407171D01*
X163261523Y-86225742D01*
X163261523Y-86104790D01*
X163322000Y-85923361D01*
X163382476Y-85862885D01*
X164531523Y-85258123D02*
X164531523Y-85016219D01*
X164471047Y-84895266D01*
X164410571Y-84834790D01*
X164229142Y-84713838D01*
X163987238Y-84653361D01*
X163503428Y-84653361D01*
X163382476Y-84713838D01*
X163322000Y-84774314D01*
X163261523Y-84895266D01*
X163261523Y-85137171D01*
X163322000Y-85258123D01*
X163382476Y-85318600D01*
X163503428Y-85379076D01*
X163805809Y-85379076D01*
X163926761Y-85318600D01*
X163987238Y-85258123D01*
X164047714Y-85137171D01*
X164047714Y-84895266D01*
X163987238Y-84774314D01*
X163926761Y-84713838D01*
X163805809Y-84653361D01*
D11*
%TO.C,C16*%
X158462742Y-70769542D02*
X158415123Y-70817161D01*
X158272266Y-70864780D01*
X158177028Y-70864780D01*
X158034171Y-70817161D01*
X157938933Y-70721923D01*
X157891314Y-70626685D01*
X157843695Y-70436209D01*
X157843695Y-70293352D01*
X157891314Y-70102876D01*
X157938933Y-70007638D01*
X158034171Y-69912400D01*
X158177028Y-69864780D01*
X158272266Y-69864780D01*
X158415123Y-69912400D01*
X158462742Y-69960019D01*
X159415123Y-70864780D02*
X158843695Y-70864780D01*
X159129409Y-70864780D02*
X159129409Y-69864780D01*
X159034171Y-70007638D01*
X158938933Y-70102876D01*
X158843695Y-70150495D01*
X160272266Y-69864780D02*
X160081790Y-69864780D01*
X159986552Y-69912400D01*
X159938933Y-69960019D01*
X159843695Y-70102876D01*
X159796076Y-70293352D01*
X159796076Y-70674304D01*
X159843695Y-70769542D01*
X159891314Y-70817161D01*
X159986552Y-70864780D01*
X160177028Y-70864780D01*
X160272266Y-70817161D01*
X160319885Y-70769542D01*
X160367504Y-70674304D01*
X160367504Y-70436209D01*
X160319885Y-70340971D01*
X160272266Y-70293352D01*
X160177028Y-70245733D01*
X159986552Y-70245733D01*
X159891314Y-70293352D01*
X159843695Y-70340971D01*
X159796076Y-70436209D01*
%TO.C,U1*%
X186004295Y-81037180D02*
X186004295Y-81846704D01*
X186051914Y-81941942D01*
X186099533Y-81989561D01*
X186194771Y-82037180D01*
X186385247Y-82037180D01*
X186480485Y-81989561D01*
X186528104Y-81941942D01*
X186575723Y-81846704D01*
X186575723Y-81037180D01*
X187575723Y-82037180D02*
X187004295Y-82037180D01*
X187290009Y-82037180D02*
X187290009Y-81037180D01*
X187194771Y-81180038D01*
X187099533Y-81275276D01*
X187004295Y-81322895D01*
%TO.C,TP6*%
X152331895Y-57084980D02*
X152903323Y-57084980D01*
X152617609Y-58084980D02*
X152617609Y-57084980D01*
X153236657Y-58084980D02*
X153236657Y-57084980D01*
X153617609Y-57084980D01*
X153712847Y-57132600D01*
X153760466Y-57180219D01*
X153808085Y-57275457D01*
X153808085Y-57418314D01*
X153760466Y-57513552D01*
X153712847Y-57561171D01*
X153617609Y-57608790D01*
X153236657Y-57608790D01*
X154665228Y-57084980D02*
X154474752Y-57084980D01*
X154379514Y-57132600D01*
X154331895Y-57180219D01*
X154236657Y-57323076D01*
X154189038Y-57513552D01*
X154189038Y-57894504D01*
X154236657Y-57989742D01*
X154284276Y-58037361D01*
X154379514Y-58084980D01*
X154569990Y-58084980D01*
X154665228Y-58037361D01*
X154712847Y-57989742D01*
X154760466Y-57894504D01*
X154760466Y-57656409D01*
X154712847Y-57561171D01*
X154665228Y-57513552D01*
X154569990Y-57465933D01*
X154379514Y-57465933D01*
X154284276Y-57513552D01*
X154236657Y-57561171D01*
X154189038Y-57656409D01*
%TO.C,R17*%
X136948942Y-111628180D02*
X136615609Y-111151990D01*
X136377514Y-111628180D02*
X136377514Y-110628180D01*
X136758466Y-110628180D01*
X136853704Y-110675800D01*
X136901323Y-110723419D01*
X136948942Y-110818657D01*
X136948942Y-110961514D01*
X136901323Y-111056752D01*
X136853704Y-111104371D01*
X136758466Y-111151990D01*
X136377514Y-111151990D01*
X137901323Y-111628180D02*
X137329895Y-111628180D01*
X137615609Y-111628180D02*
X137615609Y-110628180D01*
X137520371Y-110771038D01*
X137425133Y-110866276D01*
X137329895Y-110913895D01*
X138234657Y-110628180D02*
X138901323Y-110628180D01*
X138472752Y-111628180D01*
D12*
%TO.C,S5*%
X127117380Y-63894047D02*
X127298809Y-63954523D01*
X127601190Y-63954523D01*
X127722142Y-63894047D01*
X127782619Y-63833571D01*
X127843095Y-63712619D01*
X127843095Y-63591666D01*
X127782619Y-63470714D01*
X127722142Y-63410238D01*
X127601190Y-63349761D01*
X127359285Y-63289285D01*
X127238333Y-63228809D01*
X127177857Y-63168333D01*
X127117380Y-63047380D01*
X127117380Y-62926428D01*
X127177857Y-62805476D01*
X127238333Y-62745000D01*
X127359285Y-62684523D01*
X127661666Y-62684523D01*
X127843095Y-62745000D01*
X128992142Y-62684523D02*
X128387380Y-62684523D01*
X128326904Y-63289285D01*
X128387380Y-63228809D01*
X128508333Y-63168333D01*
X128810714Y-63168333D01*
X128931666Y-63228809D01*
X128992142Y-63289285D01*
X129052619Y-63410238D01*
X129052619Y-63712619D01*
X128992142Y-63833571D01*
X128931666Y-63894047D01*
X128810714Y-63954523D01*
X128508333Y-63954523D01*
X128387380Y-63894047D01*
X128326904Y-63833571D01*
D11*
%TO.C,C3*%
X101788933Y-92686142D02*
X101741314Y-92733761D01*
X101598457Y-92781380D01*
X101503219Y-92781380D01*
X101360361Y-92733761D01*
X101265123Y-92638523D01*
X101217504Y-92543285D01*
X101169885Y-92352809D01*
X101169885Y-92209952D01*
X101217504Y-92019476D01*
X101265123Y-91924238D01*
X101360361Y-91829000D01*
X101503219Y-91781380D01*
X101598457Y-91781380D01*
X101741314Y-91829000D01*
X101788933Y-91876619D01*
X102122266Y-91781380D02*
X102741314Y-91781380D01*
X102407980Y-92162333D01*
X102550838Y-92162333D01*
X102646076Y-92209952D01*
X102693695Y-92257571D01*
X102741314Y-92352809D01*
X102741314Y-92590904D01*
X102693695Y-92686142D01*
X102646076Y-92733761D01*
X102550838Y-92781380D01*
X102265123Y-92781380D01*
X102169885Y-92733761D01*
X102122266Y-92686142D01*
D12*
%TO.C,IC15*%
X119268723Y-66868523D02*
X117998723Y-66868523D01*
X119147771Y-65538047D02*
X119208247Y-65598523D01*
X119268723Y-65779952D01*
X119268723Y-65900904D01*
X119208247Y-66082333D01*
X119087295Y-66203285D01*
X118966342Y-66263761D01*
X118724438Y-66324238D01*
X118543009Y-66324238D01*
X118301104Y-66263761D01*
X118180152Y-66203285D01*
X118059200Y-66082333D01*
X117998723Y-65900904D01*
X117998723Y-65779952D01*
X118059200Y-65598523D01*
X118119676Y-65538047D01*
X119268723Y-64328523D02*
X119268723Y-65054238D01*
X119268723Y-64691380D02*
X117998723Y-64691380D01*
X118180152Y-64812333D01*
X118301104Y-64933285D01*
X118361580Y-65054238D01*
X117998723Y-63179476D02*
X117998723Y-63784238D01*
X118603485Y-63844714D01*
X118543009Y-63784238D01*
X118482533Y-63663285D01*
X118482533Y-63360904D01*
X118543009Y-63239952D01*
X118603485Y-63179476D01*
X118724438Y-63119000D01*
X119026819Y-63119000D01*
X119147771Y-63179476D01*
X119208247Y-63239952D01*
X119268723Y-63360904D01*
X119268723Y-63663285D01*
X119208247Y-63784238D01*
X119147771Y-63844714D01*
D11*
%TO.C,D3*%
X178662104Y-88844380D02*
X178662104Y-87844380D01*
X178900200Y-87844380D01*
X179043057Y-87892000D01*
X179138295Y-87987238D01*
X179185914Y-88082476D01*
X179233533Y-88272952D01*
X179233533Y-88415809D01*
X179185914Y-88606285D01*
X179138295Y-88701523D01*
X179043057Y-88796761D01*
X178900200Y-88844380D01*
X178662104Y-88844380D01*
X179566866Y-87844380D02*
X180185914Y-87844380D01*
X179852580Y-88225333D01*
X179995438Y-88225333D01*
X180090676Y-88272952D01*
X180138295Y-88320571D01*
X180185914Y-88415809D01*
X180185914Y-88653904D01*
X180138295Y-88749142D01*
X180090676Y-88796761D01*
X179995438Y-88844380D01*
X179709723Y-88844380D01*
X179614485Y-88796761D01*
X179566866Y-88749142D01*
%TO.C,C44*%
X158970742Y-88926942D02*
X158923123Y-88974561D01*
X158780266Y-89022180D01*
X158685028Y-89022180D01*
X158542171Y-88974561D01*
X158446933Y-88879323D01*
X158399314Y-88784085D01*
X158351695Y-88593609D01*
X158351695Y-88450752D01*
X158399314Y-88260276D01*
X158446933Y-88165038D01*
X158542171Y-88069800D01*
X158685028Y-88022180D01*
X158780266Y-88022180D01*
X158923123Y-88069800D01*
X158970742Y-88117419D01*
X159827885Y-88355514D02*
X159827885Y-89022180D01*
X159589790Y-87974561D02*
X159351695Y-88688847D01*
X159970742Y-88688847D01*
X160780266Y-88355514D02*
X160780266Y-89022180D01*
X160542171Y-87974561D02*
X160304076Y-88688847D01*
X160923123Y-88688847D01*
%TO.C,R3*%
X169683133Y-93314780D02*
X169349800Y-92838590D01*
X169111704Y-93314780D02*
X169111704Y-92314780D01*
X169492657Y-92314780D01*
X169587895Y-92362400D01*
X169635514Y-92410019D01*
X169683133Y-92505257D01*
X169683133Y-92648114D01*
X169635514Y-92743352D01*
X169587895Y-92790971D01*
X169492657Y-92838590D01*
X169111704Y-92838590D01*
X170016466Y-92314780D02*
X170635514Y-92314780D01*
X170302180Y-92695733D01*
X170445038Y-92695733D01*
X170540276Y-92743352D01*
X170587895Y-92790971D01*
X170635514Y-92886209D01*
X170635514Y-93124304D01*
X170587895Y-93219542D01*
X170540276Y-93267161D01*
X170445038Y-93314780D01*
X170159323Y-93314780D01*
X170064085Y-93267161D01*
X170016466Y-93219542D01*
D12*
%TO.C,IC11*%
X153787323Y-108168923D02*
X152517323Y-108168923D01*
X153666371Y-106838447D02*
X153726847Y-106898923D01*
X153787323Y-107080352D01*
X153787323Y-107201304D01*
X153726847Y-107382733D01*
X153605895Y-107503685D01*
X153484942Y-107564161D01*
X153243038Y-107624638D01*
X153061609Y-107624638D01*
X152819704Y-107564161D01*
X152698752Y-107503685D01*
X152577800Y-107382733D01*
X152517323Y-107201304D01*
X152517323Y-107080352D01*
X152577800Y-106898923D01*
X152638276Y-106838447D01*
X153787323Y-105628923D02*
X153787323Y-106354638D01*
X153787323Y-105991780D02*
X152517323Y-105991780D01*
X152698752Y-106112733D01*
X152819704Y-106233685D01*
X152880180Y-106354638D01*
X153787323Y-104419400D02*
X153787323Y-105145114D01*
X153787323Y-104782257D02*
X152517323Y-104782257D01*
X152698752Y-104903209D01*
X152819704Y-105024161D01*
X152880180Y-105145114D01*
D11*
%TO.C,R35*%
X188053742Y-62937380D02*
X187720409Y-62461190D01*
X187482314Y-62937380D02*
X187482314Y-61937380D01*
X187863266Y-61937380D01*
X187958504Y-61985000D01*
X188006123Y-62032619D01*
X188053742Y-62127857D01*
X188053742Y-62270714D01*
X188006123Y-62365952D01*
X187958504Y-62413571D01*
X187863266Y-62461190D01*
X187482314Y-62461190D01*
X188387076Y-61937380D02*
X189006123Y-61937380D01*
X188672790Y-62318333D01*
X188815647Y-62318333D01*
X188910885Y-62365952D01*
X188958504Y-62413571D01*
X189006123Y-62508809D01*
X189006123Y-62746904D01*
X188958504Y-62842142D01*
X188910885Y-62889761D01*
X188815647Y-62937380D01*
X188529933Y-62937380D01*
X188434695Y-62889761D01*
X188387076Y-62842142D01*
X189910885Y-61937380D02*
X189434695Y-61937380D01*
X189387076Y-62413571D01*
X189434695Y-62365952D01*
X189529933Y-62318333D01*
X189768028Y-62318333D01*
X189863266Y-62365952D01*
X189910885Y-62413571D01*
X189958504Y-62508809D01*
X189958504Y-62746904D01*
X189910885Y-62842142D01*
X189863266Y-62889761D01*
X189768028Y-62937380D01*
X189529933Y-62937380D01*
X189434695Y-62889761D01*
X189387076Y-62842142D01*
%TO.C,C4*%
X191441142Y-80225666D02*
X191488761Y-80273285D01*
X191536380Y-80416142D01*
X191536380Y-80511380D01*
X191488761Y-80654238D01*
X191393523Y-80749476D01*
X191298285Y-80797095D01*
X191107809Y-80844714D01*
X190964952Y-80844714D01*
X190774476Y-80797095D01*
X190679238Y-80749476D01*
X190584000Y-80654238D01*
X190536380Y-80511380D01*
X190536380Y-80416142D01*
X190584000Y-80273285D01*
X190631619Y-80225666D01*
X190869714Y-79368523D02*
X191536380Y-79368523D01*
X190488761Y-79606619D02*
X191203047Y-79844714D01*
X191203047Y-79225666D01*
%TO.C,TP12*%
X209031104Y-85659980D02*
X209602533Y-85659980D01*
X209316819Y-86659980D02*
X209316819Y-85659980D01*
X209935866Y-86659980D02*
X209935866Y-85659980D01*
X210316819Y-85659980D01*
X210412057Y-85707600D01*
X210459676Y-85755219D01*
X210507295Y-85850457D01*
X210507295Y-85993314D01*
X210459676Y-86088552D01*
X210412057Y-86136171D01*
X210316819Y-86183790D01*
X209935866Y-86183790D01*
X211459676Y-86659980D02*
X210888247Y-86659980D01*
X211173961Y-86659980D02*
X211173961Y-85659980D01*
X211078723Y-85802838D01*
X210983485Y-85898076D01*
X210888247Y-85945695D01*
X211840628Y-85755219D02*
X211888247Y-85707600D01*
X211983485Y-85659980D01*
X212221580Y-85659980D01*
X212316819Y-85707600D01*
X212364438Y-85755219D01*
X212412057Y-85850457D01*
X212412057Y-85945695D01*
X212364438Y-86088552D01*
X211793009Y-86659980D01*
X212412057Y-86659980D01*
%TO.C,C1*%
X98486933Y-96496142D02*
X98439314Y-96543761D01*
X98296457Y-96591380D01*
X98201219Y-96591380D01*
X98058361Y-96543761D01*
X97963123Y-96448523D01*
X97915504Y-96353285D01*
X97867885Y-96162809D01*
X97867885Y-96019952D01*
X97915504Y-95829476D01*
X97963123Y-95734238D01*
X98058361Y-95639000D01*
X98201219Y-95591380D01*
X98296457Y-95591380D01*
X98439314Y-95639000D01*
X98486933Y-95686619D01*
X99439314Y-96591380D02*
X98867885Y-96591380D01*
X99153600Y-96591380D02*
X99153600Y-95591380D01*
X99058361Y-95734238D01*
X98963123Y-95829476D01*
X98867885Y-95877095D01*
%TO.C,R7*%
X148575733Y-68625980D02*
X148242400Y-68149790D01*
X148004304Y-68625980D02*
X148004304Y-67625980D01*
X148385257Y-67625980D01*
X148480495Y-67673600D01*
X148528114Y-67721219D01*
X148575733Y-67816457D01*
X148575733Y-67959314D01*
X148528114Y-68054552D01*
X148480495Y-68102171D01*
X148385257Y-68149790D01*
X148004304Y-68149790D01*
X148909066Y-67625980D02*
X149575733Y-67625980D01*
X149147161Y-68625980D01*
%TO.C,R29*%
X113758742Y-67178180D02*
X113425409Y-66701990D01*
X113187314Y-67178180D02*
X113187314Y-66178180D01*
X113568266Y-66178180D01*
X113663504Y-66225800D01*
X113711123Y-66273419D01*
X113758742Y-66368657D01*
X113758742Y-66511514D01*
X113711123Y-66606752D01*
X113663504Y-66654371D01*
X113568266Y-66701990D01*
X113187314Y-66701990D01*
X114139695Y-66273419D02*
X114187314Y-66225800D01*
X114282552Y-66178180D01*
X114520647Y-66178180D01*
X114615885Y-66225800D01*
X114663504Y-66273419D01*
X114711123Y-66368657D01*
X114711123Y-66463895D01*
X114663504Y-66606752D01*
X114092076Y-67178180D01*
X114711123Y-67178180D01*
X115187314Y-67178180D02*
X115377790Y-67178180D01*
X115473028Y-67130561D01*
X115520647Y-67082942D01*
X115615885Y-66940085D01*
X115663504Y-66749609D01*
X115663504Y-66368657D01*
X115615885Y-66273419D01*
X115568266Y-66225800D01*
X115473028Y-66178180D01*
X115282552Y-66178180D01*
X115187314Y-66225800D01*
X115139695Y-66273419D01*
X115092076Y-66368657D01*
X115092076Y-66606752D01*
X115139695Y-66701990D01*
X115187314Y-66749609D01*
X115282552Y-66797228D01*
X115473028Y-66797228D01*
X115568266Y-66749609D01*
X115615885Y-66701990D01*
X115663504Y-66606752D01*
%TO.C,C12*%
X130684542Y-77071457D02*
X130732161Y-77119076D01*
X130779780Y-77261933D01*
X130779780Y-77357171D01*
X130732161Y-77500028D01*
X130636923Y-77595266D01*
X130541685Y-77642885D01*
X130351209Y-77690504D01*
X130208352Y-77690504D01*
X130017876Y-77642885D01*
X129922638Y-77595266D01*
X129827400Y-77500028D01*
X129779780Y-77357171D01*
X129779780Y-77261933D01*
X129827400Y-77119076D01*
X129875019Y-77071457D01*
X130779780Y-76119076D02*
X130779780Y-76690504D01*
X130779780Y-76404790D02*
X129779780Y-76404790D01*
X129922638Y-76500028D01*
X130017876Y-76595266D01*
X130065495Y-76690504D01*
X129875019Y-75738123D02*
X129827400Y-75690504D01*
X129779780Y-75595266D01*
X129779780Y-75357171D01*
X129827400Y-75261933D01*
X129875019Y-75214314D01*
X129970257Y-75166695D01*
X130065495Y-75166695D01*
X130208352Y-75214314D01*
X130779780Y-75785742D01*
X130779780Y-75166695D01*
D12*
%TO.C,S3*%
X116862380Y-77354047D02*
X117043809Y-77414523D01*
X117346190Y-77414523D01*
X117467142Y-77354047D01*
X117527619Y-77293571D01*
X117588095Y-77172619D01*
X117588095Y-77051666D01*
X117527619Y-76930714D01*
X117467142Y-76870238D01*
X117346190Y-76809761D01*
X117104285Y-76749285D01*
X116983333Y-76688809D01*
X116922857Y-76628333D01*
X116862380Y-76507380D01*
X116862380Y-76386428D01*
X116922857Y-76265476D01*
X116983333Y-76205000D01*
X117104285Y-76144523D01*
X117406666Y-76144523D01*
X117588095Y-76205000D01*
X118011428Y-76144523D02*
X118797619Y-76144523D01*
X118374285Y-76628333D01*
X118555714Y-76628333D01*
X118676666Y-76688809D01*
X118737142Y-76749285D01*
X118797619Y-76870238D01*
X118797619Y-77172619D01*
X118737142Y-77293571D01*
X118676666Y-77354047D01*
X118555714Y-77414523D01*
X118192857Y-77414523D01*
X118071904Y-77354047D01*
X118011428Y-77293571D01*
D11*
%TO.C,R6*%
X169759333Y-86939380D02*
X169426000Y-86463190D01*
X169187904Y-86939380D02*
X169187904Y-85939380D01*
X169568857Y-85939380D01*
X169664095Y-85987000D01*
X169711714Y-86034619D01*
X169759333Y-86129857D01*
X169759333Y-86272714D01*
X169711714Y-86367952D01*
X169664095Y-86415571D01*
X169568857Y-86463190D01*
X169187904Y-86463190D01*
X170616476Y-85939380D02*
X170426000Y-85939380D01*
X170330761Y-85987000D01*
X170283142Y-86034619D01*
X170187904Y-86177476D01*
X170140285Y-86367952D01*
X170140285Y-86748904D01*
X170187904Y-86844142D01*
X170235523Y-86891761D01*
X170330761Y-86939380D01*
X170521238Y-86939380D01*
X170616476Y-86891761D01*
X170664095Y-86844142D01*
X170711714Y-86748904D01*
X170711714Y-86510809D01*
X170664095Y-86415571D01*
X170616476Y-86367952D01*
X170521238Y-86320333D01*
X170330761Y-86320333D01*
X170235523Y-86367952D01*
X170187904Y-86415571D01*
X170140285Y-86510809D01*
%TO.C,J2*%
X186279348Y-89527632D02*
X186897938Y-89170489D01*
X187045465Y-89140300D01*
X187175563Y-89175160D01*
X187288231Y-89275068D01*
X187335850Y-89357547D01*
X186147541Y-89108859D02*
X186082492Y-89091430D01*
X185993634Y-89032760D01*
X185874586Y-88826564D01*
X185868207Y-88720276D01*
X185885636Y-88655227D01*
X185944305Y-88566369D01*
X186026784Y-88518750D01*
X186174311Y-88488560D01*
X186954897Y-88697718D01*
X186645374Y-88161607D01*
%TO.C,R28*%
X97328980Y-52611257D02*
X96852790Y-52944590D01*
X97328980Y-53182685D02*
X96328980Y-53182685D01*
X96328980Y-52801733D01*
X96376600Y-52706495D01*
X96424219Y-52658876D01*
X96519457Y-52611257D01*
X96662314Y-52611257D01*
X96757552Y-52658876D01*
X96805171Y-52706495D01*
X96852790Y-52801733D01*
X96852790Y-53182685D01*
X96424219Y-52230304D02*
X96376600Y-52182685D01*
X96328980Y-52087447D01*
X96328980Y-51849352D01*
X96376600Y-51754114D01*
X96424219Y-51706495D01*
X96519457Y-51658876D01*
X96614695Y-51658876D01*
X96757552Y-51706495D01*
X97328980Y-52277923D01*
X97328980Y-51658876D01*
X96757552Y-51087447D02*
X96709933Y-51182685D01*
X96662314Y-51230304D01*
X96567076Y-51277923D01*
X96519457Y-51277923D01*
X96424219Y-51230304D01*
X96376600Y-51182685D01*
X96328980Y-51087447D01*
X96328980Y-50896971D01*
X96376600Y-50801733D01*
X96424219Y-50754114D01*
X96519457Y-50706495D01*
X96567076Y-50706495D01*
X96662314Y-50754114D01*
X96709933Y-50801733D01*
X96757552Y-50896971D01*
X96757552Y-51087447D01*
X96805171Y-51182685D01*
X96852790Y-51230304D01*
X96948028Y-51277923D01*
X97138504Y-51277923D01*
X97233742Y-51230304D01*
X97281361Y-51182685D01*
X97328980Y-51087447D01*
X97328980Y-50896971D01*
X97281361Y-50801733D01*
X97233742Y-50754114D01*
X97138504Y-50706495D01*
X96948028Y-50706495D01*
X96852790Y-50754114D01*
X96805171Y-50801733D01*
X96757552Y-50896971D01*
D12*
%TO.C,IC2*%
X151693638Y-73828123D02*
X151693638Y-72558123D01*
X153024114Y-73707171D02*
X152963638Y-73767647D01*
X152782209Y-73828123D01*
X152661257Y-73828123D01*
X152479828Y-73767647D01*
X152358876Y-73646695D01*
X152298400Y-73525742D01*
X152237923Y-73283838D01*
X152237923Y-73102409D01*
X152298400Y-72860504D01*
X152358876Y-72739552D01*
X152479828Y-72618600D01*
X152661257Y-72558123D01*
X152782209Y-72558123D01*
X152963638Y-72618600D01*
X153024114Y-72679076D01*
X153507923Y-72679076D02*
X153568400Y-72618600D01*
X153689352Y-72558123D01*
X153991733Y-72558123D01*
X154112685Y-72618600D01*
X154173161Y-72679076D01*
X154233638Y-72800028D01*
X154233638Y-72920980D01*
X154173161Y-73102409D01*
X153447447Y-73828123D01*
X154233638Y-73828123D01*
D11*
%TO.C,C61*%
X165920142Y-93858142D02*
X165872523Y-93905761D01*
X165729666Y-93953380D01*
X165634428Y-93953380D01*
X165491571Y-93905761D01*
X165396333Y-93810523D01*
X165348714Y-93715285D01*
X165301095Y-93524809D01*
X165301095Y-93381952D01*
X165348714Y-93191476D01*
X165396333Y-93096238D01*
X165491571Y-93001000D01*
X165634428Y-92953380D01*
X165729666Y-92953380D01*
X165872523Y-93001000D01*
X165920142Y-93048619D01*
X166777285Y-92953380D02*
X166586809Y-92953380D01*
X166491571Y-93001000D01*
X166443952Y-93048619D01*
X166348714Y-93191476D01*
X166301095Y-93381952D01*
X166301095Y-93762904D01*
X166348714Y-93858142D01*
X166396333Y-93905761D01*
X166491571Y-93953380D01*
X166682047Y-93953380D01*
X166777285Y-93905761D01*
X166824904Y-93858142D01*
X166872523Y-93762904D01*
X166872523Y-93524809D01*
X166824904Y-93429571D01*
X166777285Y-93381952D01*
X166682047Y-93334333D01*
X166491571Y-93334333D01*
X166396333Y-93381952D01*
X166348714Y-93429571D01*
X166301095Y-93524809D01*
X167824904Y-93953380D02*
X167253476Y-93953380D01*
X167539190Y-93953380D02*
X167539190Y-92953380D01*
X167443952Y-93096238D01*
X167348714Y-93191476D01*
X167253476Y-93239095D01*
D12*
%TO.C,IC4*%
X140172923Y-109164361D02*
X138902923Y-109164361D01*
X140051971Y-107833885D02*
X140112447Y-107894361D01*
X140172923Y-108075790D01*
X140172923Y-108196742D01*
X140112447Y-108378171D01*
X139991495Y-108499123D01*
X139870542Y-108559600D01*
X139628638Y-108620076D01*
X139447209Y-108620076D01*
X139205304Y-108559600D01*
X139084352Y-108499123D01*
X138963400Y-108378171D01*
X138902923Y-108196742D01*
X138902923Y-108075790D01*
X138963400Y-107894361D01*
X139023876Y-107833885D01*
X139326257Y-106745314D02*
X140172923Y-106745314D01*
X138842447Y-107047695D02*
X139749590Y-107350076D01*
X139749590Y-106563885D01*
D11*
%TO.C,C5*%
X182510133Y-77547742D02*
X182462514Y-77595361D01*
X182319657Y-77642980D01*
X182224419Y-77642980D01*
X182081561Y-77595361D01*
X181986323Y-77500123D01*
X181938704Y-77404885D01*
X181891085Y-77214409D01*
X181891085Y-77071552D01*
X181938704Y-76881076D01*
X181986323Y-76785838D01*
X182081561Y-76690600D01*
X182224419Y-76642980D01*
X182319657Y-76642980D01*
X182462514Y-76690600D01*
X182510133Y-76738219D01*
X183414895Y-76642980D02*
X182938704Y-76642980D01*
X182891085Y-77119171D01*
X182938704Y-77071552D01*
X183033942Y-77023933D01*
X183272038Y-77023933D01*
X183367276Y-77071552D01*
X183414895Y-77119171D01*
X183462514Y-77214409D01*
X183462514Y-77452504D01*
X183414895Y-77547742D01*
X183367276Y-77595361D01*
X183272038Y-77642980D01*
X183033942Y-77642980D01*
X182938704Y-77595361D01*
X182891085Y-77547742D01*
%TO.C,C41*%
X147261342Y-83106742D02*
X147213723Y-83154361D01*
X147070866Y-83201980D01*
X146975628Y-83201980D01*
X146832771Y-83154361D01*
X146737533Y-83059123D01*
X146689914Y-82963885D01*
X146642295Y-82773409D01*
X146642295Y-82630552D01*
X146689914Y-82440076D01*
X146737533Y-82344838D01*
X146832771Y-82249600D01*
X146975628Y-82201980D01*
X147070866Y-82201980D01*
X147213723Y-82249600D01*
X147261342Y-82297219D01*
X148118485Y-82535314D02*
X148118485Y-83201980D01*
X147880390Y-82154361D02*
X147642295Y-82868647D01*
X148261342Y-82868647D01*
X149166104Y-83201980D02*
X148594676Y-83201980D01*
X148880390Y-83201980D02*
X148880390Y-82201980D01*
X148785152Y-82344838D01*
X148689914Y-82440076D01*
X148594676Y-82487695D01*
%TO.C,U4*%
X155829095Y-85786980D02*
X155829095Y-86596504D01*
X155876714Y-86691742D01*
X155924333Y-86739361D01*
X156019571Y-86786980D01*
X156210047Y-86786980D01*
X156305285Y-86739361D01*
X156352904Y-86691742D01*
X156400523Y-86596504D01*
X156400523Y-85786980D01*
X157305285Y-86120314D02*
X157305285Y-86786980D01*
X157067190Y-85739361D02*
X156829095Y-86453647D01*
X157448142Y-86453647D01*
D12*
%TO.C,S1*%
X139082380Y-60784047D02*
X139263809Y-60844523D01*
X139566190Y-60844523D01*
X139687142Y-60784047D01*
X139747619Y-60723571D01*
X139808095Y-60602619D01*
X139808095Y-60481666D01*
X139747619Y-60360714D01*
X139687142Y-60300238D01*
X139566190Y-60239761D01*
X139324285Y-60179285D01*
X139203333Y-60118809D01*
X139142857Y-60058333D01*
X139082380Y-59937380D01*
X139082380Y-59816428D01*
X139142857Y-59695476D01*
X139203333Y-59635000D01*
X139324285Y-59574523D01*
X139626666Y-59574523D01*
X139808095Y-59635000D01*
X141017619Y-60844523D02*
X140291904Y-60844523D01*
X140654761Y-60844523D02*
X140654761Y-59574523D01*
X140533809Y-59755952D01*
X140412857Y-59876904D01*
X140291904Y-59937380D01*
D11*
%TO.C,C58*%
X146016742Y-113031542D02*
X145969123Y-113079161D01*
X145826266Y-113126780D01*
X145731028Y-113126780D01*
X145588171Y-113079161D01*
X145492933Y-112983923D01*
X145445314Y-112888685D01*
X145397695Y-112698209D01*
X145397695Y-112555352D01*
X145445314Y-112364876D01*
X145492933Y-112269638D01*
X145588171Y-112174400D01*
X145731028Y-112126780D01*
X145826266Y-112126780D01*
X145969123Y-112174400D01*
X146016742Y-112222019D01*
X146921504Y-112126780D02*
X146445314Y-112126780D01*
X146397695Y-112602971D01*
X146445314Y-112555352D01*
X146540552Y-112507733D01*
X146778647Y-112507733D01*
X146873885Y-112555352D01*
X146921504Y-112602971D01*
X146969123Y-112698209D01*
X146969123Y-112936304D01*
X146921504Y-113031542D01*
X146873885Y-113079161D01*
X146778647Y-113126780D01*
X146540552Y-113126780D01*
X146445314Y-113079161D01*
X146397695Y-113031542D01*
X147540552Y-112555352D02*
X147445314Y-112507733D01*
X147397695Y-112460114D01*
X147350076Y-112364876D01*
X147350076Y-112317257D01*
X147397695Y-112222019D01*
X147445314Y-112174400D01*
X147540552Y-112126780D01*
X147731028Y-112126780D01*
X147826266Y-112174400D01*
X147873885Y-112222019D01*
X147921504Y-112317257D01*
X147921504Y-112364876D01*
X147873885Y-112460114D01*
X147826266Y-112507733D01*
X147731028Y-112555352D01*
X147540552Y-112555352D01*
X147445314Y-112602971D01*
X147397695Y-112650590D01*
X147350076Y-112745828D01*
X147350076Y-112936304D01*
X147397695Y-113031542D01*
X147445314Y-113079161D01*
X147540552Y-113126780D01*
X147731028Y-113126780D01*
X147826266Y-113079161D01*
X147873885Y-113031542D01*
X147921504Y-112936304D01*
X147921504Y-112745828D01*
X147873885Y-112650590D01*
X147826266Y-112602971D01*
X147731028Y-112555352D01*
%TO.C,C32*%
X140276342Y-75744342D02*
X140228723Y-75791961D01*
X140085866Y-75839580D01*
X139990628Y-75839580D01*
X139847771Y-75791961D01*
X139752533Y-75696723D01*
X139704914Y-75601485D01*
X139657295Y-75411009D01*
X139657295Y-75268152D01*
X139704914Y-75077676D01*
X139752533Y-74982438D01*
X139847771Y-74887200D01*
X139990628Y-74839580D01*
X140085866Y-74839580D01*
X140228723Y-74887200D01*
X140276342Y-74934819D01*
X140609676Y-74839580D02*
X141228723Y-74839580D01*
X140895390Y-75220533D01*
X141038247Y-75220533D01*
X141133485Y-75268152D01*
X141181104Y-75315771D01*
X141228723Y-75411009D01*
X141228723Y-75649104D01*
X141181104Y-75744342D01*
X141133485Y-75791961D01*
X141038247Y-75839580D01*
X140752533Y-75839580D01*
X140657295Y-75791961D01*
X140609676Y-75744342D01*
X141609676Y-74934819D02*
X141657295Y-74887200D01*
X141752533Y-74839580D01*
X141990628Y-74839580D01*
X142085866Y-74887200D01*
X142133485Y-74934819D01*
X142181104Y-75030057D01*
X142181104Y-75125295D01*
X142133485Y-75268152D01*
X141562057Y-75839580D01*
X142181104Y-75839580D01*
%TO.C,TP9*%
X74861895Y-123632980D02*
X75433323Y-123632980D01*
X75147609Y-124632980D02*
X75147609Y-123632980D01*
X75766657Y-124632980D02*
X75766657Y-123632980D01*
X76147609Y-123632980D01*
X76242847Y-123680600D01*
X76290466Y-123728219D01*
X76338085Y-123823457D01*
X76338085Y-123966314D01*
X76290466Y-124061552D01*
X76242847Y-124109171D01*
X76147609Y-124156790D01*
X75766657Y-124156790D01*
X76814276Y-124632980D02*
X77004752Y-124632980D01*
X77099990Y-124585361D01*
X77147609Y-124537742D01*
X77242847Y-124394885D01*
X77290466Y-124204409D01*
X77290466Y-123823457D01*
X77242847Y-123728219D01*
X77195228Y-123680600D01*
X77099990Y-123632980D01*
X76909514Y-123632980D01*
X76814276Y-123680600D01*
X76766657Y-123728219D01*
X76719038Y-123823457D01*
X76719038Y-124061552D01*
X76766657Y-124156790D01*
X76814276Y-124204409D01*
X76909514Y-124252028D01*
X77099990Y-124252028D01*
X77195228Y-124204409D01*
X77242847Y-124156790D01*
X77290466Y-124061552D01*
%TO.C,R2*%
X143876733Y-68219580D02*
X143543400Y-67743390D01*
X143305304Y-68219580D02*
X143305304Y-67219580D01*
X143686257Y-67219580D01*
X143781495Y-67267200D01*
X143829114Y-67314819D01*
X143876733Y-67410057D01*
X143876733Y-67552914D01*
X143829114Y-67648152D01*
X143781495Y-67695771D01*
X143686257Y-67743390D01*
X143305304Y-67743390D01*
X144257685Y-67314819D02*
X144305304Y-67267200D01*
X144400542Y-67219580D01*
X144638638Y-67219580D01*
X144733876Y-67267200D01*
X144781495Y-67314819D01*
X144829114Y-67410057D01*
X144829114Y-67505295D01*
X144781495Y-67648152D01*
X144210066Y-68219580D01*
X144829114Y-68219580D01*
%TO.C,R20*%
X115819180Y-88755457D02*
X115342990Y-89088790D01*
X115819180Y-89326885D02*
X114819180Y-89326885D01*
X114819180Y-88945933D01*
X114866800Y-88850695D01*
X114914419Y-88803076D01*
X115009657Y-88755457D01*
X115152514Y-88755457D01*
X115247752Y-88803076D01*
X115295371Y-88850695D01*
X115342990Y-88945933D01*
X115342990Y-89326885D01*
X114914419Y-88374504D02*
X114866800Y-88326885D01*
X114819180Y-88231647D01*
X114819180Y-87993552D01*
X114866800Y-87898314D01*
X114914419Y-87850695D01*
X115009657Y-87803076D01*
X115104895Y-87803076D01*
X115247752Y-87850695D01*
X115819180Y-88422123D01*
X115819180Y-87803076D01*
X114819180Y-87184028D02*
X114819180Y-87088790D01*
X114866800Y-86993552D01*
X114914419Y-86945933D01*
X115009657Y-86898314D01*
X115200133Y-86850695D01*
X115438228Y-86850695D01*
X115628704Y-86898314D01*
X115723942Y-86945933D01*
X115771561Y-86993552D01*
X115819180Y-87088790D01*
X115819180Y-87184028D01*
X115771561Y-87279266D01*
X115723942Y-87326885D01*
X115628704Y-87374504D01*
X115438228Y-87422123D01*
X115200133Y-87422123D01*
X115009657Y-87374504D01*
X114914419Y-87326885D01*
X114866800Y-87279266D01*
X114819180Y-87184028D01*
%TO.C,TP1*%
X178366895Y-80884780D02*
X178938323Y-80884780D01*
X178652609Y-81884780D02*
X178652609Y-80884780D01*
X179271657Y-81884780D02*
X179271657Y-80884780D01*
X179652609Y-80884780D01*
X179747847Y-80932400D01*
X179795466Y-80980019D01*
X179843085Y-81075257D01*
X179843085Y-81218114D01*
X179795466Y-81313352D01*
X179747847Y-81360971D01*
X179652609Y-81408590D01*
X179271657Y-81408590D01*
X180795466Y-81884780D02*
X180224038Y-81884780D01*
X180509752Y-81884780D02*
X180509752Y-80884780D01*
X180414514Y-81027638D01*
X180319276Y-81122876D01*
X180224038Y-81170495D01*
%TO.C,TP4*%
X89314495Y-104938580D02*
X89885923Y-104938580D01*
X89600209Y-105938580D02*
X89600209Y-104938580D01*
X90219257Y-105938580D02*
X90219257Y-104938580D01*
X90600209Y-104938580D01*
X90695447Y-104986200D01*
X90743066Y-105033819D01*
X90790685Y-105129057D01*
X90790685Y-105271914D01*
X90743066Y-105367152D01*
X90695447Y-105414771D01*
X90600209Y-105462390D01*
X90219257Y-105462390D01*
X91647828Y-105271914D02*
X91647828Y-105938580D01*
X91409733Y-104890961D02*
X91171638Y-105605247D01*
X91790685Y-105605247D01*
D12*
%TO.C,IC5*%
X107838723Y-80157561D02*
X106568723Y-80157561D01*
X107717771Y-78827085D02*
X107778247Y-78887561D01*
X107838723Y-79068990D01*
X107838723Y-79189942D01*
X107778247Y-79371371D01*
X107657295Y-79492323D01*
X107536342Y-79552800D01*
X107294438Y-79613276D01*
X107113009Y-79613276D01*
X106871104Y-79552800D01*
X106750152Y-79492323D01*
X106629200Y-79371371D01*
X106568723Y-79189942D01*
X106568723Y-79068990D01*
X106629200Y-78887561D01*
X106689676Y-78827085D01*
X106568723Y-77678038D02*
X106568723Y-78282800D01*
X107173485Y-78343276D01*
X107113009Y-78282800D01*
X107052533Y-78161847D01*
X107052533Y-77859466D01*
X107113009Y-77738514D01*
X107173485Y-77678038D01*
X107294438Y-77617561D01*
X107596819Y-77617561D01*
X107717771Y-77678038D01*
X107778247Y-77738514D01*
X107838723Y-77859466D01*
X107838723Y-78161847D01*
X107778247Y-78282800D01*
X107717771Y-78343276D01*
D11*
%TO.C,R34*%
X187066180Y-72778857D02*
X186589990Y-73112190D01*
X187066180Y-73350285D02*
X186066180Y-73350285D01*
X186066180Y-72969333D01*
X186113800Y-72874095D01*
X186161419Y-72826476D01*
X186256657Y-72778857D01*
X186399514Y-72778857D01*
X186494752Y-72826476D01*
X186542371Y-72874095D01*
X186589990Y-72969333D01*
X186589990Y-73350285D01*
X186066180Y-72445523D02*
X186066180Y-71826476D01*
X186447133Y-72159809D01*
X186447133Y-72016952D01*
X186494752Y-71921714D01*
X186542371Y-71874095D01*
X186637609Y-71826476D01*
X186875704Y-71826476D01*
X186970942Y-71874095D01*
X187018561Y-71921714D01*
X187066180Y-72016952D01*
X187066180Y-72302666D01*
X187018561Y-72397904D01*
X186970942Y-72445523D01*
X186399514Y-70969333D02*
X187066180Y-70969333D01*
X186018561Y-71207428D02*
X186732847Y-71445523D01*
X186732847Y-70826476D01*
%TO.C,TP5*%
X117991095Y-59320180D02*
X118562523Y-59320180D01*
X118276809Y-60320180D02*
X118276809Y-59320180D01*
X118895857Y-60320180D02*
X118895857Y-59320180D01*
X119276809Y-59320180D01*
X119372047Y-59367800D01*
X119419666Y-59415419D01*
X119467285Y-59510657D01*
X119467285Y-59653514D01*
X119419666Y-59748752D01*
X119372047Y-59796371D01*
X119276809Y-59843990D01*
X118895857Y-59843990D01*
X120372047Y-59320180D02*
X119895857Y-59320180D01*
X119848238Y-59796371D01*
X119895857Y-59748752D01*
X119991095Y-59701133D01*
X120229190Y-59701133D01*
X120324428Y-59748752D01*
X120372047Y-59796371D01*
X120419666Y-59891609D01*
X120419666Y-60129704D01*
X120372047Y-60224942D01*
X120324428Y-60272561D01*
X120229190Y-60320180D01*
X119991095Y-60320180D01*
X119895857Y-60272561D01*
X119848238Y-60224942D01*
%TO.C,R21*%
X94560380Y-87637857D02*
X94084190Y-87971190D01*
X94560380Y-88209285D02*
X93560380Y-88209285D01*
X93560380Y-87828333D01*
X93608000Y-87733095D01*
X93655619Y-87685476D01*
X93750857Y-87637857D01*
X93893714Y-87637857D01*
X93988952Y-87685476D01*
X94036571Y-87733095D01*
X94084190Y-87828333D01*
X94084190Y-88209285D01*
X93655619Y-87256904D02*
X93608000Y-87209285D01*
X93560380Y-87114047D01*
X93560380Y-86875952D01*
X93608000Y-86780714D01*
X93655619Y-86733095D01*
X93750857Y-86685476D01*
X93846095Y-86685476D01*
X93988952Y-86733095D01*
X94560380Y-87304523D01*
X94560380Y-86685476D01*
X94560380Y-85733095D02*
X94560380Y-86304523D01*
X94560380Y-86018809D02*
X93560380Y-86018809D01*
X93703238Y-86114047D01*
X93798476Y-86209285D01*
X93846095Y-86304523D01*
%TO.C,C18*%
X165101542Y-62847457D02*
X165149161Y-62895076D01*
X165196780Y-63037933D01*
X165196780Y-63133171D01*
X165149161Y-63276028D01*
X165053923Y-63371266D01*
X164958685Y-63418885D01*
X164768209Y-63466504D01*
X164625352Y-63466504D01*
X164434876Y-63418885D01*
X164339638Y-63371266D01*
X164244400Y-63276028D01*
X164196780Y-63133171D01*
X164196780Y-63037933D01*
X164244400Y-62895076D01*
X164292019Y-62847457D01*
X165196780Y-61895076D02*
X165196780Y-62466504D01*
X165196780Y-62180790D02*
X164196780Y-62180790D01*
X164339638Y-62276028D01*
X164434876Y-62371266D01*
X164482495Y-62466504D01*
X164625352Y-61323647D02*
X164577733Y-61418885D01*
X164530114Y-61466504D01*
X164434876Y-61514123D01*
X164387257Y-61514123D01*
X164292019Y-61466504D01*
X164244400Y-61418885D01*
X164196780Y-61323647D01*
X164196780Y-61133171D01*
X164244400Y-61037933D01*
X164292019Y-60990314D01*
X164387257Y-60942695D01*
X164434876Y-60942695D01*
X164530114Y-60990314D01*
X164577733Y-61037933D01*
X164625352Y-61133171D01*
X164625352Y-61323647D01*
X164672971Y-61418885D01*
X164720590Y-61466504D01*
X164815828Y-61514123D01*
X165006304Y-61514123D01*
X165101542Y-61466504D01*
X165149161Y-61418885D01*
X165196780Y-61323647D01*
X165196780Y-61133171D01*
X165149161Y-61037933D01*
X165101542Y-60990314D01*
X165006304Y-60942695D01*
X164815828Y-60942695D01*
X164720590Y-60990314D01*
X164672971Y-61037933D01*
X164625352Y-61133171D01*
%TO.C,C22*%
X146677142Y-75671742D02*
X146629523Y-75719361D01*
X146486666Y-75766980D01*
X146391428Y-75766980D01*
X146248571Y-75719361D01*
X146153333Y-75624123D01*
X146105714Y-75528885D01*
X146058095Y-75338409D01*
X146058095Y-75195552D01*
X146105714Y-75005076D01*
X146153333Y-74909838D01*
X146248571Y-74814600D01*
X146391428Y-74766980D01*
X146486666Y-74766980D01*
X146629523Y-74814600D01*
X146677142Y-74862219D01*
X147058095Y-74862219D02*
X147105714Y-74814600D01*
X147200952Y-74766980D01*
X147439047Y-74766980D01*
X147534285Y-74814600D01*
X147581904Y-74862219D01*
X147629523Y-74957457D01*
X147629523Y-75052695D01*
X147581904Y-75195552D01*
X147010476Y-75766980D01*
X147629523Y-75766980D01*
X148010476Y-74862219D02*
X148058095Y-74814600D01*
X148153333Y-74766980D01*
X148391428Y-74766980D01*
X148486666Y-74814600D01*
X148534285Y-74862219D01*
X148581904Y-74957457D01*
X148581904Y-75052695D01*
X148534285Y-75195552D01*
X147962857Y-75766980D01*
X148581904Y-75766980D01*
%TO.C,D2*%
X178662104Y-91130380D02*
X178662104Y-90130380D01*
X178900200Y-90130380D01*
X179043057Y-90178000D01*
X179138295Y-90273238D01*
X179185914Y-90368476D01*
X179233533Y-90558952D01*
X179233533Y-90701809D01*
X179185914Y-90892285D01*
X179138295Y-90987523D01*
X179043057Y-91082761D01*
X178900200Y-91130380D01*
X178662104Y-91130380D01*
X179614485Y-90225619D02*
X179662104Y-90178000D01*
X179757342Y-90130380D01*
X179995438Y-90130380D01*
X180090676Y-90178000D01*
X180138295Y-90225619D01*
X180185914Y-90320857D01*
X180185914Y-90416095D01*
X180138295Y-90558952D01*
X179566866Y-91130380D01*
X180185914Y-91130380D01*
D12*
%TO.C,IC8*%
X97413838Y-87798123D02*
X97413838Y-86528123D01*
X98744314Y-87677171D02*
X98683838Y-87737647D01*
X98502409Y-87798123D01*
X98381457Y-87798123D01*
X98200028Y-87737647D01*
X98079076Y-87616695D01*
X98018600Y-87495742D01*
X97958123Y-87253838D01*
X97958123Y-87072409D01*
X98018600Y-86830504D01*
X98079076Y-86709552D01*
X98200028Y-86588600D01*
X98381457Y-86528123D01*
X98502409Y-86528123D01*
X98683838Y-86588600D01*
X98744314Y-86649076D01*
X99470028Y-87072409D02*
X99349076Y-87011933D01*
X99288600Y-86951457D01*
X99228123Y-86830504D01*
X99228123Y-86770028D01*
X99288600Y-86649076D01*
X99349076Y-86588600D01*
X99470028Y-86528123D01*
X99711933Y-86528123D01*
X99832885Y-86588600D01*
X99893361Y-86649076D01*
X99953838Y-86770028D01*
X99953838Y-86830504D01*
X99893361Y-86951457D01*
X99832885Y-87011933D01*
X99711933Y-87072409D01*
X99470028Y-87072409D01*
X99349076Y-87132885D01*
X99288600Y-87193361D01*
X99228123Y-87314314D01*
X99228123Y-87556219D01*
X99288600Y-87677171D01*
X99349076Y-87737647D01*
X99470028Y-87798123D01*
X99711933Y-87798123D01*
X99832885Y-87737647D01*
X99893361Y-87677171D01*
X99953838Y-87556219D01*
X99953838Y-87314314D01*
X99893361Y-87193361D01*
X99832885Y-87132885D01*
X99711933Y-87072409D01*
D11*
%TO.C,C11*%
X129973342Y-71381857D02*
X130020961Y-71429476D01*
X130068580Y-71572333D01*
X130068580Y-71667571D01*
X130020961Y-71810428D01*
X129925723Y-71905666D01*
X129830485Y-71953285D01*
X129640009Y-72000904D01*
X129497152Y-72000904D01*
X129306676Y-71953285D01*
X129211438Y-71905666D01*
X129116200Y-71810428D01*
X129068580Y-71667571D01*
X129068580Y-71572333D01*
X129116200Y-71429476D01*
X129163819Y-71381857D01*
X130068580Y-70429476D02*
X130068580Y-71000904D01*
X130068580Y-70715190D02*
X129068580Y-70715190D01*
X129211438Y-70810428D01*
X129306676Y-70905666D01*
X129354295Y-71000904D01*
X130068580Y-69477095D02*
X130068580Y-70048523D01*
X130068580Y-69762809D02*
X129068580Y-69762809D01*
X129211438Y-69858047D01*
X129306676Y-69953285D01*
X129354295Y-70048523D01*
%TO.C,C24*%
X133148342Y-84335857D02*
X133195961Y-84383476D01*
X133243580Y-84526333D01*
X133243580Y-84621571D01*
X133195961Y-84764428D01*
X133100723Y-84859666D01*
X133005485Y-84907285D01*
X132815009Y-84954904D01*
X132672152Y-84954904D01*
X132481676Y-84907285D01*
X132386438Y-84859666D01*
X132291200Y-84764428D01*
X132243580Y-84621571D01*
X132243580Y-84526333D01*
X132291200Y-84383476D01*
X132338819Y-84335857D01*
X132338819Y-83954904D02*
X132291200Y-83907285D01*
X132243580Y-83812047D01*
X132243580Y-83573952D01*
X132291200Y-83478714D01*
X132338819Y-83431095D01*
X132434057Y-83383476D01*
X132529295Y-83383476D01*
X132672152Y-83431095D01*
X133243580Y-84002523D01*
X133243580Y-83383476D01*
X132576914Y-82526333D02*
X133243580Y-82526333D01*
X132195961Y-82764428D02*
X132910247Y-83002523D01*
X132910247Y-82383476D01*
D12*
%TO.C,Y1*%
X140584161Y-80157561D02*
X141188923Y-80157561D01*
X139918923Y-80580895D02*
X140584161Y-80157561D01*
X139918923Y-79734228D01*
X141188923Y-78645657D02*
X141188923Y-79371371D01*
X141188923Y-79008514D02*
X139918923Y-79008514D01*
X140100352Y-79129466D01*
X140221304Y-79250419D01*
X140281780Y-79371371D01*
D11*
%TO.C,R27*%
X113657142Y-59635380D02*
X113323809Y-59159190D01*
X113085714Y-59635380D02*
X113085714Y-58635380D01*
X113466666Y-58635380D01*
X113561904Y-58683000D01*
X113609523Y-58730619D01*
X113657142Y-58825857D01*
X113657142Y-58968714D01*
X113609523Y-59063952D01*
X113561904Y-59111571D01*
X113466666Y-59159190D01*
X113085714Y-59159190D01*
X114038095Y-58730619D02*
X114085714Y-58683000D01*
X114180952Y-58635380D01*
X114419047Y-58635380D01*
X114514285Y-58683000D01*
X114561904Y-58730619D01*
X114609523Y-58825857D01*
X114609523Y-58921095D01*
X114561904Y-59063952D01*
X113990476Y-59635380D01*
X114609523Y-59635380D01*
X114942857Y-58635380D02*
X115609523Y-58635380D01*
X115180952Y-59635380D01*
%TO.C,C50*%
X167768542Y-80881457D02*
X167816161Y-80929076D01*
X167863780Y-81071933D01*
X167863780Y-81167171D01*
X167816161Y-81310028D01*
X167720923Y-81405266D01*
X167625685Y-81452885D01*
X167435209Y-81500504D01*
X167292352Y-81500504D01*
X167101876Y-81452885D01*
X167006638Y-81405266D01*
X166911400Y-81310028D01*
X166863780Y-81167171D01*
X166863780Y-81071933D01*
X166911400Y-80929076D01*
X166959019Y-80881457D01*
X166863780Y-79976695D02*
X166863780Y-80452885D01*
X167339971Y-80500504D01*
X167292352Y-80452885D01*
X167244733Y-80357647D01*
X167244733Y-80119552D01*
X167292352Y-80024314D01*
X167339971Y-79976695D01*
X167435209Y-79929076D01*
X167673304Y-79929076D01*
X167768542Y-79976695D01*
X167816161Y-80024314D01*
X167863780Y-80119552D01*
X167863780Y-80357647D01*
X167816161Y-80452885D01*
X167768542Y-80500504D01*
X166863780Y-79310028D02*
X166863780Y-79214790D01*
X166911400Y-79119552D01*
X166959019Y-79071933D01*
X167054257Y-79024314D01*
X167244733Y-78976695D01*
X167482828Y-78976695D01*
X167673304Y-79024314D01*
X167768542Y-79071933D01*
X167816161Y-79119552D01*
X167863780Y-79214790D01*
X167863780Y-79310028D01*
X167816161Y-79405266D01*
X167768542Y-79452885D01*
X167673304Y-79500504D01*
X167482828Y-79548123D01*
X167244733Y-79548123D01*
X167054257Y-79500504D01*
X166959019Y-79452885D01*
X166911400Y-79405266D01*
X166863780Y-79310028D01*
%TO.C,TP8*%
X176411095Y-41082980D02*
X176982523Y-41082980D01*
X176696809Y-42082980D02*
X176696809Y-41082980D01*
X177315857Y-42082980D02*
X177315857Y-41082980D01*
X177696809Y-41082980D01*
X177792047Y-41130600D01*
X177839666Y-41178219D01*
X177887285Y-41273457D01*
X177887285Y-41416314D01*
X177839666Y-41511552D01*
X177792047Y-41559171D01*
X177696809Y-41606790D01*
X177315857Y-41606790D01*
X178458714Y-41511552D02*
X178363476Y-41463933D01*
X178315857Y-41416314D01*
X178268238Y-41321076D01*
X178268238Y-41273457D01*
X178315857Y-41178219D01*
X178363476Y-41130600D01*
X178458714Y-41082980D01*
X178649190Y-41082980D01*
X178744428Y-41130600D01*
X178792047Y-41178219D01*
X178839666Y-41273457D01*
X178839666Y-41321076D01*
X178792047Y-41416314D01*
X178744428Y-41463933D01*
X178649190Y-41511552D01*
X178458714Y-41511552D01*
X178363476Y-41559171D01*
X178315857Y-41606790D01*
X178268238Y-41702028D01*
X178268238Y-41892504D01*
X178315857Y-41987742D01*
X178363476Y-42035361D01*
X178458714Y-42082980D01*
X178649190Y-42082980D01*
X178744428Y-42035361D01*
X178792047Y-41987742D01*
X178839666Y-41892504D01*
X178839666Y-41702028D01*
X178792047Y-41606790D01*
X178744428Y-41559171D01*
X178649190Y-41511552D01*
%TO.C,R26*%
X106191580Y-81313257D02*
X105715390Y-81646590D01*
X106191580Y-81884685D02*
X105191580Y-81884685D01*
X105191580Y-81503733D01*
X105239200Y-81408495D01*
X105286819Y-81360876D01*
X105382057Y-81313257D01*
X105524914Y-81313257D01*
X105620152Y-81360876D01*
X105667771Y-81408495D01*
X105715390Y-81503733D01*
X105715390Y-81884685D01*
X105286819Y-80932304D02*
X105239200Y-80884685D01*
X105191580Y-80789447D01*
X105191580Y-80551352D01*
X105239200Y-80456114D01*
X105286819Y-80408495D01*
X105382057Y-80360876D01*
X105477295Y-80360876D01*
X105620152Y-80408495D01*
X106191580Y-80979923D01*
X106191580Y-80360876D01*
X105191580Y-79503733D02*
X105191580Y-79694209D01*
X105239200Y-79789447D01*
X105286819Y-79837066D01*
X105429676Y-79932304D01*
X105620152Y-79979923D01*
X106001104Y-79979923D01*
X106096342Y-79932304D01*
X106143961Y-79884685D01*
X106191580Y-79789447D01*
X106191580Y-79598971D01*
X106143961Y-79503733D01*
X106096342Y-79456114D01*
X106001104Y-79408495D01*
X105763009Y-79408495D01*
X105667771Y-79456114D01*
X105620152Y-79503733D01*
X105572533Y-79598971D01*
X105572533Y-79789447D01*
X105620152Y-79884685D01*
X105667771Y-79932304D01*
X105763009Y-79979923D01*
%TO.C,U6*%
X99923695Y-63714380D02*
X99923695Y-64523904D01*
X99971314Y-64619142D01*
X100018933Y-64666761D01*
X100114171Y-64714380D01*
X100304647Y-64714380D01*
X100399885Y-64666761D01*
X100447504Y-64619142D01*
X100495123Y-64523904D01*
X100495123Y-63714380D01*
X101399885Y-63714380D02*
X101209409Y-63714380D01*
X101114171Y-63762000D01*
X101066552Y-63809619D01*
X100971314Y-63952476D01*
X100923695Y-64142952D01*
X100923695Y-64523904D01*
X100971314Y-64619142D01*
X101018933Y-64666761D01*
X101114171Y-64714380D01*
X101304647Y-64714380D01*
X101399885Y-64666761D01*
X101447504Y-64619142D01*
X101495123Y-64523904D01*
X101495123Y-64285809D01*
X101447504Y-64190571D01*
X101399885Y-64142952D01*
X101304647Y-64095333D01*
X101114171Y-64095333D01*
X101018933Y-64142952D01*
X100971314Y-64190571D01*
X100923695Y-64285809D01*
%TO.C,C40*%
X137837942Y-105055942D02*
X137790323Y-105103561D01*
X137647466Y-105151180D01*
X137552228Y-105151180D01*
X137409371Y-105103561D01*
X137314133Y-105008323D01*
X137266514Y-104913085D01*
X137218895Y-104722609D01*
X137218895Y-104579752D01*
X137266514Y-104389276D01*
X137314133Y-104294038D01*
X137409371Y-104198800D01*
X137552228Y-104151180D01*
X137647466Y-104151180D01*
X137790323Y-104198800D01*
X137837942Y-104246419D01*
X138695085Y-104484514D02*
X138695085Y-105151180D01*
X138456990Y-104103561D02*
X138218895Y-104817847D01*
X138837942Y-104817847D01*
X139409371Y-104151180D02*
X139504609Y-104151180D01*
X139599847Y-104198800D01*
X139647466Y-104246419D01*
X139695085Y-104341657D01*
X139742704Y-104532133D01*
X139742704Y-104770228D01*
X139695085Y-104960704D01*
X139647466Y-105055942D01*
X139599847Y-105103561D01*
X139504609Y-105151180D01*
X139409371Y-105151180D01*
X139314133Y-105103561D01*
X139266514Y-105055942D01*
X139218895Y-104960704D01*
X139171276Y-104770228D01*
X139171276Y-104532133D01*
X139218895Y-104341657D01*
X139266514Y-104246419D01*
X139314133Y-104198800D01*
X139409371Y-104151180D01*
%TO.C,R24*%
X120441980Y-88730057D02*
X119965790Y-89063390D01*
X120441980Y-89301485D02*
X119441980Y-89301485D01*
X119441980Y-88920533D01*
X119489600Y-88825295D01*
X119537219Y-88777676D01*
X119632457Y-88730057D01*
X119775314Y-88730057D01*
X119870552Y-88777676D01*
X119918171Y-88825295D01*
X119965790Y-88920533D01*
X119965790Y-89301485D01*
X119537219Y-88349104D02*
X119489600Y-88301485D01*
X119441980Y-88206247D01*
X119441980Y-87968152D01*
X119489600Y-87872914D01*
X119537219Y-87825295D01*
X119632457Y-87777676D01*
X119727695Y-87777676D01*
X119870552Y-87825295D01*
X120441980Y-88396723D01*
X120441980Y-87777676D01*
X119775314Y-86920533D02*
X120441980Y-86920533D01*
X119394361Y-87158628D02*
X120108647Y-87396723D01*
X120108647Y-86777676D01*
%TO.C,TP13*%
X193054504Y-78192380D02*
X193625933Y-78192380D01*
X193340219Y-79192380D02*
X193340219Y-78192380D01*
X193959266Y-79192380D02*
X193959266Y-78192380D01*
X194340219Y-78192380D01*
X194435457Y-78240000D01*
X194483076Y-78287619D01*
X194530695Y-78382857D01*
X194530695Y-78525714D01*
X194483076Y-78620952D01*
X194435457Y-78668571D01*
X194340219Y-78716190D01*
X193959266Y-78716190D01*
X195483076Y-79192380D02*
X194911647Y-79192380D01*
X195197361Y-79192380D02*
X195197361Y-78192380D01*
X195102123Y-78335238D01*
X195006885Y-78430476D01*
X194911647Y-78478095D01*
X195816409Y-78192380D02*
X196435457Y-78192380D01*
X196102123Y-78573333D01*
X196244980Y-78573333D01*
X196340219Y-78620952D01*
X196387838Y-78668571D01*
X196435457Y-78763809D01*
X196435457Y-79001904D01*
X196387838Y-79097142D01*
X196340219Y-79144761D01*
X196244980Y-79192380D01*
X195959266Y-79192380D01*
X195864028Y-79144761D01*
X195816409Y-79097142D01*
%TO.C,C42*%
X160529542Y-98382057D02*
X160577161Y-98429676D01*
X160624780Y-98572533D01*
X160624780Y-98667771D01*
X160577161Y-98810628D01*
X160481923Y-98905866D01*
X160386685Y-98953485D01*
X160196209Y-99001104D01*
X160053352Y-99001104D01*
X159862876Y-98953485D01*
X159767638Y-98905866D01*
X159672400Y-98810628D01*
X159624780Y-98667771D01*
X159624780Y-98572533D01*
X159672400Y-98429676D01*
X159720019Y-98382057D01*
X159958114Y-97524914D02*
X160624780Y-97524914D01*
X159577161Y-97763009D02*
X160291447Y-98001104D01*
X160291447Y-97382057D01*
X159720019Y-97048723D02*
X159672400Y-97001104D01*
X159624780Y-96905866D01*
X159624780Y-96667771D01*
X159672400Y-96572533D01*
X159720019Y-96524914D01*
X159815257Y-96477295D01*
X159910495Y-96477295D01*
X160053352Y-96524914D01*
X160624780Y-97096342D01*
X160624780Y-96477295D01*
D12*
%TO.C,S4*%
X160125380Y-77354047D02*
X160306809Y-77414523D01*
X160609190Y-77414523D01*
X160730142Y-77354047D01*
X160790619Y-77293571D01*
X160851095Y-77172619D01*
X160851095Y-77051666D01*
X160790619Y-76930714D01*
X160730142Y-76870238D01*
X160609190Y-76809761D01*
X160367285Y-76749285D01*
X160246333Y-76688809D01*
X160185857Y-76628333D01*
X160125380Y-76507380D01*
X160125380Y-76386428D01*
X160185857Y-76265476D01*
X160246333Y-76205000D01*
X160367285Y-76144523D01*
X160669666Y-76144523D01*
X160851095Y-76205000D01*
X161939666Y-76567857D02*
X161939666Y-77414523D01*
X161637285Y-76084047D02*
X161334904Y-76991190D01*
X162121095Y-76991190D01*
D11*
%TO.C,R25*%
X129635642Y-105990380D02*
X129302309Y-105514190D01*
X129064214Y-105990380D02*
X129064214Y-104990380D01*
X129445166Y-104990380D01*
X129540404Y-105038000D01*
X129588023Y-105085619D01*
X129635642Y-105180857D01*
X129635642Y-105323714D01*
X129588023Y-105418952D01*
X129540404Y-105466571D01*
X129445166Y-105514190D01*
X129064214Y-105514190D01*
X130016595Y-105085619D02*
X130064214Y-105038000D01*
X130159452Y-104990380D01*
X130397547Y-104990380D01*
X130492785Y-105038000D01*
X130540404Y-105085619D01*
X130588023Y-105180857D01*
X130588023Y-105276095D01*
X130540404Y-105418952D01*
X129968976Y-105990380D01*
X130588023Y-105990380D01*
X131492785Y-104990380D02*
X131016595Y-104990380D01*
X130968976Y-105466571D01*
X131016595Y-105418952D01*
X131111833Y-105371333D01*
X131349928Y-105371333D01*
X131445166Y-105418952D01*
X131492785Y-105466571D01*
X131540404Y-105561809D01*
X131540404Y-105799904D01*
X131492785Y-105895142D01*
X131445166Y-105942761D01*
X131349928Y-105990380D01*
X131111833Y-105990380D01*
X131016595Y-105942761D01*
X130968976Y-105895142D01*
%TO.C,R33*%
X171419780Y-54795657D02*
X170943590Y-55128990D01*
X171419780Y-55367085D02*
X170419780Y-55367085D01*
X170419780Y-54986133D01*
X170467400Y-54890895D01*
X170515019Y-54843276D01*
X170610257Y-54795657D01*
X170753114Y-54795657D01*
X170848352Y-54843276D01*
X170895971Y-54890895D01*
X170943590Y-54986133D01*
X170943590Y-55367085D01*
X170419780Y-54462323D02*
X170419780Y-53843276D01*
X170800733Y-54176609D01*
X170800733Y-54033752D01*
X170848352Y-53938514D01*
X170895971Y-53890895D01*
X170991209Y-53843276D01*
X171229304Y-53843276D01*
X171324542Y-53890895D01*
X171372161Y-53938514D01*
X171419780Y-54033752D01*
X171419780Y-54319466D01*
X171372161Y-54414704D01*
X171324542Y-54462323D01*
X170419780Y-53509942D02*
X170419780Y-52890895D01*
X170800733Y-53224228D01*
X170800733Y-53081371D01*
X170848352Y-52986133D01*
X170895971Y-52938514D01*
X170991209Y-52890895D01*
X171229304Y-52890895D01*
X171324542Y-52938514D01*
X171372161Y-52986133D01*
X171419780Y-53081371D01*
X171419780Y-53367085D01*
X171372161Y-53462323D01*
X171324542Y-53509942D01*
%TO.C,C46*%
X136821942Y-113361742D02*
X136774323Y-113409361D01*
X136631466Y-113456980D01*
X136536228Y-113456980D01*
X136393371Y-113409361D01*
X136298133Y-113314123D01*
X136250514Y-113218885D01*
X136202895Y-113028409D01*
X136202895Y-112885552D01*
X136250514Y-112695076D01*
X136298133Y-112599838D01*
X136393371Y-112504600D01*
X136536228Y-112456980D01*
X136631466Y-112456980D01*
X136774323Y-112504600D01*
X136821942Y-112552219D01*
X137679085Y-112790314D02*
X137679085Y-113456980D01*
X137440990Y-112409361D02*
X137202895Y-113123647D01*
X137821942Y-113123647D01*
X138631466Y-112456980D02*
X138440990Y-112456980D01*
X138345752Y-112504600D01*
X138298133Y-112552219D01*
X138202895Y-112695076D01*
X138155276Y-112885552D01*
X138155276Y-113266504D01*
X138202895Y-113361742D01*
X138250514Y-113409361D01*
X138345752Y-113456980D01*
X138536228Y-113456980D01*
X138631466Y-113409361D01*
X138679085Y-113361742D01*
X138726704Y-113266504D01*
X138726704Y-113028409D01*
X138679085Y-112933171D01*
X138631466Y-112885552D01*
X138536228Y-112837933D01*
X138345752Y-112837933D01*
X138250514Y-112885552D01*
X138202895Y-112933171D01*
X138155276Y-113028409D01*
%TO.C,J1*%
X184592283Y-43465760D02*
X185097359Y-43970836D01*
X185164703Y-44105523D01*
X185164703Y-44240210D01*
X185097359Y-44374897D01*
X185030016Y-44442240D01*
X186006497Y-43465760D02*
X185602436Y-43869821D01*
X185804466Y-43667790D02*
X185097359Y-42960683D01*
X185131031Y-43129042D01*
X185131031Y-43263729D01*
X185097359Y-43364744D01*
D12*
%TO.C,IC12*%
X132445276Y-109997723D02*
X132445276Y-108727723D01*
X133775752Y-109876771D02*
X133715276Y-109937247D01*
X133533847Y-109997723D01*
X133412895Y-109997723D01*
X133231466Y-109937247D01*
X133110514Y-109816295D01*
X133050038Y-109695342D01*
X132989561Y-109453438D01*
X132989561Y-109272009D01*
X133050038Y-109030104D01*
X133110514Y-108909152D01*
X133231466Y-108788200D01*
X133412895Y-108727723D01*
X133533847Y-108727723D01*
X133715276Y-108788200D01*
X133775752Y-108848676D01*
X134985276Y-109997723D02*
X134259561Y-109997723D01*
X134622419Y-109997723D02*
X134622419Y-108727723D01*
X134501466Y-108909152D01*
X134380514Y-109030104D01*
X134259561Y-109090580D01*
X135469085Y-108848676D02*
X135529561Y-108788200D01*
X135650514Y-108727723D01*
X135952895Y-108727723D01*
X136073847Y-108788200D01*
X136134323Y-108848676D01*
X136194800Y-108969628D01*
X136194800Y-109090580D01*
X136134323Y-109272009D01*
X135408609Y-109997723D01*
X136194800Y-109997723D01*
D11*
%TO.C,U7*%
X175056895Y-60971180D02*
X175056895Y-61780704D01*
X175104514Y-61875942D01*
X175152133Y-61923561D01*
X175247371Y-61971180D01*
X175437847Y-61971180D01*
X175533085Y-61923561D01*
X175580704Y-61875942D01*
X175628323Y-61780704D01*
X175628323Y-60971180D01*
X176009276Y-60971180D02*
X176675942Y-60971180D01*
X176247371Y-61971180D01*
D12*
%TO.C,S2*%
X151317380Y-63894047D02*
X151498809Y-63954523D01*
X151801190Y-63954523D01*
X151922142Y-63894047D01*
X151982619Y-63833571D01*
X152043095Y-63712619D01*
X152043095Y-63591666D01*
X151982619Y-63470714D01*
X151922142Y-63410238D01*
X151801190Y-63349761D01*
X151559285Y-63289285D01*
X151438333Y-63228809D01*
X151377857Y-63168333D01*
X151317380Y-63047380D01*
X151317380Y-62926428D01*
X151377857Y-62805476D01*
X151438333Y-62745000D01*
X151559285Y-62684523D01*
X151861666Y-62684523D01*
X152043095Y-62745000D01*
X152526904Y-62805476D02*
X152587380Y-62745000D01*
X152708333Y-62684523D01*
X153010714Y-62684523D01*
X153131666Y-62745000D01*
X153192142Y-62805476D01*
X153252619Y-62926428D01*
X153252619Y-63047380D01*
X153192142Y-63228809D01*
X152466428Y-63954523D01*
X153252619Y-63954523D01*
D11*
%TO.C,J3*%
X91800920Y-88766717D02*
X92419509Y-89123860D01*
X92519418Y-89236528D01*
X92554277Y-89366626D01*
X92524088Y-89514153D01*
X92476469Y-89596632D01*
X91991396Y-88436803D02*
X92300920Y-87900692D01*
X92464168Y-88379843D01*
X92535596Y-88256125D01*
X92624455Y-88197456D01*
X92689503Y-88180026D01*
X92795791Y-88186406D01*
X93001988Y-88305454D01*
X93060657Y-88394312D01*
X93078087Y-88459361D01*
X93071707Y-88565649D01*
X92928850Y-88813085D01*
X92839992Y-88871754D01*
X92774943Y-88889184D01*
%TO.C,TP2*%
X182532495Y-93025980D02*
X183103923Y-93025980D01*
X182818209Y-94025980D02*
X182818209Y-93025980D01*
X183437257Y-94025980D02*
X183437257Y-93025980D01*
X183818209Y-93025980D01*
X183913447Y-93073600D01*
X183961066Y-93121219D01*
X184008685Y-93216457D01*
X184008685Y-93359314D01*
X183961066Y-93454552D01*
X183913447Y-93502171D01*
X183818209Y-93549790D01*
X183437257Y-93549790D01*
X184389638Y-93121219D02*
X184437257Y-93073600D01*
X184532495Y-93025980D01*
X184770590Y-93025980D01*
X184865828Y-93073600D01*
X184913447Y-93121219D01*
X184961066Y-93216457D01*
X184961066Y-93311695D01*
X184913447Y-93454552D01*
X184342019Y-94025980D01*
X184961066Y-94025980D01*
%TO.C,C66*%
X171762142Y-79322142D02*
X171714523Y-79369761D01*
X171571666Y-79417380D01*
X171476428Y-79417380D01*
X171333571Y-79369761D01*
X171238333Y-79274523D01*
X171190714Y-79179285D01*
X171143095Y-78988809D01*
X171143095Y-78845952D01*
X171190714Y-78655476D01*
X171238333Y-78560238D01*
X171333571Y-78465000D01*
X171476428Y-78417380D01*
X171571666Y-78417380D01*
X171714523Y-78465000D01*
X171762142Y-78512619D01*
X172619285Y-78417380D02*
X172428809Y-78417380D01*
X172333571Y-78465000D01*
X172285952Y-78512619D01*
X172190714Y-78655476D01*
X172143095Y-78845952D01*
X172143095Y-79226904D01*
X172190714Y-79322142D01*
X172238333Y-79369761D01*
X172333571Y-79417380D01*
X172524047Y-79417380D01*
X172619285Y-79369761D01*
X172666904Y-79322142D01*
X172714523Y-79226904D01*
X172714523Y-78988809D01*
X172666904Y-78893571D01*
X172619285Y-78845952D01*
X172524047Y-78798333D01*
X172333571Y-78798333D01*
X172238333Y-78845952D01*
X172190714Y-78893571D01*
X172143095Y-78988809D01*
X173571666Y-78417380D02*
X173381190Y-78417380D01*
X173285952Y-78465000D01*
X173238333Y-78512619D01*
X173143095Y-78655476D01*
X173095476Y-78845952D01*
X173095476Y-79226904D01*
X173143095Y-79322142D01*
X173190714Y-79369761D01*
X173285952Y-79417380D01*
X173476428Y-79417380D01*
X173571666Y-79369761D01*
X173619285Y-79322142D01*
X173666904Y-79226904D01*
X173666904Y-78988809D01*
X173619285Y-78893571D01*
X173571666Y-78845952D01*
X173476428Y-78798333D01*
X173285952Y-78798333D01*
X173190714Y-78845952D01*
X173143095Y-78893571D01*
X173095476Y-78988809D01*
%TO.C,R4*%
X169733933Y-91130380D02*
X169400600Y-90654190D01*
X169162504Y-91130380D02*
X169162504Y-90130380D01*
X169543457Y-90130380D01*
X169638695Y-90178000D01*
X169686314Y-90225619D01*
X169733933Y-90320857D01*
X169733933Y-90463714D01*
X169686314Y-90558952D01*
X169638695Y-90606571D01*
X169543457Y-90654190D01*
X169162504Y-90654190D01*
X170591076Y-90463714D02*
X170591076Y-91130380D01*
X170352980Y-90082761D02*
X170114885Y-90797047D01*
X170733933Y-90797047D01*
%TO.C,R5*%
X169911733Y-88996780D02*
X169578400Y-88520590D01*
X169340304Y-88996780D02*
X169340304Y-87996780D01*
X169721257Y-87996780D01*
X169816495Y-88044400D01*
X169864114Y-88092019D01*
X169911733Y-88187257D01*
X169911733Y-88330114D01*
X169864114Y-88425352D01*
X169816495Y-88472971D01*
X169721257Y-88520590D01*
X169340304Y-88520590D01*
X170816495Y-87996780D02*
X170340304Y-87996780D01*
X170292685Y-88472971D01*
X170340304Y-88425352D01*
X170435542Y-88377733D01*
X170673638Y-88377733D01*
X170768876Y-88425352D01*
X170816495Y-88472971D01*
X170864114Y-88568209D01*
X170864114Y-88806304D01*
X170816495Y-88901542D01*
X170768876Y-88949161D01*
X170673638Y-88996780D01*
X170435542Y-88996780D01*
X170340304Y-88949161D01*
X170292685Y-88901542D01*
%TO.C,TP11*%
X200420504Y-119035580D02*
X200991933Y-119035580D01*
X200706219Y-120035580D02*
X200706219Y-119035580D01*
X201325266Y-120035580D02*
X201325266Y-119035580D01*
X201706219Y-119035580D01*
X201801457Y-119083200D01*
X201849076Y-119130819D01*
X201896695Y-119226057D01*
X201896695Y-119368914D01*
X201849076Y-119464152D01*
X201801457Y-119511771D01*
X201706219Y-119559390D01*
X201325266Y-119559390D01*
X202849076Y-120035580D02*
X202277647Y-120035580D01*
X202563361Y-120035580D02*
X202563361Y-119035580D01*
X202468123Y-119178438D01*
X202372885Y-119273676D01*
X202277647Y-119321295D01*
X203801457Y-120035580D02*
X203230028Y-120035580D01*
X203515742Y-120035580D02*
X203515742Y-119035580D01*
X203420504Y-119178438D01*
X203325266Y-119273676D01*
X203230028Y-119321295D01*
%TO.C,C64*%
X103049342Y-84640657D02*
X103096961Y-84688276D01*
X103144580Y-84831133D01*
X103144580Y-84926371D01*
X103096961Y-85069228D01*
X103001723Y-85164466D01*
X102906485Y-85212085D01*
X102716009Y-85259704D01*
X102573152Y-85259704D01*
X102382676Y-85212085D01*
X102287438Y-85164466D01*
X102192200Y-85069228D01*
X102144580Y-84926371D01*
X102144580Y-84831133D01*
X102192200Y-84688276D01*
X102239819Y-84640657D01*
X102144580Y-83783514D02*
X102144580Y-83973990D01*
X102192200Y-84069228D01*
X102239819Y-84116847D01*
X102382676Y-84212085D01*
X102573152Y-84259704D01*
X102954104Y-84259704D01*
X103049342Y-84212085D01*
X103096961Y-84164466D01*
X103144580Y-84069228D01*
X103144580Y-83878752D01*
X103096961Y-83783514D01*
X103049342Y-83735895D01*
X102954104Y-83688276D01*
X102716009Y-83688276D01*
X102620771Y-83735895D01*
X102573152Y-83783514D01*
X102525533Y-83878752D01*
X102525533Y-84069228D01*
X102573152Y-84164466D01*
X102620771Y-84212085D01*
X102716009Y-84259704D01*
X102477914Y-82831133D02*
X103144580Y-82831133D01*
X102096961Y-83069228D02*
X102811247Y-83307323D01*
X102811247Y-82688276D01*
%TO.C,TP7*%
X166911495Y-54748180D02*
X167482923Y-54748180D01*
X167197209Y-55748180D02*
X167197209Y-54748180D01*
X167816257Y-55748180D02*
X167816257Y-54748180D01*
X168197209Y-54748180D01*
X168292447Y-54795800D01*
X168340066Y-54843419D01*
X168387685Y-54938657D01*
X168387685Y-55081514D01*
X168340066Y-55176752D01*
X168292447Y-55224371D01*
X168197209Y-55271990D01*
X167816257Y-55271990D01*
X168721019Y-54748180D02*
X169387685Y-54748180D01*
X168959114Y-55748180D01*
%TO.C,U2*%
X96520095Y-97496380D02*
X96520095Y-98305904D01*
X96567714Y-98401142D01*
X96615333Y-98448761D01*
X96710571Y-98496380D01*
X96901047Y-98496380D01*
X96996285Y-98448761D01*
X97043904Y-98401142D01*
X97091523Y-98305904D01*
X97091523Y-97496380D01*
X97520095Y-97591619D02*
X97567714Y-97544000D01*
X97662952Y-97496380D01*
X97901047Y-97496380D01*
X97996285Y-97544000D01*
X98043904Y-97591619D01*
X98091523Y-97686857D01*
X98091523Y-97782095D01*
X98043904Y-97924952D01*
X97472476Y-98496380D01*
X98091523Y-98496380D01*
%TO.C,C49*%
X171035742Y-83643742D02*
X170988123Y-83691361D01*
X170845266Y-83738980D01*
X170750028Y-83738980D01*
X170607171Y-83691361D01*
X170511933Y-83596123D01*
X170464314Y-83500885D01*
X170416695Y-83310409D01*
X170416695Y-83167552D01*
X170464314Y-82977076D01*
X170511933Y-82881838D01*
X170607171Y-82786600D01*
X170750028Y-82738980D01*
X170845266Y-82738980D01*
X170988123Y-82786600D01*
X171035742Y-82834219D01*
X171892885Y-83072314D02*
X171892885Y-83738980D01*
X171654790Y-82691361D02*
X171416695Y-83405647D01*
X172035742Y-83405647D01*
X172464314Y-83738980D02*
X172654790Y-83738980D01*
X172750028Y-83691361D01*
X172797647Y-83643742D01*
X172892885Y-83500885D01*
X172940504Y-83310409D01*
X172940504Y-82929457D01*
X172892885Y-82834219D01*
X172845266Y-82786600D01*
X172750028Y-82738980D01*
X172559552Y-82738980D01*
X172464314Y-82786600D01*
X172416695Y-82834219D01*
X172369076Y-82929457D01*
X172369076Y-83167552D01*
X172416695Y-83262790D01*
X172464314Y-83310409D01*
X172559552Y-83358028D01*
X172750028Y-83358028D01*
X172845266Y-83310409D01*
X172892885Y-83262790D01*
X172940504Y-83167552D01*
%TO.C,C54*%
X94460542Y-84132657D02*
X94508161Y-84180276D01*
X94555780Y-84323133D01*
X94555780Y-84418371D01*
X94508161Y-84561228D01*
X94412923Y-84656466D01*
X94317685Y-84704085D01*
X94127209Y-84751704D01*
X93984352Y-84751704D01*
X93793876Y-84704085D01*
X93698638Y-84656466D01*
X93603400Y-84561228D01*
X93555780Y-84418371D01*
X93555780Y-84323133D01*
X93603400Y-84180276D01*
X93651019Y-84132657D01*
X93555780Y-83227895D02*
X93555780Y-83704085D01*
X94031971Y-83751704D01*
X93984352Y-83704085D01*
X93936733Y-83608847D01*
X93936733Y-83370752D01*
X93984352Y-83275514D01*
X94031971Y-83227895D01*
X94127209Y-83180276D01*
X94365304Y-83180276D01*
X94460542Y-83227895D01*
X94508161Y-83275514D01*
X94555780Y-83370752D01*
X94555780Y-83608847D01*
X94508161Y-83704085D01*
X94460542Y-83751704D01*
X93889114Y-82323133D02*
X94555780Y-82323133D01*
X93508161Y-82561228D02*
X94222447Y-82799323D01*
X94222447Y-82180276D01*
%TO.C,C51*%
X98188542Y-81332342D02*
X98140923Y-81379961D01*
X97998066Y-81427580D01*
X97902828Y-81427580D01*
X97759971Y-81379961D01*
X97664733Y-81284723D01*
X97617114Y-81189485D01*
X97569495Y-80999009D01*
X97569495Y-80856152D01*
X97617114Y-80665676D01*
X97664733Y-80570438D01*
X97759971Y-80475200D01*
X97902828Y-80427580D01*
X97998066Y-80427580D01*
X98140923Y-80475200D01*
X98188542Y-80522819D01*
X99093304Y-80427580D02*
X98617114Y-80427580D01*
X98569495Y-80903771D01*
X98617114Y-80856152D01*
X98712352Y-80808533D01*
X98950447Y-80808533D01*
X99045685Y-80856152D01*
X99093304Y-80903771D01*
X99140923Y-80999009D01*
X99140923Y-81237104D01*
X99093304Y-81332342D01*
X99045685Y-81379961D01*
X98950447Y-81427580D01*
X98712352Y-81427580D01*
X98617114Y-81379961D01*
X98569495Y-81332342D01*
X100093304Y-81427580D02*
X99521876Y-81427580D01*
X99807590Y-81427580D02*
X99807590Y-80427580D01*
X99712352Y-80570438D01*
X99617114Y-80665676D01*
X99521876Y-80713295D01*
%TO.C,R36*%
X122623342Y-70987180D02*
X122290009Y-70510990D01*
X122051914Y-70987180D02*
X122051914Y-69987180D01*
X122432866Y-69987180D01*
X122528104Y-70034800D01*
X122575723Y-70082419D01*
X122623342Y-70177657D01*
X122623342Y-70320514D01*
X122575723Y-70415752D01*
X122528104Y-70463371D01*
X122432866Y-70510990D01*
X122051914Y-70510990D01*
X122956676Y-69987180D02*
X123575723Y-69987180D01*
X123242390Y-70368133D01*
X123385247Y-70368133D01*
X123480485Y-70415752D01*
X123528104Y-70463371D01*
X123575723Y-70558609D01*
X123575723Y-70796704D01*
X123528104Y-70891942D01*
X123480485Y-70939561D01*
X123385247Y-70987180D01*
X123099533Y-70987180D01*
X123004295Y-70939561D01*
X122956676Y-70891942D01*
X124432866Y-69987180D02*
X124242390Y-69987180D01*
X124147152Y-70034800D01*
X124099533Y-70082419D01*
X124004295Y-70225276D01*
X123956676Y-70415752D01*
X123956676Y-70796704D01*
X124004295Y-70891942D01*
X124051914Y-70939561D01*
X124147152Y-70987180D01*
X124337628Y-70987180D01*
X124432866Y-70939561D01*
X124480485Y-70891942D01*
X124528104Y-70796704D01*
X124528104Y-70558609D01*
X124480485Y-70463371D01*
X124432866Y-70415752D01*
X124337628Y-70368133D01*
X124147152Y-70368133D01*
X124051914Y-70415752D01*
X124004295Y-70463371D01*
X123956676Y-70558609D01*
%TO.C,C10*%
X129735342Y-68124342D02*
X129687723Y-68171961D01*
X129544866Y-68219580D01*
X129449628Y-68219580D01*
X129306771Y-68171961D01*
X129211533Y-68076723D01*
X129163914Y-67981485D01*
X129116295Y-67791009D01*
X129116295Y-67648152D01*
X129163914Y-67457676D01*
X129211533Y-67362438D01*
X129306771Y-67267200D01*
X129449628Y-67219580D01*
X129544866Y-67219580D01*
X129687723Y-67267200D01*
X129735342Y-67314819D01*
X130687723Y-68219580D02*
X130116295Y-68219580D01*
X130402009Y-68219580D02*
X130402009Y-67219580D01*
X130306771Y-67362438D01*
X130211533Y-67457676D01*
X130116295Y-67505295D01*
X131306771Y-67219580D02*
X131402009Y-67219580D01*
X131497247Y-67267200D01*
X131544866Y-67314819D01*
X131592485Y-67410057D01*
X131640104Y-67600533D01*
X131640104Y-67838628D01*
X131592485Y-68029104D01*
X131544866Y-68124342D01*
X131497247Y-68171961D01*
X131402009Y-68219580D01*
X131306771Y-68219580D01*
X131211533Y-68171961D01*
X131163914Y-68124342D01*
X131116295Y-68029104D01*
X131068676Y-67838628D01*
X131068676Y-67600533D01*
X131116295Y-67410057D01*
X131163914Y-67314819D01*
X131211533Y-67267200D01*
X131306771Y-67219580D01*
%TO.C,C23*%
X154474942Y-68730342D02*
X154427323Y-68777961D01*
X154284466Y-68825580D01*
X154189228Y-68825580D01*
X154046371Y-68777961D01*
X153951133Y-68682723D01*
X153903514Y-68587485D01*
X153855895Y-68397009D01*
X153855895Y-68254152D01*
X153903514Y-68063676D01*
X153951133Y-67968438D01*
X154046371Y-67873200D01*
X154189228Y-67825580D01*
X154284466Y-67825580D01*
X154427323Y-67873200D01*
X154474942Y-67920819D01*
X154855895Y-67920819D02*
X154903514Y-67873200D01*
X154998752Y-67825580D01*
X155236847Y-67825580D01*
X155332085Y-67873200D01*
X155379704Y-67920819D01*
X155427323Y-68016057D01*
X155427323Y-68111295D01*
X155379704Y-68254152D01*
X154808276Y-68825580D01*
X155427323Y-68825580D01*
X155760657Y-67825580D02*
X156379704Y-67825580D01*
X156046371Y-68206533D01*
X156189228Y-68206533D01*
X156284466Y-68254152D01*
X156332085Y-68301771D01*
X156379704Y-68397009D01*
X156379704Y-68635104D01*
X156332085Y-68730342D01*
X156284466Y-68777961D01*
X156189228Y-68825580D01*
X155903514Y-68825580D01*
X155808276Y-68777961D01*
X155760657Y-68730342D01*
%TO.C,C68*%
X118965742Y-70998142D02*
X118918123Y-71045761D01*
X118775266Y-71093380D01*
X118680028Y-71093380D01*
X118537171Y-71045761D01*
X118441933Y-70950523D01*
X118394314Y-70855285D01*
X118346695Y-70664809D01*
X118346695Y-70521952D01*
X118394314Y-70331476D01*
X118441933Y-70236238D01*
X118537171Y-70141000D01*
X118680028Y-70093380D01*
X118775266Y-70093380D01*
X118918123Y-70141000D01*
X118965742Y-70188619D01*
X119822885Y-70093380D02*
X119632409Y-70093380D01*
X119537171Y-70141000D01*
X119489552Y-70188619D01*
X119394314Y-70331476D01*
X119346695Y-70521952D01*
X119346695Y-70902904D01*
X119394314Y-70998142D01*
X119441933Y-71045761D01*
X119537171Y-71093380D01*
X119727647Y-71093380D01*
X119822885Y-71045761D01*
X119870504Y-70998142D01*
X119918123Y-70902904D01*
X119918123Y-70664809D01*
X119870504Y-70569571D01*
X119822885Y-70521952D01*
X119727647Y-70474333D01*
X119537171Y-70474333D01*
X119441933Y-70521952D01*
X119394314Y-70569571D01*
X119346695Y-70664809D01*
X120489552Y-70521952D02*
X120394314Y-70474333D01*
X120346695Y-70426714D01*
X120299076Y-70331476D01*
X120299076Y-70283857D01*
X120346695Y-70188619D01*
X120394314Y-70141000D01*
X120489552Y-70093380D01*
X120680028Y-70093380D01*
X120775266Y-70141000D01*
X120822885Y-70188619D01*
X120870504Y-70283857D01*
X120870504Y-70331476D01*
X120822885Y-70426714D01*
X120775266Y-70474333D01*
X120680028Y-70521952D01*
X120489552Y-70521952D01*
X120394314Y-70569571D01*
X120346695Y-70617190D01*
X120299076Y-70712428D01*
X120299076Y-70902904D01*
X120346695Y-70998142D01*
X120394314Y-71045761D01*
X120489552Y-71093380D01*
X120680028Y-71093380D01*
X120775266Y-71045761D01*
X120822885Y-70998142D01*
X120870504Y-70902904D01*
X120870504Y-70712428D01*
X120822885Y-70617190D01*
X120775266Y-70569571D01*
X120680028Y-70521952D01*
D12*
%TO.C,IC6*%
X144567123Y-112415561D02*
X143297123Y-112415561D01*
X144446171Y-111085085D02*
X144506647Y-111145561D01*
X144567123Y-111326990D01*
X144567123Y-111447942D01*
X144506647Y-111629371D01*
X144385695Y-111750323D01*
X144264742Y-111810800D01*
X144022838Y-111871276D01*
X143841409Y-111871276D01*
X143599504Y-111810800D01*
X143478552Y-111750323D01*
X143357600Y-111629371D01*
X143297123Y-111447942D01*
X143297123Y-111326990D01*
X143357600Y-111145561D01*
X143418076Y-111085085D01*
X143297123Y-109996514D02*
X143297123Y-110238419D01*
X143357600Y-110359371D01*
X143418076Y-110419847D01*
X143599504Y-110540800D01*
X143841409Y-110601276D01*
X144325219Y-110601276D01*
X144446171Y-110540800D01*
X144506647Y-110480323D01*
X144567123Y-110359371D01*
X144567123Y-110117466D01*
X144506647Y-109996514D01*
X144446171Y-109936038D01*
X144325219Y-109875561D01*
X144022838Y-109875561D01*
X143901885Y-109936038D01*
X143841409Y-109996514D01*
X143780933Y-110117466D01*
X143780933Y-110359371D01*
X143841409Y-110480323D01*
X143901885Y-110540800D01*
X144022838Y-110601276D01*
D11*
%TO.C,C17*%
X165396942Y-69038742D02*
X165349323Y-69086361D01*
X165206466Y-69133980D01*
X165111228Y-69133980D01*
X164968371Y-69086361D01*
X164873133Y-68991123D01*
X164825514Y-68895885D01*
X164777895Y-68705409D01*
X164777895Y-68562552D01*
X164825514Y-68372076D01*
X164873133Y-68276838D01*
X164968371Y-68181600D01*
X165111228Y-68133980D01*
X165206466Y-68133980D01*
X165349323Y-68181600D01*
X165396942Y-68229219D01*
X166349323Y-69133980D02*
X165777895Y-69133980D01*
X166063609Y-69133980D02*
X166063609Y-68133980D01*
X165968371Y-68276838D01*
X165873133Y-68372076D01*
X165777895Y-68419695D01*
X166682657Y-68133980D02*
X167349323Y-68133980D01*
X166920752Y-69133980D01*
%TO.C,C2*%
X91898742Y-101334866D02*
X91946361Y-101382485D01*
X91993980Y-101525342D01*
X91993980Y-101620580D01*
X91946361Y-101763438D01*
X91851123Y-101858676D01*
X91755885Y-101906295D01*
X91565409Y-101953914D01*
X91422552Y-101953914D01*
X91232076Y-101906295D01*
X91136838Y-101858676D01*
X91041600Y-101763438D01*
X90993980Y-101620580D01*
X90993980Y-101525342D01*
X91041600Y-101382485D01*
X91089219Y-101334866D01*
X91089219Y-100953914D02*
X91041600Y-100906295D01*
X90993980Y-100811057D01*
X90993980Y-100572961D01*
X91041600Y-100477723D01*
X91089219Y-100430104D01*
X91184457Y-100382485D01*
X91279695Y-100382485D01*
X91422552Y-100430104D01*
X91993980Y-101001533D01*
X91993980Y-100382485D01*
%TO.C,C48*%
X109405142Y-80973142D02*
X109357523Y-81020761D01*
X109214666Y-81068380D01*
X109119428Y-81068380D01*
X108976571Y-81020761D01*
X108881333Y-80925523D01*
X108833714Y-80830285D01*
X108786095Y-80639809D01*
X108786095Y-80496952D01*
X108833714Y-80306476D01*
X108881333Y-80211238D01*
X108976571Y-80116000D01*
X109119428Y-80068380D01*
X109214666Y-80068380D01*
X109357523Y-80116000D01*
X109405142Y-80163619D01*
X110262285Y-80401714D02*
X110262285Y-81068380D01*
X110024190Y-80020761D02*
X109786095Y-80735047D01*
X110405142Y-80735047D01*
X110928952Y-80496952D02*
X110833714Y-80449333D01*
X110786095Y-80401714D01*
X110738476Y-80306476D01*
X110738476Y-80258857D01*
X110786095Y-80163619D01*
X110833714Y-80116000D01*
X110928952Y-80068380D01*
X111119428Y-80068380D01*
X111214666Y-80116000D01*
X111262285Y-80163619D01*
X111309904Y-80258857D01*
X111309904Y-80306476D01*
X111262285Y-80401714D01*
X111214666Y-80449333D01*
X111119428Y-80496952D01*
X110928952Y-80496952D01*
X110833714Y-80544571D01*
X110786095Y-80592190D01*
X110738476Y-80687428D01*
X110738476Y-80877904D01*
X110786095Y-80973142D01*
X110833714Y-81020761D01*
X110928952Y-81068380D01*
X111119428Y-81068380D01*
X111214666Y-81020761D01*
X111262285Y-80973142D01*
X111309904Y-80877904D01*
X111309904Y-80687428D01*
X111262285Y-80592190D01*
X111214666Y-80544571D01*
X111119428Y-80496952D01*
%TO.C,R30*%
X112212380Y-63558657D02*
X111736190Y-63891990D01*
X112212380Y-64130085D02*
X111212380Y-64130085D01*
X111212380Y-63749133D01*
X111260000Y-63653895D01*
X111307619Y-63606276D01*
X111402857Y-63558657D01*
X111545714Y-63558657D01*
X111640952Y-63606276D01*
X111688571Y-63653895D01*
X111736190Y-63749133D01*
X111736190Y-64130085D01*
X111212380Y-63225323D02*
X111212380Y-62606276D01*
X111593333Y-62939609D01*
X111593333Y-62796752D01*
X111640952Y-62701514D01*
X111688571Y-62653895D01*
X111783809Y-62606276D01*
X112021904Y-62606276D01*
X112117142Y-62653895D01*
X112164761Y-62701514D01*
X112212380Y-62796752D01*
X112212380Y-63082466D01*
X112164761Y-63177704D01*
X112117142Y-63225323D01*
X111212380Y-61987228D02*
X111212380Y-61891990D01*
X111260000Y-61796752D01*
X111307619Y-61749133D01*
X111402857Y-61701514D01*
X111593333Y-61653895D01*
X111831428Y-61653895D01*
X112021904Y-61701514D01*
X112117142Y-61749133D01*
X112164761Y-61796752D01*
X112212380Y-61891990D01*
X112212380Y-61987228D01*
X112164761Y-62082466D01*
X112117142Y-62130085D01*
X112021904Y-62177704D01*
X111831428Y-62225323D01*
X111593333Y-62225323D01*
X111402857Y-62177704D01*
X111307619Y-62130085D01*
X111260000Y-62082466D01*
X111212380Y-61987228D01*
%TO.C,TP3*%
X69350095Y-83450180D02*
X69921523Y-83450180D01*
X69635809Y-84450180D02*
X69635809Y-83450180D01*
X70254857Y-84450180D02*
X70254857Y-83450180D01*
X70635809Y-83450180D01*
X70731047Y-83497800D01*
X70778666Y-83545419D01*
X70826285Y-83640657D01*
X70826285Y-83783514D01*
X70778666Y-83878752D01*
X70731047Y-83926371D01*
X70635809Y-83973990D01*
X70254857Y-83973990D01*
X71159619Y-83450180D02*
X71778666Y-83450180D01*
X71445333Y-83831133D01*
X71588190Y-83831133D01*
X71683428Y-83878752D01*
X71731047Y-83926371D01*
X71778666Y-84021609D01*
X71778666Y-84259704D01*
X71731047Y-84354942D01*
X71683428Y-84402561D01*
X71588190Y-84450180D01*
X71302476Y-84450180D01*
X71207238Y-84402561D01*
X71159619Y-84354942D01*
D12*
%TO.C,IC10*%
X145932676Y-105527323D02*
X145932676Y-104257323D01*
X147263152Y-105406371D02*
X147202676Y-105466847D01*
X147021247Y-105527323D01*
X146900295Y-105527323D01*
X146718866Y-105466847D01*
X146597914Y-105345895D01*
X146537438Y-105224942D01*
X146476961Y-104983038D01*
X146476961Y-104801609D01*
X146537438Y-104559704D01*
X146597914Y-104438752D01*
X146718866Y-104317800D01*
X146900295Y-104257323D01*
X147021247Y-104257323D01*
X147202676Y-104317800D01*
X147263152Y-104378276D01*
X148472676Y-105527323D02*
X147746961Y-105527323D01*
X148109819Y-105527323D02*
X148109819Y-104257323D01*
X147988866Y-104438752D01*
X147867914Y-104559704D01*
X147746961Y-104620180D01*
X149258866Y-104257323D02*
X149379819Y-104257323D01*
X149500771Y-104317800D01*
X149561247Y-104378276D01*
X149621723Y-104499228D01*
X149682200Y-104741133D01*
X149682200Y-105043514D01*
X149621723Y-105285419D01*
X149561247Y-105406371D01*
X149500771Y-105466847D01*
X149379819Y-105527323D01*
X149258866Y-105527323D01*
X149137914Y-105466847D01*
X149077438Y-105406371D01*
X149016961Y-105285419D01*
X148956485Y-105043514D01*
X148956485Y-104741133D01*
X149016961Y-104499228D01*
X149077438Y-104378276D01*
X149137914Y-104317800D01*
X149258866Y-104257323D01*
D11*
%TO.C,BT2*%
X80915671Y-64922311D02*
X81050358Y-64854967D01*
X81117701Y-64854967D01*
X81218717Y-64888639D01*
X81319732Y-64989654D01*
X81353404Y-65090670D01*
X81353404Y-65158013D01*
X81319732Y-65259028D01*
X81050358Y-65528402D01*
X80343251Y-64821296D01*
X80578953Y-64585593D01*
X80679969Y-64551922D01*
X80747312Y-64551922D01*
X80848327Y-64585593D01*
X80915671Y-64652937D01*
X80949343Y-64753952D01*
X80949343Y-64821296D01*
X80915671Y-64922311D01*
X80679969Y-65158013D01*
X80949343Y-64215204D02*
X81353404Y-63811143D01*
X81858480Y-64720280D02*
X81151373Y-64013173D01*
X81622778Y-63676456D02*
X81622778Y-63609112D01*
X81656450Y-63508097D01*
X81824808Y-63339738D01*
X81925824Y-63306067D01*
X81993167Y-63306067D01*
X82094182Y-63339738D01*
X82161526Y-63407082D01*
X82228869Y-63541769D01*
X82228869Y-64349891D01*
X82666602Y-63912158D01*
%TO.C,TP10*%
X90133704Y-47483780D02*
X90705133Y-47483780D01*
X90419419Y-48483780D02*
X90419419Y-47483780D01*
X91038466Y-48483780D02*
X91038466Y-47483780D01*
X91419419Y-47483780D01*
X91514657Y-47531400D01*
X91562276Y-47579019D01*
X91609895Y-47674257D01*
X91609895Y-47817114D01*
X91562276Y-47912352D01*
X91514657Y-47959971D01*
X91419419Y-48007590D01*
X91038466Y-48007590D01*
X92562276Y-48483780D02*
X91990847Y-48483780D01*
X92276561Y-48483780D02*
X92276561Y-47483780D01*
X92181323Y-47626638D01*
X92086085Y-47721876D01*
X91990847Y-47769495D01*
X93181323Y-47483780D02*
X93276561Y-47483780D01*
X93371800Y-47531400D01*
X93419419Y-47579019D01*
X93467038Y-47674257D01*
X93514657Y-47864733D01*
X93514657Y-48102828D01*
X93467038Y-48293304D01*
X93419419Y-48388542D01*
X93371800Y-48436161D01*
X93276561Y-48483780D01*
X93181323Y-48483780D01*
X93086085Y-48436161D01*
X93038466Y-48388542D01*
X92990847Y-48293304D01*
X92943228Y-48102828D01*
X92943228Y-47864733D01*
X92990847Y-47674257D01*
X93038466Y-47579019D01*
X93086085Y-47531400D01*
X93181323Y-47483780D01*
%TO.C,C6*%
X194016333Y-69520142D02*
X193968714Y-69567761D01*
X193825857Y-69615380D01*
X193730619Y-69615380D01*
X193587761Y-69567761D01*
X193492523Y-69472523D01*
X193444904Y-69377285D01*
X193397285Y-69186809D01*
X193397285Y-69043952D01*
X193444904Y-68853476D01*
X193492523Y-68758238D01*
X193587761Y-68663000D01*
X193730619Y-68615380D01*
X193825857Y-68615380D01*
X193968714Y-68663000D01*
X194016333Y-68710619D01*
X194873476Y-68615380D02*
X194683000Y-68615380D01*
X194587761Y-68663000D01*
X194540142Y-68710619D01*
X194444904Y-68853476D01*
X194397285Y-69043952D01*
X194397285Y-69424904D01*
X194444904Y-69520142D01*
X194492523Y-69567761D01*
X194587761Y-69615380D01*
X194778238Y-69615380D01*
X194873476Y-69567761D01*
X194921095Y-69520142D01*
X194968714Y-69424904D01*
X194968714Y-69186809D01*
X194921095Y-69091571D01*
X194873476Y-69043952D01*
X194778238Y-68996333D01*
X194587761Y-68996333D01*
X194492523Y-69043952D01*
X194444904Y-69091571D01*
X194397285Y-69186809D01*
%TO.C,C55*%
X161012142Y-92667057D02*
X161059761Y-92714676D01*
X161107380Y-92857533D01*
X161107380Y-92952771D01*
X161059761Y-93095628D01*
X160964523Y-93190866D01*
X160869285Y-93238485D01*
X160678809Y-93286104D01*
X160535952Y-93286104D01*
X160345476Y-93238485D01*
X160250238Y-93190866D01*
X160155000Y-93095628D01*
X160107380Y-92952771D01*
X160107380Y-92857533D01*
X160155000Y-92714676D01*
X160202619Y-92667057D01*
X160107380Y-91762295D02*
X160107380Y-92238485D01*
X160583571Y-92286104D01*
X160535952Y-92238485D01*
X160488333Y-92143247D01*
X160488333Y-91905152D01*
X160535952Y-91809914D01*
X160583571Y-91762295D01*
X160678809Y-91714676D01*
X160916904Y-91714676D01*
X161012142Y-91762295D01*
X161059761Y-91809914D01*
X161107380Y-91905152D01*
X161107380Y-92143247D01*
X161059761Y-92238485D01*
X161012142Y-92286104D01*
X160107380Y-90809914D02*
X160107380Y-91286104D01*
X160583571Y-91333723D01*
X160535952Y-91286104D01*
X160488333Y-91190866D01*
X160488333Y-90952771D01*
X160535952Y-90857533D01*
X160583571Y-90809914D01*
X160678809Y-90762295D01*
X160916904Y-90762295D01*
X161012142Y-90809914D01*
X161059761Y-90857533D01*
X161107380Y-90952771D01*
X161107380Y-91190866D01*
X161059761Y-91286104D01*
X161012142Y-91333723D01*
D13*
%TO.C,D1*%
X178342000Y-91775400D02*
X175657000Y-91775400D01*
X178342000Y-93695400D02*
X178342000Y-91775400D01*
X175657000Y-93695400D02*
X178342000Y-93695400D01*
%TO.C,R31*%
X181408336Y-54938600D02*
X181862464Y-54938600D01*
X181408336Y-53468600D02*
X181862464Y-53468600D01*
%TO.C,U5*%
X134189400Y-101151200D02*
X135644400Y-101151200D01*
X123994400Y-101151200D02*
X123994400Y-99696200D01*
X125166618Y-86961200D02*
X123994400Y-88133418D01*
X123994400Y-88133418D02*
X123994400Y-88416200D01*
X125449400Y-101151200D02*
X123994400Y-101151200D01*
X135644400Y-101151200D02*
X135644400Y-99696200D01*
X135644400Y-86961200D02*
X135644400Y-88416200D01*
X125449400Y-86961200D02*
X125166618Y-86961200D01*
X134189400Y-86961200D02*
X135644400Y-86961200D01*
%TO.C,R1*%
X136670064Y-72347400D02*
X132315936Y-72347400D01*
X136670064Y-68927400D02*
X132315936Y-68927400D01*
D14*
%TO.C,IC3*%
X164947000Y-88181000D02*
X166147000Y-88181000D01*
D13*
%TO.C,R22*%
X118337000Y-84632436D02*
X118337000Y-85086564D01*
X116867000Y-84632436D02*
X116867000Y-85086564D01*
%TO.C,D4*%
X178342000Y-85400000D02*
X175657000Y-85400000D01*
X175657000Y-87320000D02*
X178342000Y-87320000D01*
X178342000Y-87320000D02*
X178342000Y-85400000D01*
%TO.C,C25*%
X128144600Y-84081252D02*
X128144600Y-83558748D01*
X129614600Y-84081252D02*
X129614600Y-83558748D01*
D14*
%TO.C,IC9*%
X164947000Y-85006000D02*
X166147000Y-85006000D01*
D13*
%TO.C,C16*%
X159366852Y-69467400D02*
X158844348Y-69467400D01*
X159366852Y-67997400D02*
X158844348Y-67997400D01*
%TO.C,U1*%
X187129000Y-80737000D02*
X186129000Y-80737000D01*
X185129000Y-78497000D02*
X187129000Y-78497000D01*
%TO.C,R17*%
X140385436Y-111733000D02*
X140839564Y-111733000D01*
X140385436Y-110263000D02*
X140839564Y-110263000D01*
D15*
%TO.C,S5*%
X130710000Y-62630000D02*
X130710000Y-64130000D01*
X130710000Y-64130000D02*
X130710000Y-62630000D01*
X128610000Y-60280000D02*
X128610000Y-60280000D01*
X126610000Y-66480000D02*
X126610000Y-66480000D01*
X128610000Y-60280000D02*
X126610000Y-60280000D01*
X128610000Y-66480000D02*
X126610000Y-66480000D01*
D14*
X132810000Y-61280000D02*
X132810000Y-61280000D01*
D15*
X126610000Y-60280000D02*
X128610000Y-60280000D01*
X124510000Y-64130000D02*
X124510000Y-62630000D01*
X124510000Y-62630000D02*
X124510000Y-64130000D01*
X124510000Y-62630000D02*
X124510000Y-62630000D01*
X130710000Y-62630000D02*
X130710000Y-62630000D01*
X128610000Y-66480000D02*
X128610000Y-66480000D01*
X124510000Y-64130000D02*
X124510000Y-64130000D01*
D14*
X132810000Y-61280000D02*
X132810000Y-61280000D01*
D15*
X130710000Y-64130000D02*
X130710000Y-64130000D01*
D14*
X132810000Y-61380000D02*
X132810000Y-61380000D01*
D15*
X126610000Y-66480000D02*
X128610000Y-66480000D01*
X126610000Y-60280000D02*
X126610000Y-60280000D01*
D14*
X132810000Y-61380000D02*
G75*
G03*
X132810000Y-61280000I0J50000D01*
G01*
X132810000Y-61280000D02*
G75*
G03*
X132810000Y-61380000I0J-50000D01*
G01*
X132810000Y-61280000D02*
G75*
G03*
X132810000Y-61380000I0J-50000D01*
G01*
D13*
%TO.C,C3*%
X100549000Y-94589000D02*
X100549000Y-90069000D01*
X100549000Y-90069000D02*
X92489000Y-90069000D01*
X92489000Y-94589000D02*
X100549000Y-94589000D01*
D14*
%TO.C,IC15*%
X121851600Y-63651800D02*
X121851600Y-64851800D01*
D13*
%TO.C,D3*%
X178339700Y-87482800D02*
X175654700Y-87482800D01*
X178339700Y-89402800D02*
X178339700Y-87482800D01*
X175654700Y-89402800D02*
X178339700Y-89402800D01*
%TO.C,C44*%
X163141252Y-89508000D02*
X162618748Y-89508000D01*
X163141252Y-88038000D02*
X162618748Y-88038000D01*
%TO.C,R3*%
X172771564Y-92152800D02*
X172317436Y-92152800D01*
X172771564Y-93622800D02*
X172317436Y-93622800D01*
D14*
%TO.C,IC11*%
X149776000Y-109373000D02*
X149776000Y-108173000D01*
D13*
%TO.C,R35*%
X188469536Y-63400000D02*
X188923664Y-63400000D01*
X188469536Y-64870000D02*
X188923664Y-64870000D01*
%TO.C,C4*%
X188669000Y-79797748D02*
X188669000Y-80320252D01*
X190139000Y-79797748D02*
X190139000Y-80320252D01*
%TO.C,C1*%
X95369748Y-95277000D02*
X95892252Y-95277000D01*
X95369748Y-96747000D02*
X95892252Y-96747000D01*
%TO.C,R7*%
X147626400Y-70283336D02*
X147626400Y-70737464D01*
X149096400Y-70283336D02*
X149096400Y-70737464D01*
%TO.C,R29*%
X114072936Y-65759000D02*
X114527064Y-65759000D01*
X114072936Y-64289000D02*
X114527064Y-64289000D01*
%TO.C,C12*%
X129412400Y-80358000D02*
X129412400Y-72298000D01*
X124892400Y-72298000D02*
X124892400Y-80358000D01*
X129412400Y-72298000D02*
X124892400Y-72298000D01*
D16*
%TO.C,S3*%
X111513250Y-77836000D02*
G75*
G03*
X111513250Y-77836000I-181250J0D01*
G01*
D13*
%TO.C,R6*%
X172923964Y-87120400D02*
X172469836Y-87120400D01*
X172923964Y-85650400D02*
X172469836Y-85650400D01*
%TO.C,J2*%
X189704625Y-87165148D02*
X187452959Y-88465148D01*
X191004625Y-89416814D02*
X189704625Y-87165148D01*
X191004625Y-89416814D02*
X210853928Y-77956814D01*
X189904773Y-90051814D02*
X188752959Y-90716814D01*
X210853928Y-77956814D02*
X208253928Y-73453482D01*
X187452959Y-88465148D02*
X186152959Y-86213482D01*
X188752959Y-90716814D02*
X188087959Y-89565000D01*
X186152959Y-86213482D02*
X208253928Y-73453482D01*
%TO.C,R28*%
X99261600Y-52195464D02*
X99261600Y-51741336D01*
X97791600Y-52195464D02*
X97791600Y-51741336D01*
D14*
%TO.C,IC2*%
X149859400Y-69334200D02*
X151059400Y-69334200D01*
D13*
%TO.C,C61*%
X166824252Y-91086000D02*
X166301748Y-91086000D01*
X166824252Y-92556000D02*
X166301748Y-92556000D01*
D14*
%TO.C,IC4*%
X140759000Y-109373000D02*
X140759000Y-108173000D01*
D13*
%TO.C,C5*%
X185874252Y-76469000D02*
X185351748Y-76469000D01*
X185874252Y-77939000D02*
X185351748Y-77939000D01*
%TO.C,C41*%
X147642948Y-85164600D02*
X148165452Y-85164600D01*
X147642948Y-83694600D02*
X148165452Y-83694600D01*
%TO.C,U4*%
X155903200Y-87225600D02*
X155903200Y-87925600D01*
X155903200Y-101445600D02*
X155903200Y-100745600D01*
X155203200Y-101445600D02*
X155903200Y-101445600D01*
X141683200Y-87925600D02*
X140393200Y-87925600D01*
X141683200Y-101445600D02*
X141683200Y-100745600D01*
X155203200Y-87225600D02*
X155903200Y-87225600D01*
X142383200Y-101445600D02*
X141683200Y-101445600D01*
X141683200Y-87225600D02*
X141683200Y-87925600D01*
X142383200Y-87225600D02*
X141683200Y-87225600D01*
D14*
%TO.C,S1*%
X142550000Y-67440000D02*
X142550000Y-67440000D01*
D15*
X143550000Y-65260000D02*
X143550000Y-65260000D01*
X145065000Y-65260000D02*
X145065000Y-57690000D01*
X138425000Y-65260000D02*
X141550000Y-65260000D01*
X138550000Y-56120000D02*
X138550000Y-56120000D01*
X138425000Y-65260000D02*
X138425000Y-65260000D01*
X141550000Y-65260000D02*
X138425000Y-65260000D01*
X136550000Y-65260000D02*
X135050000Y-65260000D01*
X135035000Y-65190000D02*
X135050000Y-65190000D01*
X138425000Y-53050000D02*
X138425000Y-56120000D01*
D14*
X142450000Y-67440000D02*
X142450000Y-67440000D01*
D15*
X135050000Y-65260000D02*
X136550000Y-65260000D01*
X141675000Y-56120000D02*
X141675000Y-56120000D01*
X141675000Y-56120000D02*
X141675000Y-53050000D01*
X136550000Y-65260000D02*
X136550000Y-65260000D01*
X145065000Y-65260000D02*
X145065000Y-65260000D01*
X145050000Y-57690000D02*
X145050000Y-65260000D01*
X145065000Y-65260000D02*
X143550000Y-65260000D01*
D14*
X142450000Y-67440000D02*
X142450000Y-67440000D01*
D15*
X135035000Y-57690000D02*
X135035000Y-65190000D01*
X138425000Y-56120000D02*
X141675000Y-56120000D01*
X145065000Y-57690000D02*
X145050000Y-57690000D01*
X138550000Y-56120000D02*
X136550000Y-56120000D01*
X145050000Y-65260000D02*
X145065000Y-65260000D01*
X143550000Y-56120000D02*
X141675000Y-56120000D01*
X136550000Y-56120000D02*
X136550000Y-56120000D01*
X141550000Y-65260000D02*
X141550000Y-65260000D01*
X135050000Y-65260000D02*
X135050000Y-65260000D01*
X143550000Y-65260000D02*
X145065000Y-65260000D01*
X143550000Y-56120000D02*
X143550000Y-56120000D01*
X135050000Y-57690000D02*
X135035000Y-57690000D01*
X141675000Y-56120000D02*
X143550000Y-56120000D01*
X141675000Y-53050000D02*
X138425000Y-53050000D01*
X136550000Y-56120000D02*
X138550000Y-56120000D01*
X135050000Y-65190000D02*
X135050000Y-57690000D01*
D14*
X142450000Y-67440000D02*
G75*
G03*
X142550000Y-67440000I50000J0D01*
G01*
X142550000Y-67440000D02*
G75*
G03*
X142450000Y-67440000I-50000J0D01*
G01*
X142450000Y-67440000D02*
G75*
G03*
X142550000Y-67440000I50000J0D01*
G01*
D13*
%TO.C,C58*%
X147073252Y-111733000D02*
X146550748Y-111733000D01*
X147073252Y-110263000D02*
X146550748Y-110263000D01*
%TO.C,C32*%
X141205852Y-73077400D02*
X140683348Y-73077400D01*
X141205852Y-74547400D02*
X140683348Y-74547400D01*
%TO.C,R2*%
X140672536Y-72296600D02*
X145026664Y-72296600D01*
X140672536Y-68876600D02*
X145026664Y-68876600D01*
%TO.C,R20*%
X116178000Y-84632436D02*
X116178000Y-85086564D01*
X114708000Y-84632436D02*
X114708000Y-85086564D01*
D14*
%TO.C,IC5*%
X110447000Y-76555000D02*
X110447000Y-77755000D01*
D13*
%TO.C,R34*%
X187733000Y-72012436D02*
X187733000Y-72466564D01*
X189203000Y-72012436D02*
X189203000Y-72466564D01*
%TO.C,R21*%
X96493000Y-87222064D02*
X96493000Y-86767936D01*
X95023000Y-87222064D02*
X95023000Y-86767936D01*
%TO.C,C18*%
X163651600Y-66716200D02*
X163651600Y-58656200D01*
X159131600Y-58656200D02*
X159131600Y-66716200D01*
X159131600Y-66716200D02*
X163651600Y-66716200D01*
%TO.C,C22*%
X147581252Y-72899600D02*
X147058748Y-72899600D01*
X147581252Y-74369600D02*
X147058748Y-74369600D01*
%TO.C,D2*%
X175657000Y-91587200D02*
X178342000Y-91587200D01*
X178342000Y-89667200D02*
X175657000Y-89667200D01*
X178342000Y-91587200D02*
X178342000Y-89667200D01*
D14*
%TO.C,IC8*%
X97256000Y-83990000D02*
X98456000Y-83990000D01*
D13*
%TO.C,C11*%
X127337452Y-71651800D02*
X126814948Y-71651800D01*
X127337452Y-70181800D02*
X126814948Y-70181800D01*
%TO.C,C24*%
X131672000Y-84081252D02*
X131672000Y-83558748D01*
X130202000Y-84081252D02*
X130202000Y-83558748D01*
D15*
%TO.C,Y1*%
X136914400Y-76952800D02*
X136914400Y-76952800D01*
X138114400Y-78152800D02*
X138114400Y-80952800D01*
X141414400Y-76052800D02*
X139814400Y-76052800D01*
X141414400Y-83052800D02*
X139814400Y-83052800D01*
X143114400Y-78152800D02*
X143114400Y-80952800D01*
X137014400Y-76952800D02*
X137014400Y-76952800D01*
X137014400Y-76952800D02*
G75*
G03*
X136914400Y-76952800I-50000J0D01*
G01*
X136914400Y-76952800D02*
G75*
G03*
X137014400Y-76952800I50000J0D01*
G01*
D13*
%TO.C,R27*%
X114072936Y-61568000D02*
X114527064Y-61568000D01*
X114072936Y-60098000D02*
X114527064Y-60098000D01*
%TO.C,C50*%
X169899000Y-80002748D02*
X169899000Y-80525252D01*
X168429000Y-80002748D02*
X168429000Y-80525252D01*
%TO.C,R26*%
X104824200Y-80443336D02*
X104824200Y-80897464D01*
X103354200Y-80443336D02*
X103354200Y-80897464D01*
%TO.C,C40*%
X141739252Y-103582800D02*
X141216748Y-103582800D01*
X141739252Y-105052800D02*
X141216748Y-105052800D01*
%TO.C,R24*%
X119026000Y-84608936D02*
X119026000Y-85063064D01*
X120496000Y-84608936D02*
X120496000Y-85063064D01*
%TO.C,C42*%
X157761000Y-98178252D02*
X157761000Y-97655748D01*
X159231000Y-98178252D02*
X159231000Y-97655748D01*
D16*
%TO.C,S4*%
X154776250Y-77836000D02*
G75*
G03*
X154776250Y-77836000I-181250J0D01*
G01*
D13*
%TO.C,R25*%
X130051436Y-106453000D02*
X130505564Y-106453000D01*
X130051436Y-107923000D02*
X130505564Y-107923000D01*
%TO.C,R33*%
X171959600Y-54481464D02*
X171959600Y-54027336D01*
X173429600Y-54481464D02*
X173429600Y-54027336D01*
%TO.C,C46*%
X140789252Y-113892000D02*
X140266748Y-113892000D01*
X140789252Y-112422000D02*
X140266748Y-112422000D01*
%TO.C,J1*%
X185922318Y-48001345D02*
X187760795Y-46162867D01*
X185922318Y-48001345D02*
X202129205Y-64208232D01*
X187760795Y-46162867D02*
X185922318Y-44324389D01*
X202129205Y-64208232D02*
X205806160Y-60531277D01*
X185922318Y-44324389D02*
X187760795Y-42485912D01*
X185024292Y-47103319D02*
X184083840Y-46162867D01*
X187760795Y-42485912D02*
X205806160Y-60531277D01*
X184083840Y-46162867D02*
X185024292Y-45222415D01*
D14*
%TO.C,IC12*%
X132562000Y-106088000D02*
X133762000Y-106088000D01*
D15*
%TO.C,S2*%
X155860000Y-62630000D02*
X155860000Y-62630000D01*
X151760000Y-60280000D02*
X151760000Y-60280000D01*
X153760000Y-60280000D02*
X151760000Y-60280000D01*
X149660000Y-62630000D02*
X149660000Y-62630000D01*
X153760000Y-66480000D02*
X153760000Y-66480000D01*
X151760000Y-60280000D02*
X153760000Y-60280000D01*
D14*
X147560000Y-65380000D02*
X147560000Y-65380000D01*
D15*
X151760000Y-66480000D02*
X151760000Y-66480000D01*
X153760000Y-66480000D02*
X151760000Y-66480000D01*
X153760000Y-60280000D02*
X153760000Y-60280000D01*
D14*
X147560000Y-65480000D02*
X147560000Y-65480000D01*
X147560000Y-65480000D02*
X147560000Y-65480000D01*
D15*
X155860000Y-64130000D02*
X155860000Y-62630000D01*
X155860000Y-62630000D02*
X155860000Y-64130000D01*
X149660000Y-62630000D02*
X149660000Y-64130000D01*
X149660000Y-64130000D02*
X149660000Y-64130000D01*
X151760000Y-66480000D02*
X153760000Y-66480000D01*
X155860000Y-64130000D02*
X155860000Y-64130000D01*
X149660000Y-64130000D02*
X149660000Y-62630000D01*
D14*
X147560000Y-65380000D02*
G75*
G03*
X147560000Y-65480000I0J-50000D01*
G01*
X147560000Y-65480000D02*
G75*
G03*
X147560000Y-65380000I0J50000D01*
G01*
X147560000Y-65480000D02*
G75*
G03*
X147560000Y-65380000I0J50000D01*
G01*
D13*
%TO.C,J3*%
X89324148Y-86951852D02*
X91575814Y-88251852D01*
X70774845Y-73240186D02*
X68174845Y-77743518D01*
X90275814Y-90503518D02*
X68174845Y-77743518D01*
X91575814Y-88251852D02*
X90275814Y-90503518D01*
X91724000Y-85335186D02*
X92875814Y-86000186D01*
X92875814Y-86000186D02*
X92210814Y-87152000D01*
X90624148Y-84700186D02*
X89324148Y-86951852D01*
X90624148Y-84700186D02*
X70774845Y-73240186D01*
%TO.C,C66*%
X172143748Y-81380000D02*
X172666252Y-81380000D01*
X172143748Y-79910000D02*
X172666252Y-79910000D01*
%TO.C,R4*%
X172873164Y-89917600D02*
X172419036Y-89917600D01*
X172873164Y-91387600D02*
X172419036Y-91387600D01*
%TO.C,R5*%
X172873164Y-87784000D02*
X172419036Y-87784000D01*
X172873164Y-89254000D02*
X172419036Y-89254000D01*
%TO.C,C64*%
X104894748Y-84377200D02*
X105417252Y-84377200D01*
X104894748Y-82907200D02*
X105417252Y-82907200D01*
%TO.C,U2*%
X95115000Y-99418000D02*
X94115000Y-99418000D01*
X93115000Y-97178000D02*
X95115000Y-97178000D01*
%TO.C,C49*%
X168140748Y-84047000D02*
X168663252Y-84047000D01*
X168140748Y-82577000D02*
X168663252Y-82577000D01*
%TO.C,C54*%
X95048400Y-83751052D02*
X95048400Y-83228548D01*
X96518400Y-83751052D02*
X96518400Y-83228548D01*
%TO.C,C51*%
X99016452Y-81865800D02*
X98493948Y-81865800D01*
X99016452Y-83335800D02*
X98493948Y-83335800D01*
%TO.C,R36*%
X123493264Y-68149800D02*
X123039136Y-68149800D01*
X123493264Y-69619800D02*
X123039136Y-69619800D01*
%TO.C,C10*%
X127337452Y-69543600D02*
X126814948Y-69543600D01*
X127337452Y-68073600D02*
X126814948Y-68073600D01*
%TO.C,C23*%
X154856548Y-70788200D02*
X155379052Y-70788200D01*
X154856548Y-69318200D02*
X155379052Y-69318200D01*
%TO.C,C68*%
X119869852Y-69696000D02*
X119347348Y-69696000D01*
X119869852Y-68226000D02*
X119347348Y-68226000D01*
D14*
%TO.C,IC6*%
X143680000Y-109312000D02*
X143680000Y-108112000D01*
D13*
%TO.C,C17*%
X162425748Y-68022800D02*
X162948252Y-68022800D01*
X162425748Y-69492800D02*
X162948252Y-69492800D01*
%TO.C,C2*%
X90959000Y-98036748D02*
X90959000Y-98559252D01*
X92429000Y-98036748D02*
X92429000Y-98559252D01*
%TO.C,C48*%
X109786748Y-83031000D02*
X110309252Y-83031000D01*
X109786748Y-81561000D02*
X110309252Y-81561000D01*
%TO.C,R30*%
X114049436Y-63727000D02*
X114503564Y-63727000D01*
X114049436Y-62257000D02*
X114503564Y-62257000D01*
D14*
%TO.C,IC10*%
X146728000Y-109373000D02*
X146728000Y-108173000D01*
D13*
%TO.C,C6*%
X189773000Y-74523000D02*
X197833000Y-74523000D01*
X197833000Y-70003000D02*
X189773000Y-70003000D01*
X189773000Y-70003000D02*
X189773000Y-74523000D01*
%TO.C,C55*%
X159485000Y-92082252D02*
X159485000Y-91559748D01*
X158015000Y-92082252D02*
X158015000Y-91559748D01*
%TD*%
%LPC*%
D17*
%TO.C,D1*%
X177594500Y-92735400D03*
X175719500Y-92735400D03*
%TD*%
D18*
%TO.C,TP14*%
X86233000Y-78486000D03*
%TD*%
D19*
%TO.C,R31*%
X180722900Y-54203600D03*
X182547900Y-54203600D03*
%TD*%
D20*
%TO.C,U5*%
X129819400Y-87218700D03*
X128549400Y-87218700D03*
X127279400Y-87218700D03*
X126009400Y-87218700D03*
D21*
X124256900Y-88976200D03*
X124256900Y-90246200D03*
X124256900Y-91516200D03*
X124256900Y-92786200D03*
X124256900Y-94056200D03*
X124256900Y-95326200D03*
X124256900Y-96596200D03*
X124256900Y-97866200D03*
X124256900Y-99136200D03*
D20*
X126009400Y-100893700D03*
X127279400Y-100893700D03*
X128549400Y-100893700D03*
X129819400Y-100893700D03*
X131089400Y-100893700D03*
X132359400Y-100893700D03*
X133629400Y-100893700D03*
D21*
X135381900Y-99136200D03*
X135381900Y-97866200D03*
X135381900Y-96596200D03*
X135381900Y-95326200D03*
X135381900Y-94056200D03*
X135381900Y-92786200D03*
X135381900Y-91516200D03*
X135381900Y-90246200D03*
X135381900Y-88976200D03*
D20*
X133629400Y-87218700D03*
X132359400Y-87218700D03*
X131089400Y-87218700D03*
%TD*%
D22*
%TO.C,R1*%
X137455500Y-70637400D03*
X131530500Y-70637400D03*
%TD*%
D23*
%TO.C,IC3*%
X165547000Y-88631000D03*
X165547000Y-89281000D03*
X165547000Y-89931000D03*
X167447000Y-89931000D03*
X167447000Y-88631000D03*
%TD*%
D24*
%TO.C,R22*%
X117602000Y-83947000D03*
X117602000Y-85772000D03*
%TD*%
D17*
%TO.C,D4*%
X177594500Y-86360000D03*
X175719500Y-86360000D03*
%TD*%
D25*
%TO.C,C25*%
X128879600Y-84770000D03*
X128879600Y-82870000D03*
%TD*%
D23*
%TO.C,IC9*%
X165547000Y-85456000D03*
X165547000Y-86106000D03*
X165547000Y-86756000D03*
X167447000Y-86756000D03*
X167447000Y-85456000D03*
%TD*%
D26*
%TO.C,C16*%
X160055600Y-68732400D03*
X158155600Y-68732400D03*
%TD*%
D27*
%TO.C,U1*%
X185679000Y-78867000D03*
X185679000Y-79367000D03*
X185679000Y-79867000D03*
X185679000Y-80367000D03*
X187579000Y-80367000D03*
X187579000Y-79867000D03*
X187579000Y-79367000D03*
X187579000Y-78867000D03*
D28*
X186629000Y-79617000D03*
%TD*%
D18*
%TO.C,TP6*%
X150241000Y-57404000D03*
%TD*%
D19*
%TO.C,R17*%
X139700000Y-110998000D03*
X141525000Y-110998000D03*
%TD*%
D29*
%TO.C,S5*%
X130510000Y-61380000D03*
X124710000Y-61380000D03*
X124710000Y-65380000D03*
X130510000Y-65380000D03*
%TD*%
D30*
%TO.C,C3*%
X99251500Y-92329000D03*
X93026500Y-92329000D03*
%TD*%
D31*
%TO.C,IC15*%
X121401600Y-64251800D03*
X120751600Y-64251800D03*
X120101600Y-64251800D03*
X120101600Y-66151800D03*
X121401600Y-66151800D03*
%TD*%
D17*
%TO.C,D3*%
X177592200Y-88442800D03*
X175717200Y-88442800D03*
%TD*%
D26*
%TO.C,C44*%
X163830000Y-88773000D03*
X161930000Y-88773000D03*
%TD*%
D32*
%TO.C,R3*%
X173457000Y-92887800D03*
X171632000Y-92887800D03*
%TD*%
D31*
%TO.C,IC11*%
X150226000Y-108773000D03*
X150876000Y-108773000D03*
X151526000Y-108773000D03*
X151526000Y-106873000D03*
X150226000Y-106873000D03*
%TD*%
D19*
%TO.C,R35*%
X187784100Y-64135000D03*
X189609100Y-64135000D03*
%TD*%
D33*
%TO.C,C4*%
X189404000Y-79109000D03*
X189404000Y-81009000D03*
%TD*%
D18*
%TO.C,TP12*%
X210693000Y-88011000D03*
%TD*%
D34*
%TO.C,C1*%
X94681000Y-96012000D03*
X96581000Y-96012000D03*
%TD*%
D24*
%TO.C,R7*%
X148361400Y-69597900D03*
X148361400Y-71422900D03*
%TD*%
D19*
%TO.C,R29*%
X113387500Y-65024000D03*
X115212500Y-65024000D03*
%TD*%
D35*
%TO.C,C12*%
X127152400Y-73595500D03*
X127152400Y-79820500D03*
%TD*%
D36*
%TO.C,S3*%
X113017000Y-77900000D03*
X122817000Y-77900000D03*
X122817000Y-75700000D03*
X113017000Y-75700000D03*
X116017000Y-71900000D03*
X117917000Y-71900000D03*
X119817000Y-71900000D03*
X116017000Y-81700000D03*
X117917000Y-81700000D03*
X119817000Y-81700000D03*
D37*
X122053570Y-80936570D03*
D38*
X122053570Y-72663430D03*
D37*
X113780430Y-72663430D03*
D38*
X113780430Y-80936570D03*
%TD*%
D32*
%TO.C,R6*%
X173609400Y-86385400D03*
X171784400Y-86385400D03*
%TD*%
D39*
%TO.C,J2*%
X189239773Y-88900000D03*
D40*
X187969773Y-86700295D03*
X191439478Y-87630000D03*
X190169478Y-85430295D03*
X193639182Y-86360000D03*
X192369182Y-84160295D03*
X195838887Y-85090000D03*
X194568887Y-82890295D03*
X198038591Y-83820000D03*
X196768591Y-81620295D03*
X200238296Y-82550000D03*
X198968296Y-80350295D03*
X202438000Y-81280000D03*
X201168000Y-79080295D03*
X204637705Y-80010000D03*
X203367705Y-77810295D03*
X206837409Y-78740000D03*
X205567409Y-76540295D03*
X209037114Y-77470000D03*
X207767114Y-75270295D03*
%TD*%
D41*
%TO.C,R28*%
X98526600Y-52880900D03*
X98526600Y-51055900D03*
%TD*%
D23*
%TO.C,IC2*%
X150459400Y-69784200D03*
X150459400Y-70434200D03*
X150459400Y-71084200D03*
X152359400Y-71084200D03*
X152359400Y-69784200D03*
%TD*%
D26*
%TO.C,C61*%
X167513000Y-91821000D03*
X165613000Y-91821000D03*
%TD*%
D31*
%TO.C,IC4*%
X141209000Y-108773000D03*
X141859000Y-108773000D03*
X142509000Y-108773000D03*
X142509000Y-106873000D03*
X141209000Y-106873000D03*
%TD*%
D26*
%TO.C,C5*%
X186563000Y-77204000D03*
X184663000Y-77204000D03*
%TD*%
D34*
%TO.C,C41*%
X146954200Y-84429600D03*
X148854200Y-84429600D03*
%TD*%
D42*
%TO.C,U4*%
X141130700Y-88335600D03*
X141130700Y-88835600D03*
X141130700Y-89335600D03*
X141130700Y-89835600D03*
X141130700Y-90335600D03*
X141130700Y-90835600D03*
X141130700Y-91335600D03*
X141130700Y-91835600D03*
X141130700Y-92335600D03*
X141130700Y-92835600D03*
X141130700Y-93335600D03*
X141130700Y-93835600D03*
X141130700Y-94335600D03*
X141130700Y-94835600D03*
X141130700Y-95335600D03*
X141130700Y-95835600D03*
X141130700Y-96335600D03*
X141130700Y-96835600D03*
X141130700Y-97335600D03*
X141130700Y-97835600D03*
X141130700Y-98335600D03*
X141130700Y-98835600D03*
X141130700Y-99335600D03*
X141130700Y-99835600D03*
X141130700Y-100335600D03*
D43*
X142793200Y-101998100D03*
X143293200Y-101998100D03*
X143793200Y-101998100D03*
X144293200Y-101998100D03*
X144793200Y-101998100D03*
X145293200Y-101998100D03*
X145793200Y-101998100D03*
X146293200Y-101998100D03*
X146793200Y-101998100D03*
X147293200Y-101998100D03*
X147793200Y-101998100D03*
X148293200Y-101998100D03*
X148793200Y-101998100D03*
X149293200Y-101998100D03*
X149793200Y-101998100D03*
X150293200Y-101998100D03*
X150793200Y-101998100D03*
X151293200Y-101998100D03*
X151793200Y-101998100D03*
X152293200Y-101998100D03*
X152793200Y-101998100D03*
X153293200Y-101998100D03*
X153793200Y-101998100D03*
X154293200Y-101998100D03*
X154793200Y-101998100D03*
D42*
X156455700Y-100335600D03*
X156455700Y-99835600D03*
X156455700Y-99335600D03*
X156455700Y-98835600D03*
X156455700Y-98335600D03*
X156455700Y-97835600D03*
X156455700Y-97335600D03*
X156455700Y-96835600D03*
X156455700Y-96335600D03*
X156455700Y-95835600D03*
X156455700Y-95335600D03*
X156455700Y-94835600D03*
X156455700Y-94335600D03*
X156455700Y-93835600D03*
X156455700Y-93335600D03*
X156455700Y-92835600D03*
X156455700Y-92335600D03*
X156455700Y-91835600D03*
X156455700Y-91335600D03*
X156455700Y-90835600D03*
X156455700Y-90335600D03*
X156455700Y-89835600D03*
X156455700Y-89335600D03*
X156455700Y-88835600D03*
X156455700Y-88335600D03*
D43*
X154793200Y-86673100D03*
X154293200Y-86673100D03*
X153793200Y-86673100D03*
X153293200Y-86673100D03*
X152793200Y-86673100D03*
X152293200Y-86673100D03*
X151793200Y-86673100D03*
X151293200Y-86673100D03*
X150793200Y-86673100D03*
X150293200Y-86673100D03*
X149793200Y-86673100D03*
X149293200Y-86673100D03*
X148793200Y-86673100D03*
X148293200Y-86673100D03*
X147793200Y-86673100D03*
X147293200Y-86673100D03*
X146793200Y-86673100D03*
X146293200Y-86673100D03*
X145793200Y-86673100D03*
X145293200Y-86673100D03*
X144793200Y-86673100D03*
X144293200Y-86673100D03*
X143793200Y-86673100D03*
X143293200Y-86673100D03*
X142793200Y-86673100D03*
%TD*%
D44*
%TO.C,S1*%
X142590000Y-65150000D03*
X137510000Y-65150000D03*
D45*
X145428000Y-56230000D03*
X134672000Y-56230000D03*
%TD*%
D26*
%TO.C,C58*%
X147762000Y-110998000D03*
X145862000Y-110998000D03*
%TD*%
%TO.C,C32*%
X141894600Y-73812400D03*
X139994600Y-73812400D03*
%TD*%
D18*
%TO.C,TP9*%
X76073000Y-122301000D03*
%TD*%
D46*
%TO.C,R2*%
X139887100Y-70586600D03*
X145812100Y-70586600D03*
%TD*%
D24*
%TO.C,R20*%
X115443000Y-83947000D03*
X115443000Y-85772000D03*
%TD*%
D18*
%TO.C,TP1*%
X179578000Y-83185000D03*
%TD*%
%TO.C,TP4*%
X90932000Y-103378000D03*
%TD*%
D31*
%TO.C,IC5*%
X109997000Y-77155000D03*
X109347000Y-77155000D03*
X108697000Y-77155000D03*
X108697000Y-79055000D03*
X109997000Y-79055000D03*
%TD*%
D24*
%TO.C,R34*%
X188468000Y-71327000D03*
X188468000Y-73152000D03*
%TD*%
D18*
%TO.C,TP5*%
X119253000Y-58039000D03*
%TD*%
D41*
%TO.C,R21*%
X95758000Y-87907500D03*
X95758000Y-86082500D03*
%TD*%
D47*
%TO.C,C18*%
X161391600Y-65418700D03*
X161391600Y-59193700D03*
%TD*%
D26*
%TO.C,C22*%
X148270000Y-73634600D03*
X146370000Y-73634600D03*
%TD*%
D17*
%TO.C,D2*%
X177594500Y-90627200D03*
X175719500Y-90627200D03*
%TD*%
D23*
%TO.C,IC8*%
X97856000Y-84440000D03*
X97856000Y-85090000D03*
X97856000Y-85740000D03*
X99756000Y-85740000D03*
X99756000Y-84440000D03*
%TD*%
D26*
%TO.C,C11*%
X128026200Y-70916800D03*
X126126200Y-70916800D03*
%TD*%
D25*
%TO.C,C24*%
X130937000Y-84770000D03*
X130937000Y-82870000D03*
%TD*%
D48*
%TO.C,Y1*%
X138414400Y-77012800D03*
X138414400Y-82092800D03*
X142814400Y-82092800D03*
X142814400Y-77012800D03*
%TD*%
D19*
%TO.C,R27*%
X113387500Y-60833000D03*
X115212500Y-60833000D03*
%TD*%
D33*
%TO.C,C50*%
X169164000Y-79314000D03*
X169164000Y-81214000D03*
%TD*%
D18*
%TO.C,TP8*%
X177673000Y-43307000D03*
%TD*%
D24*
%TO.C,R26*%
X104089200Y-79757900D03*
X104089200Y-81582900D03*
%TD*%
D49*
%TO.C,U6*%
X103545000Y-56730000D03*
X109775000Y-67960000D03*
X101045000Y-56730000D03*
X109775000Y-65460000D03*
X98545000Y-56730000D03*
X109775000Y-62960000D03*
D50*
X94720000Y-60460000D03*
X107370000Y-60460000D03*
X107370000Y-70460000D03*
X94720000Y-70460000D03*
D49*
X97795000Y-71210000D03*
X104295000Y-71210000D03*
X97795000Y-75710000D03*
X104295000Y-75710000D03*
%TD*%
D26*
%TO.C,C40*%
X142428000Y-104317800D03*
X140528000Y-104317800D03*
%TD*%
D24*
%TO.C,R24*%
X119761000Y-83923500D03*
X119761000Y-85748500D03*
%TD*%
D18*
%TO.C,TP13*%
X195072000Y-76962000D03*
%TD*%
D25*
%TO.C,C42*%
X158496000Y-98867000D03*
X158496000Y-96967000D03*
%TD*%
D36*
%TO.C,S4*%
X156280000Y-77900000D03*
X166080000Y-77900000D03*
X166080000Y-75700000D03*
X156280000Y-75700000D03*
X159280000Y-71900000D03*
X161180000Y-71900000D03*
X163080000Y-71900000D03*
X159280000Y-81700000D03*
X161180000Y-81700000D03*
X163080000Y-81700000D03*
D37*
X165316570Y-80936570D03*
D38*
X165316570Y-72663430D03*
D37*
X157043430Y-72663430D03*
D38*
X157043430Y-80936570D03*
%TD*%
D19*
%TO.C,R25*%
X129366000Y-107188000D03*
X131191000Y-107188000D03*
%TD*%
D41*
%TO.C,R33*%
X172694600Y-55166900D03*
X172694600Y-53341900D03*
%TD*%
D26*
%TO.C,C46*%
X141478000Y-113157000D03*
X139578000Y-113157000D03*
%TD*%
D51*
%TO.C,J1*%
X185964744Y-46162867D03*
D52*
X187760795Y-44366816D03*
X187760795Y-47958918D03*
X189556846Y-46162867D03*
X189556846Y-49754969D03*
X191352898Y-47958918D03*
X191352898Y-51551021D03*
X193148949Y-49754969D03*
X193148949Y-53347072D03*
X194945000Y-51551021D03*
X194945000Y-55143123D03*
X196741051Y-53347072D03*
X196741051Y-56939174D03*
X198537103Y-55143123D03*
X198537103Y-58735226D03*
X200333154Y-56939174D03*
X200333154Y-60531277D03*
X202129205Y-58735226D03*
X202129205Y-62327328D03*
X203925256Y-60531277D03*
%TD*%
D23*
%TO.C,IC12*%
X133162000Y-106538000D03*
X133162000Y-107188000D03*
X133162000Y-107838000D03*
X135062000Y-107838000D03*
X135062000Y-106538000D03*
%TD*%
D49*
%TO.C,U7*%
X177845000Y-58380000D03*
X184075000Y-69610000D03*
X175345000Y-58380000D03*
X184075000Y-67110000D03*
X172845000Y-58380000D03*
X184075000Y-64610000D03*
D50*
X181670000Y-62110000D03*
X169020000Y-62110000D03*
X181670000Y-72110000D03*
X169020000Y-72110000D03*
D49*
X172095000Y-72860000D03*
X178595000Y-72860000D03*
X172095000Y-77360000D03*
X178595000Y-77360000D03*
%TD*%
D29*
%TO.C,S2*%
X149860000Y-65380000D03*
X155660000Y-65380000D03*
X155660000Y-61380000D03*
X149860000Y-61380000D03*
%TD*%
D53*
%TO.C,J3*%
X91059000Y-86487000D03*
D54*
X89789000Y-88686705D03*
X88859295Y-85217000D03*
X87589295Y-87416705D03*
X86659591Y-83947000D03*
X85389591Y-86146705D03*
X84459886Y-82677000D03*
X83189886Y-84876705D03*
X82260182Y-81407000D03*
X80990182Y-83606705D03*
X80060477Y-80137000D03*
X78790477Y-82336705D03*
X77860773Y-78867000D03*
X76590773Y-81066705D03*
X75661068Y-77597000D03*
X74391068Y-79796705D03*
X73461364Y-76327000D03*
X72191364Y-78526705D03*
X71261659Y-75057000D03*
X69991659Y-77256705D03*
%TD*%
D18*
%TO.C,TP2*%
X183642000Y-95758000D03*
%TD*%
D34*
%TO.C,C66*%
X171455000Y-80645000D03*
X173355000Y-80645000D03*
%TD*%
D32*
%TO.C,R4*%
X173558600Y-90652600D03*
X171733600Y-90652600D03*
%TD*%
%TO.C,R5*%
X173558600Y-88519000D03*
X171733600Y-88519000D03*
%TD*%
D18*
%TO.C,TP11*%
X202057000Y-121666000D03*
%TD*%
D34*
%TO.C,C64*%
X104206000Y-83642200D03*
X106106000Y-83642200D03*
%TD*%
D18*
%TO.C,TP7*%
X167894000Y-56896000D03*
%TD*%
D27*
%TO.C,U2*%
X93665000Y-97548000D03*
X93665000Y-98048000D03*
X93665000Y-98548000D03*
X93665000Y-99048000D03*
X95565000Y-99048000D03*
X95565000Y-98548000D03*
X95565000Y-98048000D03*
X95565000Y-97548000D03*
D28*
X94615000Y-98298000D03*
%TD*%
D34*
%TO.C,C49*%
X167452000Y-83312000D03*
X169352000Y-83312000D03*
%TD*%
D25*
%TO.C,C54*%
X95783400Y-84439800D03*
X95783400Y-82539800D03*
%TD*%
D26*
%TO.C,C51*%
X99705200Y-82600800D03*
X97805200Y-82600800D03*
%TD*%
D32*
%TO.C,R36*%
X124178700Y-68884800D03*
X122353700Y-68884800D03*
%TD*%
D26*
%TO.C,C10*%
X128026200Y-68808600D03*
X126126200Y-68808600D03*
%TD*%
D34*
%TO.C,C23*%
X154167800Y-70053200D03*
X156067800Y-70053200D03*
%TD*%
D26*
%TO.C,C68*%
X120558600Y-68961000D03*
X118658600Y-68961000D03*
%TD*%
D31*
%TO.C,IC6*%
X144130000Y-108712000D03*
X144780000Y-108712000D03*
X145430000Y-108712000D03*
X145430000Y-106812000D03*
X144130000Y-106812000D03*
%TD*%
D34*
%TO.C,C17*%
X161737000Y-68757800D03*
X163637000Y-68757800D03*
%TD*%
D33*
%TO.C,C2*%
X91694000Y-97348000D03*
X91694000Y-99248000D03*
%TD*%
D34*
%TO.C,C48*%
X109098000Y-82296000D03*
X110998000Y-82296000D03*
%TD*%
D19*
%TO.C,R30*%
X113364000Y-62992000D03*
X115189000Y-62992000D03*
%TD*%
D18*
%TO.C,TP3*%
X70485000Y-85598000D03*
%TD*%
D31*
%TO.C,IC10*%
X147178000Y-108773000D03*
X147828000Y-108773000D03*
X148478000Y-108773000D03*
X148478000Y-106873000D03*
X147178000Y-106873000D03*
%TD*%
D55*
%TO.C,BT2*%
X91774812Y-75518812D03*
X77632676Y-61376676D03*
%TD*%
D18*
%TO.C,TP10*%
X91694000Y-46101000D03*
%TD*%
D56*
%TO.C,C6*%
X191070500Y-72263000D03*
X197295500Y-72263000D03*
%TD*%
D25*
%TO.C,C55*%
X158750000Y-92771000D03*
X158750000Y-90871000D03*
%TD*%
D57*
%TO.C,BT1*%
X106160841Y-93872000D03*
X123481349Y-83872000D03*
%TD*%
M02*
