%TF.GenerationSoftware,KiCad,Pcbnew,(6.0.9)*%
%TF.CreationDate,2022-11-22T19:39:32+02:00*%
%TF.ProjectId,PCB,5043422e-6b69-4636-9164-5f7063625858,rev?*%
%TF.SameCoordinates,Original*%
%TF.FileFunction,Glue,Top*%
%TF.FilePolarity,Positive*%
%FSLAX46Y46*%
G04 Gerber Fmt 4.6, Leading zero omitted, Abs format (unit mm)*
G04 Created by KiCad (PCBNEW (6.0.9)) date 2022-11-22 19:39:32*
%MOMM*%
%LPD*%
G01*
G04 APERTURE LIST*
%TA.AperFunction,Profile*%
%ADD10C,0.100000*%
%TD*%
G04 APERTURE END LIST*
D10*
X175615600Y-38887400D02*
X187248800Y-40665400D01*
X199390000Y-42799000D01*
X200710800Y-44831000D01*
X203250800Y-49199800D01*
X204622400Y-51892200D01*
X206857600Y-56769000D01*
X208889600Y-62204600D01*
X210515200Y-67437000D01*
X211988400Y-73025000D01*
X213360000Y-79629000D01*
X213969600Y-83235800D01*
X214731600Y-89433400D01*
X214985600Y-92532200D01*
X215138000Y-99491800D01*
X215442800Y-107365800D01*
X215392000Y-113614200D01*
X215138000Y-118237000D01*
X214680800Y-121386600D01*
X213918800Y-124739400D01*
X213004400Y-127330200D01*
X211937600Y-129311400D01*
X210769200Y-130784600D01*
X209600800Y-131800600D01*
X208127600Y-132664200D01*
X206197200Y-133375400D01*
X203047600Y-134289800D01*
X201523600Y-134594600D01*
X200558400Y-134747000D01*
X200304400Y-134696200D01*
X199948800Y-134543800D01*
X199491600Y-134035800D01*
X198780400Y-132969000D01*
X197815200Y-130987800D01*
X195986400Y-126669800D01*
X192989200Y-118541800D01*
X190398400Y-112141000D01*
X188264800Y-107670600D01*
X186639200Y-104825800D01*
X184810400Y-102133400D01*
X183083200Y-100203000D01*
X181559200Y-98983800D01*
X179679600Y-97866200D01*
X177800000Y-97256600D01*
X175666400Y-96901000D01*
X173126400Y-96901000D01*
X171450000Y-97002600D01*
X169113200Y-97510600D01*
X166522400Y-98475800D01*
X163880800Y-99796600D01*
X161036000Y-101625400D01*
X158242000Y-103962200D01*
X155346400Y-106756200D01*
X151790400Y-110769400D01*
X149758400Y-112750600D01*
X147878800Y-114071400D01*
X145897600Y-115087400D01*
X143713200Y-115747800D01*
X141325600Y-116052600D01*
X138734800Y-116052600D01*
X136398000Y-115747800D01*
X134213600Y-115087400D01*
X132181600Y-114122200D01*
X130302000Y-112750600D01*
X128320800Y-110769400D01*
X124714000Y-106807000D01*
X121818400Y-103911400D01*
X119024400Y-101676200D01*
X116230400Y-99847400D01*
X113538000Y-98475800D01*
X110998000Y-97561400D01*
X108610400Y-97053400D01*
X106934000Y-96901000D01*
X104394000Y-96901000D01*
X102311200Y-97256600D01*
X100431600Y-97866200D01*
X98552000Y-98933000D01*
X97028000Y-100203000D01*
X95250000Y-102133400D01*
X93421200Y-104775000D01*
X91795600Y-107619800D01*
X89712800Y-112141000D01*
X87122000Y-118491000D01*
X84124800Y-126568200D01*
X82346800Y-130987800D01*
X81280000Y-132969000D01*
X80568800Y-133985000D01*
X79959200Y-134543800D01*
X79552800Y-134696200D01*
X78536800Y-134594600D01*
X77063600Y-134289800D01*
X73863200Y-133375400D01*
X71882000Y-132664200D01*
X70459600Y-131800600D01*
X69291200Y-130784600D01*
X68122800Y-129260600D01*
X67056000Y-127330200D01*
X66141600Y-124790200D01*
X65379600Y-121437400D01*
X64922400Y-118237000D01*
X64668400Y-113563400D01*
X64668400Y-107365800D01*
X64973200Y-94665800D01*
X65176400Y-91059000D01*
X65633600Y-86537800D01*
X66344800Y-81457800D01*
X67310000Y-76377800D01*
X68884800Y-69824600D01*
X70307200Y-64998600D01*
X72186800Y-59461400D01*
X74269600Y-54330600D01*
X76098400Y-50520600D01*
X78079600Y-46964600D01*
X80670400Y-42799000D01*
X86360000Y-41783000D01*
X99822000Y-39547800D01*
X108762800Y-38328600D01*
X109575600Y-45745400D01*
X110083600Y-49453800D01*
X110337600Y-50469800D01*
X110794800Y-51485800D01*
X111455200Y-52501800D01*
X112369600Y-53416200D01*
X113334800Y-54076600D01*
X114858800Y-54940200D01*
X116941600Y-55651400D01*
X118973600Y-56057800D01*
X120751600Y-56261000D01*
X123342400Y-56311800D01*
X126390400Y-56159400D01*
X130606800Y-55753000D01*
X135280400Y-55397400D01*
X138836400Y-55295800D01*
X141681200Y-55295800D01*
X145491200Y-55448200D01*
X150418800Y-55854600D01*
X154076400Y-56159400D01*
X157073600Y-56261000D01*
X159715200Y-56210200D01*
X161340800Y-56007000D01*
X163271200Y-55600600D01*
X165303200Y-54838600D01*
X166370000Y-54330600D01*
X167538400Y-53517800D01*
X168605200Y-52501800D01*
X169214800Y-51587400D01*
X169621200Y-50571400D01*
X169976800Y-49453800D01*
X170332400Y-46710600D01*
X171145200Y-40360600D01*
X171297600Y-38328600D01*
X175615600Y-38887400D01*
X79886044Y-128933444D02*
G75*
G03*
X79886044Y-128933444I-1273044J0D01*
G01*
X177523644Y-53927244D02*
G75*
G03*
X177523644Y-53927244I-1273044J0D01*
G01*
X133073644Y-79606644D02*
G75*
G03*
X133073644Y-79606644I-1273044J0D01*
G01*
X202822044Y-128908044D02*
G75*
G03*
X202822044Y-128908044I-1273044J0D01*
G01*
X76758800Y-87553800D02*
X90627200Y-91770200D01*
X91033600Y-91973400D01*
X91236800Y-92227400D01*
X91287600Y-92481400D01*
X91338400Y-92684600D01*
X91338400Y-93040200D01*
X84480400Y-115392200D01*
X84429600Y-115544600D01*
X84277200Y-115798600D01*
X84023200Y-116001800D01*
X83667600Y-116103400D01*
X83261200Y-116103400D01*
X69392800Y-111836200D01*
X69138800Y-111683800D01*
X68986400Y-111531400D01*
X68783200Y-111277400D01*
X68681600Y-111023400D01*
X68681600Y-110566200D01*
X75539600Y-88214200D01*
X75590400Y-88011000D01*
X75742800Y-87858600D01*
X76047600Y-87655400D01*
X76403200Y-87503000D01*
X76758800Y-87553800D01*
X149659844Y-79606644D02*
G75*
G03*
X149659844Y-79606644I-1273044J0D01*
G01*
X203962000Y-87604600D02*
X204114400Y-87655400D01*
X204266800Y-87858600D01*
X204368400Y-88011000D01*
X204520800Y-88214200D01*
X211277200Y-110363000D01*
X211328000Y-110566200D01*
X211378800Y-110871000D01*
X211328000Y-111175800D01*
X211226400Y-111429800D01*
X211023200Y-111633000D01*
X210667600Y-111836200D01*
X196850000Y-116052600D01*
X196697600Y-116103400D01*
X196392800Y-116103400D01*
X195884800Y-115900200D01*
X195681600Y-115646200D01*
X195529200Y-115392200D01*
X188722000Y-93091000D01*
X188671200Y-92735400D01*
X188772800Y-92329000D01*
X188874400Y-92176600D01*
X189179200Y-91871800D01*
X189382400Y-91770200D01*
X203250800Y-87553800D01*
X203708000Y-87553800D01*
X203962000Y-87604600D01*
X211000844Y-119383044D02*
G75*
G03*
X211000844Y-119383044I-1273044J0D01*
G01*
X105209844Y-53927244D02*
G75*
G03*
X105209844Y-53927244I-1273044J0D01*
G01*
X71732644Y-119383044D02*
G75*
G03*
X71732644Y-119383044I-1273044J0D01*
G01*
M02*
