%TF.GenerationSoftware,KiCad,Pcbnew,(6.0.9)*%
%TF.CreationDate,2022-11-22T19:39:32+02:00*%
%TF.ProjectId,PCB,5043422e-6b69-4636-9164-5f7063625858,rev?*%
%TF.SameCoordinates,Original*%
%TF.FileFunction,Paste,Top*%
%TF.FilePolarity,Positive*%
%FSLAX46Y46*%
G04 Gerber Fmt 4.6, Leading zero omitted, Abs format (unit mm)*
G04 Created by KiCad (PCBNEW (6.0.9)) date 2022-11-22 19:39:32*
%MOMM*%
%LPD*%
G01*
G04 APERTURE LIST*
G04 Aperture macros list*
%AMRoundRect*
0 Rectangle with rounded corners*
0 $1 Rounding radius*
0 $2 $3 $4 $5 $6 $7 $8 $9 X,Y pos of 4 corners*
0 Add a 4 corners polygon primitive as box body*
4,1,4,$2,$3,$4,$5,$6,$7,$8,$9,$2,$3,0*
0 Add four circle primitives for the rounded corners*
1,1,$1+$1,$2,$3*
1,1,$1+$1,$4,$5*
1,1,$1+$1,$6,$7*
1,1,$1+$1,$8,$9*
0 Add four rect primitives between the rounded corners*
20,1,$1+$1,$2,$3,$4,$5,0*
20,1,$1+$1,$4,$5,$6,$7,0*
20,1,$1+$1,$6,$7,$8,$9,0*
20,1,$1+$1,$8,$9,$2,$3,0*%
%AMRotRect*
0 Rectangle, with rotation*
0 The origin of the aperture is its center*
0 $1 length*
0 $2 width*
0 $3 Rotation angle, in degrees counterclockwise*
0 Add horizontal line*
21,1,$1,$2,0,0,$3*%
G04 Aperture macros list end*
%TA.AperFunction,Profile*%
%ADD10C,0.100000*%
%TD*%
%ADD11RoundRect,0.243750X0.243750X0.456250X-0.243750X0.456250X-0.243750X-0.456250X0.243750X-0.456250X0*%
%ADD12RoundRect,0.450000X-1.270000X-0.450000X1.270000X-0.450000X1.270000X0.450000X-1.270000X0.450000X0*%
%ADD13RoundRect,0.250000X-0.262500X-0.450000X0.262500X-0.450000X0.262500X0.450000X-0.262500X0.450000X0*%
%ADD14RoundRect,0.150000X-0.150000X-0.587500X0.150000X-0.587500X0.150000X0.587500X-0.150000X0.587500X0*%
%ADD15RoundRect,0.150000X-0.587500X-0.150000X0.587500X-0.150000X0.587500X0.150000X-0.587500X0.150000X0*%
%ADD16RoundRect,0.250000X0.362500X1.425000X-0.362500X1.425000X-0.362500X-1.425000X0.362500X-1.425000X0*%
%ADD17R,1.200000X0.400000*%
%ADD18RoundRect,0.250000X-0.450000X0.262500X-0.450000X-0.262500X0.450000X-0.262500X0.450000X0.262500X0*%
%ADD19RoundRect,0.250000X0.475000X-0.250000X0.475000X0.250000X-0.475000X0.250000X-0.475000X-0.250000X0*%
%ADD20RoundRect,0.250000X0.250000X0.475000X-0.250000X0.475000X-0.250000X-0.475000X0.250000X-0.475000X0*%
%ADD21R,0.750000X0.650000*%
%ADD22R,0.500000X0.250000*%
%ADD23R,2.800000X1.000000*%
%ADD24RoundRect,0.250000X0.787500X1.025000X-0.787500X1.025000X-0.787500X-1.025000X0.787500X-1.025000X0*%
%ADD25R,0.400000X1.200000*%
%ADD26RoundRect,0.250000X0.262500X0.450000X-0.262500X0.450000X-0.262500X-0.450000X0.262500X-0.450000X0*%
%ADD27RoundRect,0.250000X-0.475000X0.250000X-0.475000X-0.250000X0.475000X-0.250000X0.475000X0.250000X0*%
%ADD28RoundRect,0.250000X-0.250000X-0.475000X0.250000X-0.475000X0.250000X0.475000X-0.250000X0.475000X0*%
%ADD29RoundRect,0.250000X-1.025000X0.787500X-1.025000X-0.787500X1.025000X-0.787500X1.025000X0.787500X0*%
%ADD30R,1.000000X1.000000*%
%ADD31RotRect,1.000000X1.000000X135.000000*%
%ADD32RotRect,1.000000X1.000000X45.000000*%
%ADD33RoundRect,0.250000X0.450000X-0.262500X0.450000X0.262500X-0.450000X0.262500X-0.450000X-0.262500X0*%
%ADD34RoundRect,0.075000X-0.662500X-0.075000X0.662500X-0.075000X0.662500X0.075000X-0.662500X0.075000X0*%
%ADD35RoundRect,0.075000X-0.075000X-0.662500X0.075000X-0.662500X0.075000X0.662500X-0.075000X0.662500X0*%
%ADD36R,0.890000X2.080000*%
%ADD37R,2.325000X1.520000*%
%ADD38RoundRect,0.250000X-0.362500X-1.425000X0.362500X-1.425000X0.362500X1.425000X-0.362500X1.425000X0*%
%ADD39RoundRect,0.250000X1.025000X-0.787500X1.025000X0.787500X-1.025000X0.787500X-1.025000X-0.787500X0*%
%ADD40R,2.000000X1.800000*%
%ADD41RoundRect,0.250000X-0.787500X-1.025000X0.787500X-1.025000X0.787500X1.025000X-0.787500X1.025000X0*%
G04 APERTURE END LIST*
D10*
X175615600Y-38887400D02*
X187248800Y-40665400D01*
X199390000Y-42799000D01*
X200710800Y-44831000D01*
X203250800Y-49199800D01*
X204622400Y-51892200D01*
X206857600Y-56769000D01*
X208889600Y-62204600D01*
X210515200Y-67437000D01*
X211988400Y-73025000D01*
X213360000Y-79629000D01*
X213969600Y-83235800D01*
X214731600Y-89433400D01*
X214985600Y-92532200D01*
X215138000Y-99491800D01*
X215442800Y-107365800D01*
X215392000Y-113614200D01*
X215138000Y-118237000D01*
X214680800Y-121386600D01*
X213918800Y-124739400D01*
X213004400Y-127330200D01*
X211937600Y-129311400D01*
X210769200Y-130784600D01*
X209600800Y-131800600D01*
X208127600Y-132664200D01*
X206197200Y-133375400D01*
X203047600Y-134289800D01*
X201523600Y-134594600D01*
X200558400Y-134747000D01*
X200304400Y-134696200D01*
X199948800Y-134543800D01*
X199491600Y-134035800D01*
X198780400Y-132969000D01*
X197815200Y-130987800D01*
X195986400Y-126669800D01*
X192989200Y-118541800D01*
X190398400Y-112141000D01*
X188264800Y-107670600D01*
X186639200Y-104825800D01*
X184810400Y-102133400D01*
X183083200Y-100203000D01*
X181559200Y-98983800D01*
X179679600Y-97866200D01*
X177800000Y-97256600D01*
X175666400Y-96901000D01*
X173126400Y-96901000D01*
X171450000Y-97002600D01*
X169113200Y-97510600D01*
X166522400Y-98475800D01*
X163880800Y-99796600D01*
X161036000Y-101625400D01*
X158242000Y-103962200D01*
X155346400Y-106756200D01*
X151790400Y-110769400D01*
X149758400Y-112750600D01*
X147878800Y-114071400D01*
X145897600Y-115087400D01*
X143713200Y-115747800D01*
X141325600Y-116052600D01*
X138734800Y-116052600D01*
X136398000Y-115747800D01*
X134213600Y-115087400D01*
X132181600Y-114122200D01*
X130302000Y-112750600D01*
X128320800Y-110769400D01*
X124714000Y-106807000D01*
X121818400Y-103911400D01*
X119024400Y-101676200D01*
X116230400Y-99847400D01*
X113538000Y-98475800D01*
X110998000Y-97561400D01*
X108610400Y-97053400D01*
X106934000Y-96901000D01*
X104394000Y-96901000D01*
X102311200Y-97256600D01*
X100431600Y-97866200D01*
X98552000Y-98933000D01*
X97028000Y-100203000D01*
X95250000Y-102133400D01*
X93421200Y-104775000D01*
X91795600Y-107619800D01*
X89712800Y-112141000D01*
X87122000Y-118491000D01*
X84124800Y-126568200D01*
X82346800Y-130987800D01*
X81280000Y-132969000D01*
X80568800Y-133985000D01*
X79959200Y-134543800D01*
X79552800Y-134696200D01*
X78536800Y-134594600D01*
X77063600Y-134289800D01*
X73863200Y-133375400D01*
X71882000Y-132664200D01*
X70459600Y-131800600D01*
X69291200Y-130784600D01*
X68122800Y-129260600D01*
X67056000Y-127330200D01*
X66141600Y-124790200D01*
X65379600Y-121437400D01*
X64922400Y-118237000D01*
X64668400Y-113563400D01*
X64668400Y-107365800D01*
X64973200Y-94665800D01*
X65176400Y-91059000D01*
X65633600Y-86537800D01*
X66344800Y-81457800D01*
X67310000Y-76377800D01*
X68884800Y-69824600D01*
X70307200Y-64998600D01*
X72186800Y-59461400D01*
X74269600Y-54330600D01*
X76098400Y-50520600D01*
X78079600Y-46964600D01*
X80670400Y-42799000D01*
X86360000Y-41783000D01*
X99822000Y-39547800D01*
X108762800Y-38328600D01*
X109575600Y-45745400D01*
X110083600Y-49453800D01*
X110337600Y-50469800D01*
X110794800Y-51485800D01*
X111455200Y-52501800D01*
X112369600Y-53416200D01*
X113334800Y-54076600D01*
X114858800Y-54940200D01*
X116941600Y-55651400D01*
X118973600Y-56057800D01*
X120751600Y-56261000D01*
X123342400Y-56311800D01*
X126390400Y-56159400D01*
X130606800Y-55753000D01*
X135280400Y-55397400D01*
X138836400Y-55295800D01*
X141681200Y-55295800D01*
X145491200Y-55448200D01*
X150418800Y-55854600D01*
X154076400Y-56159400D01*
X157073600Y-56261000D01*
X159715200Y-56210200D01*
X161340800Y-56007000D01*
X163271200Y-55600600D01*
X165303200Y-54838600D01*
X166370000Y-54330600D01*
X167538400Y-53517800D01*
X168605200Y-52501800D01*
X169214800Y-51587400D01*
X169621200Y-50571400D01*
X169976800Y-49453800D01*
X170332400Y-46710600D01*
X171145200Y-40360600D01*
X171297600Y-38328600D01*
X175615600Y-38887400D01*
X79886044Y-128933444D02*
G75*
G03*
X79886044Y-128933444I-1273044J0D01*
G01*
X177523644Y-53927244D02*
G75*
G03*
X177523644Y-53927244I-1273044J0D01*
G01*
X133073644Y-79606644D02*
G75*
G03*
X133073644Y-79606644I-1273044J0D01*
G01*
X202822044Y-128908044D02*
G75*
G03*
X202822044Y-128908044I-1273044J0D01*
G01*
X76758800Y-87553800D02*
X90627200Y-91770200D01*
X91033600Y-91973400D01*
X91236800Y-92227400D01*
X91287600Y-92481400D01*
X91338400Y-92684600D01*
X91338400Y-93040200D01*
X84480400Y-115392200D01*
X84429600Y-115544600D01*
X84277200Y-115798600D01*
X84023200Y-116001800D01*
X83667600Y-116103400D01*
X83261200Y-116103400D01*
X69392800Y-111836200D01*
X69138800Y-111683800D01*
X68986400Y-111531400D01*
X68783200Y-111277400D01*
X68681600Y-111023400D01*
X68681600Y-110566200D01*
X75539600Y-88214200D01*
X75590400Y-88011000D01*
X75742800Y-87858600D01*
X76047600Y-87655400D01*
X76403200Y-87503000D01*
X76758800Y-87553800D01*
X149659844Y-79606644D02*
G75*
G03*
X149659844Y-79606644I-1273044J0D01*
G01*
X203962000Y-87604600D02*
X204114400Y-87655400D01*
X204266800Y-87858600D01*
X204368400Y-88011000D01*
X204520800Y-88214200D01*
X211277200Y-110363000D01*
X211328000Y-110566200D01*
X211378800Y-110871000D01*
X211328000Y-111175800D01*
X211226400Y-111429800D01*
X211023200Y-111633000D01*
X210667600Y-111836200D01*
X196850000Y-116052600D01*
X196697600Y-116103400D01*
X196392800Y-116103400D01*
X195884800Y-115900200D01*
X195681600Y-115646200D01*
X195529200Y-115392200D01*
X188722000Y-93091000D01*
X188671200Y-92735400D01*
X188772800Y-92329000D01*
X188874400Y-92176600D01*
X189179200Y-91871800D01*
X189382400Y-91770200D01*
X203250800Y-87553800D01*
X203708000Y-87553800D01*
X203962000Y-87604600D01*
X211000844Y-119383044D02*
G75*
G03*
X211000844Y-119383044I-1273044J0D01*
G01*
X105209844Y-53927244D02*
G75*
G03*
X105209844Y-53927244I-1273044J0D01*
G01*
X71732644Y-119383044D02*
G75*
G03*
X71732644Y-119383044I-1273044J0D01*
G01*
D11*
%TO.C,D1*%
X177594500Y-92735400D03*
X175719500Y-92735400D03*
%TD*%
D12*
%TO.C,TP14*%
X86233000Y-78486000D03*
%TD*%
D13*
%TO.C,R31*%
X180722900Y-54203600D03*
X182547900Y-54203600D03*
%TD*%
D14*
%TO.C,U5*%
X129819400Y-87218700D03*
X128549400Y-87218700D03*
X127279400Y-87218700D03*
X126009400Y-87218700D03*
D15*
X124256900Y-88976200D03*
X124256900Y-90246200D03*
X124256900Y-91516200D03*
X124256900Y-92786200D03*
X124256900Y-94056200D03*
X124256900Y-95326200D03*
X124256900Y-96596200D03*
X124256900Y-97866200D03*
X124256900Y-99136200D03*
D14*
X126009400Y-100893700D03*
X127279400Y-100893700D03*
X128549400Y-100893700D03*
X129819400Y-100893700D03*
X131089400Y-100893700D03*
X132359400Y-100893700D03*
X133629400Y-100893700D03*
D15*
X135381900Y-99136200D03*
X135381900Y-97866200D03*
X135381900Y-96596200D03*
X135381900Y-95326200D03*
X135381900Y-94056200D03*
X135381900Y-92786200D03*
X135381900Y-91516200D03*
X135381900Y-90246200D03*
X135381900Y-88976200D03*
D14*
X133629400Y-87218700D03*
X132359400Y-87218700D03*
X131089400Y-87218700D03*
%TD*%
D16*
%TO.C,R1*%
X137455500Y-70637400D03*
X131530500Y-70637400D03*
%TD*%
D17*
%TO.C,IC3*%
X165547000Y-88631000D03*
X165547000Y-89281000D03*
X165547000Y-89931000D03*
X167447000Y-89931000D03*
X167447000Y-88631000D03*
%TD*%
D18*
%TO.C,R22*%
X117602000Y-83947000D03*
X117602000Y-85772000D03*
%TD*%
D11*
%TO.C,D4*%
X177594500Y-86360000D03*
X175719500Y-86360000D03*
%TD*%
D19*
%TO.C,C25*%
X128879600Y-84770000D03*
X128879600Y-82870000D03*
%TD*%
D17*
%TO.C,IC9*%
X165547000Y-85456000D03*
X165547000Y-86106000D03*
X165547000Y-86756000D03*
X167447000Y-86756000D03*
X167447000Y-85456000D03*
%TD*%
D20*
%TO.C,C16*%
X160055600Y-68732400D03*
X158155600Y-68732400D03*
%TD*%
D21*
%TO.C,U1*%
X186629000Y-79217000D03*
X186629000Y-80017000D03*
D22*
X185679000Y-78867000D03*
X185679000Y-79367000D03*
X185679000Y-79867000D03*
X185679000Y-80367000D03*
X187579000Y-80367000D03*
X187579000Y-79867000D03*
X187579000Y-79367000D03*
X187579000Y-78867000D03*
%TD*%
D12*
%TO.C,TP6*%
X150241000Y-57404000D03*
%TD*%
D13*
%TO.C,R17*%
X139700000Y-110998000D03*
X141525000Y-110998000D03*
%TD*%
D23*
%TO.C,S5*%
X130510000Y-61380000D03*
X124710000Y-61380000D03*
X124710000Y-65380000D03*
X130510000Y-65380000D03*
%TD*%
D24*
%TO.C,C3*%
X99251500Y-92329000D03*
X93026500Y-92329000D03*
%TD*%
D25*
%TO.C,IC15*%
X121401600Y-64251800D03*
X120751600Y-64251800D03*
X120101600Y-64251800D03*
X120101600Y-66151800D03*
X121401600Y-66151800D03*
%TD*%
D11*
%TO.C,D3*%
X177592200Y-88442800D03*
X175717200Y-88442800D03*
%TD*%
D20*
%TO.C,C44*%
X163830000Y-88773000D03*
X161930000Y-88773000D03*
%TD*%
D26*
%TO.C,R3*%
X173457000Y-92887800D03*
X171632000Y-92887800D03*
%TD*%
D25*
%TO.C,IC11*%
X150226000Y-108773000D03*
X150876000Y-108773000D03*
X151526000Y-108773000D03*
X151526000Y-106873000D03*
X150226000Y-106873000D03*
%TD*%
D13*
%TO.C,R35*%
X187784100Y-64135000D03*
X189609100Y-64135000D03*
%TD*%
D27*
%TO.C,C4*%
X189404000Y-79109000D03*
X189404000Y-81009000D03*
%TD*%
D12*
%TO.C,TP12*%
X210693000Y-88011000D03*
%TD*%
D28*
%TO.C,C1*%
X94681000Y-96012000D03*
X96581000Y-96012000D03*
%TD*%
D18*
%TO.C,R7*%
X148361400Y-69597900D03*
X148361400Y-71422900D03*
%TD*%
D13*
%TO.C,R29*%
X113387500Y-65024000D03*
X115212500Y-65024000D03*
%TD*%
D29*
%TO.C,C12*%
X127152400Y-73595500D03*
X127152400Y-79820500D03*
%TD*%
D30*
%TO.C,S3*%
X113017000Y-77900000D03*
X122817000Y-77900000D03*
X122817000Y-75700000D03*
X113017000Y-75700000D03*
X116017000Y-71900000D03*
X117917000Y-71900000D03*
X119817000Y-71900000D03*
X116017000Y-81700000D03*
X117917000Y-81700000D03*
X119817000Y-81700000D03*
D31*
X122053570Y-80936570D03*
D32*
X122053570Y-72663430D03*
D31*
X113780430Y-72663430D03*
D32*
X113780430Y-80936570D03*
%TD*%
D26*
%TO.C,R6*%
X173609400Y-86385400D03*
X171784400Y-86385400D03*
%TD*%
D33*
%TO.C,R28*%
X98526600Y-52880900D03*
X98526600Y-51055900D03*
%TD*%
D17*
%TO.C,IC2*%
X150459400Y-69784200D03*
X150459400Y-70434200D03*
X150459400Y-71084200D03*
X152359400Y-71084200D03*
X152359400Y-69784200D03*
%TD*%
D20*
%TO.C,C61*%
X167513000Y-91821000D03*
X165613000Y-91821000D03*
%TD*%
D25*
%TO.C,IC4*%
X141209000Y-108773000D03*
X141859000Y-108773000D03*
X142509000Y-108773000D03*
X142509000Y-106873000D03*
X141209000Y-106873000D03*
%TD*%
D20*
%TO.C,C5*%
X186563000Y-77204000D03*
X184663000Y-77204000D03*
%TD*%
D28*
%TO.C,C41*%
X146954200Y-84429600D03*
X148854200Y-84429600D03*
%TD*%
D34*
%TO.C,U4*%
X141130700Y-88335600D03*
X141130700Y-88835600D03*
X141130700Y-89335600D03*
X141130700Y-89835600D03*
X141130700Y-90335600D03*
X141130700Y-90835600D03*
X141130700Y-91335600D03*
X141130700Y-91835600D03*
X141130700Y-92335600D03*
X141130700Y-92835600D03*
X141130700Y-93335600D03*
X141130700Y-93835600D03*
X141130700Y-94335600D03*
X141130700Y-94835600D03*
X141130700Y-95335600D03*
X141130700Y-95835600D03*
X141130700Y-96335600D03*
X141130700Y-96835600D03*
X141130700Y-97335600D03*
X141130700Y-97835600D03*
X141130700Y-98335600D03*
X141130700Y-98835600D03*
X141130700Y-99335600D03*
X141130700Y-99835600D03*
X141130700Y-100335600D03*
D35*
X142793200Y-101998100D03*
X143293200Y-101998100D03*
X143793200Y-101998100D03*
X144293200Y-101998100D03*
X144793200Y-101998100D03*
X145293200Y-101998100D03*
X145793200Y-101998100D03*
X146293200Y-101998100D03*
X146793200Y-101998100D03*
X147293200Y-101998100D03*
X147793200Y-101998100D03*
X148293200Y-101998100D03*
X148793200Y-101998100D03*
X149293200Y-101998100D03*
X149793200Y-101998100D03*
X150293200Y-101998100D03*
X150793200Y-101998100D03*
X151293200Y-101998100D03*
X151793200Y-101998100D03*
X152293200Y-101998100D03*
X152793200Y-101998100D03*
X153293200Y-101998100D03*
X153793200Y-101998100D03*
X154293200Y-101998100D03*
X154793200Y-101998100D03*
D34*
X156455700Y-100335600D03*
X156455700Y-99835600D03*
X156455700Y-99335600D03*
X156455700Y-98835600D03*
X156455700Y-98335600D03*
X156455700Y-97835600D03*
X156455700Y-97335600D03*
X156455700Y-96835600D03*
X156455700Y-96335600D03*
X156455700Y-95835600D03*
X156455700Y-95335600D03*
X156455700Y-94835600D03*
X156455700Y-94335600D03*
X156455700Y-93835600D03*
X156455700Y-93335600D03*
X156455700Y-92835600D03*
X156455700Y-92335600D03*
X156455700Y-91835600D03*
X156455700Y-91335600D03*
X156455700Y-90835600D03*
X156455700Y-90335600D03*
X156455700Y-89835600D03*
X156455700Y-89335600D03*
X156455700Y-88835600D03*
X156455700Y-88335600D03*
D35*
X154793200Y-86673100D03*
X154293200Y-86673100D03*
X153793200Y-86673100D03*
X153293200Y-86673100D03*
X152793200Y-86673100D03*
X152293200Y-86673100D03*
X151793200Y-86673100D03*
X151293200Y-86673100D03*
X150793200Y-86673100D03*
X150293200Y-86673100D03*
X149793200Y-86673100D03*
X149293200Y-86673100D03*
X148793200Y-86673100D03*
X148293200Y-86673100D03*
X147793200Y-86673100D03*
X147293200Y-86673100D03*
X146793200Y-86673100D03*
X146293200Y-86673100D03*
X145793200Y-86673100D03*
X145293200Y-86673100D03*
X144793200Y-86673100D03*
X144293200Y-86673100D03*
X143793200Y-86673100D03*
X143293200Y-86673100D03*
X142793200Y-86673100D03*
%TD*%
D36*
%TO.C,S1*%
X142590000Y-65150000D03*
X137510000Y-65150000D03*
D37*
X145428000Y-56230000D03*
X134672000Y-56230000D03*
%TD*%
D20*
%TO.C,C58*%
X147762000Y-110998000D03*
X145862000Y-110998000D03*
%TD*%
%TO.C,C32*%
X141894600Y-73812400D03*
X139994600Y-73812400D03*
%TD*%
D12*
%TO.C,TP9*%
X76073000Y-122301000D03*
%TD*%
D38*
%TO.C,R2*%
X139887100Y-70586600D03*
X145812100Y-70586600D03*
%TD*%
D18*
%TO.C,R20*%
X115443000Y-83947000D03*
X115443000Y-85772000D03*
%TD*%
D12*
%TO.C,TP1*%
X179578000Y-83185000D03*
%TD*%
%TO.C,TP4*%
X90932000Y-103378000D03*
%TD*%
D25*
%TO.C,IC5*%
X109997000Y-77155000D03*
X109347000Y-77155000D03*
X108697000Y-77155000D03*
X108697000Y-79055000D03*
X109997000Y-79055000D03*
%TD*%
D18*
%TO.C,R34*%
X188468000Y-71327000D03*
X188468000Y-73152000D03*
%TD*%
D12*
%TO.C,TP5*%
X119253000Y-58039000D03*
%TD*%
D33*
%TO.C,R21*%
X95758000Y-87907500D03*
X95758000Y-86082500D03*
%TD*%
D39*
%TO.C,C18*%
X161391600Y-65418700D03*
X161391600Y-59193700D03*
%TD*%
D20*
%TO.C,C22*%
X148270000Y-73634600D03*
X146370000Y-73634600D03*
%TD*%
D11*
%TO.C,D2*%
X177594500Y-90627200D03*
X175719500Y-90627200D03*
%TD*%
D17*
%TO.C,IC8*%
X97856000Y-84440000D03*
X97856000Y-85090000D03*
X97856000Y-85740000D03*
X99756000Y-85740000D03*
X99756000Y-84440000D03*
%TD*%
D20*
%TO.C,C11*%
X128026200Y-70916800D03*
X126126200Y-70916800D03*
%TD*%
D19*
%TO.C,C24*%
X130937000Y-84770000D03*
X130937000Y-82870000D03*
%TD*%
D40*
%TO.C,Y1*%
X138414400Y-77012800D03*
X138414400Y-82092800D03*
X142814400Y-82092800D03*
X142814400Y-77012800D03*
%TD*%
D13*
%TO.C,R27*%
X113387500Y-60833000D03*
X115212500Y-60833000D03*
%TD*%
D27*
%TO.C,C50*%
X169164000Y-79314000D03*
X169164000Y-81214000D03*
%TD*%
D12*
%TO.C,TP8*%
X177673000Y-43307000D03*
%TD*%
D18*
%TO.C,R26*%
X104089200Y-79757900D03*
X104089200Y-81582900D03*
%TD*%
D20*
%TO.C,C40*%
X142428000Y-104317800D03*
X140528000Y-104317800D03*
%TD*%
D18*
%TO.C,R24*%
X119761000Y-83923500D03*
X119761000Y-85748500D03*
%TD*%
D12*
%TO.C,TP13*%
X195072000Y-76962000D03*
%TD*%
D19*
%TO.C,C42*%
X158496000Y-98867000D03*
X158496000Y-96967000D03*
%TD*%
D30*
%TO.C,S4*%
X156280000Y-77900000D03*
X166080000Y-77900000D03*
X166080000Y-75700000D03*
X156280000Y-75700000D03*
X159280000Y-71900000D03*
X161180000Y-71900000D03*
X163080000Y-71900000D03*
X159280000Y-81700000D03*
X161180000Y-81700000D03*
X163080000Y-81700000D03*
D31*
X165316570Y-80936570D03*
D32*
X165316570Y-72663430D03*
D31*
X157043430Y-72663430D03*
D32*
X157043430Y-80936570D03*
%TD*%
D13*
%TO.C,R25*%
X129366000Y-107188000D03*
X131191000Y-107188000D03*
%TD*%
D33*
%TO.C,R33*%
X172694600Y-55166900D03*
X172694600Y-53341900D03*
%TD*%
D20*
%TO.C,C46*%
X141478000Y-113157000D03*
X139578000Y-113157000D03*
%TD*%
D17*
%TO.C,IC12*%
X133162000Y-106538000D03*
X133162000Y-107188000D03*
X133162000Y-107838000D03*
X135062000Y-107838000D03*
X135062000Y-106538000D03*
%TD*%
D23*
%TO.C,S2*%
X149860000Y-65380000D03*
X155660000Y-65380000D03*
X155660000Y-61380000D03*
X149860000Y-61380000D03*
%TD*%
D12*
%TO.C,TP2*%
X183642000Y-95758000D03*
%TD*%
D28*
%TO.C,C66*%
X171455000Y-80645000D03*
X173355000Y-80645000D03*
%TD*%
D26*
%TO.C,R4*%
X173558600Y-90652600D03*
X171733600Y-90652600D03*
%TD*%
%TO.C,R5*%
X173558600Y-88519000D03*
X171733600Y-88519000D03*
%TD*%
D12*
%TO.C,TP11*%
X202057000Y-121666000D03*
%TD*%
D28*
%TO.C,C64*%
X104206000Y-83642200D03*
X106106000Y-83642200D03*
%TD*%
D12*
%TO.C,TP7*%
X167894000Y-56896000D03*
%TD*%
D21*
%TO.C,U2*%
X94615000Y-97898000D03*
X94615000Y-98698000D03*
D22*
X93665000Y-97548000D03*
X93665000Y-98048000D03*
X93665000Y-98548000D03*
X93665000Y-99048000D03*
X95565000Y-99048000D03*
X95565000Y-98548000D03*
X95565000Y-98048000D03*
X95565000Y-97548000D03*
%TD*%
D28*
%TO.C,C49*%
X167452000Y-83312000D03*
X169352000Y-83312000D03*
%TD*%
D19*
%TO.C,C54*%
X95783400Y-84439800D03*
X95783400Y-82539800D03*
%TD*%
D20*
%TO.C,C51*%
X99705200Y-82600800D03*
X97805200Y-82600800D03*
%TD*%
D26*
%TO.C,R36*%
X124178700Y-68884800D03*
X122353700Y-68884800D03*
%TD*%
D20*
%TO.C,C10*%
X128026200Y-68808600D03*
X126126200Y-68808600D03*
%TD*%
D28*
%TO.C,C23*%
X154167800Y-70053200D03*
X156067800Y-70053200D03*
%TD*%
D20*
%TO.C,C68*%
X120558600Y-68961000D03*
X118658600Y-68961000D03*
%TD*%
D25*
%TO.C,IC6*%
X144130000Y-108712000D03*
X144780000Y-108712000D03*
X145430000Y-108712000D03*
X145430000Y-106812000D03*
X144130000Y-106812000D03*
%TD*%
D28*
%TO.C,C17*%
X161737000Y-68757800D03*
X163637000Y-68757800D03*
%TD*%
D27*
%TO.C,C2*%
X91694000Y-97348000D03*
X91694000Y-99248000D03*
%TD*%
D28*
%TO.C,C48*%
X109098000Y-82296000D03*
X110998000Y-82296000D03*
%TD*%
D13*
%TO.C,R30*%
X113364000Y-62992000D03*
X115189000Y-62992000D03*
%TD*%
D12*
%TO.C,TP3*%
X70485000Y-85598000D03*
%TD*%
D25*
%TO.C,IC10*%
X147178000Y-108773000D03*
X147828000Y-108773000D03*
X148478000Y-108773000D03*
X148478000Y-106873000D03*
X147178000Y-106873000D03*
%TD*%
D12*
%TO.C,TP10*%
X91694000Y-46101000D03*
%TD*%
D41*
%TO.C,C6*%
X191070500Y-72263000D03*
X197295500Y-72263000D03*
%TD*%
D19*
%TO.C,C55*%
X158750000Y-92771000D03*
X158750000Y-90871000D03*
%TD*%
M02*
