%TF.GenerationSoftware,KiCad,Pcbnew,(6.0.9)*%
%TF.CreationDate,2022-11-22T19:39:32+02:00*%
%TF.ProjectId,PCB,5043422e-6b69-4636-9164-5f7063625858,rev?*%
%TF.SameCoordinates,Original*%
%TF.FileFunction,Soldermask,Top*%
%TF.FilePolarity,Negative*%
%FSLAX46Y46*%
G04 Gerber Fmt 4.6, Leading zero omitted, Abs format (unit mm)*
G04 Created by KiCad (PCBNEW (6.0.9)) date 2022-11-22 19:39:32*
%MOMM*%
%LPD*%
G01*
G04 APERTURE LIST*
G04 Aperture macros list*
%AMRoundRect*
0 Rectangle with rounded corners*
0 $1 Rounding radius*
0 $2 $3 $4 $5 $6 $7 $8 $9 X,Y pos of 4 corners*
0 Add a 4 corners polygon primitive as box body*
4,1,4,$2,$3,$4,$5,$6,$7,$8,$9,$2,$3,0*
0 Add four circle primitives for the rounded corners*
1,1,$1+$1,$2,$3*
1,1,$1+$1,$4,$5*
1,1,$1+$1,$6,$7*
1,1,$1+$1,$8,$9*
0 Add four rect primitives between the rounded corners*
20,1,$1+$1,$2,$3,$4,$5,0*
20,1,$1+$1,$4,$5,$6,$7,0*
20,1,$1+$1,$6,$7,$8,$9,0*
20,1,$1+$1,$8,$9,$2,$3,0*%
%AMHorizOval*
0 Thick line with rounded ends*
0 $1 width*
0 $2 $3 position (X,Y) of the first rounded end (center of the circle)*
0 $4 $5 position (X,Y) of the second rounded end (center of the circle)*
0 Add line between two ends*
20,1,$1,$2,$3,$4,$5,0*
0 Add two circle primitives to create the rounded ends*
1,1,$1,$2,$3*
1,1,$1,$4,$5*%
%AMRotRect*
0 Rectangle, with rotation*
0 The origin of the aperture is its center*
0 $1 length*
0 $2 width*
0 $3 Rotation angle, in degrees counterclockwise*
0 Add horizontal line*
21,1,$1,$2,0,0,$3*%
G04 Aperture macros list end*
%TA.AperFunction,Profile*%
%ADD10C,0.100000*%
%TD*%
%ADD11RoundRect,0.243750X0.243750X0.456250X-0.243750X0.456250X-0.243750X-0.456250X0.243750X-0.456250X0*%
%ADD12RoundRect,0.450000X-1.270000X-0.450000X1.270000X-0.450000X1.270000X0.450000X-1.270000X0.450000X0*%
%ADD13RoundRect,0.250000X-0.262500X-0.450000X0.262500X-0.450000X0.262500X0.450000X-0.262500X0.450000X0*%
%ADD14RoundRect,0.150000X-0.150000X-0.587500X0.150000X-0.587500X0.150000X0.587500X-0.150000X0.587500X0*%
%ADD15RoundRect,0.150000X-0.587500X-0.150000X0.587500X-0.150000X0.587500X0.150000X-0.587500X0.150000X0*%
%ADD16RoundRect,0.250000X0.362500X1.425000X-0.362500X1.425000X-0.362500X-1.425000X0.362500X-1.425000X0*%
%ADD17R,1.200000X0.400000*%
%ADD18RoundRect,0.250000X-0.450000X0.262500X-0.450000X-0.262500X0.450000X-0.262500X0.450000X0.262500X0*%
%ADD19RoundRect,0.250000X0.475000X-0.250000X0.475000X0.250000X-0.475000X0.250000X-0.475000X-0.250000X0*%
%ADD20RoundRect,0.250000X0.250000X0.475000X-0.250000X0.475000X-0.250000X-0.475000X0.250000X-0.475000X0*%
%ADD21R,0.500000X0.250000*%
%ADD22R,0.900000X1.600000*%
%ADD23R,2.800000X1.000000*%
%ADD24RoundRect,0.250000X0.787500X1.025000X-0.787500X1.025000X-0.787500X-1.025000X0.787500X-1.025000X0*%
%ADD25R,0.400000X1.200000*%
%ADD26RoundRect,0.250000X0.262500X0.450000X-0.262500X0.450000X-0.262500X-0.450000X0.262500X-0.450000X0*%
%ADD27RoundRect,0.250000X-0.475000X0.250000X-0.475000X-0.250000X0.475000X-0.250000X0.475000X0.250000X0*%
%ADD28RoundRect,0.250000X-0.250000X-0.475000X0.250000X-0.475000X0.250000X0.475000X-0.250000X0.475000X0*%
%ADD29RoundRect,0.250000X-1.025000X0.787500X-1.025000X-0.787500X1.025000X-0.787500X1.025000X0.787500X0*%
%ADD30R,1.000000X1.000000*%
%ADD31RotRect,1.000000X1.000000X135.000000*%
%ADD32RotRect,1.000000X1.000000X45.000000*%
%ADD33RotRect,1.700000X1.700000X120.000000*%
%ADD34HorizOval,1.700000X0.000000X0.000000X0.000000X0.000000X0*%
%ADD35RoundRect,0.250000X0.450000X-0.262500X0.450000X0.262500X-0.450000X0.262500X-0.450000X-0.262500X0*%
%ADD36RoundRect,0.075000X-0.662500X-0.075000X0.662500X-0.075000X0.662500X0.075000X-0.662500X0.075000X0*%
%ADD37RoundRect,0.075000X-0.075000X-0.662500X0.075000X-0.662500X0.075000X0.662500X-0.075000X0.662500X0*%
%ADD38R,0.890000X2.080000*%
%ADD39R,2.325000X1.520000*%
%ADD40RoundRect,0.250000X-0.362500X-1.425000X0.362500X-1.425000X0.362500X1.425000X-0.362500X1.425000X0*%
%ADD41RoundRect,0.250000X1.025000X-0.787500X1.025000X0.787500X-1.025000X0.787500X-1.025000X-0.787500X0*%
%ADD42R,2.000000X1.800000*%
%ADD43C,2.000000*%
%ADD44C,3.000000*%
%ADD45RotRect,1.700000X1.700000X45.000000*%
%ADD46HorizOval,1.700000X0.000000X0.000000X0.000000X0.000000X0*%
%ADD47RotRect,1.700000X1.700000X240.000000*%
%ADD48HorizOval,1.700000X0.000000X0.000000X0.000000X0.000000X0*%
%ADD49RotRect,2.000000X4.000000X135.000000*%
%ADD50RoundRect,0.250000X-0.787500X-1.025000X0.787500X-1.025000X0.787500X1.025000X-0.787500X1.025000X0*%
%ADD51RotRect,2.000000X4.000000X30.000000*%
G04 APERTURE END LIST*
D10*
X175615600Y-38887400D02*
X187248800Y-40665400D01*
X199390000Y-42799000D01*
X200710800Y-44831000D01*
X203250800Y-49199800D01*
X204622400Y-51892200D01*
X206857600Y-56769000D01*
X208889600Y-62204600D01*
X210515200Y-67437000D01*
X211988400Y-73025000D01*
X213360000Y-79629000D01*
X213969600Y-83235800D01*
X214731600Y-89433400D01*
X214985600Y-92532200D01*
X215138000Y-99491800D01*
X215442800Y-107365800D01*
X215392000Y-113614200D01*
X215138000Y-118237000D01*
X214680800Y-121386600D01*
X213918800Y-124739400D01*
X213004400Y-127330200D01*
X211937600Y-129311400D01*
X210769200Y-130784600D01*
X209600800Y-131800600D01*
X208127600Y-132664200D01*
X206197200Y-133375400D01*
X203047600Y-134289800D01*
X201523600Y-134594600D01*
X200558400Y-134747000D01*
X200304400Y-134696200D01*
X199948800Y-134543800D01*
X199491600Y-134035800D01*
X198780400Y-132969000D01*
X197815200Y-130987800D01*
X195986400Y-126669800D01*
X192989200Y-118541800D01*
X190398400Y-112141000D01*
X188264800Y-107670600D01*
X186639200Y-104825800D01*
X184810400Y-102133400D01*
X183083200Y-100203000D01*
X181559200Y-98983800D01*
X179679600Y-97866200D01*
X177800000Y-97256600D01*
X175666400Y-96901000D01*
X173126400Y-96901000D01*
X171450000Y-97002600D01*
X169113200Y-97510600D01*
X166522400Y-98475800D01*
X163880800Y-99796600D01*
X161036000Y-101625400D01*
X158242000Y-103962200D01*
X155346400Y-106756200D01*
X151790400Y-110769400D01*
X149758400Y-112750600D01*
X147878800Y-114071400D01*
X145897600Y-115087400D01*
X143713200Y-115747800D01*
X141325600Y-116052600D01*
X138734800Y-116052600D01*
X136398000Y-115747800D01*
X134213600Y-115087400D01*
X132181600Y-114122200D01*
X130302000Y-112750600D01*
X128320800Y-110769400D01*
X124714000Y-106807000D01*
X121818400Y-103911400D01*
X119024400Y-101676200D01*
X116230400Y-99847400D01*
X113538000Y-98475800D01*
X110998000Y-97561400D01*
X108610400Y-97053400D01*
X106934000Y-96901000D01*
X104394000Y-96901000D01*
X102311200Y-97256600D01*
X100431600Y-97866200D01*
X98552000Y-98933000D01*
X97028000Y-100203000D01*
X95250000Y-102133400D01*
X93421200Y-104775000D01*
X91795600Y-107619800D01*
X89712800Y-112141000D01*
X87122000Y-118491000D01*
X84124800Y-126568200D01*
X82346800Y-130987800D01*
X81280000Y-132969000D01*
X80568800Y-133985000D01*
X79959200Y-134543800D01*
X79552800Y-134696200D01*
X78536800Y-134594600D01*
X77063600Y-134289800D01*
X73863200Y-133375400D01*
X71882000Y-132664200D01*
X70459600Y-131800600D01*
X69291200Y-130784600D01*
X68122800Y-129260600D01*
X67056000Y-127330200D01*
X66141600Y-124790200D01*
X65379600Y-121437400D01*
X64922400Y-118237000D01*
X64668400Y-113563400D01*
X64668400Y-107365800D01*
X64973200Y-94665800D01*
X65176400Y-91059000D01*
X65633600Y-86537800D01*
X66344800Y-81457800D01*
X67310000Y-76377800D01*
X68884800Y-69824600D01*
X70307200Y-64998600D01*
X72186800Y-59461400D01*
X74269600Y-54330600D01*
X76098400Y-50520600D01*
X78079600Y-46964600D01*
X80670400Y-42799000D01*
X86360000Y-41783000D01*
X99822000Y-39547800D01*
X108762800Y-38328600D01*
X109575600Y-45745400D01*
X110083600Y-49453800D01*
X110337600Y-50469800D01*
X110794800Y-51485800D01*
X111455200Y-52501800D01*
X112369600Y-53416200D01*
X113334800Y-54076600D01*
X114858800Y-54940200D01*
X116941600Y-55651400D01*
X118973600Y-56057800D01*
X120751600Y-56261000D01*
X123342400Y-56311800D01*
X126390400Y-56159400D01*
X130606800Y-55753000D01*
X135280400Y-55397400D01*
X138836400Y-55295800D01*
X141681200Y-55295800D01*
X145491200Y-55448200D01*
X150418800Y-55854600D01*
X154076400Y-56159400D01*
X157073600Y-56261000D01*
X159715200Y-56210200D01*
X161340800Y-56007000D01*
X163271200Y-55600600D01*
X165303200Y-54838600D01*
X166370000Y-54330600D01*
X167538400Y-53517800D01*
X168605200Y-52501800D01*
X169214800Y-51587400D01*
X169621200Y-50571400D01*
X169976800Y-49453800D01*
X170332400Y-46710600D01*
X171145200Y-40360600D01*
X171297600Y-38328600D01*
X175615600Y-38887400D01*
X79886044Y-128933444D02*
G75*
G03*
X79886044Y-128933444I-1273044J0D01*
G01*
X177523644Y-53927244D02*
G75*
G03*
X177523644Y-53927244I-1273044J0D01*
G01*
X133073644Y-79606644D02*
G75*
G03*
X133073644Y-79606644I-1273044J0D01*
G01*
X202822044Y-128908044D02*
G75*
G03*
X202822044Y-128908044I-1273044J0D01*
G01*
X76758800Y-87553800D02*
X90627200Y-91770200D01*
X91033600Y-91973400D01*
X91236800Y-92227400D01*
X91287600Y-92481400D01*
X91338400Y-92684600D01*
X91338400Y-93040200D01*
X84480400Y-115392200D01*
X84429600Y-115544600D01*
X84277200Y-115798600D01*
X84023200Y-116001800D01*
X83667600Y-116103400D01*
X83261200Y-116103400D01*
X69392800Y-111836200D01*
X69138800Y-111683800D01*
X68986400Y-111531400D01*
X68783200Y-111277400D01*
X68681600Y-111023400D01*
X68681600Y-110566200D01*
X75539600Y-88214200D01*
X75590400Y-88011000D01*
X75742800Y-87858600D01*
X76047600Y-87655400D01*
X76403200Y-87503000D01*
X76758800Y-87553800D01*
X149659844Y-79606644D02*
G75*
G03*
X149659844Y-79606644I-1273044J0D01*
G01*
X203962000Y-87604600D02*
X204114400Y-87655400D01*
X204266800Y-87858600D01*
X204368400Y-88011000D01*
X204520800Y-88214200D01*
X211277200Y-110363000D01*
X211328000Y-110566200D01*
X211378800Y-110871000D01*
X211328000Y-111175800D01*
X211226400Y-111429800D01*
X211023200Y-111633000D01*
X210667600Y-111836200D01*
X196850000Y-116052600D01*
X196697600Y-116103400D01*
X196392800Y-116103400D01*
X195884800Y-115900200D01*
X195681600Y-115646200D01*
X195529200Y-115392200D01*
X188722000Y-93091000D01*
X188671200Y-92735400D01*
X188772800Y-92329000D01*
X188874400Y-92176600D01*
X189179200Y-91871800D01*
X189382400Y-91770200D01*
X203250800Y-87553800D01*
X203708000Y-87553800D01*
X203962000Y-87604600D01*
X211000844Y-119383044D02*
G75*
G03*
X211000844Y-119383044I-1273044J0D01*
G01*
X105209844Y-53927244D02*
G75*
G03*
X105209844Y-53927244I-1273044J0D01*
G01*
X71732644Y-119383044D02*
G75*
G03*
X71732644Y-119383044I-1273044J0D01*
G01*
X175615600Y-38887400D02*
X187248800Y-40665400D01*
X199390000Y-42799000D01*
X200710800Y-44831000D01*
X203250800Y-49199800D01*
X204622400Y-51892200D01*
X206857600Y-56769000D01*
X208889600Y-62204600D01*
X210515200Y-67437000D01*
X211988400Y-73025000D01*
X213360000Y-79629000D01*
X213969600Y-83235800D01*
X214731600Y-89433400D01*
X214985600Y-92532200D01*
X215138000Y-99491800D01*
X215442800Y-107365800D01*
X215392000Y-113614200D01*
X215138000Y-118237000D01*
X214680800Y-121386600D01*
X213918800Y-124739400D01*
X213004400Y-127330200D01*
X211937600Y-129311400D01*
X210769200Y-130784600D01*
X209600800Y-131800600D01*
X208127600Y-132664200D01*
X206197200Y-133375400D01*
X203047600Y-134289800D01*
X201523600Y-134594600D01*
X200558400Y-134747000D01*
X200304400Y-134696200D01*
X199948800Y-134543800D01*
X199491600Y-134035800D01*
X198780400Y-132969000D01*
X197815200Y-130987800D01*
X195986400Y-126669800D01*
X192989200Y-118541800D01*
X190398400Y-112141000D01*
X188264800Y-107670600D01*
X186639200Y-104825800D01*
X184810400Y-102133400D01*
X183083200Y-100203000D01*
X181559200Y-98983800D01*
X179679600Y-97866200D01*
X177800000Y-97256600D01*
X175666400Y-96901000D01*
X173126400Y-96901000D01*
X171450000Y-97002600D01*
X169113200Y-97510600D01*
X166522400Y-98475800D01*
X163880800Y-99796600D01*
X161036000Y-101625400D01*
X158242000Y-103962200D01*
X155346400Y-106756200D01*
X151790400Y-110769400D01*
X149758400Y-112750600D01*
X147878800Y-114071400D01*
X145897600Y-115087400D01*
X143713200Y-115747800D01*
X141325600Y-116052600D01*
X138734800Y-116052600D01*
X136398000Y-115747800D01*
X134213600Y-115087400D01*
X132181600Y-114122200D01*
X130302000Y-112750600D01*
X128320800Y-110769400D01*
X124714000Y-106807000D01*
X121818400Y-103911400D01*
X119024400Y-101676200D01*
X116230400Y-99847400D01*
X113538000Y-98475800D01*
X110998000Y-97561400D01*
X108610400Y-97053400D01*
X106934000Y-96901000D01*
X104394000Y-96901000D01*
X102311200Y-97256600D01*
X100431600Y-97866200D01*
X98552000Y-98933000D01*
X97028000Y-100203000D01*
X95250000Y-102133400D01*
X93421200Y-104775000D01*
X91795600Y-107619800D01*
X89712800Y-112141000D01*
X87122000Y-118491000D01*
X84124800Y-126568200D01*
X82346800Y-130987800D01*
X81280000Y-132969000D01*
X80568800Y-133985000D01*
X79959200Y-134543800D01*
X79552800Y-134696200D01*
X78536800Y-134594600D01*
X77063600Y-134289800D01*
X73863200Y-133375400D01*
X71882000Y-132664200D01*
X70459600Y-131800600D01*
X69291200Y-130784600D01*
X68122800Y-129260600D01*
X67056000Y-127330200D01*
X66141600Y-124790200D01*
X65379600Y-121437400D01*
X64922400Y-118237000D01*
X64668400Y-113563400D01*
X64668400Y-107365800D01*
X64973200Y-94665800D01*
X65176400Y-91059000D01*
X65633600Y-86537800D01*
X66344800Y-81457800D01*
X67310000Y-76377800D01*
X68884800Y-69824600D01*
X70307200Y-64998600D01*
X72186800Y-59461400D01*
X74269600Y-54330600D01*
X76098400Y-50520600D01*
X78079600Y-46964600D01*
X80670400Y-42799000D01*
X86360000Y-41783000D01*
X99822000Y-39547800D01*
X108762800Y-38328600D01*
X109575600Y-45745400D01*
X110083600Y-49453800D01*
X110337600Y-50469800D01*
X110794800Y-51485800D01*
X111455200Y-52501800D01*
X112369600Y-53416200D01*
X113334800Y-54076600D01*
X114858800Y-54940200D01*
X116941600Y-55651400D01*
X118973600Y-56057800D01*
X120751600Y-56261000D01*
X123342400Y-56311800D01*
X126390400Y-56159400D01*
X130606800Y-55753000D01*
X135280400Y-55397400D01*
X138836400Y-55295800D01*
X141681200Y-55295800D01*
X145491200Y-55448200D01*
X150418800Y-55854600D01*
X154076400Y-56159400D01*
X157073600Y-56261000D01*
X159715200Y-56210200D01*
X161340800Y-56007000D01*
X163271200Y-55600600D01*
X165303200Y-54838600D01*
X166370000Y-54330600D01*
X167538400Y-53517800D01*
X168605200Y-52501800D01*
X169214800Y-51587400D01*
X169621200Y-50571400D01*
X169976800Y-49453800D01*
X170332400Y-46710600D01*
X171145200Y-40360600D01*
X171297600Y-38328600D01*
X175615600Y-38887400D01*
X79886044Y-128933444D02*
G75*
G03*
X79886044Y-128933444I-1273044J0D01*
G01*
X177523644Y-53927244D02*
G75*
G03*
X177523644Y-53927244I-1273044J0D01*
G01*
X133073644Y-79606644D02*
G75*
G03*
X133073644Y-79606644I-1273044J0D01*
G01*
X202822044Y-128908044D02*
G75*
G03*
X202822044Y-128908044I-1273044J0D01*
G01*
X76758800Y-87553800D02*
X90627200Y-91770200D01*
X91033600Y-91973400D01*
X91236800Y-92227400D01*
X91287600Y-92481400D01*
X91338400Y-92684600D01*
X91338400Y-93040200D01*
X84480400Y-115392200D01*
X84429600Y-115544600D01*
X84277200Y-115798600D01*
X84023200Y-116001800D01*
X83667600Y-116103400D01*
X83261200Y-116103400D01*
X69392800Y-111836200D01*
X69138800Y-111683800D01*
X68986400Y-111531400D01*
X68783200Y-111277400D01*
X68681600Y-111023400D01*
X68681600Y-110566200D01*
X75539600Y-88214200D01*
X75590400Y-88011000D01*
X75742800Y-87858600D01*
X76047600Y-87655400D01*
X76403200Y-87503000D01*
X76758800Y-87553800D01*
X149659844Y-79606644D02*
G75*
G03*
X149659844Y-79606644I-1273044J0D01*
G01*
X203962000Y-87604600D02*
X204114400Y-87655400D01*
X204266800Y-87858600D01*
X204368400Y-88011000D01*
X204520800Y-88214200D01*
X211277200Y-110363000D01*
X211328000Y-110566200D01*
X211378800Y-110871000D01*
X211328000Y-111175800D01*
X211226400Y-111429800D01*
X211023200Y-111633000D01*
X210667600Y-111836200D01*
X196850000Y-116052600D01*
X196697600Y-116103400D01*
X196392800Y-116103400D01*
X195884800Y-115900200D01*
X195681600Y-115646200D01*
X195529200Y-115392200D01*
X188722000Y-93091000D01*
X188671200Y-92735400D01*
X188772800Y-92329000D01*
X188874400Y-92176600D01*
X189179200Y-91871800D01*
X189382400Y-91770200D01*
X203250800Y-87553800D01*
X203708000Y-87553800D01*
X203962000Y-87604600D01*
X211000844Y-119383044D02*
G75*
G03*
X211000844Y-119383044I-1273044J0D01*
G01*
X105209844Y-53927244D02*
G75*
G03*
X105209844Y-53927244I-1273044J0D01*
G01*
X71732644Y-119383044D02*
G75*
G03*
X71732644Y-119383044I-1273044J0D01*
G01*
D11*
%TO.C,D1*%
X177594500Y-92735400D03*
X175719500Y-92735400D03*
%TD*%
D12*
%TO.C,TP14*%
X86233000Y-78486000D03*
%TD*%
D13*
%TO.C,R31*%
X180722900Y-54203600D03*
X182547900Y-54203600D03*
%TD*%
D14*
%TO.C,U5*%
X129819400Y-87218700D03*
X128549400Y-87218700D03*
X127279400Y-87218700D03*
X126009400Y-87218700D03*
D15*
X124256900Y-88976200D03*
X124256900Y-90246200D03*
X124256900Y-91516200D03*
X124256900Y-92786200D03*
X124256900Y-94056200D03*
X124256900Y-95326200D03*
X124256900Y-96596200D03*
X124256900Y-97866200D03*
X124256900Y-99136200D03*
D14*
X126009400Y-100893700D03*
X127279400Y-100893700D03*
X128549400Y-100893700D03*
X129819400Y-100893700D03*
X131089400Y-100893700D03*
X132359400Y-100893700D03*
X133629400Y-100893700D03*
D15*
X135381900Y-99136200D03*
X135381900Y-97866200D03*
X135381900Y-96596200D03*
X135381900Y-95326200D03*
X135381900Y-94056200D03*
X135381900Y-92786200D03*
X135381900Y-91516200D03*
X135381900Y-90246200D03*
X135381900Y-88976200D03*
D14*
X133629400Y-87218700D03*
X132359400Y-87218700D03*
X131089400Y-87218700D03*
%TD*%
D16*
%TO.C,R1*%
X137455500Y-70637400D03*
X131530500Y-70637400D03*
%TD*%
D17*
%TO.C,IC3*%
X165547000Y-88631000D03*
X165547000Y-89281000D03*
X165547000Y-89931000D03*
X167447000Y-89931000D03*
X167447000Y-88631000D03*
%TD*%
D18*
%TO.C,R22*%
X117602000Y-83947000D03*
X117602000Y-85772000D03*
%TD*%
D11*
%TO.C,D4*%
X177594500Y-86360000D03*
X175719500Y-86360000D03*
%TD*%
D19*
%TO.C,C25*%
X128879600Y-84770000D03*
X128879600Y-82870000D03*
%TD*%
D17*
%TO.C,IC9*%
X165547000Y-85456000D03*
X165547000Y-86106000D03*
X165547000Y-86756000D03*
X167447000Y-86756000D03*
X167447000Y-85456000D03*
%TD*%
D20*
%TO.C,C16*%
X160055600Y-68732400D03*
X158155600Y-68732400D03*
%TD*%
D21*
%TO.C,U1*%
X185679000Y-78867000D03*
X185679000Y-79367000D03*
X185679000Y-79867000D03*
X185679000Y-80367000D03*
X187579000Y-80367000D03*
X187579000Y-79867000D03*
X187579000Y-79367000D03*
X187579000Y-78867000D03*
D22*
X186629000Y-79617000D03*
%TD*%
D12*
%TO.C,TP6*%
X150241000Y-57404000D03*
%TD*%
D13*
%TO.C,R17*%
X139700000Y-110998000D03*
X141525000Y-110998000D03*
%TD*%
D23*
%TO.C,S5*%
X130510000Y-61380000D03*
X124710000Y-61380000D03*
X124710000Y-65380000D03*
X130510000Y-65380000D03*
%TD*%
D24*
%TO.C,C3*%
X99251500Y-92329000D03*
X93026500Y-92329000D03*
%TD*%
D25*
%TO.C,IC15*%
X121401600Y-64251800D03*
X120751600Y-64251800D03*
X120101600Y-64251800D03*
X120101600Y-66151800D03*
X121401600Y-66151800D03*
%TD*%
D11*
%TO.C,D3*%
X177592200Y-88442800D03*
X175717200Y-88442800D03*
%TD*%
D20*
%TO.C,C44*%
X163830000Y-88773000D03*
X161930000Y-88773000D03*
%TD*%
D26*
%TO.C,R3*%
X173457000Y-92887800D03*
X171632000Y-92887800D03*
%TD*%
D25*
%TO.C,IC11*%
X150226000Y-108773000D03*
X150876000Y-108773000D03*
X151526000Y-108773000D03*
X151526000Y-106873000D03*
X150226000Y-106873000D03*
%TD*%
D13*
%TO.C,R35*%
X187784100Y-64135000D03*
X189609100Y-64135000D03*
%TD*%
D27*
%TO.C,C4*%
X189404000Y-79109000D03*
X189404000Y-81009000D03*
%TD*%
D12*
%TO.C,TP12*%
X210693000Y-88011000D03*
%TD*%
D28*
%TO.C,C1*%
X94681000Y-96012000D03*
X96581000Y-96012000D03*
%TD*%
D18*
%TO.C,R7*%
X148361400Y-69597900D03*
X148361400Y-71422900D03*
%TD*%
D13*
%TO.C,R29*%
X113387500Y-65024000D03*
X115212500Y-65024000D03*
%TD*%
D29*
%TO.C,C12*%
X127152400Y-73595500D03*
X127152400Y-79820500D03*
%TD*%
D30*
%TO.C,S3*%
X113017000Y-77900000D03*
X122817000Y-77900000D03*
X122817000Y-75700000D03*
X113017000Y-75700000D03*
X116017000Y-71900000D03*
X117917000Y-71900000D03*
X119817000Y-71900000D03*
X116017000Y-81700000D03*
X117917000Y-81700000D03*
X119817000Y-81700000D03*
D31*
X122053570Y-80936570D03*
D32*
X122053570Y-72663430D03*
D31*
X113780430Y-72663430D03*
D32*
X113780430Y-80936570D03*
%TD*%
D26*
%TO.C,R6*%
X173609400Y-86385400D03*
X171784400Y-86385400D03*
%TD*%
D33*
%TO.C,J2*%
X189239773Y-88900000D03*
D34*
X187969773Y-86700295D03*
X191439478Y-87630000D03*
X190169478Y-85430295D03*
X193639182Y-86360000D03*
X192369182Y-84160295D03*
X195838887Y-85090000D03*
X194568887Y-82890295D03*
X198038591Y-83820000D03*
X196768591Y-81620295D03*
X200238296Y-82550000D03*
X198968296Y-80350295D03*
X202438000Y-81280000D03*
X201168000Y-79080295D03*
X204637705Y-80010000D03*
X203367705Y-77810295D03*
X206837409Y-78740000D03*
X205567409Y-76540295D03*
X209037114Y-77470000D03*
X207767114Y-75270295D03*
%TD*%
D35*
%TO.C,R28*%
X98526600Y-52880900D03*
X98526600Y-51055900D03*
%TD*%
D17*
%TO.C,IC2*%
X150459400Y-69784200D03*
X150459400Y-70434200D03*
X150459400Y-71084200D03*
X152359400Y-71084200D03*
X152359400Y-69784200D03*
%TD*%
D20*
%TO.C,C61*%
X167513000Y-91821000D03*
X165613000Y-91821000D03*
%TD*%
D25*
%TO.C,IC4*%
X141209000Y-108773000D03*
X141859000Y-108773000D03*
X142509000Y-108773000D03*
X142509000Y-106873000D03*
X141209000Y-106873000D03*
%TD*%
D20*
%TO.C,C5*%
X186563000Y-77204000D03*
X184663000Y-77204000D03*
%TD*%
D28*
%TO.C,C41*%
X146954200Y-84429600D03*
X148854200Y-84429600D03*
%TD*%
D36*
%TO.C,U4*%
X141130700Y-88335600D03*
X141130700Y-88835600D03*
X141130700Y-89335600D03*
X141130700Y-89835600D03*
X141130700Y-90335600D03*
X141130700Y-90835600D03*
X141130700Y-91335600D03*
X141130700Y-91835600D03*
X141130700Y-92335600D03*
X141130700Y-92835600D03*
X141130700Y-93335600D03*
X141130700Y-93835600D03*
X141130700Y-94335600D03*
X141130700Y-94835600D03*
X141130700Y-95335600D03*
X141130700Y-95835600D03*
X141130700Y-96335600D03*
X141130700Y-96835600D03*
X141130700Y-97335600D03*
X141130700Y-97835600D03*
X141130700Y-98335600D03*
X141130700Y-98835600D03*
X141130700Y-99335600D03*
X141130700Y-99835600D03*
X141130700Y-100335600D03*
D37*
X142793200Y-101998100D03*
X143293200Y-101998100D03*
X143793200Y-101998100D03*
X144293200Y-101998100D03*
X144793200Y-101998100D03*
X145293200Y-101998100D03*
X145793200Y-101998100D03*
X146293200Y-101998100D03*
X146793200Y-101998100D03*
X147293200Y-101998100D03*
X147793200Y-101998100D03*
X148293200Y-101998100D03*
X148793200Y-101998100D03*
X149293200Y-101998100D03*
X149793200Y-101998100D03*
X150293200Y-101998100D03*
X150793200Y-101998100D03*
X151293200Y-101998100D03*
X151793200Y-101998100D03*
X152293200Y-101998100D03*
X152793200Y-101998100D03*
X153293200Y-101998100D03*
X153793200Y-101998100D03*
X154293200Y-101998100D03*
X154793200Y-101998100D03*
D36*
X156455700Y-100335600D03*
X156455700Y-99835600D03*
X156455700Y-99335600D03*
X156455700Y-98835600D03*
X156455700Y-98335600D03*
X156455700Y-97835600D03*
X156455700Y-97335600D03*
X156455700Y-96835600D03*
X156455700Y-96335600D03*
X156455700Y-95835600D03*
X156455700Y-95335600D03*
X156455700Y-94835600D03*
X156455700Y-94335600D03*
X156455700Y-93835600D03*
X156455700Y-93335600D03*
X156455700Y-92835600D03*
X156455700Y-92335600D03*
X156455700Y-91835600D03*
X156455700Y-91335600D03*
X156455700Y-90835600D03*
X156455700Y-90335600D03*
X156455700Y-89835600D03*
X156455700Y-89335600D03*
X156455700Y-88835600D03*
X156455700Y-88335600D03*
D37*
X154793200Y-86673100D03*
X154293200Y-86673100D03*
X153793200Y-86673100D03*
X153293200Y-86673100D03*
X152793200Y-86673100D03*
X152293200Y-86673100D03*
X151793200Y-86673100D03*
X151293200Y-86673100D03*
X150793200Y-86673100D03*
X150293200Y-86673100D03*
X149793200Y-86673100D03*
X149293200Y-86673100D03*
X148793200Y-86673100D03*
X148293200Y-86673100D03*
X147793200Y-86673100D03*
X147293200Y-86673100D03*
X146793200Y-86673100D03*
X146293200Y-86673100D03*
X145793200Y-86673100D03*
X145293200Y-86673100D03*
X144793200Y-86673100D03*
X144293200Y-86673100D03*
X143793200Y-86673100D03*
X143293200Y-86673100D03*
X142793200Y-86673100D03*
%TD*%
D38*
%TO.C,S1*%
X142590000Y-65150000D03*
X137510000Y-65150000D03*
D39*
X145428000Y-56230000D03*
X134672000Y-56230000D03*
%TD*%
D20*
%TO.C,C58*%
X147762000Y-110998000D03*
X145862000Y-110998000D03*
%TD*%
%TO.C,C32*%
X141894600Y-73812400D03*
X139994600Y-73812400D03*
%TD*%
D12*
%TO.C,TP9*%
X76073000Y-122301000D03*
%TD*%
D40*
%TO.C,R2*%
X139887100Y-70586600D03*
X145812100Y-70586600D03*
%TD*%
D18*
%TO.C,R20*%
X115443000Y-83947000D03*
X115443000Y-85772000D03*
%TD*%
D12*
%TO.C,TP1*%
X179578000Y-83185000D03*
%TD*%
%TO.C,TP4*%
X90932000Y-103378000D03*
%TD*%
D25*
%TO.C,IC5*%
X109997000Y-77155000D03*
X109347000Y-77155000D03*
X108697000Y-77155000D03*
X108697000Y-79055000D03*
X109997000Y-79055000D03*
%TD*%
D18*
%TO.C,R34*%
X188468000Y-71327000D03*
X188468000Y-73152000D03*
%TD*%
D12*
%TO.C,TP5*%
X119253000Y-58039000D03*
%TD*%
D35*
%TO.C,R21*%
X95758000Y-87907500D03*
X95758000Y-86082500D03*
%TD*%
D41*
%TO.C,C18*%
X161391600Y-65418700D03*
X161391600Y-59193700D03*
%TD*%
D20*
%TO.C,C22*%
X148270000Y-73634600D03*
X146370000Y-73634600D03*
%TD*%
D11*
%TO.C,D2*%
X177594500Y-90627200D03*
X175719500Y-90627200D03*
%TD*%
D17*
%TO.C,IC8*%
X97856000Y-84440000D03*
X97856000Y-85090000D03*
X97856000Y-85740000D03*
X99756000Y-85740000D03*
X99756000Y-84440000D03*
%TD*%
D20*
%TO.C,C11*%
X128026200Y-70916800D03*
X126126200Y-70916800D03*
%TD*%
D19*
%TO.C,C24*%
X130937000Y-84770000D03*
X130937000Y-82870000D03*
%TD*%
D42*
%TO.C,Y1*%
X138414400Y-77012800D03*
X138414400Y-82092800D03*
X142814400Y-82092800D03*
X142814400Y-77012800D03*
%TD*%
D13*
%TO.C,R27*%
X113387500Y-60833000D03*
X115212500Y-60833000D03*
%TD*%
D27*
%TO.C,C50*%
X169164000Y-79314000D03*
X169164000Y-81214000D03*
%TD*%
D12*
%TO.C,TP8*%
X177673000Y-43307000D03*
%TD*%
D18*
%TO.C,R26*%
X104089200Y-79757900D03*
X104089200Y-81582900D03*
%TD*%
D43*
%TO.C,U6*%
X103545000Y-56730000D03*
X109775000Y-67960000D03*
X101045000Y-56730000D03*
X109775000Y-65460000D03*
X98545000Y-56730000D03*
X109775000Y-62960000D03*
D44*
X94720000Y-60460000D03*
X107370000Y-60460000D03*
X107370000Y-70460000D03*
X94720000Y-70460000D03*
D43*
X97795000Y-71210000D03*
X104295000Y-71210000D03*
X97795000Y-75710000D03*
X104295000Y-75710000D03*
%TD*%
D20*
%TO.C,C40*%
X142428000Y-104317800D03*
X140528000Y-104317800D03*
%TD*%
D18*
%TO.C,R24*%
X119761000Y-83923500D03*
X119761000Y-85748500D03*
%TD*%
D12*
%TO.C,TP13*%
X195072000Y-76962000D03*
%TD*%
D19*
%TO.C,C42*%
X158496000Y-98867000D03*
X158496000Y-96967000D03*
%TD*%
D30*
%TO.C,S4*%
X156280000Y-77900000D03*
X166080000Y-77900000D03*
X166080000Y-75700000D03*
X156280000Y-75700000D03*
X159280000Y-71900000D03*
X161180000Y-71900000D03*
X163080000Y-71900000D03*
X159280000Y-81700000D03*
X161180000Y-81700000D03*
X163080000Y-81700000D03*
D31*
X165316570Y-80936570D03*
D32*
X165316570Y-72663430D03*
D31*
X157043430Y-72663430D03*
D32*
X157043430Y-80936570D03*
%TD*%
D13*
%TO.C,R25*%
X129366000Y-107188000D03*
X131191000Y-107188000D03*
%TD*%
D35*
%TO.C,R33*%
X172694600Y-55166900D03*
X172694600Y-53341900D03*
%TD*%
D20*
%TO.C,C46*%
X141478000Y-113157000D03*
X139578000Y-113157000D03*
%TD*%
D45*
%TO.C,J1*%
X185964744Y-46162867D03*
D46*
X187760795Y-44366816D03*
X187760795Y-47958918D03*
X189556846Y-46162867D03*
X189556846Y-49754969D03*
X191352898Y-47958918D03*
X191352898Y-51551021D03*
X193148949Y-49754969D03*
X193148949Y-53347072D03*
X194945000Y-51551021D03*
X194945000Y-55143123D03*
X196741051Y-53347072D03*
X196741051Y-56939174D03*
X198537103Y-55143123D03*
X198537103Y-58735226D03*
X200333154Y-56939174D03*
X200333154Y-60531277D03*
X202129205Y-58735226D03*
X202129205Y-62327328D03*
X203925256Y-60531277D03*
%TD*%
D17*
%TO.C,IC12*%
X133162000Y-106538000D03*
X133162000Y-107188000D03*
X133162000Y-107838000D03*
X135062000Y-107838000D03*
X135062000Y-106538000D03*
%TD*%
D43*
%TO.C,U7*%
X177845000Y-58380000D03*
X184075000Y-69610000D03*
X175345000Y-58380000D03*
X184075000Y-67110000D03*
X172845000Y-58380000D03*
X184075000Y-64610000D03*
D44*
X181670000Y-62110000D03*
X169020000Y-62110000D03*
X181670000Y-72110000D03*
X169020000Y-72110000D03*
D43*
X172095000Y-72860000D03*
X178595000Y-72860000D03*
X172095000Y-77360000D03*
X178595000Y-77360000D03*
%TD*%
D23*
%TO.C,S2*%
X149860000Y-65380000D03*
X155660000Y-65380000D03*
X155660000Y-61380000D03*
X149860000Y-61380000D03*
%TD*%
D47*
%TO.C,J3*%
X91059000Y-86487000D03*
D48*
X89789000Y-88686705D03*
X88859295Y-85217000D03*
X87589295Y-87416705D03*
X86659591Y-83947000D03*
X85389591Y-86146705D03*
X84459886Y-82677000D03*
X83189886Y-84876705D03*
X82260182Y-81407000D03*
X80990182Y-83606705D03*
X80060477Y-80137000D03*
X78790477Y-82336705D03*
X77860773Y-78867000D03*
X76590773Y-81066705D03*
X75661068Y-77597000D03*
X74391068Y-79796705D03*
X73461364Y-76327000D03*
X72191364Y-78526705D03*
X71261659Y-75057000D03*
X69991659Y-77256705D03*
%TD*%
D12*
%TO.C,TP2*%
X183642000Y-95758000D03*
%TD*%
D28*
%TO.C,C66*%
X171455000Y-80645000D03*
X173355000Y-80645000D03*
%TD*%
D26*
%TO.C,R4*%
X173558600Y-90652600D03*
X171733600Y-90652600D03*
%TD*%
%TO.C,R5*%
X173558600Y-88519000D03*
X171733600Y-88519000D03*
%TD*%
D12*
%TO.C,TP11*%
X202057000Y-121666000D03*
%TD*%
D28*
%TO.C,C64*%
X104206000Y-83642200D03*
X106106000Y-83642200D03*
%TD*%
D12*
%TO.C,TP7*%
X167894000Y-56896000D03*
%TD*%
D21*
%TO.C,U2*%
X93665000Y-97548000D03*
X93665000Y-98048000D03*
X93665000Y-98548000D03*
X93665000Y-99048000D03*
X95565000Y-99048000D03*
X95565000Y-98548000D03*
X95565000Y-98048000D03*
X95565000Y-97548000D03*
D22*
X94615000Y-98298000D03*
%TD*%
D28*
%TO.C,C49*%
X167452000Y-83312000D03*
X169352000Y-83312000D03*
%TD*%
D19*
%TO.C,C54*%
X95783400Y-84439800D03*
X95783400Y-82539800D03*
%TD*%
D20*
%TO.C,C51*%
X99705200Y-82600800D03*
X97805200Y-82600800D03*
%TD*%
D26*
%TO.C,R36*%
X124178700Y-68884800D03*
X122353700Y-68884800D03*
%TD*%
D20*
%TO.C,C10*%
X128026200Y-68808600D03*
X126126200Y-68808600D03*
%TD*%
D28*
%TO.C,C23*%
X154167800Y-70053200D03*
X156067800Y-70053200D03*
%TD*%
D20*
%TO.C,C68*%
X120558600Y-68961000D03*
X118658600Y-68961000D03*
%TD*%
D25*
%TO.C,IC6*%
X144130000Y-108712000D03*
X144780000Y-108712000D03*
X145430000Y-108712000D03*
X145430000Y-106812000D03*
X144130000Y-106812000D03*
%TD*%
D28*
%TO.C,C17*%
X161737000Y-68757800D03*
X163637000Y-68757800D03*
%TD*%
D27*
%TO.C,C2*%
X91694000Y-97348000D03*
X91694000Y-99248000D03*
%TD*%
D28*
%TO.C,C48*%
X109098000Y-82296000D03*
X110998000Y-82296000D03*
%TD*%
D13*
%TO.C,R30*%
X113364000Y-62992000D03*
X115189000Y-62992000D03*
%TD*%
D12*
%TO.C,TP3*%
X70485000Y-85598000D03*
%TD*%
D25*
%TO.C,IC10*%
X147178000Y-108773000D03*
X147828000Y-108773000D03*
X148478000Y-108773000D03*
X148478000Y-106873000D03*
X147178000Y-106873000D03*
%TD*%
D49*
%TO.C,BT2*%
X91774812Y-75518812D03*
X77632676Y-61376676D03*
%TD*%
D12*
%TO.C,TP10*%
X91694000Y-46101000D03*
%TD*%
D50*
%TO.C,C6*%
X191070500Y-72263000D03*
X197295500Y-72263000D03*
%TD*%
D19*
%TO.C,C55*%
X158750000Y-92771000D03*
X158750000Y-90871000D03*
%TD*%
D51*
%TO.C,BT1*%
X106160841Y-93872000D03*
X123481349Y-83872000D03*
%TD*%
G36*
X148649479Y-101312169D02*
G01*
X148649647Y-101313443D01*
X148645200Y-101335799D01*
X148645200Y-102660401D01*
X148649647Y-102682757D01*
X148649004Y-102684651D01*
X148647042Y-102685041D01*
X148646022Y-102684258D01*
X148645631Y-102683673D01*
X148592255Y-102639065D01*
X148523540Y-102630433D01*
X148460910Y-102660397D01*
X148440858Y-102683540D01*
X148440378Y-102684258D01*
X148438584Y-102685143D01*
X148436921Y-102684031D01*
X148436753Y-102682757D01*
X148441200Y-102660401D01*
X148441200Y-101335799D01*
X148436753Y-101313443D01*
X148437396Y-101311549D01*
X148439358Y-101311159D01*
X148440378Y-101311942D01*
X148440769Y-101312527D01*
X148494145Y-101357135D01*
X148562860Y-101365767D01*
X148625490Y-101335803D01*
X148645542Y-101312660D01*
X148646022Y-101311942D01*
X148647816Y-101311057D01*
X148649479Y-101312169D01*
G37*
G36*
X145149479Y-101312169D02*
G01*
X145149647Y-101313443D01*
X145145200Y-101335799D01*
X145145200Y-102660401D01*
X145149647Y-102682757D01*
X145149004Y-102684651D01*
X145147042Y-102685041D01*
X145146022Y-102684258D01*
X145145631Y-102683673D01*
X145092255Y-102639065D01*
X145023540Y-102630433D01*
X144960910Y-102660397D01*
X144940858Y-102683540D01*
X144940378Y-102684258D01*
X144938584Y-102685143D01*
X144936921Y-102684031D01*
X144936753Y-102682757D01*
X144941200Y-102660401D01*
X144941200Y-101335799D01*
X144936753Y-101313443D01*
X144937396Y-101311549D01*
X144939358Y-101311159D01*
X144940378Y-101311942D01*
X144940769Y-101312527D01*
X144994145Y-101357135D01*
X145062860Y-101365767D01*
X145125490Y-101335803D01*
X145145542Y-101312660D01*
X145146022Y-101311942D01*
X145147816Y-101311057D01*
X145149479Y-101312169D01*
G37*
G36*
X150649479Y-101312169D02*
G01*
X150649647Y-101313443D01*
X150645200Y-101335799D01*
X150645200Y-102660401D01*
X150649647Y-102682757D01*
X150649004Y-102684651D01*
X150647042Y-102685041D01*
X150646022Y-102684258D01*
X150645631Y-102683673D01*
X150592255Y-102639065D01*
X150523540Y-102630433D01*
X150460910Y-102660397D01*
X150440858Y-102683540D01*
X150440378Y-102684258D01*
X150438584Y-102685143D01*
X150436921Y-102684031D01*
X150436753Y-102682757D01*
X150441200Y-102660401D01*
X150441200Y-101335799D01*
X150436753Y-101313443D01*
X150437396Y-101311549D01*
X150439358Y-101311159D01*
X150440378Y-101311942D01*
X150440769Y-101312527D01*
X150494145Y-101357135D01*
X150562860Y-101365767D01*
X150625490Y-101335803D01*
X150645542Y-101312660D01*
X150646022Y-101311942D01*
X150647816Y-101311057D01*
X150649479Y-101312169D01*
G37*
G36*
X154149479Y-101312169D02*
G01*
X154149647Y-101313443D01*
X154145200Y-101335799D01*
X154145200Y-102660401D01*
X154149647Y-102682757D01*
X154149004Y-102684651D01*
X154147042Y-102685041D01*
X154146022Y-102684258D01*
X154145631Y-102683673D01*
X154092255Y-102639065D01*
X154023540Y-102630433D01*
X153960910Y-102660397D01*
X153940858Y-102683540D01*
X153940378Y-102684258D01*
X153938584Y-102685143D01*
X153936921Y-102684031D01*
X153936753Y-102682757D01*
X153941200Y-102660401D01*
X153941200Y-101335799D01*
X153936753Y-101313443D01*
X153937396Y-101311549D01*
X153939358Y-101311159D01*
X153940378Y-101311942D01*
X153940769Y-101312527D01*
X153994145Y-101357135D01*
X154062860Y-101365767D01*
X154125490Y-101335803D01*
X154145542Y-101312660D01*
X154146022Y-101311942D01*
X154147816Y-101311057D01*
X154149479Y-101312169D01*
G37*
G36*
X146149479Y-101312169D02*
G01*
X146149647Y-101313443D01*
X146145200Y-101335799D01*
X146145200Y-102660401D01*
X146149647Y-102682757D01*
X146149004Y-102684651D01*
X146147042Y-102685041D01*
X146146022Y-102684258D01*
X146145631Y-102683673D01*
X146092255Y-102639065D01*
X146023540Y-102630433D01*
X145960910Y-102660397D01*
X145940858Y-102683540D01*
X145940378Y-102684258D01*
X145938584Y-102685143D01*
X145936921Y-102684031D01*
X145936753Y-102682757D01*
X145941200Y-102660401D01*
X145941200Y-101335799D01*
X145936753Y-101313443D01*
X145937396Y-101311549D01*
X145939358Y-101311159D01*
X145940378Y-101311942D01*
X145940769Y-101312527D01*
X145994145Y-101357135D01*
X146062860Y-101365767D01*
X146125490Y-101335803D01*
X146145542Y-101312660D01*
X146146022Y-101311942D01*
X146147816Y-101311057D01*
X146149479Y-101312169D01*
G37*
G36*
X148149479Y-101312169D02*
G01*
X148149647Y-101313443D01*
X148145200Y-101335799D01*
X148145200Y-102660401D01*
X148149647Y-102682757D01*
X148149004Y-102684651D01*
X148147042Y-102685041D01*
X148146022Y-102684258D01*
X148145631Y-102683673D01*
X148092255Y-102639065D01*
X148023540Y-102630433D01*
X147960910Y-102660397D01*
X147940858Y-102683540D01*
X147940378Y-102684258D01*
X147938584Y-102685143D01*
X147936921Y-102684031D01*
X147936753Y-102682757D01*
X147941200Y-102660401D01*
X147941200Y-101335799D01*
X147936753Y-101313443D01*
X147937396Y-101311549D01*
X147939358Y-101311159D01*
X147940378Y-101311942D01*
X147940769Y-101312527D01*
X147994145Y-101357135D01*
X148062860Y-101365767D01*
X148125490Y-101335803D01*
X148145542Y-101312660D01*
X148146022Y-101311942D01*
X148147816Y-101311057D01*
X148149479Y-101312169D01*
G37*
G36*
X146649479Y-101312169D02*
G01*
X146649647Y-101313443D01*
X146645200Y-101335799D01*
X146645200Y-102660401D01*
X146649647Y-102682757D01*
X146649004Y-102684651D01*
X146647042Y-102685041D01*
X146646022Y-102684258D01*
X146645631Y-102683673D01*
X146592255Y-102639065D01*
X146523540Y-102630433D01*
X146460910Y-102660397D01*
X146440858Y-102683540D01*
X146440378Y-102684258D01*
X146438584Y-102685143D01*
X146436921Y-102684031D01*
X146436753Y-102682757D01*
X146441200Y-102660401D01*
X146441200Y-101335799D01*
X146436753Y-101313443D01*
X146437396Y-101311549D01*
X146439358Y-101311159D01*
X146440378Y-101311942D01*
X146440769Y-101312527D01*
X146494145Y-101357135D01*
X146562860Y-101365767D01*
X146625490Y-101335803D01*
X146645542Y-101312660D01*
X146646022Y-101311942D01*
X146647816Y-101311057D01*
X146649479Y-101312169D01*
G37*
G36*
X153649479Y-101312169D02*
G01*
X153649647Y-101313443D01*
X153645200Y-101335799D01*
X153645200Y-102660401D01*
X153649647Y-102682757D01*
X153649004Y-102684651D01*
X153647042Y-102685041D01*
X153646022Y-102684258D01*
X153645631Y-102683673D01*
X153592255Y-102639065D01*
X153523540Y-102630433D01*
X153460910Y-102660397D01*
X153440858Y-102683540D01*
X153440378Y-102684258D01*
X153438584Y-102685143D01*
X153436921Y-102684031D01*
X153436753Y-102682757D01*
X153441200Y-102660401D01*
X153441200Y-101335799D01*
X153436753Y-101313443D01*
X153437396Y-101311549D01*
X153439358Y-101311159D01*
X153440378Y-101311942D01*
X153440769Y-101312527D01*
X153494145Y-101357135D01*
X153562860Y-101365767D01*
X153625490Y-101335803D01*
X153645542Y-101312660D01*
X153646022Y-101311942D01*
X153647816Y-101311057D01*
X153649479Y-101312169D01*
G37*
G36*
X152149479Y-101312169D02*
G01*
X152149647Y-101313443D01*
X152145200Y-101335799D01*
X152145200Y-102660401D01*
X152149647Y-102682757D01*
X152149004Y-102684651D01*
X152147042Y-102685041D01*
X152146022Y-102684258D01*
X152145631Y-102683673D01*
X152092255Y-102639065D01*
X152023540Y-102630433D01*
X151960910Y-102660397D01*
X151940858Y-102683540D01*
X151940378Y-102684258D01*
X151938584Y-102685143D01*
X151936921Y-102684031D01*
X151936753Y-102682757D01*
X151941200Y-102660401D01*
X151941200Y-101335799D01*
X151936753Y-101313443D01*
X151937396Y-101311549D01*
X151939358Y-101311159D01*
X151940378Y-101311942D01*
X151940769Y-101312527D01*
X151994145Y-101357135D01*
X152062860Y-101365767D01*
X152125490Y-101335803D01*
X152145542Y-101312660D01*
X152146022Y-101311942D01*
X152147816Y-101311057D01*
X152149479Y-101312169D01*
G37*
G36*
X144149479Y-101312169D02*
G01*
X144149647Y-101313443D01*
X144145200Y-101335799D01*
X144145200Y-102660401D01*
X144149647Y-102682757D01*
X144149004Y-102684651D01*
X144147042Y-102685041D01*
X144146022Y-102684258D01*
X144145631Y-102683673D01*
X144092255Y-102639065D01*
X144023540Y-102630433D01*
X143960910Y-102660397D01*
X143940858Y-102683540D01*
X143940378Y-102684258D01*
X143938584Y-102685143D01*
X143936921Y-102684031D01*
X143936753Y-102682757D01*
X143941200Y-102660401D01*
X143941200Y-101335799D01*
X143936753Y-101313443D01*
X143937396Y-101311549D01*
X143939358Y-101311159D01*
X143940378Y-101311942D01*
X143940769Y-101312527D01*
X143994145Y-101357135D01*
X144062860Y-101365767D01*
X144125490Y-101335803D01*
X144145542Y-101312660D01*
X144146022Y-101311942D01*
X144147816Y-101311057D01*
X144149479Y-101312169D01*
G37*
G36*
X147649479Y-101312169D02*
G01*
X147649647Y-101313443D01*
X147645200Y-101335799D01*
X147645200Y-102660401D01*
X147649647Y-102682757D01*
X147649004Y-102684651D01*
X147647042Y-102685041D01*
X147646022Y-102684258D01*
X147645631Y-102683673D01*
X147592255Y-102639065D01*
X147523540Y-102630433D01*
X147460910Y-102660397D01*
X147440858Y-102683540D01*
X147440378Y-102684258D01*
X147438584Y-102685143D01*
X147436921Y-102684031D01*
X147436753Y-102682757D01*
X147441200Y-102660401D01*
X147441200Y-101335799D01*
X147436753Y-101313443D01*
X147437396Y-101311549D01*
X147439358Y-101311159D01*
X147440378Y-101311942D01*
X147440769Y-101312527D01*
X147494145Y-101357135D01*
X147562860Y-101365767D01*
X147625490Y-101335803D01*
X147645542Y-101312660D01*
X147646022Y-101311942D01*
X147647816Y-101311057D01*
X147649479Y-101312169D01*
G37*
G36*
X145649479Y-101312169D02*
G01*
X145649647Y-101313443D01*
X145645200Y-101335799D01*
X145645200Y-102660401D01*
X145649647Y-102682757D01*
X145649004Y-102684651D01*
X145647042Y-102685041D01*
X145646022Y-102684258D01*
X145645631Y-102683673D01*
X145592255Y-102639065D01*
X145523540Y-102630433D01*
X145460910Y-102660397D01*
X145440858Y-102683540D01*
X145440378Y-102684258D01*
X145438584Y-102685143D01*
X145436921Y-102684031D01*
X145436753Y-102682757D01*
X145441200Y-102660401D01*
X145441200Y-101335799D01*
X145436753Y-101313443D01*
X145437396Y-101311549D01*
X145439358Y-101311159D01*
X145440378Y-101311942D01*
X145440769Y-101312527D01*
X145494145Y-101357135D01*
X145562860Y-101365767D01*
X145625490Y-101335803D01*
X145645542Y-101312660D01*
X145646022Y-101311942D01*
X145647816Y-101311057D01*
X145649479Y-101312169D01*
G37*
G36*
X154649479Y-101312169D02*
G01*
X154649647Y-101313443D01*
X154645200Y-101335799D01*
X154645200Y-102660401D01*
X154649647Y-102682757D01*
X154649004Y-102684651D01*
X154647042Y-102685041D01*
X154646022Y-102684258D01*
X154645631Y-102683673D01*
X154592255Y-102639065D01*
X154523540Y-102630433D01*
X154460910Y-102660397D01*
X154440858Y-102683540D01*
X154440378Y-102684258D01*
X154438584Y-102685143D01*
X154436921Y-102684031D01*
X154436753Y-102682757D01*
X154441200Y-102660401D01*
X154441200Y-101335799D01*
X154436753Y-101313443D01*
X154437396Y-101311549D01*
X154439358Y-101311159D01*
X154440378Y-101311942D01*
X154440769Y-101312527D01*
X154494145Y-101357135D01*
X154562860Y-101365767D01*
X154625490Y-101335803D01*
X154645542Y-101312660D01*
X154646022Y-101311942D01*
X154647816Y-101311057D01*
X154649479Y-101312169D01*
G37*
G36*
X143649479Y-101312169D02*
G01*
X143649647Y-101313443D01*
X143645200Y-101335799D01*
X143645200Y-102660401D01*
X143649647Y-102682757D01*
X143649004Y-102684651D01*
X143647042Y-102685041D01*
X143646022Y-102684258D01*
X143645631Y-102683673D01*
X143592255Y-102639065D01*
X143523540Y-102630433D01*
X143460910Y-102660397D01*
X143440858Y-102683540D01*
X143440378Y-102684258D01*
X143438584Y-102685143D01*
X143436921Y-102684031D01*
X143436753Y-102682757D01*
X143441200Y-102660401D01*
X143441200Y-101335799D01*
X143436753Y-101313443D01*
X143437396Y-101311549D01*
X143439358Y-101311159D01*
X143440378Y-101311942D01*
X143440769Y-101312527D01*
X143494145Y-101357135D01*
X143562860Y-101365767D01*
X143625490Y-101335803D01*
X143645542Y-101312660D01*
X143646022Y-101311942D01*
X143647816Y-101311057D01*
X143649479Y-101312169D01*
G37*
G36*
X149149479Y-101312169D02*
G01*
X149149647Y-101313443D01*
X149145200Y-101335799D01*
X149145200Y-102660401D01*
X149149647Y-102682757D01*
X149149004Y-102684651D01*
X149147042Y-102685041D01*
X149146022Y-102684258D01*
X149145631Y-102683673D01*
X149092255Y-102639065D01*
X149023540Y-102630433D01*
X148960910Y-102660397D01*
X148940858Y-102683540D01*
X148940378Y-102684258D01*
X148938584Y-102685143D01*
X148936921Y-102684031D01*
X148936753Y-102682757D01*
X148941200Y-102660401D01*
X148941200Y-101335799D01*
X148936753Y-101313443D01*
X148937396Y-101311549D01*
X148939358Y-101311159D01*
X148940378Y-101311942D01*
X148940769Y-101312527D01*
X148994145Y-101357135D01*
X149062860Y-101365767D01*
X149125490Y-101335803D01*
X149145542Y-101312660D01*
X149146022Y-101311942D01*
X149147816Y-101311057D01*
X149149479Y-101312169D01*
G37*
G36*
X147149479Y-101312169D02*
G01*
X147149647Y-101313443D01*
X147145200Y-101335799D01*
X147145200Y-102660401D01*
X147149647Y-102682757D01*
X147149004Y-102684651D01*
X147147042Y-102685041D01*
X147146022Y-102684258D01*
X147145631Y-102683673D01*
X147092255Y-102639065D01*
X147023540Y-102630433D01*
X146960910Y-102660397D01*
X146940858Y-102683540D01*
X146940378Y-102684258D01*
X146938584Y-102685143D01*
X146936921Y-102684031D01*
X146936753Y-102682757D01*
X146941200Y-102660401D01*
X146941200Y-101335799D01*
X146936753Y-101313443D01*
X146937396Y-101311549D01*
X146939358Y-101311159D01*
X146940378Y-101311942D01*
X146940769Y-101312527D01*
X146994145Y-101357135D01*
X147062860Y-101365767D01*
X147125490Y-101335803D01*
X147145542Y-101312660D01*
X147146022Y-101311942D01*
X147147816Y-101311057D01*
X147149479Y-101312169D01*
G37*
G36*
X144649479Y-101312169D02*
G01*
X144649647Y-101313443D01*
X144645200Y-101335799D01*
X144645200Y-102660401D01*
X144649647Y-102682757D01*
X144649004Y-102684651D01*
X144647042Y-102685041D01*
X144646022Y-102684258D01*
X144645631Y-102683673D01*
X144592255Y-102639065D01*
X144523540Y-102630433D01*
X144460910Y-102660397D01*
X144440858Y-102683540D01*
X144440378Y-102684258D01*
X144438584Y-102685143D01*
X144436921Y-102684031D01*
X144436753Y-102682757D01*
X144441200Y-102660401D01*
X144441200Y-101335799D01*
X144436753Y-101313443D01*
X144437396Y-101311549D01*
X144439358Y-101311159D01*
X144440378Y-101311942D01*
X144440769Y-101312527D01*
X144494145Y-101357135D01*
X144562860Y-101365767D01*
X144625490Y-101335803D01*
X144645542Y-101312660D01*
X144646022Y-101311942D01*
X144647816Y-101311057D01*
X144649479Y-101312169D01*
G37*
G36*
X151149479Y-101312169D02*
G01*
X151149647Y-101313443D01*
X151145200Y-101335799D01*
X151145200Y-102660401D01*
X151149647Y-102682757D01*
X151149004Y-102684651D01*
X151147042Y-102685041D01*
X151146022Y-102684258D01*
X151145631Y-102683673D01*
X151092255Y-102639065D01*
X151023540Y-102630433D01*
X150960910Y-102660397D01*
X150940858Y-102683540D01*
X150940378Y-102684258D01*
X150938584Y-102685143D01*
X150936921Y-102684031D01*
X150936753Y-102682757D01*
X150941200Y-102660401D01*
X150941200Y-101335799D01*
X150936753Y-101313443D01*
X150937396Y-101311549D01*
X150939358Y-101311159D01*
X150940378Y-101311942D01*
X150940769Y-101312527D01*
X150994145Y-101357135D01*
X151062860Y-101365767D01*
X151125490Y-101335803D01*
X151145542Y-101312660D01*
X151146022Y-101311942D01*
X151147816Y-101311057D01*
X151149479Y-101312169D01*
G37*
G36*
X153149479Y-101312169D02*
G01*
X153149647Y-101313443D01*
X153145200Y-101335799D01*
X153145200Y-102660401D01*
X153149647Y-102682757D01*
X153149004Y-102684651D01*
X153147042Y-102685041D01*
X153146022Y-102684258D01*
X153145631Y-102683673D01*
X153092255Y-102639065D01*
X153023540Y-102630433D01*
X152960910Y-102660397D01*
X152940858Y-102683540D01*
X152940378Y-102684258D01*
X152938584Y-102685143D01*
X152936921Y-102684031D01*
X152936753Y-102682757D01*
X152941200Y-102660401D01*
X152941200Y-101335799D01*
X152936753Y-101313443D01*
X152937396Y-101311549D01*
X152939358Y-101311159D01*
X152940378Y-101311942D01*
X152940769Y-101312527D01*
X152994145Y-101357135D01*
X153062860Y-101365767D01*
X153125490Y-101335803D01*
X153145542Y-101312660D01*
X153146022Y-101311942D01*
X153147816Y-101311057D01*
X153149479Y-101312169D01*
G37*
G36*
X152649479Y-101312169D02*
G01*
X152649647Y-101313443D01*
X152645200Y-101335799D01*
X152645200Y-102660401D01*
X152649647Y-102682757D01*
X152649004Y-102684651D01*
X152647042Y-102685041D01*
X152646022Y-102684258D01*
X152645631Y-102683673D01*
X152592255Y-102639065D01*
X152523540Y-102630433D01*
X152460910Y-102660397D01*
X152440858Y-102683540D01*
X152440378Y-102684258D01*
X152438584Y-102685143D01*
X152436921Y-102684031D01*
X152436753Y-102682757D01*
X152441200Y-102660401D01*
X152441200Y-101335799D01*
X152436753Y-101313443D01*
X152437396Y-101311549D01*
X152439358Y-101311159D01*
X152440378Y-101311942D01*
X152440769Y-101312527D01*
X152494145Y-101357135D01*
X152562860Y-101365767D01*
X152625490Y-101335803D01*
X152645542Y-101312660D01*
X152646022Y-101311942D01*
X152647816Y-101311057D01*
X152649479Y-101312169D01*
G37*
G36*
X151649479Y-101312169D02*
G01*
X151649647Y-101313443D01*
X151645200Y-101335799D01*
X151645200Y-102660401D01*
X151649647Y-102682757D01*
X151649004Y-102684651D01*
X151647042Y-102685041D01*
X151646022Y-102684258D01*
X151645631Y-102683673D01*
X151592255Y-102639065D01*
X151523540Y-102630433D01*
X151460910Y-102660397D01*
X151440858Y-102683540D01*
X151440378Y-102684258D01*
X151438584Y-102685143D01*
X151436921Y-102684031D01*
X151436753Y-102682757D01*
X151441200Y-102660401D01*
X151441200Y-101335799D01*
X151436753Y-101313443D01*
X151437396Y-101311549D01*
X151439358Y-101311159D01*
X151440378Y-101311942D01*
X151440769Y-101312527D01*
X151494145Y-101357135D01*
X151562860Y-101365767D01*
X151625490Y-101335803D01*
X151645542Y-101312660D01*
X151646022Y-101311942D01*
X151647816Y-101311057D01*
X151649479Y-101312169D01*
G37*
G36*
X149649479Y-101312169D02*
G01*
X149649647Y-101313443D01*
X149645200Y-101335799D01*
X149645200Y-102660401D01*
X149649647Y-102682757D01*
X149649004Y-102684651D01*
X149647042Y-102685041D01*
X149646022Y-102684258D01*
X149645631Y-102683673D01*
X149592255Y-102639065D01*
X149523540Y-102630433D01*
X149460910Y-102660397D01*
X149440858Y-102683540D01*
X149440378Y-102684258D01*
X149438584Y-102685143D01*
X149436921Y-102684031D01*
X149436753Y-102682757D01*
X149441200Y-102660401D01*
X149441200Y-101335799D01*
X149436753Y-101313443D01*
X149437396Y-101311549D01*
X149439358Y-101311159D01*
X149440378Y-101311942D01*
X149440769Y-101312527D01*
X149494145Y-101357135D01*
X149562860Y-101365767D01*
X149625490Y-101335803D01*
X149645542Y-101312660D01*
X149646022Y-101311942D01*
X149647816Y-101311057D01*
X149649479Y-101312169D01*
G37*
G36*
X143149479Y-101312169D02*
G01*
X143149647Y-101313443D01*
X143145200Y-101335799D01*
X143145200Y-102660401D01*
X143149647Y-102682757D01*
X143149004Y-102684651D01*
X143147042Y-102685041D01*
X143146022Y-102684258D01*
X143145631Y-102683673D01*
X143092255Y-102639065D01*
X143023540Y-102630433D01*
X142960910Y-102660397D01*
X142940858Y-102683540D01*
X142940378Y-102684258D01*
X142938584Y-102685143D01*
X142936921Y-102684031D01*
X142936753Y-102682757D01*
X142941200Y-102660401D01*
X142941200Y-101335799D01*
X142936753Y-101313443D01*
X142937396Y-101311549D01*
X142939358Y-101311159D01*
X142940378Y-101311942D01*
X142940769Y-101312527D01*
X142994145Y-101357135D01*
X143062860Y-101365767D01*
X143125490Y-101335803D01*
X143145542Y-101312660D01*
X143146022Y-101311942D01*
X143147816Y-101311057D01*
X143149479Y-101312169D01*
G37*
G36*
X150149479Y-101312169D02*
G01*
X150149647Y-101313443D01*
X150145200Y-101335799D01*
X150145200Y-102660401D01*
X150149647Y-102682757D01*
X150149004Y-102684651D01*
X150147042Y-102685041D01*
X150146022Y-102684258D01*
X150145631Y-102683673D01*
X150092255Y-102639065D01*
X150023540Y-102630433D01*
X149960910Y-102660397D01*
X149940858Y-102683540D01*
X149940378Y-102684258D01*
X149938584Y-102685143D01*
X149936921Y-102684031D01*
X149936753Y-102682757D01*
X149941200Y-102660401D01*
X149941200Y-101335799D01*
X149936753Y-101313443D01*
X149937396Y-101311549D01*
X149939358Y-101311159D01*
X149940378Y-101311942D01*
X149940769Y-101312527D01*
X149994145Y-101357135D01*
X150062860Y-101365767D01*
X150125490Y-101335803D01*
X150145542Y-101312660D01*
X150146022Y-101311942D01*
X150147816Y-101311057D01*
X150149479Y-101312169D01*
G37*
G36*
X141817251Y-99979796D02*
G01*
X141817641Y-99981758D01*
X141816858Y-99982778D01*
X141816273Y-99983169D01*
X141771665Y-100036545D01*
X141763033Y-100105260D01*
X141792997Y-100167890D01*
X141816140Y-100187942D01*
X141816858Y-100188422D01*
X141817743Y-100190216D01*
X141816631Y-100191879D01*
X141815357Y-100192047D01*
X141793001Y-100187600D01*
X140468399Y-100187600D01*
X140446043Y-100192047D01*
X140444149Y-100191404D01*
X140443759Y-100189442D01*
X140444542Y-100188422D01*
X140445127Y-100188031D01*
X140489735Y-100134655D01*
X140498367Y-100065940D01*
X140468403Y-100003310D01*
X140445260Y-99983258D01*
X140444542Y-99982778D01*
X140443657Y-99980984D01*
X140444769Y-99979321D01*
X140446043Y-99979153D01*
X140468399Y-99983600D01*
X141793001Y-99983600D01*
X141815357Y-99979153D01*
X141817251Y-99979796D01*
G37*
G36*
X157142251Y-99979796D02*
G01*
X157142641Y-99981758D01*
X157141858Y-99982778D01*
X157141273Y-99983169D01*
X157096665Y-100036545D01*
X157088033Y-100105260D01*
X157117997Y-100167890D01*
X157141140Y-100187942D01*
X157141858Y-100188422D01*
X157142743Y-100190216D01*
X157141631Y-100191879D01*
X157140357Y-100192047D01*
X157118001Y-100187600D01*
X155793399Y-100187600D01*
X155771043Y-100192047D01*
X155769149Y-100191404D01*
X155768759Y-100189442D01*
X155769542Y-100188422D01*
X155770127Y-100188031D01*
X155814735Y-100134655D01*
X155823367Y-100065940D01*
X155793403Y-100003310D01*
X155770260Y-99983258D01*
X155769542Y-99982778D01*
X155768657Y-99980984D01*
X155769769Y-99979321D01*
X155771043Y-99979153D01*
X155793399Y-99983600D01*
X157118001Y-99983600D01*
X157140357Y-99979153D01*
X157142251Y-99979796D01*
G37*
G36*
X141817251Y-99479796D02*
G01*
X141817641Y-99481758D01*
X141816858Y-99482778D01*
X141816273Y-99483169D01*
X141771665Y-99536545D01*
X141763033Y-99605260D01*
X141792997Y-99667890D01*
X141816140Y-99687942D01*
X141816858Y-99688422D01*
X141817743Y-99690216D01*
X141816631Y-99691879D01*
X141815357Y-99692047D01*
X141793001Y-99687600D01*
X140468399Y-99687600D01*
X140446043Y-99692047D01*
X140444149Y-99691404D01*
X140443759Y-99689442D01*
X140444542Y-99688422D01*
X140445127Y-99688031D01*
X140489735Y-99634655D01*
X140498367Y-99565940D01*
X140468403Y-99503310D01*
X140445260Y-99483258D01*
X140444542Y-99482778D01*
X140443657Y-99480984D01*
X140444769Y-99479321D01*
X140446043Y-99479153D01*
X140468399Y-99483600D01*
X141793001Y-99483600D01*
X141815357Y-99479153D01*
X141817251Y-99479796D01*
G37*
G36*
X157142251Y-99479796D02*
G01*
X157142641Y-99481758D01*
X157141858Y-99482778D01*
X157141273Y-99483169D01*
X157096665Y-99536545D01*
X157088033Y-99605260D01*
X157117997Y-99667890D01*
X157141140Y-99687942D01*
X157141858Y-99688422D01*
X157142743Y-99690216D01*
X157141631Y-99691879D01*
X157140357Y-99692047D01*
X157118001Y-99687600D01*
X155793399Y-99687600D01*
X155771043Y-99692047D01*
X155769149Y-99691404D01*
X155768759Y-99689442D01*
X155769542Y-99688422D01*
X155770127Y-99688031D01*
X155814735Y-99634655D01*
X155823367Y-99565940D01*
X155793403Y-99503310D01*
X155770260Y-99483258D01*
X155769542Y-99482778D01*
X155768657Y-99480984D01*
X155769769Y-99479321D01*
X155771043Y-99479153D01*
X155793399Y-99483600D01*
X157118001Y-99483600D01*
X157140357Y-99479153D01*
X157142251Y-99479796D01*
G37*
G36*
X157142251Y-98979796D02*
G01*
X157142641Y-98981758D01*
X157141858Y-98982778D01*
X157141273Y-98983169D01*
X157096665Y-99036545D01*
X157088033Y-99105260D01*
X157117997Y-99167890D01*
X157141140Y-99187942D01*
X157141858Y-99188422D01*
X157142743Y-99190216D01*
X157141631Y-99191879D01*
X157140357Y-99192047D01*
X157118001Y-99187600D01*
X155793399Y-99187600D01*
X155771043Y-99192047D01*
X155769149Y-99191404D01*
X155768759Y-99189442D01*
X155769542Y-99188422D01*
X155770127Y-99188031D01*
X155814735Y-99134655D01*
X155823367Y-99065940D01*
X155793403Y-99003310D01*
X155770260Y-98983258D01*
X155769542Y-98982778D01*
X155768657Y-98980984D01*
X155769769Y-98979321D01*
X155771043Y-98979153D01*
X155793399Y-98983600D01*
X157118001Y-98983600D01*
X157140357Y-98979153D01*
X157142251Y-98979796D01*
G37*
G36*
X141817251Y-98979796D02*
G01*
X141817641Y-98981758D01*
X141816858Y-98982778D01*
X141816273Y-98983169D01*
X141771665Y-99036545D01*
X141763033Y-99105260D01*
X141792997Y-99167890D01*
X141816140Y-99187942D01*
X141816858Y-99188422D01*
X141817743Y-99190216D01*
X141816631Y-99191879D01*
X141815357Y-99192047D01*
X141793001Y-99187600D01*
X140468399Y-99187600D01*
X140446043Y-99192047D01*
X140444149Y-99191404D01*
X140443759Y-99189442D01*
X140444542Y-99188422D01*
X140445127Y-99188031D01*
X140489735Y-99134655D01*
X140498367Y-99065940D01*
X140468403Y-99003310D01*
X140445260Y-98983258D01*
X140444542Y-98982778D01*
X140443657Y-98980984D01*
X140444769Y-98979321D01*
X140446043Y-98979153D01*
X140468399Y-98983600D01*
X141793001Y-98983600D01*
X141815357Y-98979153D01*
X141817251Y-98979796D01*
G37*
G36*
X157142251Y-98479796D02*
G01*
X157142641Y-98481758D01*
X157141858Y-98482778D01*
X157141273Y-98483169D01*
X157096665Y-98536545D01*
X157088033Y-98605260D01*
X157117997Y-98667890D01*
X157141140Y-98687942D01*
X157141858Y-98688422D01*
X157142743Y-98690216D01*
X157141631Y-98691879D01*
X157140357Y-98692047D01*
X157118001Y-98687600D01*
X155793399Y-98687600D01*
X155771043Y-98692047D01*
X155769149Y-98691404D01*
X155768759Y-98689442D01*
X155769542Y-98688422D01*
X155770127Y-98688031D01*
X155814735Y-98634655D01*
X155823367Y-98565940D01*
X155793403Y-98503310D01*
X155770260Y-98483258D01*
X155769542Y-98482778D01*
X155768657Y-98480984D01*
X155769769Y-98479321D01*
X155771043Y-98479153D01*
X155793399Y-98483600D01*
X157118001Y-98483600D01*
X157140357Y-98479153D01*
X157142251Y-98479796D01*
G37*
G36*
X141817251Y-98479796D02*
G01*
X141817641Y-98481758D01*
X141816858Y-98482778D01*
X141816273Y-98483169D01*
X141771665Y-98536545D01*
X141763033Y-98605260D01*
X141792997Y-98667890D01*
X141816140Y-98687942D01*
X141816858Y-98688422D01*
X141817743Y-98690216D01*
X141816631Y-98691879D01*
X141815357Y-98692047D01*
X141793001Y-98687600D01*
X140468399Y-98687600D01*
X140446043Y-98692047D01*
X140444149Y-98691404D01*
X140443759Y-98689442D01*
X140444542Y-98688422D01*
X140445127Y-98688031D01*
X140489735Y-98634655D01*
X140498367Y-98565940D01*
X140468403Y-98503310D01*
X140445260Y-98483258D01*
X140444542Y-98482778D01*
X140443657Y-98480984D01*
X140444769Y-98479321D01*
X140446043Y-98479153D01*
X140468399Y-98483600D01*
X141793001Y-98483600D01*
X141815357Y-98479153D01*
X141817251Y-98479796D01*
G37*
G36*
X141817251Y-97979796D02*
G01*
X141817641Y-97981758D01*
X141816858Y-97982778D01*
X141816273Y-97983169D01*
X141771665Y-98036545D01*
X141763033Y-98105260D01*
X141792997Y-98167890D01*
X141816140Y-98187942D01*
X141816858Y-98188422D01*
X141817743Y-98190216D01*
X141816631Y-98191879D01*
X141815357Y-98192047D01*
X141793001Y-98187600D01*
X140468399Y-98187600D01*
X140446043Y-98192047D01*
X140444149Y-98191404D01*
X140443759Y-98189442D01*
X140444542Y-98188422D01*
X140445127Y-98188031D01*
X140489735Y-98134655D01*
X140498367Y-98065940D01*
X140468403Y-98003310D01*
X140445260Y-97983258D01*
X140444542Y-97982778D01*
X140443657Y-97980984D01*
X140444769Y-97979321D01*
X140446043Y-97979153D01*
X140468399Y-97983600D01*
X141793001Y-97983600D01*
X141815357Y-97979153D01*
X141817251Y-97979796D01*
G37*
G36*
X157142251Y-97979796D02*
G01*
X157142641Y-97981758D01*
X157141858Y-97982778D01*
X157141273Y-97983169D01*
X157096665Y-98036545D01*
X157088033Y-98105260D01*
X157117997Y-98167890D01*
X157141140Y-98187942D01*
X157141858Y-98188422D01*
X157142743Y-98190216D01*
X157141631Y-98191879D01*
X157140357Y-98192047D01*
X157118001Y-98187600D01*
X155793399Y-98187600D01*
X155771043Y-98192047D01*
X155769149Y-98191404D01*
X155768759Y-98189442D01*
X155769542Y-98188422D01*
X155770127Y-98188031D01*
X155814735Y-98134655D01*
X155823367Y-98065940D01*
X155793403Y-98003310D01*
X155770260Y-97983258D01*
X155769542Y-97982778D01*
X155768657Y-97980984D01*
X155769769Y-97979321D01*
X155771043Y-97979153D01*
X155793399Y-97983600D01*
X157118001Y-97983600D01*
X157140357Y-97979153D01*
X157142251Y-97979796D01*
G37*
G36*
X157142251Y-97479796D02*
G01*
X157142641Y-97481758D01*
X157141858Y-97482778D01*
X157141273Y-97483169D01*
X157096665Y-97536545D01*
X157088033Y-97605260D01*
X157117997Y-97667890D01*
X157141140Y-97687942D01*
X157141858Y-97688422D01*
X157142743Y-97690216D01*
X157141631Y-97691879D01*
X157140357Y-97692047D01*
X157118001Y-97687600D01*
X155793399Y-97687600D01*
X155771043Y-97692047D01*
X155769149Y-97691404D01*
X155768759Y-97689442D01*
X155769542Y-97688422D01*
X155770127Y-97688031D01*
X155814735Y-97634655D01*
X155823367Y-97565940D01*
X155793403Y-97503310D01*
X155770260Y-97483258D01*
X155769542Y-97482778D01*
X155768657Y-97480984D01*
X155769769Y-97479321D01*
X155771043Y-97479153D01*
X155793399Y-97483600D01*
X157118001Y-97483600D01*
X157140357Y-97479153D01*
X157142251Y-97479796D01*
G37*
G36*
X141817251Y-97479796D02*
G01*
X141817641Y-97481758D01*
X141816858Y-97482778D01*
X141816273Y-97483169D01*
X141771665Y-97536545D01*
X141763033Y-97605260D01*
X141792997Y-97667890D01*
X141816140Y-97687942D01*
X141816858Y-97688422D01*
X141817743Y-97690216D01*
X141816631Y-97691879D01*
X141815357Y-97692047D01*
X141793001Y-97687600D01*
X140468399Y-97687600D01*
X140446043Y-97692047D01*
X140444149Y-97691404D01*
X140443759Y-97689442D01*
X140444542Y-97688422D01*
X140445127Y-97688031D01*
X140489735Y-97634655D01*
X140498367Y-97565940D01*
X140468403Y-97503310D01*
X140445260Y-97483258D01*
X140444542Y-97482778D01*
X140443657Y-97480984D01*
X140444769Y-97479321D01*
X140446043Y-97479153D01*
X140468399Y-97483600D01*
X141793001Y-97483600D01*
X141815357Y-97479153D01*
X141817251Y-97479796D01*
G37*
G36*
X141817251Y-96979796D02*
G01*
X141817641Y-96981758D01*
X141816858Y-96982778D01*
X141816273Y-96983169D01*
X141771665Y-97036545D01*
X141763033Y-97105260D01*
X141792997Y-97167890D01*
X141816140Y-97187942D01*
X141816858Y-97188422D01*
X141817743Y-97190216D01*
X141816631Y-97191879D01*
X141815357Y-97192047D01*
X141793001Y-97187600D01*
X140468399Y-97187600D01*
X140446043Y-97192047D01*
X140444149Y-97191404D01*
X140443759Y-97189442D01*
X140444542Y-97188422D01*
X140445127Y-97188031D01*
X140489735Y-97134655D01*
X140498367Y-97065940D01*
X140468403Y-97003310D01*
X140445260Y-96983258D01*
X140444542Y-96982778D01*
X140443657Y-96980984D01*
X140444769Y-96979321D01*
X140446043Y-96979153D01*
X140468399Y-96983600D01*
X141793001Y-96983600D01*
X141815357Y-96979153D01*
X141817251Y-96979796D01*
G37*
G36*
X157142251Y-96979796D02*
G01*
X157142641Y-96981758D01*
X157141858Y-96982778D01*
X157141273Y-96983169D01*
X157096665Y-97036545D01*
X157088033Y-97105260D01*
X157117997Y-97167890D01*
X157141140Y-97187942D01*
X157141858Y-97188422D01*
X157142743Y-97190216D01*
X157141631Y-97191879D01*
X157140357Y-97192047D01*
X157118001Y-97187600D01*
X155793399Y-97187600D01*
X155771043Y-97192047D01*
X155769149Y-97191404D01*
X155768759Y-97189442D01*
X155769542Y-97188422D01*
X155770127Y-97188031D01*
X155814735Y-97134655D01*
X155823367Y-97065940D01*
X155793403Y-97003310D01*
X155770260Y-96983258D01*
X155769542Y-96982778D01*
X155768657Y-96980984D01*
X155769769Y-96979321D01*
X155771043Y-96979153D01*
X155793399Y-96983600D01*
X157118001Y-96983600D01*
X157140357Y-96979153D01*
X157142251Y-96979796D01*
G37*
G36*
X157142251Y-96479796D02*
G01*
X157142641Y-96481758D01*
X157141858Y-96482778D01*
X157141273Y-96483169D01*
X157096665Y-96536545D01*
X157088033Y-96605260D01*
X157117997Y-96667890D01*
X157141140Y-96687942D01*
X157141858Y-96688422D01*
X157142743Y-96690216D01*
X157141631Y-96691879D01*
X157140357Y-96692047D01*
X157118001Y-96687600D01*
X155793399Y-96687600D01*
X155771043Y-96692047D01*
X155769149Y-96691404D01*
X155768759Y-96689442D01*
X155769542Y-96688422D01*
X155770127Y-96688031D01*
X155814735Y-96634655D01*
X155823367Y-96565940D01*
X155793403Y-96503310D01*
X155770260Y-96483258D01*
X155769542Y-96482778D01*
X155768657Y-96480984D01*
X155769769Y-96479321D01*
X155771043Y-96479153D01*
X155793399Y-96483600D01*
X157118001Y-96483600D01*
X157140357Y-96479153D01*
X157142251Y-96479796D01*
G37*
G36*
X141817251Y-96479796D02*
G01*
X141817641Y-96481758D01*
X141816858Y-96482778D01*
X141816273Y-96483169D01*
X141771665Y-96536545D01*
X141763033Y-96605260D01*
X141792997Y-96667890D01*
X141816140Y-96687942D01*
X141816858Y-96688422D01*
X141817743Y-96690216D01*
X141816631Y-96691879D01*
X141815357Y-96692047D01*
X141793001Y-96687600D01*
X140468399Y-96687600D01*
X140446043Y-96692047D01*
X140444149Y-96691404D01*
X140443759Y-96689442D01*
X140444542Y-96688422D01*
X140445127Y-96688031D01*
X140489735Y-96634655D01*
X140498367Y-96565940D01*
X140468403Y-96503310D01*
X140445260Y-96483258D01*
X140444542Y-96482778D01*
X140443657Y-96480984D01*
X140444769Y-96479321D01*
X140446043Y-96479153D01*
X140468399Y-96483600D01*
X141793001Y-96483600D01*
X141815357Y-96479153D01*
X141817251Y-96479796D01*
G37*
G36*
X157142251Y-95979796D02*
G01*
X157142641Y-95981758D01*
X157141858Y-95982778D01*
X157141273Y-95983169D01*
X157096665Y-96036545D01*
X157088033Y-96105260D01*
X157117997Y-96167890D01*
X157141140Y-96187942D01*
X157141858Y-96188422D01*
X157142743Y-96190216D01*
X157141631Y-96191879D01*
X157140357Y-96192047D01*
X157118001Y-96187600D01*
X155793399Y-96187600D01*
X155771043Y-96192047D01*
X155769149Y-96191404D01*
X155768759Y-96189442D01*
X155769542Y-96188422D01*
X155770127Y-96188031D01*
X155814735Y-96134655D01*
X155823367Y-96065940D01*
X155793403Y-96003310D01*
X155770260Y-95983258D01*
X155769542Y-95982778D01*
X155768657Y-95980984D01*
X155769769Y-95979321D01*
X155771043Y-95979153D01*
X155793399Y-95983600D01*
X157118001Y-95983600D01*
X157140357Y-95979153D01*
X157142251Y-95979796D01*
G37*
G36*
X141817251Y-95979796D02*
G01*
X141817641Y-95981758D01*
X141816858Y-95982778D01*
X141816273Y-95983169D01*
X141771665Y-96036545D01*
X141763033Y-96105260D01*
X141792997Y-96167890D01*
X141816140Y-96187942D01*
X141816858Y-96188422D01*
X141817743Y-96190216D01*
X141816631Y-96191879D01*
X141815357Y-96192047D01*
X141793001Y-96187600D01*
X140468399Y-96187600D01*
X140446043Y-96192047D01*
X140444149Y-96191404D01*
X140443759Y-96189442D01*
X140444542Y-96188422D01*
X140445127Y-96188031D01*
X140489735Y-96134655D01*
X140498367Y-96065940D01*
X140468403Y-96003310D01*
X140445260Y-95983258D01*
X140444542Y-95982778D01*
X140443657Y-95980984D01*
X140444769Y-95979321D01*
X140446043Y-95979153D01*
X140468399Y-95983600D01*
X141793001Y-95983600D01*
X141815357Y-95979153D01*
X141817251Y-95979796D01*
G37*
G36*
X141817251Y-95479796D02*
G01*
X141817641Y-95481758D01*
X141816858Y-95482778D01*
X141816273Y-95483169D01*
X141771665Y-95536545D01*
X141763033Y-95605260D01*
X141792997Y-95667890D01*
X141816140Y-95687942D01*
X141816858Y-95688422D01*
X141817743Y-95690216D01*
X141816631Y-95691879D01*
X141815357Y-95692047D01*
X141793001Y-95687600D01*
X140468399Y-95687600D01*
X140446043Y-95692047D01*
X140444149Y-95691404D01*
X140443759Y-95689442D01*
X140444542Y-95688422D01*
X140445127Y-95688031D01*
X140489735Y-95634655D01*
X140498367Y-95565940D01*
X140468403Y-95503310D01*
X140445260Y-95483258D01*
X140444542Y-95482778D01*
X140443657Y-95480984D01*
X140444769Y-95479321D01*
X140446043Y-95479153D01*
X140468399Y-95483600D01*
X141793001Y-95483600D01*
X141815357Y-95479153D01*
X141817251Y-95479796D01*
G37*
G36*
X157142251Y-95479796D02*
G01*
X157142641Y-95481758D01*
X157141858Y-95482778D01*
X157141273Y-95483169D01*
X157096665Y-95536545D01*
X157088033Y-95605260D01*
X157117997Y-95667890D01*
X157141140Y-95687942D01*
X157141858Y-95688422D01*
X157142743Y-95690216D01*
X157141631Y-95691879D01*
X157140357Y-95692047D01*
X157118001Y-95687600D01*
X155793399Y-95687600D01*
X155771043Y-95692047D01*
X155769149Y-95691404D01*
X155768759Y-95689442D01*
X155769542Y-95688422D01*
X155770127Y-95688031D01*
X155814735Y-95634655D01*
X155823367Y-95565940D01*
X155793403Y-95503310D01*
X155770260Y-95483258D01*
X155769542Y-95482778D01*
X155768657Y-95480984D01*
X155769769Y-95479321D01*
X155771043Y-95479153D01*
X155793399Y-95483600D01*
X157118001Y-95483600D01*
X157140357Y-95479153D01*
X157142251Y-95479796D01*
G37*
G36*
X141817251Y-94979796D02*
G01*
X141817641Y-94981758D01*
X141816858Y-94982778D01*
X141816273Y-94983169D01*
X141771665Y-95036545D01*
X141763033Y-95105260D01*
X141792997Y-95167890D01*
X141816140Y-95187942D01*
X141816858Y-95188422D01*
X141817743Y-95190216D01*
X141816631Y-95191879D01*
X141815357Y-95192047D01*
X141793001Y-95187600D01*
X140468399Y-95187600D01*
X140446043Y-95192047D01*
X140444149Y-95191404D01*
X140443759Y-95189442D01*
X140444542Y-95188422D01*
X140445127Y-95188031D01*
X140489735Y-95134655D01*
X140498367Y-95065940D01*
X140468403Y-95003310D01*
X140445260Y-94983258D01*
X140444542Y-94982778D01*
X140443657Y-94980984D01*
X140444769Y-94979321D01*
X140446043Y-94979153D01*
X140468399Y-94983600D01*
X141793001Y-94983600D01*
X141815357Y-94979153D01*
X141817251Y-94979796D01*
G37*
G36*
X157142251Y-94979796D02*
G01*
X157142641Y-94981758D01*
X157141858Y-94982778D01*
X157141273Y-94983169D01*
X157096665Y-95036545D01*
X157088033Y-95105260D01*
X157117997Y-95167890D01*
X157141140Y-95187942D01*
X157141858Y-95188422D01*
X157142743Y-95190216D01*
X157141631Y-95191879D01*
X157140357Y-95192047D01*
X157118001Y-95187600D01*
X155793399Y-95187600D01*
X155771043Y-95192047D01*
X155769149Y-95191404D01*
X155768759Y-95189442D01*
X155769542Y-95188422D01*
X155770127Y-95188031D01*
X155814735Y-95134655D01*
X155823367Y-95065940D01*
X155793403Y-95003310D01*
X155770260Y-94983258D01*
X155769542Y-94982778D01*
X155768657Y-94980984D01*
X155769769Y-94979321D01*
X155771043Y-94979153D01*
X155793399Y-94983600D01*
X157118001Y-94983600D01*
X157140357Y-94979153D01*
X157142251Y-94979796D01*
G37*
G36*
X157142251Y-94479796D02*
G01*
X157142641Y-94481758D01*
X157141858Y-94482778D01*
X157141273Y-94483169D01*
X157096665Y-94536545D01*
X157088033Y-94605260D01*
X157117997Y-94667890D01*
X157141140Y-94687942D01*
X157141858Y-94688422D01*
X157142743Y-94690216D01*
X157141631Y-94691879D01*
X157140357Y-94692047D01*
X157118001Y-94687600D01*
X155793399Y-94687600D01*
X155771043Y-94692047D01*
X155769149Y-94691404D01*
X155768759Y-94689442D01*
X155769542Y-94688422D01*
X155770127Y-94688031D01*
X155814735Y-94634655D01*
X155823367Y-94565940D01*
X155793403Y-94503310D01*
X155770260Y-94483258D01*
X155769542Y-94482778D01*
X155768657Y-94480984D01*
X155769769Y-94479321D01*
X155771043Y-94479153D01*
X155793399Y-94483600D01*
X157118001Y-94483600D01*
X157140357Y-94479153D01*
X157142251Y-94479796D01*
G37*
G36*
X141817251Y-94479796D02*
G01*
X141817641Y-94481758D01*
X141816858Y-94482778D01*
X141816273Y-94483169D01*
X141771665Y-94536545D01*
X141763033Y-94605260D01*
X141792997Y-94667890D01*
X141816140Y-94687942D01*
X141816858Y-94688422D01*
X141817743Y-94690216D01*
X141816631Y-94691879D01*
X141815357Y-94692047D01*
X141793001Y-94687600D01*
X140468399Y-94687600D01*
X140446043Y-94692047D01*
X140444149Y-94691404D01*
X140443759Y-94689442D01*
X140444542Y-94688422D01*
X140445127Y-94688031D01*
X140489735Y-94634655D01*
X140498367Y-94565940D01*
X140468403Y-94503310D01*
X140445260Y-94483258D01*
X140444542Y-94482778D01*
X140443657Y-94480984D01*
X140444769Y-94479321D01*
X140446043Y-94479153D01*
X140468399Y-94483600D01*
X141793001Y-94483600D01*
X141815357Y-94479153D01*
X141817251Y-94479796D01*
G37*
G36*
X141817251Y-93979796D02*
G01*
X141817641Y-93981758D01*
X141816858Y-93982778D01*
X141816273Y-93983169D01*
X141771665Y-94036545D01*
X141763033Y-94105260D01*
X141792997Y-94167890D01*
X141816140Y-94187942D01*
X141816858Y-94188422D01*
X141817743Y-94190216D01*
X141816631Y-94191879D01*
X141815357Y-94192047D01*
X141793001Y-94187600D01*
X140468399Y-94187600D01*
X140446043Y-94192047D01*
X140444149Y-94191404D01*
X140443759Y-94189442D01*
X140444542Y-94188422D01*
X140445127Y-94188031D01*
X140489735Y-94134655D01*
X140498367Y-94065940D01*
X140468403Y-94003310D01*
X140445260Y-93983258D01*
X140444542Y-93982778D01*
X140443657Y-93980984D01*
X140444769Y-93979321D01*
X140446043Y-93979153D01*
X140468399Y-93983600D01*
X141793001Y-93983600D01*
X141815357Y-93979153D01*
X141817251Y-93979796D01*
G37*
G36*
X157142251Y-93979796D02*
G01*
X157142641Y-93981758D01*
X157141858Y-93982778D01*
X157141273Y-93983169D01*
X157096665Y-94036545D01*
X157088033Y-94105260D01*
X157117997Y-94167890D01*
X157141140Y-94187942D01*
X157141858Y-94188422D01*
X157142743Y-94190216D01*
X157141631Y-94191879D01*
X157140357Y-94192047D01*
X157118001Y-94187600D01*
X155793399Y-94187600D01*
X155771043Y-94192047D01*
X155769149Y-94191404D01*
X155768759Y-94189442D01*
X155769542Y-94188422D01*
X155770127Y-94188031D01*
X155814735Y-94134655D01*
X155823367Y-94065940D01*
X155793403Y-94003310D01*
X155770260Y-93983258D01*
X155769542Y-93982778D01*
X155768657Y-93980984D01*
X155769769Y-93979321D01*
X155771043Y-93979153D01*
X155793399Y-93983600D01*
X157118001Y-93983600D01*
X157140357Y-93979153D01*
X157142251Y-93979796D01*
G37*
G36*
X157142251Y-93479796D02*
G01*
X157142641Y-93481758D01*
X157141858Y-93482778D01*
X157141273Y-93483169D01*
X157096665Y-93536545D01*
X157088033Y-93605260D01*
X157117997Y-93667890D01*
X157141140Y-93687942D01*
X157141858Y-93688422D01*
X157142743Y-93690216D01*
X157141631Y-93691879D01*
X157140357Y-93692047D01*
X157118001Y-93687600D01*
X155793399Y-93687600D01*
X155771043Y-93692047D01*
X155769149Y-93691404D01*
X155768759Y-93689442D01*
X155769542Y-93688422D01*
X155770127Y-93688031D01*
X155814735Y-93634655D01*
X155823367Y-93565940D01*
X155793403Y-93503310D01*
X155770260Y-93483258D01*
X155769542Y-93482778D01*
X155768657Y-93480984D01*
X155769769Y-93479321D01*
X155771043Y-93479153D01*
X155793399Y-93483600D01*
X157118001Y-93483600D01*
X157140357Y-93479153D01*
X157142251Y-93479796D01*
G37*
G36*
X141817251Y-93479796D02*
G01*
X141817641Y-93481758D01*
X141816858Y-93482778D01*
X141816273Y-93483169D01*
X141771665Y-93536545D01*
X141763033Y-93605260D01*
X141792997Y-93667890D01*
X141816140Y-93687942D01*
X141816858Y-93688422D01*
X141817743Y-93690216D01*
X141816631Y-93691879D01*
X141815357Y-93692047D01*
X141793001Y-93687600D01*
X140468399Y-93687600D01*
X140446043Y-93692047D01*
X140444149Y-93691404D01*
X140443759Y-93689442D01*
X140444542Y-93688422D01*
X140445127Y-93688031D01*
X140489735Y-93634655D01*
X140498367Y-93565940D01*
X140468403Y-93503310D01*
X140445260Y-93483258D01*
X140444542Y-93482778D01*
X140443657Y-93480984D01*
X140444769Y-93479321D01*
X140446043Y-93479153D01*
X140468399Y-93483600D01*
X141793001Y-93483600D01*
X141815357Y-93479153D01*
X141817251Y-93479796D01*
G37*
G36*
X141817251Y-92979796D02*
G01*
X141817641Y-92981758D01*
X141816858Y-92982778D01*
X141816273Y-92983169D01*
X141771665Y-93036545D01*
X141763033Y-93105260D01*
X141792997Y-93167890D01*
X141816140Y-93187942D01*
X141816858Y-93188422D01*
X141817743Y-93190216D01*
X141816631Y-93191879D01*
X141815357Y-93192047D01*
X141793001Y-93187600D01*
X140468399Y-93187600D01*
X140446043Y-93192047D01*
X140444149Y-93191404D01*
X140443759Y-93189442D01*
X140444542Y-93188422D01*
X140445127Y-93188031D01*
X140489735Y-93134655D01*
X140498367Y-93065940D01*
X140468403Y-93003310D01*
X140445260Y-92983258D01*
X140444542Y-92982778D01*
X140443657Y-92980984D01*
X140444769Y-92979321D01*
X140446043Y-92979153D01*
X140468399Y-92983600D01*
X141793001Y-92983600D01*
X141815357Y-92979153D01*
X141817251Y-92979796D01*
G37*
G36*
X157142251Y-92979796D02*
G01*
X157142641Y-92981758D01*
X157141858Y-92982778D01*
X157141273Y-92983169D01*
X157096665Y-93036545D01*
X157088033Y-93105260D01*
X157117997Y-93167890D01*
X157141140Y-93187942D01*
X157141858Y-93188422D01*
X157142743Y-93190216D01*
X157141631Y-93191879D01*
X157140357Y-93192047D01*
X157118001Y-93187600D01*
X155793399Y-93187600D01*
X155771043Y-93192047D01*
X155769149Y-93191404D01*
X155768759Y-93189442D01*
X155769542Y-93188422D01*
X155770127Y-93188031D01*
X155814735Y-93134655D01*
X155823367Y-93065940D01*
X155793403Y-93003310D01*
X155770260Y-92983258D01*
X155769542Y-92982778D01*
X155768657Y-92980984D01*
X155769769Y-92979321D01*
X155771043Y-92979153D01*
X155793399Y-92983600D01*
X157118001Y-92983600D01*
X157140357Y-92979153D01*
X157142251Y-92979796D01*
G37*
G36*
X141817251Y-92479796D02*
G01*
X141817641Y-92481758D01*
X141816858Y-92482778D01*
X141816273Y-92483169D01*
X141771665Y-92536545D01*
X141763033Y-92605260D01*
X141792997Y-92667890D01*
X141816140Y-92687942D01*
X141816858Y-92688422D01*
X141817743Y-92690216D01*
X141816631Y-92691879D01*
X141815357Y-92692047D01*
X141793001Y-92687600D01*
X140468399Y-92687600D01*
X140446043Y-92692047D01*
X140444149Y-92691404D01*
X140443759Y-92689442D01*
X140444542Y-92688422D01*
X140445127Y-92688031D01*
X140489735Y-92634655D01*
X140498367Y-92565940D01*
X140468403Y-92503310D01*
X140445260Y-92483258D01*
X140444542Y-92482778D01*
X140443657Y-92480984D01*
X140444769Y-92479321D01*
X140446043Y-92479153D01*
X140468399Y-92483600D01*
X141793001Y-92483600D01*
X141815357Y-92479153D01*
X141817251Y-92479796D01*
G37*
G36*
X157142251Y-92479796D02*
G01*
X157142641Y-92481758D01*
X157141858Y-92482778D01*
X157141273Y-92483169D01*
X157096665Y-92536545D01*
X157088033Y-92605260D01*
X157117997Y-92667890D01*
X157141140Y-92687942D01*
X157141858Y-92688422D01*
X157142743Y-92690216D01*
X157141631Y-92691879D01*
X157140357Y-92692047D01*
X157118001Y-92687600D01*
X155793399Y-92687600D01*
X155771043Y-92692047D01*
X155769149Y-92691404D01*
X155768759Y-92689442D01*
X155769542Y-92688422D01*
X155770127Y-92688031D01*
X155814735Y-92634655D01*
X155823367Y-92565940D01*
X155793403Y-92503310D01*
X155770260Y-92483258D01*
X155769542Y-92482778D01*
X155768657Y-92480984D01*
X155769769Y-92479321D01*
X155771043Y-92479153D01*
X155793399Y-92483600D01*
X157118001Y-92483600D01*
X157140357Y-92479153D01*
X157142251Y-92479796D01*
G37*
G36*
X141817251Y-91979796D02*
G01*
X141817641Y-91981758D01*
X141816858Y-91982778D01*
X141816273Y-91983169D01*
X141771665Y-92036545D01*
X141763033Y-92105260D01*
X141792997Y-92167890D01*
X141816140Y-92187942D01*
X141816858Y-92188422D01*
X141817743Y-92190216D01*
X141816631Y-92191879D01*
X141815357Y-92192047D01*
X141793001Y-92187600D01*
X140468399Y-92187600D01*
X140446043Y-92192047D01*
X140444149Y-92191404D01*
X140443759Y-92189442D01*
X140444542Y-92188422D01*
X140445127Y-92188031D01*
X140489735Y-92134655D01*
X140498367Y-92065940D01*
X140468403Y-92003310D01*
X140445260Y-91983258D01*
X140444542Y-91982778D01*
X140443657Y-91980984D01*
X140444769Y-91979321D01*
X140446043Y-91979153D01*
X140468399Y-91983600D01*
X141793001Y-91983600D01*
X141815357Y-91979153D01*
X141817251Y-91979796D01*
G37*
G36*
X157142251Y-91979796D02*
G01*
X157142641Y-91981758D01*
X157141858Y-91982778D01*
X157141273Y-91983169D01*
X157096665Y-92036545D01*
X157088033Y-92105260D01*
X157117997Y-92167890D01*
X157141140Y-92187942D01*
X157141858Y-92188422D01*
X157142743Y-92190216D01*
X157141631Y-92191879D01*
X157140357Y-92192047D01*
X157118001Y-92187600D01*
X155793399Y-92187600D01*
X155771043Y-92192047D01*
X155769149Y-92191404D01*
X155768759Y-92189442D01*
X155769542Y-92188422D01*
X155770127Y-92188031D01*
X155814735Y-92134655D01*
X155823367Y-92065940D01*
X155793403Y-92003310D01*
X155770260Y-91983258D01*
X155769542Y-91982778D01*
X155768657Y-91980984D01*
X155769769Y-91979321D01*
X155771043Y-91979153D01*
X155793399Y-91983600D01*
X157118001Y-91983600D01*
X157140357Y-91979153D01*
X157142251Y-91979796D01*
G37*
G36*
X157142251Y-91479796D02*
G01*
X157142641Y-91481758D01*
X157141858Y-91482778D01*
X157141273Y-91483169D01*
X157096665Y-91536545D01*
X157088033Y-91605260D01*
X157117997Y-91667890D01*
X157141140Y-91687942D01*
X157141858Y-91688422D01*
X157142743Y-91690216D01*
X157141631Y-91691879D01*
X157140357Y-91692047D01*
X157118001Y-91687600D01*
X155793399Y-91687600D01*
X155771043Y-91692047D01*
X155769149Y-91691404D01*
X155768759Y-91689442D01*
X155769542Y-91688422D01*
X155770127Y-91688031D01*
X155814735Y-91634655D01*
X155823367Y-91565940D01*
X155793403Y-91503310D01*
X155770260Y-91483258D01*
X155769542Y-91482778D01*
X155768657Y-91480984D01*
X155769769Y-91479321D01*
X155771043Y-91479153D01*
X155793399Y-91483600D01*
X157118001Y-91483600D01*
X157140357Y-91479153D01*
X157142251Y-91479796D01*
G37*
G36*
X141817251Y-91479796D02*
G01*
X141817641Y-91481758D01*
X141816858Y-91482778D01*
X141816273Y-91483169D01*
X141771665Y-91536545D01*
X141763033Y-91605260D01*
X141792997Y-91667890D01*
X141816140Y-91687942D01*
X141816858Y-91688422D01*
X141817743Y-91690216D01*
X141816631Y-91691879D01*
X141815357Y-91692047D01*
X141793001Y-91687600D01*
X140468399Y-91687600D01*
X140446043Y-91692047D01*
X140444149Y-91691404D01*
X140443759Y-91689442D01*
X140444542Y-91688422D01*
X140445127Y-91688031D01*
X140489735Y-91634655D01*
X140498367Y-91565940D01*
X140468403Y-91503310D01*
X140445260Y-91483258D01*
X140444542Y-91482778D01*
X140443657Y-91480984D01*
X140444769Y-91479321D01*
X140446043Y-91479153D01*
X140468399Y-91483600D01*
X141793001Y-91483600D01*
X141815357Y-91479153D01*
X141817251Y-91479796D01*
G37*
G36*
X141817251Y-90979796D02*
G01*
X141817641Y-90981758D01*
X141816858Y-90982778D01*
X141816273Y-90983169D01*
X141771665Y-91036545D01*
X141763033Y-91105260D01*
X141792997Y-91167890D01*
X141816140Y-91187942D01*
X141816858Y-91188422D01*
X141817743Y-91190216D01*
X141816631Y-91191879D01*
X141815357Y-91192047D01*
X141793001Y-91187600D01*
X140468399Y-91187600D01*
X140446043Y-91192047D01*
X140444149Y-91191404D01*
X140443759Y-91189442D01*
X140444542Y-91188422D01*
X140445127Y-91188031D01*
X140489735Y-91134655D01*
X140498367Y-91065940D01*
X140468403Y-91003310D01*
X140445260Y-90983258D01*
X140444542Y-90982778D01*
X140443657Y-90980984D01*
X140444769Y-90979321D01*
X140446043Y-90979153D01*
X140468399Y-90983600D01*
X141793001Y-90983600D01*
X141815357Y-90979153D01*
X141817251Y-90979796D01*
G37*
G36*
X157142251Y-90979796D02*
G01*
X157142641Y-90981758D01*
X157141858Y-90982778D01*
X157141273Y-90983169D01*
X157096665Y-91036545D01*
X157088033Y-91105260D01*
X157117997Y-91167890D01*
X157141140Y-91187942D01*
X157141858Y-91188422D01*
X157142743Y-91190216D01*
X157141631Y-91191879D01*
X157140357Y-91192047D01*
X157118001Y-91187600D01*
X155793399Y-91187600D01*
X155771043Y-91192047D01*
X155769149Y-91191404D01*
X155768759Y-91189442D01*
X155769542Y-91188422D01*
X155770127Y-91188031D01*
X155814735Y-91134655D01*
X155823367Y-91065940D01*
X155793403Y-91003310D01*
X155770260Y-90983258D01*
X155769542Y-90982778D01*
X155768657Y-90980984D01*
X155769769Y-90979321D01*
X155771043Y-90979153D01*
X155793399Y-90983600D01*
X157118001Y-90983600D01*
X157140357Y-90979153D01*
X157142251Y-90979796D01*
G37*
G36*
X141817251Y-90479796D02*
G01*
X141817641Y-90481758D01*
X141816858Y-90482778D01*
X141816273Y-90483169D01*
X141771665Y-90536545D01*
X141763033Y-90605260D01*
X141792997Y-90667890D01*
X141816140Y-90687942D01*
X141816858Y-90688422D01*
X141817743Y-90690216D01*
X141816631Y-90691879D01*
X141815357Y-90692047D01*
X141793001Y-90687600D01*
X140468399Y-90687600D01*
X140446043Y-90692047D01*
X140444149Y-90691404D01*
X140443759Y-90689442D01*
X140444542Y-90688422D01*
X140445127Y-90688031D01*
X140489735Y-90634655D01*
X140498367Y-90565940D01*
X140468403Y-90503310D01*
X140445260Y-90483258D01*
X140444542Y-90482778D01*
X140443657Y-90480984D01*
X140444769Y-90479321D01*
X140446043Y-90479153D01*
X140468399Y-90483600D01*
X141793001Y-90483600D01*
X141815357Y-90479153D01*
X141817251Y-90479796D01*
G37*
G36*
X157142251Y-90479796D02*
G01*
X157142641Y-90481758D01*
X157141858Y-90482778D01*
X157141273Y-90483169D01*
X157096665Y-90536545D01*
X157088033Y-90605260D01*
X157117997Y-90667890D01*
X157141140Y-90687942D01*
X157141858Y-90688422D01*
X157142743Y-90690216D01*
X157141631Y-90691879D01*
X157140357Y-90692047D01*
X157118001Y-90687600D01*
X155793399Y-90687600D01*
X155771043Y-90692047D01*
X155769149Y-90691404D01*
X155768759Y-90689442D01*
X155769542Y-90688422D01*
X155770127Y-90688031D01*
X155814735Y-90634655D01*
X155823367Y-90565940D01*
X155793403Y-90503310D01*
X155770260Y-90483258D01*
X155769542Y-90482778D01*
X155768657Y-90480984D01*
X155769769Y-90479321D01*
X155771043Y-90479153D01*
X155793399Y-90483600D01*
X157118001Y-90483600D01*
X157140357Y-90479153D01*
X157142251Y-90479796D01*
G37*
G36*
X141817251Y-89979796D02*
G01*
X141817641Y-89981758D01*
X141816858Y-89982778D01*
X141816273Y-89983169D01*
X141771665Y-90036545D01*
X141763033Y-90105260D01*
X141792997Y-90167890D01*
X141816140Y-90187942D01*
X141816858Y-90188422D01*
X141817743Y-90190216D01*
X141816631Y-90191879D01*
X141815357Y-90192047D01*
X141793001Y-90187600D01*
X140468399Y-90187600D01*
X140446043Y-90192047D01*
X140444149Y-90191404D01*
X140443759Y-90189442D01*
X140444542Y-90188422D01*
X140445127Y-90188031D01*
X140489735Y-90134655D01*
X140498367Y-90065940D01*
X140468403Y-90003310D01*
X140445260Y-89983258D01*
X140444542Y-89982778D01*
X140443657Y-89980984D01*
X140444769Y-89979321D01*
X140446043Y-89979153D01*
X140468399Y-89983600D01*
X141793001Y-89983600D01*
X141815357Y-89979153D01*
X141817251Y-89979796D01*
G37*
G36*
X157142251Y-89979796D02*
G01*
X157142641Y-89981758D01*
X157141858Y-89982778D01*
X157141273Y-89983169D01*
X157096665Y-90036545D01*
X157088033Y-90105260D01*
X157117997Y-90167890D01*
X157141140Y-90187942D01*
X157141858Y-90188422D01*
X157142743Y-90190216D01*
X157141631Y-90191879D01*
X157140357Y-90192047D01*
X157118001Y-90187600D01*
X155793399Y-90187600D01*
X155771043Y-90192047D01*
X155769149Y-90191404D01*
X155768759Y-90189442D01*
X155769542Y-90188422D01*
X155770127Y-90188031D01*
X155814735Y-90134655D01*
X155823367Y-90065940D01*
X155793403Y-90003310D01*
X155770260Y-89983258D01*
X155769542Y-89982778D01*
X155768657Y-89980984D01*
X155769769Y-89979321D01*
X155771043Y-89979153D01*
X155793399Y-89983600D01*
X157118001Y-89983600D01*
X157140357Y-89979153D01*
X157142251Y-89979796D01*
G37*
G36*
X141817251Y-89479796D02*
G01*
X141817641Y-89481758D01*
X141816858Y-89482778D01*
X141816273Y-89483169D01*
X141771665Y-89536545D01*
X141763033Y-89605260D01*
X141792997Y-89667890D01*
X141816140Y-89687942D01*
X141816858Y-89688422D01*
X141817743Y-89690216D01*
X141816631Y-89691879D01*
X141815357Y-89692047D01*
X141793001Y-89687600D01*
X140468399Y-89687600D01*
X140446043Y-89692047D01*
X140444149Y-89691404D01*
X140443759Y-89689442D01*
X140444542Y-89688422D01*
X140445127Y-89688031D01*
X140489735Y-89634655D01*
X140498367Y-89565940D01*
X140468403Y-89503310D01*
X140445260Y-89483258D01*
X140444542Y-89482778D01*
X140443657Y-89480984D01*
X140444769Y-89479321D01*
X140446043Y-89479153D01*
X140468399Y-89483600D01*
X141793001Y-89483600D01*
X141815357Y-89479153D01*
X141817251Y-89479796D01*
G37*
G36*
X157142251Y-89479796D02*
G01*
X157142641Y-89481758D01*
X157141858Y-89482778D01*
X157141273Y-89483169D01*
X157096665Y-89536545D01*
X157088033Y-89605260D01*
X157117997Y-89667890D01*
X157141140Y-89687942D01*
X157141858Y-89688422D01*
X157142743Y-89690216D01*
X157141631Y-89691879D01*
X157140357Y-89692047D01*
X157118001Y-89687600D01*
X155793399Y-89687600D01*
X155771043Y-89692047D01*
X155769149Y-89691404D01*
X155768759Y-89689442D01*
X155769542Y-89688422D01*
X155770127Y-89688031D01*
X155814735Y-89634655D01*
X155823367Y-89565940D01*
X155793403Y-89503310D01*
X155770260Y-89483258D01*
X155769542Y-89482778D01*
X155768657Y-89480984D01*
X155769769Y-89479321D01*
X155771043Y-89479153D01*
X155793399Y-89483600D01*
X157118001Y-89483600D01*
X157140357Y-89479153D01*
X157142251Y-89479796D01*
G37*
G36*
X157142251Y-88979796D02*
G01*
X157142641Y-88981758D01*
X157141858Y-88982778D01*
X157141273Y-88983169D01*
X157096665Y-89036545D01*
X157088033Y-89105260D01*
X157117997Y-89167890D01*
X157141140Y-89187942D01*
X157141858Y-89188422D01*
X157142743Y-89190216D01*
X157141631Y-89191879D01*
X157140357Y-89192047D01*
X157118001Y-89187600D01*
X155793399Y-89187600D01*
X155771043Y-89192047D01*
X155769149Y-89191404D01*
X155768759Y-89189442D01*
X155769542Y-89188422D01*
X155770127Y-89188031D01*
X155814735Y-89134655D01*
X155823367Y-89065940D01*
X155793403Y-89003310D01*
X155770260Y-88983258D01*
X155769542Y-88982778D01*
X155768657Y-88980984D01*
X155769769Y-88979321D01*
X155771043Y-88979153D01*
X155793399Y-88983600D01*
X157118001Y-88983600D01*
X157140357Y-88979153D01*
X157142251Y-88979796D01*
G37*
G36*
X141817251Y-88979796D02*
G01*
X141817641Y-88981758D01*
X141816858Y-88982778D01*
X141816273Y-88983169D01*
X141771665Y-89036545D01*
X141763033Y-89105260D01*
X141792997Y-89167890D01*
X141816140Y-89187942D01*
X141816858Y-89188422D01*
X141817743Y-89190216D01*
X141816631Y-89191879D01*
X141815357Y-89192047D01*
X141793001Y-89187600D01*
X140468399Y-89187600D01*
X140446043Y-89192047D01*
X140444149Y-89191404D01*
X140443759Y-89189442D01*
X140444542Y-89188422D01*
X140445127Y-89188031D01*
X140489735Y-89134655D01*
X140498367Y-89065940D01*
X140468403Y-89003310D01*
X140445260Y-88983258D01*
X140444542Y-88982778D01*
X140443657Y-88980984D01*
X140444769Y-88979321D01*
X140446043Y-88979153D01*
X140468399Y-88983600D01*
X141793001Y-88983600D01*
X141815357Y-88979153D01*
X141817251Y-88979796D01*
G37*
G36*
X157142251Y-88479796D02*
G01*
X157142641Y-88481758D01*
X157141858Y-88482778D01*
X157141273Y-88483169D01*
X157096665Y-88536545D01*
X157088033Y-88605260D01*
X157117997Y-88667890D01*
X157141140Y-88687942D01*
X157141858Y-88688422D01*
X157142743Y-88690216D01*
X157141631Y-88691879D01*
X157140357Y-88692047D01*
X157118001Y-88687600D01*
X155793399Y-88687600D01*
X155771043Y-88692047D01*
X155769149Y-88691404D01*
X155768759Y-88689442D01*
X155769542Y-88688422D01*
X155770127Y-88688031D01*
X155814735Y-88634655D01*
X155823367Y-88565940D01*
X155793403Y-88503310D01*
X155770260Y-88483258D01*
X155769542Y-88482778D01*
X155768657Y-88480984D01*
X155769769Y-88479321D01*
X155771043Y-88479153D01*
X155793399Y-88483600D01*
X157118001Y-88483600D01*
X157140357Y-88479153D01*
X157142251Y-88479796D01*
G37*
G36*
X141817251Y-88479796D02*
G01*
X141817641Y-88481758D01*
X141816858Y-88482778D01*
X141816273Y-88483169D01*
X141771665Y-88536545D01*
X141763033Y-88605260D01*
X141792997Y-88667890D01*
X141816140Y-88687942D01*
X141816858Y-88688422D01*
X141817743Y-88690216D01*
X141816631Y-88691879D01*
X141815357Y-88692047D01*
X141793001Y-88687600D01*
X140468399Y-88687600D01*
X140446043Y-88692047D01*
X140444149Y-88691404D01*
X140443759Y-88689442D01*
X140444542Y-88688422D01*
X140445127Y-88688031D01*
X140489735Y-88634655D01*
X140498367Y-88565940D01*
X140468403Y-88503310D01*
X140445260Y-88483258D01*
X140444542Y-88482778D01*
X140443657Y-88480984D01*
X140444769Y-88479321D01*
X140446043Y-88479153D01*
X140468399Y-88483600D01*
X141793001Y-88483600D01*
X141815357Y-88479153D01*
X141817251Y-88479796D01*
G37*
G36*
X148649479Y-85987169D02*
G01*
X148649647Y-85988443D01*
X148645200Y-86010799D01*
X148645200Y-87335401D01*
X148649647Y-87357757D01*
X148649004Y-87359651D01*
X148647042Y-87360041D01*
X148646022Y-87359258D01*
X148645631Y-87358673D01*
X148592255Y-87314065D01*
X148523540Y-87305433D01*
X148460910Y-87335397D01*
X148440858Y-87358540D01*
X148440378Y-87359258D01*
X148438584Y-87360143D01*
X148436921Y-87359031D01*
X148436753Y-87357757D01*
X148441200Y-87335401D01*
X148441200Y-86010799D01*
X148436753Y-85988443D01*
X148437396Y-85986549D01*
X148439358Y-85986159D01*
X148440378Y-85986942D01*
X148440769Y-85987527D01*
X148494145Y-86032135D01*
X148562860Y-86040767D01*
X148625490Y-86010803D01*
X148645542Y-85987660D01*
X148646022Y-85986942D01*
X148647816Y-85986057D01*
X148649479Y-85987169D01*
G37*
G36*
X147149479Y-85987169D02*
G01*
X147149647Y-85988443D01*
X147145200Y-86010799D01*
X147145200Y-87335401D01*
X147149647Y-87357757D01*
X147149004Y-87359651D01*
X147147042Y-87360041D01*
X147146022Y-87359258D01*
X147145631Y-87358673D01*
X147092255Y-87314065D01*
X147023540Y-87305433D01*
X146960910Y-87335397D01*
X146940858Y-87358540D01*
X146940378Y-87359258D01*
X146938584Y-87360143D01*
X146936921Y-87359031D01*
X146936753Y-87357757D01*
X146941200Y-87335401D01*
X146941200Y-86010799D01*
X146936753Y-85988443D01*
X146937396Y-85986549D01*
X146939358Y-85986159D01*
X146940378Y-85986942D01*
X146940769Y-85987527D01*
X146994145Y-86032135D01*
X147062860Y-86040767D01*
X147125490Y-86010803D01*
X147145542Y-85987660D01*
X147146022Y-85986942D01*
X147147816Y-85986057D01*
X147149479Y-85987169D01*
G37*
G36*
X153649479Y-85987169D02*
G01*
X153649647Y-85988443D01*
X153645200Y-86010799D01*
X153645200Y-87335401D01*
X153649647Y-87357757D01*
X153649004Y-87359651D01*
X153647042Y-87360041D01*
X153646022Y-87359258D01*
X153645631Y-87358673D01*
X153592255Y-87314065D01*
X153523540Y-87305433D01*
X153460910Y-87335397D01*
X153440858Y-87358540D01*
X153440378Y-87359258D01*
X153438584Y-87360143D01*
X153436921Y-87359031D01*
X153436753Y-87357757D01*
X153441200Y-87335401D01*
X153441200Y-86010799D01*
X153436753Y-85988443D01*
X153437396Y-85986549D01*
X153439358Y-85986159D01*
X153440378Y-85986942D01*
X153440769Y-85987527D01*
X153494145Y-86032135D01*
X153562860Y-86040767D01*
X153625490Y-86010803D01*
X153645542Y-85987660D01*
X153646022Y-85986942D01*
X153647816Y-85986057D01*
X153649479Y-85987169D01*
G37*
G36*
X154149479Y-85987169D02*
G01*
X154149647Y-85988443D01*
X154145200Y-86010799D01*
X154145200Y-87335401D01*
X154149647Y-87357757D01*
X154149004Y-87359651D01*
X154147042Y-87360041D01*
X154146022Y-87359258D01*
X154145631Y-87358673D01*
X154092255Y-87314065D01*
X154023540Y-87305433D01*
X153960910Y-87335397D01*
X153940858Y-87358540D01*
X153940378Y-87359258D01*
X153938584Y-87360143D01*
X153936921Y-87359031D01*
X153936753Y-87357757D01*
X153941200Y-87335401D01*
X153941200Y-86010799D01*
X153936753Y-85988443D01*
X153937396Y-85986549D01*
X153939358Y-85986159D01*
X153940378Y-85986942D01*
X153940769Y-85987527D01*
X153994145Y-86032135D01*
X154062860Y-86040767D01*
X154125490Y-86010803D01*
X154145542Y-85987660D01*
X154146022Y-85986942D01*
X154147816Y-85986057D01*
X154149479Y-85987169D01*
G37*
G36*
X146649479Y-85987169D02*
G01*
X146649647Y-85988443D01*
X146645200Y-86010799D01*
X146645200Y-87335401D01*
X146649647Y-87357757D01*
X146649004Y-87359651D01*
X146647042Y-87360041D01*
X146646022Y-87359258D01*
X146645631Y-87358673D01*
X146592255Y-87314065D01*
X146523540Y-87305433D01*
X146460910Y-87335397D01*
X146440858Y-87358540D01*
X146440378Y-87359258D01*
X146438584Y-87360143D01*
X146436921Y-87359031D01*
X146436753Y-87357757D01*
X146441200Y-87335401D01*
X146441200Y-86010799D01*
X146436753Y-85988443D01*
X146437396Y-85986549D01*
X146439358Y-85986159D01*
X146440378Y-85986942D01*
X146440769Y-85987527D01*
X146494145Y-86032135D01*
X146562860Y-86040767D01*
X146625490Y-86010803D01*
X146645542Y-85987660D01*
X146646022Y-85986942D01*
X146647816Y-85986057D01*
X146649479Y-85987169D01*
G37*
G36*
X149149479Y-85987169D02*
G01*
X149149647Y-85988443D01*
X149145200Y-86010799D01*
X149145200Y-87335401D01*
X149149647Y-87357757D01*
X149149004Y-87359651D01*
X149147042Y-87360041D01*
X149146022Y-87359258D01*
X149145631Y-87358673D01*
X149092255Y-87314065D01*
X149023540Y-87305433D01*
X148960910Y-87335397D01*
X148940858Y-87358540D01*
X148940378Y-87359258D01*
X148938584Y-87360143D01*
X148936921Y-87359031D01*
X148936753Y-87357757D01*
X148941200Y-87335401D01*
X148941200Y-86010799D01*
X148936753Y-85988443D01*
X148937396Y-85986549D01*
X148939358Y-85986159D01*
X148940378Y-85986942D01*
X148940769Y-85987527D01*
X148994145Y-86032135D01*
X149062860Y-86040767D01*
X149125490Y-86010803D01*
X149145542Y-85987660D01*
X149146022Y-85986942D01*
X149147816Y-85986057D01*
X149149479Y-85987169D01*
G37*
G36*
X143649479Y-85987169D02*
G01*
X143649647Y-85988443D01*
X143645200Y-86010799D01*
X143645200Y-87335401D01*
X143649647Y-87357757D01*
X143649004Y-87359651D01*
X143647042Y-87360041D01*
X143646022Y-87359258D01*
X143645631Y-87358673D01*
X143592255Y-87314065D01*
X143523540Y-87305433D01*
X143460910Y-87335397D01*
X143440858Y-87358540D01*
X143440378Y-87359258D01*
X143438584Y-87360143D01*
X143436921Y-87359031D01*
X143436753Y-87357757D01*
X143441200Y-87335401D01*
X143441200Y-86010799D01*
X143436753Y-85988443D01*
X143437396Y-85986549D01*
X143439358Y-85986159D01*
X143440378Y-85986942D01*
X143440769Y-85987527D01*
X143494145Y-86032135D01*
X143562860Y-86040767D01*
X143625490Y-86010803D01*
X143645542Y-85987660D01*
X143646022Y-85986942D01*
X143647816Y-85986057D01*
X143649479Y-85987169D01*
G37*
G36*
X144649479Y-85987169D02*
G01*
X144649647Y-85988443D01*
X144645200Y-86010799D01*
X144645200Y-87335401D01*
X144649647Y-87357757D01*
X144649004Y-87359651D01*
X144647042Y-87360041D01*
X144646022Y-87359258D01*
X144645631Y-87358673D01*
X144592255Y-87314065D01*
X144523540Y-87305433D01*
X144460910Y-87335397D01*
X144440858Y-87358540D01*
X144440378Y-87359258D01*
X144438584Y-87360143D01*
X144436921Y-87359031D01*
X144436753Y-87357757D01*
X144441200Y-87335401D01*
X144441200Y-86010799D01*
X144436753Y-85988443D01*
X144437396Y-85986549D01*
X144439358Y-85986159D01*
X144440378Y-85986942D01*
X144440769Y-85987527D01*
X144494145Y-86032135D01*
X144562860Y-86040767D01*
X144625490Y-86010803D01*
X144645542Y-85987660D01*
X144646022Y-85986942D01*
X144647816Y-85986057D01*
X144649479Y-85987169D01*
G37*
G36*
X148149479Y-85987169D02*
G01*
X148149647Y-85988443D01*
X148145200Y-86010799D01*
X148145200Y-87335401D01*
X148149647Y-87357757D01*
X148149004Y-87359651D01*
X148147042Y-87360041D01*
X148146022Y-87359258D01*
X148145631Y-87358673D01*
X148092255Y-87314065D01*
X148023540Y-87305433D01*
X147960910Y-87335397D01*
X147940858Y-87358540D01*
X147940378Y-87359258D01*
X147938584Y-87360143D01*
X147936921Y-87359031D01*
X147936753Y-87357757D01*
X147941200Y-87335401D01*
X147941200Y-86010799D01*
X147936753Y-85988443D01*
X147937396Y-85986549D01*
X147939358Y-85986159D01*
X147940378Y-85986942D01*
X147940769Y-85987527D01*
X147994145Y-86032135D01*
X148062860Y-86040767D01*
X148125490Y-86010803D01*
X148145542Y-85987660D01*
X148146022Y-85986942D01*
X148147816Y-85986057D01*
X148149479Y-85987169D01*
G37*
G36*
X153149479Y-85987169D02*
G01*
X153149647Y-85988443D01*
X153145200Y-86010799D01*
X153145200Y-87335401D01*
X153149647Y-87357757D01*
X153149004Y-87359651D01*
X153147042Y-87360041D01*
X153146022Y-87359258D01*
X153145631Y-87358673D01*
X153092255Y-87314065D01*
X153023540Y-87305433D01*
X152960910Y-87335397D01*
X152940858Y-87358540D01*
X152940378Y-87359258D01*
X152938584Y-87360143D01*
X152936921Y-87359031D01*
X152936753Y-87357757D01*
X152941200Y-87335401D01*
X152941200Y-86010799D01*
X152936753Y-85988443D01*
X152937396Y-85986549D01*
X152939358Y-85986159D01*
X152940378Y-85986942D01*
X152940769Y-85987527D01*
X152994145Y-86032135D01*
X153062860Y-86040767D01*
X153125490Y-86010803D01*
X153145542Y-85987660D01*
X153146022Y-85986942D01*
X153147816Y-85986057D01*
X153149479Y-85987169D01*
G37*
G36*
X146149479Y-85987169D02*
G01*
X146149647Y-85988443D01*
X146145200Y-86010799D01*
X146145200Y-87335401D01*
X146149647Y-87357757D01*
X146149004Y-87359651D01*
X146147042Y-87360041D01*
X146146022Y-87359258D01*
X146145631Y-87358673D01*
X146092255Y-87314065D01*
X146023540Y-87305433D01*
X145960910Y-87335397D01*
X145940858Y-87358540D01*
X145940378Y-87359258D01*
X145938584Y-87360143D01*
X145936921Y-87359031D01*
X145936753Y-87357757D01*
X145941200Y-87335401D01*
X145941200Y-86010799D01*
X145936753Y-85988443D01*
X145937396Y-85986549D01*
X145939358Y-85986159D01*
X145940378Y-85986942D01*
X145940769Y-85987527D01*
X145994145Y-86032135D01*
X146062860Y-86040767D01*
X146125490Y-86010803D01*
X146145542Y-85987660D01*
X146146022Y-85986942D01*
X146147816Y-85986057D01*
X146149479Y-85987169D01*
G37*
G36*
X143149479Y-85987169D02*
G01*
X143149647Y-85988443D01*
X143145200Y-86010799D01*
X143145200Y-87335401D01*
X143149647Y-87357757D01*
X143149004Y-87359651D01*
X143147042Y-87360041D01*
X143146022Y-87359258D01*
X143145631Y-87358673D01*
X143092255Y-87314065D01*
X143023540Y-87305433D01*
X142960910Y-87335397D01*
X142940858Y-87358540D01*
X142940378Y-87359258D01*
X142938584Y-87360143D01*
X142936921Y-87359031D01*
X142936753Y-87357757D01*
X142941200Y-87335401D01*
X142941200Y-86010799D01*
X142936753Y-85988443D01*
X142937396Y-85986549D01*
X142939358Y-85986159D01*
X142940378Y-85986942D01*
X142940769Y-85987527D01*
X142994145Y-86032135D01*
X143062860Y-86040767D01*
X143125490Y-86010803D01*
X143145542Y-85987660D01*
X143146022Y-85986942D01*
X143147816Y-85986057D01*
X143149479Y-85987169D01*
G37*
G36*
X144149479Y-85987169D02*
G01*
X144149647Y-85988443D01*
X144145200Y-86010799D01*
X144145200Y-87335401D01*
X144149647Y-87357757D01*
X144149004Y-87359651D01*
X144147042Y-87360041D01*
X144146022Y-87359258D01*
X144145631Y-87358673D01*
X144092255Y-87314065D01*
X144023540Y-87305433D01*
X143960910Y-87335397D01*
X143940858Y-87358540D01*
X143940378Y-87359258D01*
X143938584Y-87360143D01*
X143936921Y-87359031D01*
X143936753Y-87357757D01*
X143941200Y-87335401D01*
X143941200Y-86010799D01*
X143936753Y-85988443D01*
X143937396Y-85986549D01*
X143939358Y-85986159D01*
X143940378Y-85986942D01*
X143940769Y-85987527D01*
X143994145Y-86032135D01*
X144062860Y-86040767D01*
X144125490Y-86010803D01*
X144145542Y-85987660D01*
X144146022Y-85986942D01*
X144147816Y-85986057D01*
X144149479Y-85987169D01*
G37*
G36*
X154649479Y-85987169D02*
G01*
X154649647Y-85988443D01*
X154645200Y-86010799D01*
X154645200Y-87335401D01*
X154649647Y-87357757D01*
X154649004Y-87359651D01*
X154647042Y-87360041D01*
X154646022Y-87359258D01*
X154645631Y-87358673D01*
X154592255Y-87314065D01*
X154523540Y-87305433D01*
X154460910Y-87335397D01*
X154440858Y-87358540D01*
X154440378Y-87359258D01*
X154438584Y-87360143D01*
X154436921Y-87359031D01*
X154436753Y-87357757D01*
X154441200Y-87335401D01*
X154441200Y-86010799D01*
X154436753Y-85988443D01*
X154437396Y-85986549D01*
X154439358Y-85986159D01*
X154440378Y-85986942D01*
X154440769Y-85987527D01*
X154494145Y-86032135D01*
X154562860Y-86040767D01*
X154625490Y-86010803D01*
X154645542Y-85987660D01*
X154646022Y-85986942D01*
X154647816Y-85986057D01*
X154649479Y-85987169D01*
G37*
G36*
X152649479Y-85987169D02*
G01*
X152649647Y-85988443D01*
X152645200Y-86010799D01*
X152645200Y-87335401D01*
X152649647Y-87357757D01*
X152649004Y-87359651D01*
X152647042Y-87360041D01*
X152646022Y-87359258D01*
X152645631Y-87358673D01*
X152592255Y-87314065D01*
X152523540Y-87305433D01*
X152460910Y-87335397D01*
X152440858Y-87358540D01*
X152440378Y-87359258D01*
X152438584Y-87360143D01*
X152436921Y-87359031D01*
X152436753Y-87357757D01*
X152441200Y-87335401D01*
X152441200Y-86010799D01*
X152436753Y-85988443D01*
X152437396Y-85986549D01*
X152439358Y-85986159D01*
X152440378Y-85986942D01*
X152440769Y-85987527D01*
X152494145Y-86032135D01*
X152562860Y-86040767D01*
X152625490Y-86010803D01*
X152645542Y-85987660D01*
X152646022Y-85986942D01*
X152647816Y-85986057D01*
X152649479Y-85987169D01*
G37*
G36*
X152149479Y-85987169D02*
G01*
X152149647Y-85988443D01*
X152145200Y-86010799D01*
X152145200Y-87335401D01*
X152149647Y-87357757D01*
X152149004Y-87359651D01*
X152147042Y-87360041D01*
X152146022Y-87359258D01*
X152145631Y-87358673D01*
X152092255Y-87314065D01*
X152023540Y-87305433D01*
X151960910Y-87335397D01*
X151940858Y-87358540D01*
X151940378Y-87359258D01*
X151938584Y-87360143D01*
X151936921Y-87359031D01*
X151936753Y-87357757D01*
X151941200Y-87335401D01*
X151941200Y-86010799D01*
X151936753Y-85988443D01*
X151937396Y-85986549D01*
X151939358Y-85986159D01*
X151940378Y-85986942D01*
X151940769Y-85987527D01*
X151994145Y-86032135D01*
X152062860Y-86040767D01*
X152125490Y-86010803D01*
X152145542Y-85987660D01*
X152146022Y-85986942D01*
X152147816Y-85986057D01*
X152149479Y-85987169D01*
G37*
G36*
X151649479Y-85987169D02*
G01*
X151649647Y-85988443D01*
X151645200Y-86010799D01*
X151645200Y-87335401D01*
X151649647Y-87357757D01*
X151649004Y-87359651D01*
X151647042Y-87360041D01*
X151646022Y-87359258D01*
X151645631Y-87358673D01*
X151592255Y-87314065D01*
X151523540Y-87305433D01*
X151460910Y-87335397D01*
X151440858Y-87358540D01*
X151440378Y-87359258D01*
X151438584Y-87360143D01*
X151436921Y-87359031D01*
X151436753Y-87357757D01*
X151441200Y-87335401D01*
X151441200Y-86010799D01*
X151436753Y-85988443D01*
X151437396Y-85986549D01*
X151439358Y-85986159D01*
X151440378Y-85986942D01*
X151440769Y-85987527D01*
X151494145Y-86032135D01*
X151562860Y-86040767D01*
X151625490Y-86010803D01*
X151645542Y-85987660D01*
X151646022Y-85986942D01*
X151647816Y-85986057D01*
X151649479Y-85987169D01*
G37*
G36*
X145649479Y-85987169D02*
G01*
X145649647Y-85988443D01*
X145645200Y-86010799D01*
X145645200Y-87335401D01*
X145649647Y-87357757D01*
X145649004Y-87359651D01*
X145647042Y-87360041D01*
X145646022Y-87359258D01*
X145645631Y-87358673D01*
X145592255Y-87314065D01*
X145523540Y-87305433D01*
X145460910Y-87335397D01*
X145440858Y-87358540D01*
X145440378Y-87359258D01*
X145438584Y-87360143D01*
X145436921Y-87359031D01*
X145436753Y-87357757D01*
X145441200Y-87335401D01*
X145441200Y-86010799D01*
X145436753Y-85988443D01*
X145437396Y-85986549D01*
X145439358Y-85986159D01*
X145440378Y-85986942D01*
X145440769Y-85987527D01*
X145494145Y-86032135D01*
X145562860Y-86040767D01*
X145625490Y-86010803D01*
X145645542Y-85987660D01*
X145646022Y-85986942D01*
X145647816Y-85986057D01*
X145649479Y-85987169D01*
G37*
G36*
X150149479Y-85987169D02*
G01*
X150149647Y-85988443D01*
X150145200Y-86010799D01*
X150145200Y-87335401D01*
X150149647Y-87357757D01*
X150149004Y-87359651D01*
X150147042Y-87360041D01*
X150146022Y-87359258D01*
X150145631Y-87358673D01*
X150092255Y-87314065D01*
X150023540Y-87305433D01*
X149960910Y-87335397D01*
X149940858Y-87358540D01*
X149940378Y-87359258D01*
X149938584Y-87360143D01*
X149936921Y-87359031D01*
X149936753Y-87357757D01*
X149941200Y-87335401D01*
X149941200Y-86010799D01*
X149936753Y-85988443D01*
X149937396Y-85986549D01*
X149939358Y-85986159D01*
X149940378Y-85986942D01*
X149940769Y-85987527D01*
X149994145Y-86032135D01*
X150062860Y-86040767D01*
X150125490Y-86010803D01*
X150145542Y-85987660D01*
X150146022Y-85986942D01*
X150147816Y-85986057D01*
X150149479Y-85987169D01*
G37*
G36*
X151149479Y-85987169D02*
G01*
X151149647Y-85988443D01*
X151145200Y-86010799D01*
X151145200Y-87335401D01*
X151149647Y-87357757D01*
X151149004Y-87359651D01*
X151147042Y-87360041D01*
X151146022Y-87359258D01*
X151145631Y-87358673D01*
X151092255Y-87314065D01*
X151023540Y-87305433D01*
X150960910Y-87335397D01*
X150940858Y-87358540D01*
X150940378Y-87359258D01*
X150938584Y-87360143D01*
X150936921Y-87359031D01*
X150936753Y-87357757D01*
X150941200Y-87335401D01*
X150941200Y-86010799D01*
X150936753Y-85988443D01*
X150937396Y-85986549D01*
X150939358Y-85986159D01*
X150940378Y-85986942D01*
X150940769Y-85987527D01*
X150994145Y-86032135D01*
X151062860Y-86040767D01*
X151125490Y-86010803D01*
X151145542Y-85987660D01*
X151146022Y-85986942D01*
X151147816Y-85986057D01*
X151149479Y-85987169D01*
G37*
G36*
X150649479Y-85987169D02*
G01*
X150649647Y-85988443D01*
X150645200Y-86010799D01*
X150645200Y-87335401D01*
X150649647Y-87357757D01*
X150649004Y-87359651D01*
X150647042Y-87360041D01*
X150646022Y-87359258D01*
X150645631Y-87358673D01*
X150592255Y-87314065D01*
X150523540Y-87305433D01*
X150460910Y-87335397D01*
X150440858Y-87358540D01*
X150440378Y-87359258D01*
X150438584Y-87360143D01*
X150436921Y-87359031D01*
X150436753Y-87357757D01*
X150441200Y-87335401D01*
X150441200Y-86010799D01*
X150436753Y-85988443D01*
X150437396Y-85986549D01*
X150439358Y-85986159D01*
X150440378Y-85986942D01*
X150440769Y-85987527D01*
X150494145Y-86032135D01*
X150562860Y-86040767D01*
X150625490Y-86010803D01*
X150645542Y-85987660D01*
X150646022Y-85986942D01*
X150647816Y-85986057D01*
X150649479Y-85987169D01*
G37*
G36*
X145149479Y-85987169D02*
G01*
X145149647Y-85988443D01*
X145145200Y-86010799D01*
X145145200Y-87335401D01*
X145149647Y-87357757D01*
X145149004Y-87359651D01*
X145147042Y-87360041D01*
X145146022Y-87359258D01*
X145145631Y-87358673D01*
X145092255Y-87314065D01*
X145023540Y-87305433D01*
X144960910Y-87335397D01*
X144940858Y-87358540D01*
X144940378Y-87359258D01*
X144938584Y-87360143D01*
X144936921Y-87359031D01*
X144936753Y-87357757D01*
X144941200Y-87335401D01*
X144941200Y-86010799D01*
X144936753Y-85988443D01*
X144937396Y-85986549D01*
X144939358Y-85986159D01*
X144940378Y-85986942D01*
X144940769Y-85987527D01*
X144994145Y-86032135D01*
X145062860Y-86040767D01*
X145125490Y-86010803D01*
X145145542Y-85987660D01*
X145146022Y-85986942D01*
X145147816Y-85986057D01*
X145149479Y-85987169D01*
G37*
G36*
X147649479Y-85987169D02*
G01*
X147649647Y-85988443D01*
X147645200Y-86010799D01*
X147645200Y-87335401D01*
X147649647Y-87357757D01*
X147649004Y-87359651D01*
X147647042Y-87360041D01*
X147646022Y-87359258D01*
X147645631Y-87358673D01*
X147592255Y-87314065D01*
X147523540Y-87305433D01*
X147460910Y-87335397D01*
X147440858Y-87358540D01*
X147440378Y-87359258D01*
X147438584Y-87360143D01*
X147436921Y-87359031D01*
X147436753Y-87357757D01*
X147441200Y-87335401D01*
X147441200Y-86010799D01*
X147436753Y-85988443D01*
X147437396Y-85986549D01*
X147439358Y-85986159D01*
X147440378Y-85986942D01*
X147440769Y-85987527D01*
X147494145Y-86032135D01*
X147562860Y-86040767D01*
X147625490Y-86010803D01*
X147645542Y-85987660D01*
X147646022Y-85986942D01*
X147647816Y-85986057D01*
X147649479Y-85987169D01*
G37*
G36*
X149649479Y-85987169D02*
G01*
X149649647Y-85988443D01*
X149645200Y-86010799D01*
X149645200Y-87335401D01*
X149649647Y-87357757D01*
X149649004Y-87359651D01*
X149647042Y-87360041D01*
X149646022Y-87359258D01*
X149645631Y-87358673D01*
X149592255Y-87314065D01*
X149523540Y-87305433D01*
X149460910Y-87335397D01*
X149440858Y-87358540D01*
X149440378Y-87359258D01*
X149438584Y-87360143D01*
X149436921Y-87359031D01*
X149436753Y-87357757D01*
X149441200Y-87335401D01*
X149441200Y-86010799D01*
X149436753Y-85988443D01*
X149437396Y-85986549D01*
X149439358Y-85986159D01*
X149440378Y-85986942D01*
X149440769Y-85987527D01*
X149494145Y-86032135D01*
X149562860Y-86040767D01*
X149625490Y-86010803D01*
X149645542Y-85987660D01*
X149646022Y-85986942D01*
X149647816Y-85986057D01*
X149649479Y-85987169D01*
G37*
M02*
