%TF.GenerationSoftware,KiCad,Pcbnew,(6.0.9)*%
%TF.CreationDate,2022-11-22T19:39:32+02:00*%
%TF.ProjectId,PCB,5043422e-6b69-4636-9164-5f7063625858,rev?*%
%TF.SameCoordinates,Original*%
%TF.FileFunction,Legend,Bot*%
%TF.FilePolarity,Positive*%
%FSLAX46Y46*%
G04 Gerber Fmt 4.6, Leading zero omitted, Abs format (unit mm)*
G04 Created by KiCad (PCBNEW (6.0.9)) date 2022-11-22 19:39:32*
%MOMM*%
%LPD*%
G01*
G04 APERTURE LIST*
G04 Aperture macros list*
%AMRoundRect*
0 Rectangle with rounded corners*
0 $1 Rounding radius*
0 $2 $3 $4 $5 $6 $7 $8 $9 X,Y pos of 4 corners*
0 Add a 4 corners polygon primitive as box body*
4,1,4,$2,$3,$4,$5,$6,$7,$8,$9,$2,$3,0*
0 Add four circle primitives for the rounded corners*
1,1,$1+$1,$2,$3*
1,1,$1+$1,$4,$5*
1,1,$1+$1,$6,$7*
1,1,$1+$1,$8,$9*
0 Add four rect primitives between the rounded corners*
20,1,$1+$1,$2,$3,$4,$5,0*
20,1,$1+$1,$4,$5,$6,$7,0*
20,1,$1+$1,$6,$7,$8,$9,0*
20,1,$1+$1,$8,$9,$2,$3,0*%
%AMHorizOval*
0 Thick line with rounded ends*
0 $1 width*
0 $2 $3 position (X,Y) of the first rounded end (center of the circle)*
0 $4 $5 position (X,Y) of the second rounded end (center of the circle)*
0 Add line between two ends*
20,1,$1,$2,$3,$4,$5,0*
0 Add two circle primitives to create the rounded ends*
1,1,$1,$2,$3*
1,1,$1,$4,$5*%
%AMRotRect*
0 Rectangle, with rotation*
0 The origin of the aperture is its center*
0 $1 length*
0 $2 width*
0 $3 Rotation angle, in degrees counterclockwise*
0 Add horizontal line*
21,1,$1,$2,0,0,$3*%
G04 Aperture macros list end*
%TA.AperFunction,Profile*%
%ADD10C,0.100000*%
%TD*%
%ADD11C,0.150000*%
%ADD12C,0.254000*%
%ADD13C,0.120000*%
%ADD14C,0.200000*%
%ADD15C,0.152400*%
%ADD16C,0.250000*%
%ADD17RotRect,1.700000X1.700000X120.000000*%
%ADD18HorizOval,1.700000X0.000000X0.000000X0.000000X0.000000X0*%
%ADD19C,2.000000*%
%ADD20C,3.000000*%
%ADD21RotRect,1.700000X1.700000X45.000000*%
%ADD22HorizOval,1.700000X0.000000X0.000000X0.000000X0.000000X0*%
%ADD23RotRect,1.700000X1.700000X240.000000*%
%ADD24HorizOval,1.700000X0.000000X0.000000X0.000000X0.000000X0*%
%ADD25RotRect,2.000000X4.000000X135.000000*%
%ADD26RoundRect,0.250000X-0.787500X-1.025000X0.787500X-1.025000X0.787500X1.025000X-0.787500X1.025000X0*%
%ADD27RoundRect,0.250000X0.250000X0.475000X-0.250000X0.475000X-0.250000X-0.475000X0.250000X-0.475000X0*%
%ADD28RoundRect,0.250000X0.475000X-0.250000X0.475000X0.250000X-0.475000X0.250000X-0.475000X-0.250000X0*%
%ADD29R,1.200000X0.400000*%
%ADD30RoundRect,0.250000X1.025000X-0.787500X1.025000X0.787500X-1.025000X0.787500X-1.025000X-0.787500X0*%
%ADD31RoundRect,0.250000X-0.159099X0.512652X-0.512652X0.159099X0.159099X-0.512652X0.512652X-0.159099X0*%
%ADD32RoundRect,0.250000X-0.250000X-0.475000X0.250000X-0.475000X0.250000X0.475000X-0.250000X0.475000X0*%
%ADD33RoundRect,0.100000X0.150000X-0.100000X0.150000X0.100000X-0.150000X0.100000X-0.150000X-0.100000X0*%
%ADD34RoundRect,0.250000X-0.262500X-0.450000X0.262500X-0.450000X0.262500X0.450000X-0.262500X0.450000X0*%
%ADD35RoundRect,0.250000X-0.475000X0.250000X-0.475000X-0.250000X0.475000X-0.250000X0.475000X0.250000X0*%
%ADD36R,0.400000X1.200000*%
%ADD37RotRect,2.000000X4.000000X30.000000*%
%ADD38RoundRect,0.250000X-0.450000X0.262500X-0.450000X-0.262500X0.450000X-0.262500X0.450000X0.262500X0*%
%ADD39R,1.219200X0.889000*%
%ADD40R,6.502400X6.731000*%
%ADD41RoundRect,0.250000X0.787500X1.025000X-0.787500X1.025000X-0.787500X-1.025000X0.787500X-1.025000X0*%
%ADD42R,1.100000X4.600000*%
%ADD43R,10.800000X9.400000*%
%ADD44RoundRect,0.250000X0.262500X0.450000X-0.262500X0.450000X-0.262500X-0.450000X0.262500X-0.450000X0*%
%ADD45R,0.850000X0.300000*%
%ADD46R,0.300000X0.850000*%
%ADD47R,2.400000X2.400000*%
G04 APERTURE END LIST*
D10*
X175615600Y-38887400D02*
X187248800Y-40665400D01*
X199390000Y-42799000D01*
X200710800Y-44831000D01*
X203250800Y-49199800D01*
X204622400Y-51892200D01*
X206857600Y-56769000D01*
X208889600Y-62204600D01*
X210515200Y-67437000D01*
X211988400Y-73025000D01*
X213360000Y-79629000D01*
X213969600Y-83235800D01*
X214731600Y-89433400D01*
X214985600Y-92532200D01*
X215138000Y-99491800D01*
X215442800Y-107365800D01*
X215392000Y-113614200D01*
X215138000Y-118237000D01*
X214680800Y-121386600D01*
X213918800Y-124739400D01*
X213004400Y-127330200D01*
X211937600Y-129311400D01*
X210769200Y-130784600D01*
X209600800Y-131800600D01*
X208127600Y-132664200D01*
X206197200Y-133375400D01*
X203047600Y-134289800D01*
X201523600Y-134594600D01*
X200558400Y-134747000D01*
X200304400Y-134696200D01*
X199948800Y-134543800D01*
X199491600Y-134035800D01*
X198780400Y-132969000D01*
X197815200Y-130987800D01*
X195986400Y-126669800D01*
X192989200Y-118541800D01*
X190398400Y-112141000D01*
X188264800Y-107670600D01*
X186639200Y-104825800D01*
X184810400Y-102133400D01*
X183083200Y-100203000D01*
X181559200Y-98983800D01*
X179679600Y-97866200D01*
X177800000Y-97256600D01*
X175666400Y-96901000D01*
X173126400Y-96901000D01*
X171450000Y-97002600D01*
X169113200Y-97510600D01*
X166522400Y-98475800D01*
X163880800Y-99796600D01*
X161036000Y-101625400D01*
X158242000Y-103962200D01*
X155346400Y-106756200D01*
X151790400Y-110769400D01*
X149758400Y-112750600D01*
X147878800Y-114071400D01*
X145897600Y-115087400D01*
X143713200Y-115747800D01*
X141325600Y-116052600D01*
X138734800Y-116052600D01*
X136398000Y-115747800D01*
X134213600Y-115087400D01*
X132181600Y-114122200D01*
X130302000Y-112750600D01*
X128320800Y-110769400D01*
X124714000Y-106807000D01*
X121818400Y-103911400D01*
X119024400Y-101676200D01*
X116230400Y-99847400D01*
X113538000Y-98475800D01*
X110998000Y-97561400D01*
X108610400Y-97053400D01*
X106934000Y-96901000D01*
X104394000Y-96901000D01*
X102311200Y-97256600D01*
X100431600Y-97866200D01*
X98552000Y-98933000D01*
X97028000Y-100203000D01*
X95250000Y-102133400D01*
X93421200Y-104775000D01*
X91795600Y-107619800D01*
X89712800Y-112141000D01*
X87122000Y-118491000D01*
X84124800Y-126568200D01*
X82346800Y-130987800D01*
X81280000Y-132969000D01*
X80568800Y-133985000D01*
X79959200Y-134543800D01*
X79552800Y-134696200D01*
X78536800Y-134594600D01*
X77063600Y-134289800D01*
X73863200Y-133375400D01*
X71882000Y-132664200D01*
X70459600Y-131800600D01*
X69291200Y-130784600D01*
X68122800Y-129260600D01*
X67056000Y-127330200D01*
X66141600Y-124790200D01*
X65379600Y-121437400D01*
X64922400Y-118237000D01*
X64668400Y-113563400D01*
X64668400Y-107365800D01*
X64973200Y-94665800D01*
X65176400Y-91059000D01*
X65633600Y-86537800D01*
X66344800Y-81457800D01*
X67310000Y-76377800D01*
X68884800Y-69824600D01*
X70307200Y-64998600D01*
X72186800Y-59461400D01*
X74269600Y-54330600D01*
X76098400Y-50520600D01*
X78079600Y-46964600D01*
X80670400Y-42799000D01*
X86360000Y-41783000D01*
X99822000Y-39547800D01*
X108762800Y-38328600D01*
X109575600Y-45745400D01*
X110083600Y-49453800D01*
X110337600Y-50469800D01*
X110794800Y-51485800D01*
X111455200Y-52501800D01*
X112369600Y-53416200D01*
X113334800Y-54076600D01*
X114858800Y-54940200D01*
X116941600Y-55651400D01*
X118973600Y-56057800D01*
X120751600Y-56261000D01*
X123342400Y-56311800D01*
X126390400Y-56159400D01*
X130606800Y-55753000D01*
X135280400Y-55397400D01*
X138836400Y-55295800D01*
X141681200Y-55295800D01*
X145491200Y-55448200D01*
X150418800Y-55854600D01*
X154076400Y-56159400D01*
X157073600Y-56261000D01*
X159715200Y-56210200D01*
X161340800Y-56007000D01*
X163271200Y-55600600D01*
X165303200Y-54838600D01*
X166370000Y-54330600D01*
X167538400Y-53517800D01*
X168605200Y-52501800D01*
X169214800Y-51587400D01*
X169621200Y-50571400D01*
X169976800Y-49453800D01*
X170332400Y-46710600D01*
X171145200Y-40360600D01*
X171297600Y-38328600D01*
X175615600Y-38887400D01*
X79886044Y-128933444D02*
G75*
G03*
X79886044Y-128933444I-1273044J0D01*
G01*
X177523644Y-53927244D02*
G75*
G03*
X177523644Y-53927244I-1273044J0D01*
G01*
X133073644Y-79606644D02*
G75*
G03*
X133073644Y-79606644I-1273044J0D01*
G01*
X202822044Y-128908044D02*
G75*
G03*
X202822044Y-128908044I-1273044J0D01*
G01*
X76758800Y-87553800D02*
X90627200Y-91770200D01*
X91033600Y-91973400D01*
X91236800Y-92227400D01*
X91287600Y-92481400D01*
X91338400Y-92684600D01*
X91338400Y-93040200D01*
X84480400Y-115392200D01*
X84429600Y-115544600D01*
X84277200Y-115798600D01*
X84023200Y-116001800D01*
X83667600Y-116103400D01*
X83261200Y-116103400D01*
X69392800Y-111836200D01*
X69138800Y-111683800D01*
X68986400Y-111531400D01*
X68783200Y-111277400D01*
X68681600Y-111023400D01*
X68681600Y-110566200D01*
X75539600Y-88214200D01*
X75590400Y-88011000D01*
X75742800Y-87858600D01*
X76047600Y-87655400D01*
X76403200Y-87503000D01*
X76758800Y-87553800D01*
X149659844Y-79606644D02*
G75*
G03*
X149659844Y-79606644I-1273044J0D01*
G01*
X203962000Y-87604600D02*
X204114400Y-87655400D01*
X204266800Y-87858600D01*
X204368400Y-88011000D01*
X204520800Y-88214200D01*
X211277200Y-110363000D01*
X211328000Y-110566200D01*
X211378800Y-110871000D01*
X211328000Y-111175800D01*
X211226400Y-111429800D01*
X211023200Y-111633000D01*
X210667600Y-111836200D01*
X196850000Y-116052600D01*
X196697600Y-116103400D01*
X196392800Y-116103400D01*
X195884800Y-115900200D01*
X195681600Y-115646200D01*
X195529200Y-115392200D01*
X188722000Y-93091000D01*
X188671200Y-92735400D01*
X188772800Y-92329000D01*
X188874400Y-92176600D01*
X189179200Y-91871800D01*
X189382400Y-91770200D01*
X203250800Y-87553800D01*
X203708000Y-87553800D01*
X203962000Y-87604600D01*
X211000844Y-119383044D02*
G75*
G03*
X211000844Y-119383044I-1273044J0D01*
G01*
X105209844Y-53927244D02*
G75*
G03*
X105209844Y-53927244I-1273044J0D01*
G01*
X71732644Y-119383044D02*
G75*
G03*
X71732644Y-119383044I-1273044J0D01*
G01*
D11*
%TO.C,C26*%
X136151857Y-87150142D02*
X136199476Y-87197761D01*
X136342333Y-87245380D01*
X136437571Y-87245380D01*
X136580428Y-87197761D01*
X136675666Y-87102523D01*
X136723285Y-87007285D01*
X136770904Y-86816809D01*
X136770904Y-86673952D01*
X136723285Y-86483476D01*
X136675666Y-86388238D01*
X136580428Y-86293000D01*
X136437571Y-86245380D01*
X136342333Y-86245380D01*
X136199476Y-86293000D01*
X136151857Y-86340619D01*
X135770904Y-86340619D02*
X135723285Y-86293000D01*
X135628047Y-86245380D01*
X135389952Y-86245380D01*
X135294714Y-86293000D01*
X135247095Y-86340619D01*
X135199476Y-86435857D01*
X135199476Y-86531095D01*
X135247095Y-86673952D01*
X135818523Y-87245380D01*
X135199476Y-87245380D01*
X134342333Y-86245380D02*
X134532809Y-86245380D01*
X134628047Y-86293000D01*
X134675666Y-86340619D01*
X134770904Y-86483476D01*
X134818523Y-86673952D01*
X134818523Y-87054904D01*
X134770904Y-87150142D01*
X134723285Y-87197761D01*
X134628047Y-87245380D01*
X134437571Y-87245380D01*
X134342333Y-87197761D01*
X134294714Y-87150142D01*
X134247095Y-87054904D01*
X134247095Y-86816809D01*
X134294714Y-86721571D01*
X134342333Y-86673952D01*
X134437571Y-86626333D01*
X134628047Y-86626333D01*
X134723285Y-86673952D01*
X134770904Y-86721571D01*
X134818523Y-86816809D01*
%TO.C,C13*%
X155201857Y-64412342D02*
X155249476Y-64459961D01*
X155392333Y-64507580D01*
X155487571Y-64507580D01*
X155630428Y-64459961D01*
X155725666Y-64364723D01*
X155773285Y-64269485D01*
X155820904Y-64079009D01*
X155820904Y-63936152D01*
X155773285Y-63745676D01*
X155725666Y-63650438D01*
X155630428Y-63555200D01*
X155487571Y-63507580D01*
X155392333Y-63507580D01*
X155249476Y-63555200D01*
X155201857Y-63602819D01*
X154249476Y-64507580D02*
X154820904Y-64507580D01*
X154535190Y-64507580D02*
X154535190Y-63507580D01*
X154630428Y-63650438D01*
X154725666Y-63745676D01*
X154820904Y-63793295D01*
X153916142Y-63507580D02*
X153297095Y-63507580D01*
X153630428Y-63888533D01*
X153487571Y-63888533D01*
X153392333Y-63936152D01*
X153344714Y-63983771D01*
X153297095Y-64079009D01*
X153297095Y-64317104D01*
X153344714Y-64412342D01*
X153392333Y-64459961D01*
X153487571Y-64507580D01*
X153773285Y-64507580D01*
X153868523Y-64459961D01*
X153916142Y-64412342D01*
%TO.C,C47*%
X128677942Y-83050142D02*
X128725561Y-83002523D01*
X128773180Y-82859666D01*
X128773180Y-82764428D01*
X128725561Y-82621571D01*
X128630323Y-82526333D01*
X128535085Y-82478714D01*
X128344609Y-82431095D01*
X128201752Y-82431095D01*
X128011276Y-82478714D01*
X127916038Y-82526333D01*
X127820800Y-82621571D01*
X127773180Y-82764428D01*
X127773180Y-82859666D01*
X127820800Y-83002523D01*
X127868419Y-83050142D01*
X128106514Y-83907285D02*
X128773180Y-83907285D01*
X127725561Y-83669190D02*
X128439847Y-83431095D01*
X128439847Y-84050142D01*
X127773180Y-84335857D02*
X127773180Y-85002523D01*
X128773180Y-84573952D01*
D12*
%TO.C,IC7*%
X146527761Y-102403123D02*
X146527761Y-101133123D01*
X145197285Y-102282171D02*
X145257761Y-102342647D01*
X145439190Y-102403123D01*
X145560142Y-102403123D01*
X145741571Y-102342647D01*
X145862523Y-102221695D01*
X145923000Y-102100742D01*
X145983476Y-101858838D01*
X145983476Y-101677409D01*
X145923000Y-101435504D01*
X145862523Y-101314552D01*
X145741571Y-101193600D01*
X145560142Y-101133123D01*
X145439190Y-101133123D01*
X145257761Y-101193600D01*
X145197285Y-101254076D01*
X144773952Y-101133123D02*
X143927285Y-101133123D01*
X144471571Y-102403123D01*
D11*
%TO.C,C31*%
X144984742Y-92244942D02*
X145032361Y-92197323D01*
X145079980Y-92054466D01*
X145079980Y-91959228D01*
X145032361Y-91816371D01*
X144937123Y-91721133D01*
X144841885Y-91673514D01*
X144651409Y-91625895D01*
X144508552Y-91625895D01*
X144318076Y-91673514D01*
X144222838Y-91721133D01*
X144127600Y-91816371D01*
X144079980Y-91959228D01*
X144079980Y-92054466D01*
X144127600Y-92197323D01*
X144175219Y-92244942D01*
X144079980Y-92578276D02*
X144079980Y-93197323D01*
X144460933Y-92863990D01*
X144460933Y-93006847D01*
X144508552Y-93102085D01*
X144556171Y-93149704D01*
X144651409Y-93197323D01*
X144889504Y-93197323D01*
X144984742Y-93149704D01*
X145032361Y-93102085D01*
X145079980Y-93006847D01*
X145079980Y-92721133D01*
X145032361Y-92625895D01*
X144984742Y-92578276D01*
X145079980Y-94149704D02*
X145079980Y-93578276D01*
X145079980Y-93863990D02*
X144079980Y-93863990D01*
X144222838Y-93768752D01*
X144318076Y-93673514D01*
X144365695Y-93578276D01*
%TO.C,C39*%
X137771142Y-97020142D02*
X137818761Y-96972523D01*
X137866380Y-96829666D01*
X137866380Y-96734428D01*
X137818761Y-96591571D01*
X137723523Y-96496333D01*
X137628285Y-96448714D01*
X137437809Y-96401095D01*
X137294952Y-96401095D01*
X137104476Y-96448714D01*
X137009238Y-96496333D01*
X136914000Y-96591571D01*
X136866380Y-96734428D01*
X136866380Y-96829666D01*
X136914000Y-96972523D01*
X136961619Y-97020142D01*
X136866380Y-97353476D02*
X136866380Y-97972523D01*
X137247333Y-97639190D01*
X137247333Y-97782047D01*
X137294952Y-97877285D01*
X137342571Y-97924904D01*
X137437809Y-97972523D01*
X137675904Y-97972523D01*
X137771142Y-97924904D01*
X137818761Y-97877285D01*
X137866380Y-97782047D01*
X137866380Y-97496333D01*
X137818761Y-97401095D01*
X137771142Y-97353476D01*
X137866380Y-98448714D02*
X137866380Y-98639190D01*
X137818761Y-98734428D01*
X137771142Y-98782047D01*
X137628285Y-98877285D01*
X137437809Y-98924904D01*
X137056857Y-98924904D01*
X136961619Y-98877285D01*
X136914000Y-98829666D01*
X136866380Y-98734428D01*
X136866380Y-98543952D01*
X136914000Y-98448714D01*
X136961619Y-98401095D01*
X137056857Y-98353476D01*
X137294952Y-98353476D01*
X137390190Y-98401095D01*
X137437809Y-98448714D01*
X137485428Y-98543952D01*
X137485428Y-98734428D01*
X137437809Y-98829666D01*
X137390190Y-98877285D01*
X137294952Y-98924904D01*
%TO.C,C19*%
X126936918Y-93315279D02*
X127004262Y-93315279D01*
X127138949Y-93247935D01*
X127206292Y-93180592D01*
X127273636Y-93045905D01*
X127273636Y-92911218D01*
X127239964Y-92810203D01*
X127138949Y-92641844D01*
X127037934Y-92540829D01*
X126869575Y-92439813D01*
X126768560Y-92406142D01*
X126633873Y-92406142D01*
X126499186Y-92473485D01*
X126431842Y-92540829D01*
X126364499Y-92675516D01*
X126364499Y-92742859D01*
X126330827Y-94056058D02*
X126734888Y-93651997D01*
X126532857Y-93854027D02*
X125825750Y-93146920D01*
X125994109Y-93180592D01*
X126128796Y-93180592D01*
X126229812Y-93146920D01*
X125994109Y-94392775D02*
X125859422Y-94527462D01*
X125758407Y-94561134D01*
X125691063Y-94561134D01*
X125522705Y-94527462D01*
X125354346Y-94426447D01*
X125084972Y-94157073D01*
X125051300Y-94056058D01*
X125051300Y-93988714D01*
X125084972Y-93887699D01*
X125219659Y-93753012D01*
X125320674Y-93719340D01*
X125388018Y-93719340D01*
X125489033Y-93753012D01*
X125657392Y-93921371D01*
X125691063Y-94022386D01*
X125691063Y-94089729D01*
X125657392Y-94190745D01*
X125522705Y-94325432D01*
X125421689Y-94359103D01*
X125354346Y-94359103D01*
X125253331Y-94325432D01*
%TO.C,C37*%
X153906457Y-104195942D02*
X153954076Y-104243561D01*
X154096933Y-104291180D01*
X154192171Y-104291180D01*
X154335028Y-104243561D01*
X154430266Y-104148323D01*
X154477885Y-104053085D01*
X154525504Y-103862609D01*
X154525504Y-103719752D01*
X154477885Y-103529276D01*
X154430266Y-103434038D01*
X154335028Y-103338800D01*
X154192171Y-103291180D01*
X154096933Y-103291180D01*
X153954076Y-103338800D01*
X153906457Y-103386419D01*
X153573123Y-103291180D02*
X152954076Y-103291180D01*
X153287409Y-103672133D01*
X153144552Y-103672133D01*
X153049314Y-103719752D01*
X153001695Y-103767371D01*
X152954076Y-103862609D01*
X152954076Y-104100704D01*
X153001695Y-104195942D01*
X153049314Y-104243561D01*
X153144552Y-104291180D01*
X153430266Y-104291180D01*
X153525504Y-104243561D01*
X153573123Y-104195942D01*
X152620742Y-103291180D02*
X151954076Y-103291180D01*
X152382647Y-104291180D01*
%TO.C,C63*%
X142146257Y-110542342D02*
X142193876Y-110589961D01*
X142336733Y-110637580D01*
X142431971Y-110637580D01*
X142574828Y-110589961D01*
X142670066Y-110494723D01*
X142717685Y-110399485D01*
X142765304Y-110209009D01*
X142765304Y-110066152D01*
X142717685Y-109875676D01*
X142670066Y-109780438D01*
X142574828Y-109685200D01*
X142431971Y-109637580D01*
X142336733Y-109637580D01*
X142193876Y-109685200D01*
X142146257Y-109732819D01*
X141289114Y-109637580D02*
X141479590Y-109637580D01*
X141574828Y-109685200D01*
X141622447Y-109732819D01*
X141717685Y-109875676D01*
X141765304Y-110066152D01*
X141765304Y-110447104D01*
X141717685Y-110542342D01*
X141670066Y-110589961D01*
X141574828Y-110637580D01*
X141384352Y-110637580D01*
X141289114Y-110589961D01*
X141241495Y-110542342D01*
X141193876Y-110447104D01*
X141193876Y-110209009D01*
X141241495Y-110113771D01*
X141289114Y-110066152D01*
X141384352Y-110018533D01*
X141574828Y-110018533D01*
X141670066Y-110066152D01*
X141717685Y-110113771D01*
X141765304Y-110209009D01*
X140860542Y-109637580D02*
X140241495Y-109637580D01*
X140574828Y-110018533D01*
X140431971Y-110018533D01*
X140336733Y-110066152D01*
X140289114Y-110113771D01*
X140241495Y-110209009D01*
X140241495Y-110447104D01*
X140289114Y-110542342D01*
X140336733Y-110589961D01*
X140431971Y-110637580D01*
X140717685Y-110637580D01*
X140812923Y-110589961D01*
X140860542Y-110542342D01*
%TO.C,C9*%
X134354866Y-76990142D02*
X134402485Y-77037761D01*
X134545342Y-77085380D01*
X134640580Y-77085380D01*
X134783438Y-77037761D01*
X134878676Y-76942523D01*
X134926295Y-76847285D01*
X134973914Y-76656809D01*
X134973914Y-76513952D01*
X134926295Y-76323476D01*
X134878676Y-76228238D01*
X134783438Y-76133000D01*
X134640580Y-76085380D01*
X134545342Y-76085380D01*
X134402485Y-76133000D01*
X134354866Y-76180619D01*
X133878676Y-77085380D02*
X133688200Y-77085380D01*
X133592961Y-77037761D01*
X133545342Y-76990142D01*
X133450104Y-76847285D01*
X133402485Y-76656809D01*
X133402485Y-76275857D01*
X133450104Y-76180619D01*
X133497723Y-76133000D01*
X133592961Y-76085380D01*
X133783438Y-76085380D01*
X133878676Y-76133000D01*
X133926295Y-76180619D01*
X133973914Y-76275857D01*
X133973914Y-76513952D01*
X133926295Y-76609190D01*
X133878676Y-76656809D01*
X133783438Y-76704428D01*
X133592961Y-76704428D01*
X133497723Y-76656809D01*
X133450104Y-76609190D01*
X133402485Y-76513952D01*
%TO.C,C59*%
X147251657Y-105741742D02*
X147299276Y-105789361D01*
X147442133Y-105836980D01*
X147537371Y-105836980D01*
X147680228Y-105789361D01*
X147775466Y-105694123D01*
X147823085Y-105598885D01*
X147870704Y-105408409D01*
X147870704Y-105265552D01*
X147823085Y-105075076D01*
X147775466Y-104979838D01*
X147680228Y-104884600D01*
X147537371Y-104836980D01*
X147442133Y-104836980D01*
X147299276Y-104884600D01*
X147251657Y-104932219D01*
X146346895Y-104836980D02*
X146823085Y-104836980D01*
X146870704Y-105313171D01*
X146823085Y-105265552D01*
X146727847Y-105217933D01*
X146489752Y-105217933D01*
X146394514Y-105265552D01*
X146346895Y-105313171D01*
X146299276Y-105408409D01*
X146299276Y-105646504D01*
X146346895Y-105741742D01*
X146394514Y-105789361D01*
X146489752Y-105836980D01*
X146727847Y-105836980D01*
X146823085Y-105789361D01*
X146870704Y-105741742D01*
X145823085Y-105836980D02*
X145632609Y-105836980D01*
X145537371Y-105789361D01*
X145489752Y-105741742D01*
X145394514Y-105598885D01*
X145346895Y-105408409D01*
X145346895Y-105027457D01*
X145394514Y-104932219D01*
X145442133Y-104884600D01*
X145537371Y-104836980D01*
X145727847Y-104836980D01*
X145823085Y-104884600D01*
X145870704Y-104932219D01*
X145918323Y-105027457D01*
X145918323Y-105265552D01*
X145870704Y-105360790D01*
X145823085Y-105408409D01*
X145727847Y-105456028D01*
X145537371Y-105456028D01*
X145442133Y-105408409D01*
X145394514Y-105360790D01*
X145346895Y-105265552D01*
%TO.C,R8*%
X133837419Y-97651866D02*
X134313609Y-97985200D01*
X133837419Y-98223295D02*
X134837419Y-98223295D01*
X134837419Y-97842342D01*
X134789800Y-97747104D01*
X134742180Y-97699485D01*
X134646942Y-97651866D01*
X134504085Y-97651866D01*
X134408847Y-97699485D01*
X134361228Y-97747104D01*
X134313609Y-97842342D01*
X134313609Y-98223295D01*
X134408847Y-97080438D02*
X134456466Y-97175676D01*
X134504085Y-97223295D01*
X134599323Y-97270914D01*
X134646942Y-97270914D01*
X134742180Y-97223295D01*
X134789800Y-97175676D01*
X134837419Y-97080438D01*
X134837419Y-96889961D01*
X134789800Y-96794723D01*
X134742180Y-96747104D01*
X134646942Y-96699485D01*
X134599323Y-96699485D01*
X134504085Y-96747104D01*
X134456466Y-96794723D01*
X134408847Y-96889961D01*
X134408847Y-97080438D01*
X134361228Y-97175676D01*
X134313609Y-97223295D01*
X134218371Y-97270914D01*
X134027895Y-97270914D01*
X133932657Y-97223295D01*
X133885038Y-97175676D01*
X133837419Y-97080438D01*
X133837419Y-96889961D01*
X133885038Y-96794723D01*
X133932657Y-96747104D01*
X134027895Y-96699485D01*
X134218371Y-96699485D01*
X134313609Y-96747104D01*
X134361228Y-96794723D01*
X134408847Y-96889961D01*
%TO.C,C67*%
X139174457Y-104395542D02*
X139222076Y-104443161D01*
X139364933Y-104490780D01*
X139460171Y-104490780D01*
X139603028Y-104443161D01*
X139698266Y-104347923D01*
X139745885Y-104252685D01*
X139793504Y-104062209D01*
X139793504Y-103919352D01*
X139745885Y-103728876D01*
X139698266Y-103633638D01*
X139603028Y-103538400D01*
X139460171Y-103490780D01*
X139364933Y-103490780D01*
X139222076Y-103538400D01*
X139174457Y-103586019D01*
X138317314Y-103490780D02*
X138507790Y-103490780D01*
X138603028Y-103538400D01*
X138650647Y-103586019D01*
X138745885Y-103728876D01*
X138793504Y-103919352D01*
X138793504Y-104300304D01*
X138745885Y-104395542D01*
X138698266Y-104443161D01*
X138603028Y-104490780D01*
X138412552Y-104490780D01*
X138317314Y-104443161D01*
X138269695Y-104395542D01*
X138222076Y-104300304D01*
X138222076Y-104062209D01*
X138269695Y-103966971D01*
X138317314Y-103919352D01*
X138412552Y-103871733D01*
X138603028Y-103871733D01*
X138698266Y-103919352D01*
X138745885Y-103966971D01*
X138793504Y-104062209D01*
X137888742Y-103490780D02*
X137222076Y-103490780D01*
X137650647Y-104490780D01*
%TO.C,R23*%
X144330657Y-112466380D02*
X144663990Y-111990190D01*
X144902085Y-112466380D02*
X144902085Y-111466380D01*
X144521133Y-111466380D01*
X144425895Y-111514000D01*
X144378276Y-111561619D01*
X144330657Y-111656857D01*
X144330657Y-111799714D01*
X144378276Y-111894952D01*
X144425895Y-111942571D01*
X144521133Y-111990190D01*
X144902085Y-111990190D01*
X143949704Y-111561619D02*
X143902085Y-111514000D01*
X143806847Y-111466380D01*
X143568752Y-111466380D01*
X143473514Y-111514000D01*
X143425895Y-111561619D01*
X143378276Y-111656857D01*
X143378276Y-111752095D01*
X143425895Y-111894952D01*
X143997323Y-112466380D01*
X143378276Y-112466380D01*
X143044942Y-111466380D02*
X142425895Y-111466380D01*
X142759228Y-111847333D01*
X142616371Y-111847333D01*
X142521133Y-111894952D01*
X142473514Y-111942571D01*
X142425895Y-112037809D01*
X142425895Y-112275904D01*
X142473514Y-112371142D01*
X142521133Y-112418761D01*
X142616371Y-112466380D01*
X142902085Y-112466380D01*
X142997323Y-112418761D01*
X143044942Y-112371142D01*
%TO.C,C56*%
X162761142Y-86098142D02*
X162808761Y-86050523D01*
X162856380Y-85907666D01*
X162856380Y-85812428D01*
X162808761Y-85669571D01*
X162713523Y-85574333D01*
X162618285Y-85526714D01*
X162427809Y-85479095D01*
X162284952Y-85479095D01*
X162094476Y-85526714D01*
X161999238Y-85574333D01*
X161904000Y-85669571D01*
X161856380Y-85812428D01*
X161856380Y-85907666D01*
X161904000Y-86050523D01*
X161951619Y-86098142D01*
X161856380Y-87002904D02*
X161856380Y-86526714D01*
X162332571Y-86479095D01*
X162284952Y-86526714D01*
X162237333Y-86621952D01*
X162237333Y-86860047D01*
X162284952Y-86955285D01*
X162332571Y-87002904D01*
X162427809Y-87050523D01*
X162665904Y-87050523D01*
X162761142Y-87002904D01*
X162808761Y-86955285D01*
X162856380Y-86860047D01*
X162856380Y-86621952D01*
X162808761Y-86526714D01*
X162761142Y-86479095D01*
X161856380Y-87907666D02*
X161856380Y-87717190D01*
X161904000Y-87621952D01*
X161951619Y-87574333D01*
X162094476Y-87479095D01*
X162284952Y-87431476D01*
X162665904Y-87431476D01*
X162761142Y-87479095D01*
X162808761Y-87526714D01*
X162856380Y-87621952D01*
X162856380Y-87812428D01*
X162808761Y-87907666D01*
X162761142Y-87955285D01*
X162665904Y-88002904D01*
X162427809Y-88002904D01*
X162332571Y-87955285D01*
X162284952Y-87907666D01*
X162237333Y-87812428D01*
X162237333Y-87621952D01*
X162284952Y-87526714D01*
X162332571Y-87479095D01*
X162427809Y-87431476D01*
%TO.C,C8*%
X134634266Y-70257942D02*
X134681885Y-70305561D01*
X134824742Y-70353180D01*
X134919980Y-70353180D01*
X135062838Y-70305561D01*
X135158076Y-70210323D01*
X135205695Y-70115085D01*
X135253314Y-69924609D01*
X135253314Y-69781752D01*
X135205695Y-69591276D01*
X135158076Y-69496038D01*
X135062838Y-69400800D01*
X134919980Y-69353180D01*
X134824742Y-69353180D01*
X134681885Y-69400800D01*
X134634266Y-69448419D01*
X134062838Y-69781752D02*
X134158076Y-69734133D01*
X134205695Y-69686514D01*
X134253314Y-69591276D01*
X134253314Y-69543657D01*
X134205695Y-69448419D01*
X134158076Y-69400800D01*
X134062838Y-69353180D01*
X133872361Y-69353180D01*
X133777123Y-69400800D01*
X133729504Y-69448419D01*
X133681885Y-69543657D01*
X133681885Y-69591276D01*
X133729504Y-69686514D01*
X133777123Y-69734133D01*
X133872361Y-69781752D01*
X134062838Y-69781752D01*
X134158076Y-69829371D01*
X134205695Y-69876990D01*
X134253314Y-69972228D01*
X134253314Y-70162704D01*
X134205695Y-70257942D01*
X134158076Y-70305561D01*
X134062838Y-70353180D01*
X133872361Y-70353180D01*
X133777123Y-70305561D01*
X133729504Y-70257942D01*
X133681885Y-70162704D01*
X133681885Y-69972228D01*
X133729504Y-69876990D01*
X133777123Y-69829371D01*
X133872361Y-69781752D01*
%TO.C,C28*%
X150426657Y-104195942D02*
X150474276Y-104243561D01*
X150617133Y-104291180D01*
X150712371Y-104291180D01*
X150855228Y-104243561D01*
X150950466Y-104148323D01*
X150998085Y-104053085D01*
X151045704Y-103862609D01*
X151045704Y-103719752D01*
X150998085Y-103529276D01*
X150950466Y-103434038D01*
X150855228Y-103338800D01*
X150712371Y-103291180D01*
X150617133Y-103291180D01*
X150474276Y-103338800D01*
X150426657Y-103386419D01*
X150045704Y-103386419D02*
X149998085Y-103338800D01*
X149902847Y-103291180D01*
X149664752Y-103291180D01*
X149569514Y-103338800D01*
X149521895Y-103386419D01*
X149474276Y-103481657D01*
X149474276Y-103576895D01*
X149521895Y-103719752D01*
X150093323Y-104291180D01*
X149474276Y-104291180D01*
X148902847Y-103719752D02*
X148998085Y-103672133D01*
X149045704Y-103624514D01*
X149093323Y-103529276D01*
X149093323Y-103481657D01*
X149045704Y-103386419D01*
X148998085Y-103338800D01*
X148902847Y-103291180D01*
X148712371Y-103291180D01*
X148617133Y-103338800D01*
X148569514Y-103386419D01*
X148521895Y-103481657D01*
X148521895Y-103529276D01*
X148569514Y-103624514D01*
X148617133Y-103672133D01*
X148712371Y-103719752D01*
X148902847Y-103719752D01*
X148998085Y-103767371D01*
X149045704Y-103814990D01*
X149093323Y-103910228D01*
X149093323Y-104100704D01*
X149045704Y-104195942D01*
X148998085Y-104243561D01*
X148902847Y-104291180D01*
X148712371Y-104291180D01*
X148617133Y-104243561D01*
X148569514Y-104195942D01*
X148521895Y-104100704D01*
X148521895Y-103910228D01*
X148569514Y-103814990D01*
X148617133Y-103767371D01*
X148712371Y-103719752D01*
%TO.C,C27*%
X139269742Y-93489542D02*
X139317361Y-93441923D01*
X139364980Y-93299066D01*
X139364980Y-93203828D01*
X139317361Y-93060971D01*
X139222123Y-92965733D01*
X139126885Y-92918114D01*
X138936409Y-92870495D01*
X138793552Y-92870495D01*
X138603076Y-92918114D01*
X138507838Y-92965733D01*
X138412600Y-93060971D01*
X138364980Y-93203828D01*
X138364980Y-93299066D01*
X138412600Y-93441923D01*
X138460219Y-93489542D01*
X138460219Y-93870495D02*
X138412600Y-93918114D01*
X138364980Y-94013352D01*
X138364980Y-94251447D01*
X138412600Y-94346685D01*
X138460219Y-94394304D01*
X138555457Y-94441923D01*
X138650695Y-94441923D01*
X138793552Y-94394304D01*
X139364980Y-93822876D01*
X139364980Y-94441923D01*
X138364980Y-94775257D02*
X138364980Y-95441923D01*
X139364980Y-95013352D01*
D12*
%TO.C,IC13*%
X107965723Y-85150476D02*
X106695723Y-85150476D01*
X107844771Y-86480952D02*
X107905247Y-86420476D01*
X107965723Y-86239047D01*
X107965723Y-86118095D01*
X107905247Y-85936666D01*
X107784295Y-85815714D01*
X107663342Y-85755238D01*
X107421438Y-85694761D01*
X107240009Y-85694761D01*
X106998104Y-85755238D01*
X106877152Y-85815714D01*
X106756200Y-85936666D01*
X106695723Y-86118095D01*
X106695723Y-86239047D01*
X106756200Y-86420476D01*
X106816676Y-86480952D01*
X107965723Y-87690476D02*
X107965723Y-86964761D01*
X107965723Y-87327619D02*
X106695723Y-87327619D01*
X106877152Y-87206666D01*
X106998104Y-87085714D01*
X107058580Y-86964761D01*
X106695723Y-88113809D02*
X106695723Y-88900000D01*
X107179533Y-88476666D01*
X107179533Y-88658095D01*
X107240009Y-88779047D01*
X107300485Y-88839523D01*
X107421438Y-88900000D01*
X107723819Y-88900000D01*
X107844771Y-88839523D01*
X107905247Y-88779047D01*
X107965723Y-88658095D01*
X107965723Y-88295238D01*
X107905247Y-88174285D01*
X107844771Y-88113809D01*
D11*
%TO.C,C36*%
X158573742Y-96791542D02*
X158621361Y-96743923D01*
X158668980Y-96601066D01*
X158668980Y-96505828D01*
X158621361Y-96362971D01*
X158526123Y-96267733D01*
X158430885Y-96220114D01*
X158240409Y-96172495D01*
X158097552Y-96172495D01*
X157907076Y-96220114D01*
X157811838Y-96267733D01*
X157716600Y-96362971D01*
X157668980Y-96505828D01*
X157668980Y-96601066D01*
X157716600Y-96743923D01*
X157764219Y-96791542D01*
X157668980Y-97124876D02*
X157668980Y-97743923D01*
X158049933Y-97410590D01*
X158049933Y-97553447D01*
X158097552Y-97648685D01*
X158145171Y-97696304D01*
X158240409Y-97743923D01*
X158478504Y-97743923D01*
X158573742Y-97696304D01*
X158621361Y-97648685D01*
X158668980Y-97553447D01*
X158668980Y-97267733D01*
X158621361Y-97172495D01*
X158573742Y-97124876D01*
X157668980Y-98601066D02*
X157668980Y-98410590D01*
X157716600Y-98315352D01*
X157764219Y-98267733D01*
X157907076Y-98172495D01*
X158097552Y-98124876D01*
X158478504Y-98124876D01*
X158573742Y-98172495D01*
X158621361Y-98220114D01*
X158668980Y-98315352D01*
X158668980Y-98505828D01*
X158621361Y-98601066D01*
X158573742Y-98648685D01*
X158478504Y-98696304D01*
X158240409Y-98696304D01*
X158145171Y-98648685D01*
X158097552Y-98601066D01*
X158049933Y-98505828D01*
X158049933Y-98315352D01*
X158097552Y-98220114D01*
X158145171Y-98172495D01*
X158240409Y-98124876D01*
%TO.C,BT1*%
X117015316Y-89544734D02*
X116902648Y-89444825D01*
X116837599Y-89427396D01*
X116731311Y-89433775D01*
X116607593Y-89505204D01*
X116548924Y-89594062D01*
X116531494Y-89659111D01*
X116537874Y-89765399D01*
X116728350Y-90095314D01*
X117594375Y-89595314D01*
X117427709Y-89306639D01*
X117338850Y-89247969D01*
X117273801Y-89230540D01*
X117167513Y-89236919D01*
X117085035Y-89284538D01*
X117026366Y-89373397D01*
X117008936Y-89438446D01*
X117015316Y-89544734D01*
X117181982Y-89833409D01*
X117165804Y-88853006D02*
X116880090Y-88358134D01*
X116156921Y-89105570D02*
X117022947Y-88605570D01*
X115585493Y-88115827D02*
X115871207Y-88610699D01*
X115728350Y-88363263D02*
X116594375Y-87863263D01*
X116518276Y-88017170D01*
X116483417Y-88147268D01*
X116489797Y-88253556D01*
%TO.C,C53*%
X138564857Y-108209142D02*
X138612476Y-108256761D01*
X138755333Y-108304380D01*
X138850571Y-108304380D01*
X138993428Y-108256761D01*
X139088666Y-108161523D01*
X139136285Y-108066285D01*
X139183904Y-107875809D01*
X139183904Y-107732952D01*
X139136285Y-107542476D01*
X139088666Y-107447238D01*
X138993428Y-107352000D01*
X138850571Y-107304380D01*
X138755333Y-107304380D01*
X138612476Y-107352000D01*
X138564857Y-107399619D01*
X137660095Y-107304380D02*
X138136285Y-107304380D01*
X138183904Y-107780571D01*
X138136285Y-107732952D01*
X138041047Y-107685333D01*
X137802952Y-107685333D01*
X137707714Y-107732952D01*
X137660095Y-107780571D01*
X137612476Y-107875809D01*
X137612476Y-108113904D01*
X137660095Y-108209142D01*
X137707714Y-108256761D01*
X137802952Y-108304380D01*
X138041047Y-108304380D01*
X138136285Y-108256761D01*
X138183904Y-108209142D01*
X137279142Y-107304380D02*
X136660095Y-107304380D01*
X136993428Y-107685333D01*
X136850571Y-107685333D01*
X136755333Y-107732952D01*
X136707714Y-107780571D01*
X136660095Y-107875809D01*
X136660095Y-108113904D01*
X136707714Y-108209142D01*
X136755333Y-108256761D01*
X136850571Y-108304380D01*
X137136285Y-108304380D01*
X137231523Y-108256761D01*
X137279142Y-108209142D01*
%TO.C,C14*%
X150985457Y-66799942D02*
X151033076Y-66847561D01*
X151175933Y-66895180D01*
X151271171Y-66895180D01*
X151414028Y-66847561D01*
X151509266Y-66752323D01*
X151556885Y-66657085D01*
X151604504Y-66466609D01*
X151604504Y-66323752D01*
X151556885Y-66133276D01*
X151509266Y-66038038D01*
X151414028Y-65942800D01*
X151271171Y-65895180D01*
X151175933Y-65895180D01*
X151033076Y-65942800D01*
X150985457Y-65990419D01*
X150033076Y-66895180D02*
X150604504Y-66895180D01*
X150318790Y-66895180D02*
X150318790Y-65895180D01*
X150414028Y-66038038D01*
X150509266Y-66133276D01*
X150604504Y-66180895D01*
X149175933Y-66228514D02*
X149175933Y-66895180D01*
X149414028Y-65847561D02*
X149652123Y-66561847D01*
X149033076Y-66561847D01*
%TO.C,R19*%
X167711380Y-75811142D02*
X167235190Y-75477809D01*
X167711380Y-75239714D02*
X166711380Y-75239714D01*
X166711380Y-75620666D01*
X166759000Y-75715904D01*
X166806619Y-75763523D01*
X166901857Y-75811142D01*
X167044714Y-75811142D01*
X167139952Y-75763523D01*
X167187571Y-75715904D01*
X167235190Y-75620666D01*
X167235190Y-75239714D01*
X167711380Y-76763523D02*
X167711380Y-76192095D01*
X167711380Y-76477809D02*
X166711380Y-76477809D01*
X166854238Y-76382571D01*
X166949476Y-76287333D01*
X166997095Y-76192095D01*
X167711380Y-77239714D02*
X167711380Y-77430190D01*
X167663761Y-77525428D01*
X167616142Y-77573047D01*
X167473285Y-77668285D01*
X167282809Y-77715904D01*
X166901857Y-77715904D01*
X166806619Y-77668285D01*
X166759000Y-77620666D01*
X166711380Y-77525428D01*
X166711380Y-77334952D01*
X166759000Y-77239714D01*
X166806619Y-77192095D01*
X166901857Y-77144476D01*
X167139952Y-77144476D01*
X167235190Y-77192095D01*
X167282809Y-77239714D01*
X167330428Y-77334952D01*
X167330428Y-77525428D01*
X167282809Y-77620666D01*
X167235190Y-77668285D01*
X167139952Y-77715904D01*
%TO.C,C65*%
X101525342Y-86352142D02*
X101572961Y-86304523D01*
X101620580Y-86161666D01*
X101620580Y-86066428D01*
X101572961Y-85923571D01*
X101477723Y-85828333D01*
X101382485Y-85780714D01*
X101192009Y-85733095D01*
X101049152Y-85733095D01*
X100858676Y-85780714D01*
X100763438Y-85828333D01*
X100668200Y-85923571D01*
X100620580Y-86066428D01*
X100620580Y-86161666D01*
X100668200Y-86304523D01*
X100715819Y-86352142D01*
X100620580Y-87209285D02*
X100620580Y-87018809D01*
X100668200Y-86923571D01*
X100715819Y-86875952D01*
X100858676Y-86780714D01*
X101049152Y-86733095D01*
X101430104Y-86733095D01*
X101525342Y-86780714D01*
X101572961Y-86828333D01*
X101620580Y-86923571D01*
X101620580Y-87114047D01*
X101572961Y-87209285D01*
X101525342Y-87256904D01*
X101430104Y-87304523D01*
X101192009Y-87304523D01*
X101096771Y-87256904D01*
X101049152Y-87209285D01*
X101001533Y-87114047D01*
X101001533Y-86923571D01*
X101049152Y-86828333D01*
X101096771Y-86780714D01*
X101192009Y-86733095D01*
X100620580Y-88209285D02*
X100620580Y-87733095D01*
X101096771Y-87685476D01*
X101049152Y-87733095D01*
X101001533Y-87828333D01*
X101001533Y-88066428D01*
X101049152Y-88161666D01*
X101096771Y-88209285D01*
X101192009Y-88256904D01*
X101430104Y-88256904D01*
X101525342Y-88209285D01*
X101572961Y-88161666D01*
X101620580Y-88066428D01*
X101620580Y-87828333D01*
X101572961Y-87733095D01*
X101525342Y-87685476D01*
D12*
%TO.C,IC1*%
X118811523Y-64470038D02*
X117541523Y-64470038D01*
X118690571Y-65800514D02*
X118751047Y-65740038D01*
X118811523Y-65558609D01*
X118811523Y-65437657D01*
X118751047Y-65256228D01*
X118630095Y-65135276D01*
X118509142Y-65074800D01*
X118267238Y-65014323D01*
X118085809Y-65014323D01*
X117843904Y-65074800D01*
X117722952Y-65135276D01*
X117602000Y-65256228D01*
X117541523Y-65437657D01*
X117541523Y-65558609D01*
X117602000Y-65740038D01*
X117662476Y-65800514D01*
X118811523Y-67010038D02*
X118811523Y-66284323D01*
X118811523Y-66647180D02*
X117541523Y-66647180D01*
X117722952Y-66526228D01*
X117843904Y-66405276D01*
X117904380Y-66284323D01*
D11*
%TO.C,C21*%
X98432857Y-88215742D02*
X98480476Y-88263361D01*
X98623333Y-88310980D01*
X98718571Y-88310980D01*
X98861428Y-88263361D01*
X98956666Y-88168123D01*
X99004285Y-88072885D01*
X99051904Y-87882409D01*
X99051904Y-87739552D01*
X99004285Y-87549076D01*
X98956666Y-87453838D01*
X98861428Y-87358600D01*
X98718571Y-87310980D01*
X98623333Y-87310980D01*
X98480476Y-87358600D01*
X98432857Y-87406219D01*
X98051904Y-87406219D02*
X98004285Y-87358600D01*
X97909047Y-87310980D01*
X97670952Y-87310980D01*
X97575714Y-87358600D01*
X97528095Y-87406219D01*
X97480476Y-87501457D01*
X97480476Y-87596695D01*
X97528095Y-87739552D01*
X98099523Y-88310980D01*
X97480476Y-88310980D01*
X96528095Y-88310980D02*
X97099523Y-88310980D01*
X96813809Y-88310980D02*
X96813809Y-87310980D01*
X96909047Y-87453838D01*
X97004285Y-87549076D01*
X97099523Y-87596695D01*
%TO.C,C7*%
X127277342Y-75550733D02*
X127324961Y-75503114D01*
X127372580Y-75360257D01*
X127372580Y-75265019D01*
X127324961Y-75122161D01*
X127229723Y-75026923D01*
X127134485Y-74979304D01*
X126944009Y-74931685D01*
X126801152Y-74931685D01*
X126610676Y-74979304D01*
X126515438Y-75026923D01*
X126420200Y-75122161D01*
X126372580Y-75265019D01*
X126372580Y-75360257D01*
X126420200Y-75503114D01*
X126467819Y-75550733D01*
X126372580Y-75884066D02*
X126372580Y-76550733D01*
X127372580Y-76122161D01*
%TO.C,C29*%
X155217342Y-93057742D02*
X155264961Y-93010123D01*
X155312580Y-92867266D01*
X155312580Y-92772028D01*
X155264961Y-92629171D01*
X155169723Y-92533933D01*
X155074485Y-92486314D01*
X154884009Y-92438695D01*
X154741152Y-92438695D01*
X154550676Y-92486314D01*
X154455438Y-92533933D01*
X154360200Y-92629171D01*
X154312580Y-92772028D01*
X154312580Y-92867266D01*
X154360200Y-93010123D01*
X154407819Y-93057742D01*
X154407819Y-93438695D02*
X154360200Y-93486314D01*
X154312580Y-93581552D01*
X154312580Y-93819647D01*
X154360200Y-93914885D01*
X154407819Y-93962504D01*
X154503057Y-94010123D01*
X154598295Y-94010123D01*
X154741152Y-93962504D01*
X155312580Y-93391076D01*
X155312580Y-94010123D01*
X155312580Y-94486314D02*
X155312580Y-94676790D01*
X155264961Y-94772028D01*
X155217342Y-94819647D01*
X155074485Y-94914885D01*
X154884009Y-94962504D01*
X154503057Y-94962504D01*
X154407819Y-94914885D01*
X154360200Y-94867266D01*
X154312580Y-94772028D01*
X154312580Y-94581552D01*
X154360200Y-94486314D01*
X154407819Y-94438695D01*
X154503057Y-94391076D01*
X154741152Y-94391076D01*
X154836390Y-94438695D01*
X154884009Y-94486314D01*
X154931628Y-94581552D01*
X154931628Y-94772028D01*
X154884009Y-94867266D01*
X154836390Y-94914885D01*
X154741152Y-94962504D01*
%TO.C,C69*%
X124058742Y-63720742D02*
X124106361Y-63673123D01*
X124153980Y-63530266D01*
X124153980Y-63435028D01*
X124106361Y-63292171D01*
X124011123Y-63196933D01*
X123915885Y-63149314D01*
X123725409Y-63101695D01*
X123582552Y-63101695D01*
X123392076Y-63149314D01*
X123296838Y-63196933D01*
X123201600Y-63292171D01*
X123153980Y-63435028D01*
X123153980Y-63530266D01*
X123201600Y-63673123D01*
X123249219Y-63720742D01*
X123153980Y-64577885D02*
X123153980Y-64387409D01*
X123201600Y-64292171D01*
X123249219Y-64244552D01*
X123392076Y-64149314D01*
X123582552Y-64101695D01*
X123963504Y-64101695D01*
X124058742Y-64149314D01*
X124106361Y-64196933D01*
X124153980Y-64292171D01*
X124153980Y-64482647D01*
X124106361Y-64577885D01*
X124058742Y-64625504D01*
X123963504Y-64673123D01*
X123725409Y-64673123D01*
X123630171Y-64625504D01*
X123582552Y-64577885D01*
X123534933Y-64482647D01*
X123534933Y-64292171D01*
X123582552Y-64196933D01*
X123630171Y-64149314D01*
X123725409Y-64101695D01*
X124153980Y-65149314D02*
X124153980Y-65339790D01*
X124106361Y-65435028D01*
X124058742Y-65482647D01*
X123915885Y-65577885D01*
X123725409Y-65625504D01*
X123344457Y-65625504D01*
X123249219Y-65577885D01*
X123201600Y-65530266D01*
X123153980Y-65435028D01*
X123153980Y-65244552D01*
X123201600Y-65149314D01*
X123249219Y-65101695D01*
X123344457Y-65054076D01*
X123582552Y-65054076D01*
X123677790Y-65101695D01*
X123725409Y-65149314D01*
X123773028Y-65244552D01*
X123773028Y-65435028D01*
X123725409Y-65530266D01*
X123677790Y-65577885D01*
X123582552Y-65625504D01*
%TO.C,C45*%
X154566857Y-106706942D02*
X154614476Y-106754561D01*
X154757333Y-106802180D01*
X154852571Y-106802180D01*
X154995428Y-106754561D01*
X155090666Y-106659323D01*
X155138285Y-106564085D01*
X155185904Y-106373609D01*
X155185904Y-106230752D01*
X155138285Y-106040276D01*
X155090666Y-105945038D01*
X154995428Y-105849800D01*
X154852571Y-105802180D01*
X154757333Y-105802180D01*
X154614476Y-105849800D01*
X154566857Y-105897419D01*
X153709714Y-106135514D02*
X153709714Y-106802180D01*
X153947809Y-105754561D02*
X154185904Y-106468847D01*
X153566857Y-106468847D01*
X152709714Y-105802180D02*
X153185904Y-105802180D01*
X153233523Y-106278371D01*
X153185904Y-106230752D01*
X153090666Y-106183133D01*
X152852571Y-106183133D01*
X152757333Y-106230752D01*
X152709714Y-106278371D01*
X152662095Y-106373609D01*
X152662095Y-106611704D01*
X152709714Y-106706942D01*
X152757333Y-106754561D01*
X152852571Y-106802180D01*
X153090666Y-106802180D01*
X153185904Y-106754561D01*
X153233523Y-106706942D01*
%TO.C,C60*%
X146591257Y-110008942D02*
X146638876Y-110056561D01*
X146781733Y-110104180D01*
X146876971Y-110104180D01*
X147019828Y-110056561D01*
X147115066Y-109961323D01*
X147162685Y-109866085D01*
X147210304Y-109675609D01*
X147210304Y-109532752D01*
X147162685Y-109342276D01*
X147115066Y-109247038D01*
X147019828Y-109151800D01*
X146876971Y-109104180D01*
X146781733Y-109104180D01*
X146638876Y-109151800D01*
X146591257Y-109199419D01*
X145734114Y-109104180D02*
X145924590Y-109104180D01*
X146019828Y-109151800D01*
X146067447Y-109199419D01*
X146162685Y-109342276D01*
X146210304Y-109532752D01*
X146210304Y-109913704D01*
X146162685Y-110008942D01*
X146115066Y-110056561D01*
X146019828Y-110104180D01*
X145829352Y-110104180D01*
X145734114Y-110056561D01*
X145686495Y-110008942D01*
X145638876Y-109913704D01*
X145638876Y-109675609D01*
X145686495Y-109580371D01*
X145734114Y-109532752D01*
X145829352Y-109485133D01*
X146019828Y-109485133D01*
X146115066Y-109532752D01*
X146162685Y-109580371D01*
X146210304Y-109675609D01*
X145019828Y-109104180D02*
X144924590Y-109104180D01*
X144829352Y-109151800D01*
X144781733Y-109199419D01*
X144734114Y-109294657D01*
X144686495Y-109485133D01*
X144686495Y-109723228D01*
X144734114Y-109913704D01*
X144781733Y-110008942D01*
X144829352Y-110056561D01*
X144924590Y-110104180D01*
X145019828Y-110104180D01*
X145115066Y-110056561D01*
X145162685Y-110008942D01*
X145210304Y-109913704D01*
X145257923Y-109723228D01*
X145257923Y-109485133D01*
X145210304Y-109294657D01*
X145162685Y-109199419D01*
X145115066Y-109151800D01*
X145019828Y-109104180D01*
%TO.C,C35*%
X156852857Y-85218542D02*
X156900476Y-85266161D01*
X157043333Y-85313780D01*
X157138571Y-85313780D01*
X157281428Y-85266161D01*
X157376666Y-85170923D01*
X157424285Y-85075685D01*
X157471904Y-84885209D01*
X157471904Y-84742352D01*
X157424285Y-84551876D01*
X157376666Y-84456638D01*
X157281428Y-84361400D01*
X157138571Y-84313780D01*
X157043333Y-84313780D01*
X156900476Y-84361400D01*
X156852857Y-84409019D01*
X156519523Y-84313780D02*
X155900476Y-84313780D01*
X156233809Y-84694733D01*
X156090952Y-84694733D01*
X155995714Y-84742352D01*
X155948095Y-84789971D01*
X155900476Y-84885209D01*
X155900476Y-85123304D01*
X155948095Y-85218542D01*
X155995714Y-85266161D01*
X156090952Y-85313780D01*
X156376666Y-85313780D01*
X156471904Y-85266161D01*
X156519523Y-85218542D01*
X154995714Y-84313780D02*
X155471904Y-84313780D01*
X155519523Y-84789971D01*
X155471904Y-84742352D01*
X155376666Y-84694733D01*
X155138571Y-84694733D01*
X155043333Y-84742352D01*
X154995714Y-84789971D01*
X154948095Y-84885209D01*
X154948095Y-85123304D01*
X154995714Y-85218542D01*
X155043333Y-85266161D01*
X155138571Y-85313780D01*
X155376666Y-85313780D01*
X155471904Y-85266161D01*
X155519523Y-85218542D01*
%TO.C,C34*%
X148547057Y-88625742D02*
X148594676Y-88673361D01*
X148737533Y-88720980D01*
X148832771Y-88720980D01*
X148975628Y-88673361D01*
X149070866Y-88578123D01*
X149118485Y-88482885D01*
X149166104Y-88292409D01*
X149166104Y-88149552D01*
X149118485Y-87959076D01*
X149070866Y-87863838D01*
X148975628Y-87768600D01*
X148832771Y-87720980D01*
X148737533Y-87720980D01*
X148594676Y-87768600D01*
X148547057Y-87816219D01*
X148213723Y-87720980D02*
X147594676Y-87720980D01*
X147928009Y-88101933D01*
X147785152Y-88101933D01*
X147689914Y-88149552D01*
X147642295Y-88197171D01*
X147594676Y-88292409D01*
X147594676Y-88530504D01*
X147642295Y-88625742D01*
X147689914Y-88673361D01*
X147785152Y-88720980D01*
X148070866Y-88720980D01*
X148166104Y-88673361D01*
X148213723Y-88625742D01*
X146737533Y-88054314D02*
X146737533Y-88720980D01*
X146975628Y-87673361D02*
X147213723Y-88387647D01*
X146594676Y-88387647D01*
D12*
%TO.C,IC14*%
X136185123Y-103368323D02*
X136185123Y-102098323D01*
X134854647Y-103247371D02*
X134915123Y-103307847D01*
X135096552Y-103368323D01*
X135217504Y-103368323D01*
X135398933Y-103307847D01*
X135519885Y-103186895D01*
X135580361Y-103065942D01*
X135640838Y-102824038D01*
X135640838Y-102642609D01*
X135580361Y-102400704D01*
X135519885Y-102279752D01*
X135398933Y-102158800D01*
X135217504Y-102098323D01*
X135096552Y-102098323D01*
X134915123Y-102158800D01*
X134854647Y-102219276D01*
X133645123Y-103368323D02*
X134370838Y-103368323D01*
X134007980Y-103368323D02*
X134007980Y-102098323D01*
X134128933Y-102279752D01*
X134249885Y-102400704D01*
X134370838Y-102461180D01*
X132556552Y-102521657D02*
X132556552Y-103368323D01*
X132858933Y-102037847D02*
X133161314Y-102944990D01*
X132375123Y-102944990D01*
D11*
%TO.C,U3*%
X150644380Y-74514895D02*
X151453904Y-74514895D01*
X151549142Y-74562514D01*
X151596761Y-74610133D01*
X151644380Y-74705371D01*
X151644380Y-74895847D01*
X151596761Y-74991085D01*
X151549142Y-75038704D01*
X151453904Y-75086323D01*
X150644380Y-75086323D01*
X150644380Y-75467276D02*
X150644380Y-76086323D01*
X151025333Y-75752990D01*
X151025333Y-75895847D01*
X151072952Y-75991085D01*
X151120571Y-76038704D01*
X151215809Y-76086323D01*
X151453904Y-76086323D01*
X151549142Y-76038704D01*
X151596761Y-75991085D01*
X151644380Y-75895847D01*
X151644380Y-75610133D01*
X151596761Y-75514895D01*
X151549142Y-75467276D01*
%TO.C,C30*%
X156446457Y-87936342D02*
X156494076Y-87983961D01*
X156636933Y-88031580D01*
X156732171Y-88031580D01*
X156875028Y-87983961D01*
X156970266Y-87888723D01*
X157017885Y-87793485D01*
X157065504Y-87603009D01*
X157065504Y-87460152D01*
X157017885Y-87269676D01*
X156970266Y-87174438D01*
X156875028Y-87079200D01*
X156732171Y-87031580D01*
X156636933Y-87031580D01*
X156494076Y-87079200D01*
X156446457Y-87126819D01*
X156113123Y-87031580D02*
X155494076Y-87031580D01*
X155827409Y-87412533D01*
X155684552Y-87412533D01*
X155589314Y-87460152D01*
X155541695Y-87507771D01*
X155494076Y-87603009D01*
X155494076Y-87841104D01*
X155541695Y-87936342D01*
X155589314Y-87983961D01*
X155684552Y-88031580D01*
X155970266Y-88031580D01*
X156065504Y-87983961D01*
X156113123Y-87936342D01*
X154875028Y-87031580D02*
X154779790Y-87031580D01*
X154684552Y-87079200D01*
X154636933Y-87126819D01*
X154589314Y-87222057D01*
X154541695Y-87412533D01*
X154541695Y-87650628D01*
X154589314Y-87841104D01*
X154636933Y-87936342D01*
X154684552Y-87983961D01*
X154779790Y-88031580D01*
X154875028Y-88031580D01*
X154970266Y-87983961D01*
X155017885Y-87936342D01*
X155065504Y-87841104D01*
X155113123Y-87650628D01*
X155113123Y-87412533D01*
X155065504Y-87222057D01*
X155017885Y-87126819D01*
X154970266Y-87079200D01*
X154875028Y-87031580D01*
%TO.C,C38*%
X138945857Y-102033342D02*
X138993476Y-102080961D01*
X139136333Y-102128580D01*
X139231571Y-102128580D01*
X139374428Y-102080961D01*
X139469666Y-101985723D01*
X139517285Y-101890485D01*
X139564904Y-101700009D01*
X139564904Y-101557152D01*
X139517285Y-101366676D01*
X139469666Y-101271438D01*
X139374428Y-101176200D01*
X139231571Y-101128580D01*
X139136333Y-101128580D01*
X138993476Y-101176200D01*
X138945857Y-101223819D01*
X138612523Y-101128580D02*
X137993476Y-101128580D01*
X138326809Y-101509533D01*
X138183952Y-101509533D01*
X138088714Y-101557152D01*
X138041095Y-101604771D01*
X137993476Y-101700009D01*
X137993476Y-101938104D01*
X138041095Y-102033342D01*
X138088714Y-102080961D01*
X138183952Y-102128580D01*
X138469666Y-102128580D01*
X138564904Y-102080961D01*
X138612523Y-102033342D01*
X137422047Y-101557152D02*
X137517285Y-101509533D01*
X137564904Y-101461914D01*
X137612523Y-101366676D01*
X137612523Y-101319057D01*
X137564904Y-101223819D01*
X137517285Y-101176200D01*
X137422047Y-101128580D01*
X137231571Y-101128580D01*
X137136333Y-101176200D01*
X137088714Y-101223819D01*
X137041095Y-101319057D01*
X137041095Y-101366676D01*
X137088714Y-101461914D01*
X137136333Y-101509533D01*
X137231571Y-101557152D01*
X137422047Y-101557152D01*
X137517285Y-101604771D01*
X137564904Y-101652390D01*
X137612523Y-101747628D01*
X137612523Y-101938104D01*
X137564904Y-102033342D01*
X137517285Y-102080961D01*
X137422047Y-102128580D01*
X137231571Y-102128580D01*
X137136333Y-102080961D01*
X137088714Y-102033342D01*
X137041095Y-101938104D01*
X137041095Y-101747628D01*
X137088714Y-101652390D01*
X137136333Y-101604771D01*
X137231571Y-101557152D01*
%TO.C,R16*%
X114626380Y-71112142D02*
X114150190Y-70778809D01*
X114626380Y-70540714D02*
X113626380Y-70540714D01*
X113626380Y-70921666D01*
X113674000Y-71016904D01*
X113721619Y-71064523D01*
X113816857Y-71112142D01*
X113959714Y-71112142D01*
X114054952Y-71064523D01*
X114102571Y-71016904D01*
X114150190Y-70921666D01*
X114150190Y-70540714D01*
X114626380Y-72064523D02*
X114626380Y-71493095D01*
X114626380Y-71778809D02*
X113626380Y-71778809D01*
X113769238Y-71683571D01*
X113864476Y-71588333D01*
X113912095Y-71493095D01*
X113626380Y-72921666D02*
X113626380Y-72731190D01*
X113674000Y-72635952D01*
X113721619Y-72588333D01*
X113864476Y-72493095D01*
X114054952Y-72445476D01*
X114435904Y-72445476D01*
X114531142Y-72493095D01*
X114578761Y-72540714D01*
X114626380Y-72635952D01*
X114626380Y-72826428D01*
X114578761Y-72921666D01*
X114531142Y-72969285D01*
X114435904Y-73016904D01*
X114197809Y-73016904D01*
X114102571Y-72969285D01*
X114054952Y-72921666D01*
X114007333Y-72826428D01*
X114007333Y-72635952D01*
X114054952Y-72540714D01*
X114102571Y-72493095D01*
X114197809Y-72445476D01*
%TO.C,C20*%
X138025142Y-93464142D02*
X138072761Y-93416523D01*
X138120380Y-93273666D01*
X138120380Y-93178428D01*
X138072761Y-93035571D01*
X137977523Y-92940333D01*
X137882285Y-92892714D01*
X137691809Y-92845095D01*
X137548952Y-92845095D01*
X137358476Y-92892714D01*
X137263238Y-92940333D01*
X137168000Y-93035571D01*
X137120380Y-93178428D01*
X137120380Y-93273666D01*
X137168000Y-93416523D01*
X137215619Y-93464142D01*
X137215619Y-93845095D02*
X137168000Y-93892714D01*
X137120380Y-93987952D01*
X137120380Y-94226047D01*
X137168000Y-94321285D01*
X137215619Y-94368904D01*
X137310857Y-94416523D01*
X137406095Y-94416523D01*
X137548952Y-94368904D01*
X138120380Y-93797476D01*
X138120380Y-94416523D01*
X137120380Y-95035571D02*
X137120380Y-95130809D01*
X137168000Y-95226047D01*
X137215619Y-95273666D01*
X137310857Y-95321285D01*
X137501333Y-95368904D01*
X137739428Y-95368904D01*
X137929904Y-95321285D01*
X138025142Y-95273666D01*
X138072761Y-95226047D01*
X138120380Y-95130809D01*
X138120380Y-95035571D01*
X138072761Y-94940333D01*
X138025142Y-94892714D01*
X137929904Y-94845095D01*
X137739428Y-94797476D01*
X137501333Y-94797476D01*
X137310857Y-94845095D01*
X137215619Y-94892714D01*
X137168000Y-94940333D01*
X137120380Y-95035571D01*
%TO.C,C52*%
X140895342Y-98467942D02*
X140942961Y-98420323D01*
X140990580Y-98277466D01*
X140990580Y-98182228D01*
X140942961Y-98039371D01*
X140847723Y-97944133D01*
X140752485Y-97896514D01*
X140562009Y-97848895D01*
X140419152Y-97848895D01*
X140228676Y-97896514D01*
X140133438Y-97944133D01*
X140038200Y-98039371D01*
X139990580Y-98182228D01*
X139990580Y-98277466D01*
X140038200Y-98420323D01*
X140085819Y-98467942D01*
X139990580Y-99372704D02*
X139990580Y-98896514D01*
X140466771Y-98848895D01*
X140419152Y-98896514D01*
X140371533Y-98991752D01*
X140371533Y-99229847D01*
X140419152Y-99325085D01*
X140466771Y-99372704D01*
X140562009Y-99420323D01*
X140800104Y-99420323D01*
X140895342Y-99372704D01*
X140942961Y-99325085D01*
X140990580Y-99229847D01*
X140990580Y-98991752D01*
X140942961Y-98896514D01*
X140895342Y-98848895D01*
X140085819Y-99801276D02*
X140038200Y-99848895D01*
X139990580Y-99944133D01*
X139990580Y-100182228D01*
X140038200Y-100277466D01*
X140085819Y-100325085D01*
X140181057Y-100372704D01*
X140276295Y-100372704D01*
X140419152Y-100325085D01*
X140990580Y-99753657D01*
X140990580Y-100372704D01*
%TO.C,R18*%
X111156357Y-75002380D02*
X111489690Y-74526190D01*
X111727785Y-75002380D02*
X111727785Y-74002380D01*
X111346833Y-74002380D01*
X111251595Y-74050000D01*
X111203976Y-74097619D01*
X111156357Y-74192857D01*
X111156357Y-74335714D01*
X111203976Y-74430952D01*
X111251595Y-74478571D01*
X111346833Y-74526190D01*
X111727785Y-74526190D01*
X110203976Y-75002380D02*
X110775404Y-75002380D01*
X110489690Y-75002380D02*
X110489690Y-74002380D01*
X110584928Y-74145238D01*
X110680166Y-74240476D01*
X110775404Y-74288095D01*
X109632547Y-74430952D02*
X109727785Y-74383333D01*
X109775404Y-74335714D01*
X109823023Y-74240476D01*
X109823023Y-74192857D01*
X109775404Y-74097619D01*
X109727785Y-74050000D01*
X109632547Y-74002380D01*
X109442071Y-74002380D01*
X109346833Y-74050000D01*
X109299214Y-74097619D01*
X109251595Y-74192857D01*
X109251595Y-74240476D01*
X109299214Y-74335714D01*
X109346833Y-74383333D01*
X109442071Y-74430952D01*
X109632547Y-74430952D01*
X109727785Y-74478571D01*
X109775404Y-74526190D01*
X109823023Y-74621428D01*
X109823023Y-74811904D01*
X109775404Y-74907142D01*
X109727785Y-74954761D01*
X109632547Y-75002380D01*
X109442071Y-75002380D01*
X109346833Y-74954761D01*
X109299214Y-74907142D01*
X109251595Y-74811904D01*
X109251595Y-74621428D01*
X109299214Y-74526190D01*
X109346833Y-74478571D01*
X109442071Y-74430952D01*
%TO.C,C33*%
X156363942Y-89755742D02*
X156411561Y-89708123D01*
X156459180Y-89565266D01*
X156459180Y-89470028D01*
X156411561Y-89327171D01*
X156316323Y-89231933D01*
X156221085Y-89184314D01*
X156030609Y-89136695D01*
X155887752Y-89136695D01*
X155697276Y-89184314D01*
X155602038Y-89231933D01*
X155506800Y-89327171D01*
X155459180Y-89470028D01*
X155459180Y-89565266D01*
X155506800Y-89708123D01*
X155554419Y-89755742D01*
X155459180Y-90089076D02*
X155459180Y-90708123D01*
X155840133Y-90374790D01*
X155840133Y-90517647D01*
X155887752Y-90612885D01*
X155935371Y-90660504D01*
X156030609Y-90708123D01*
X156268704Y-90708123D01*
X156363942Y-90660504D01*
X156411561Y-90612885D01*
X156459180Y-90517647D01*
X156459180Y-90231933D01*
X156411561Y-90136695D01*
X156363942Y-90089076D01*
X155459180Y-91041457D02*
X155459180Y-91660504D01*
X155840133Y-91327171D01*
X155840133Y-91470028D01*
X155887752Y-91565266D01*
X155935371Y-91612885D01*
X156030609Y-91660504D01*
X156268704Y-91660504D01*
X156363942Y-91612885D01*
X156411561Y-91565266D01*
X156459180Y-91470028D01*
X156459180Y-91184314D01*
X156411561Y-91089076D01*
X156363942Y-91041457D01*
%TO.C,C62*%
X132646657Y-111863142D02*
X132694276Y-111910761D01*
X132837133Y-111958380D01*
X132932371Y-111958380D01*
X133075228Y-111910761D01*
X133170466Y-111815523D01*
X133218085Y-111720285D01*
X133265704Y-111529809D01*
X133265704Y-111386952D01*
X133218085Y-111196476D01*
X133170466Y-111101238D01*
X133075228Y-111006000D01*
X132932371Y-110958380D01*
X132837133Y-110958380D01*
X132694276Y-111006000D01*
X132646657Y-111053619D01*
X131789514Y-110958380D02*
X131979990Y-110958380D01*
X132075228Y-111006000D01*
X132122847Y-111053619D01*
X132218085Y-111196476D01*
X132265704Y-111386952D01*
X132265704Y-111767904D01*
X132218085Y-111863142D01*
X132170466Y-111910761D01*
X132075228Y-111958380D01*
X131884752Y-111958380D01*
X131789514Y-111910761D01*
X131741895Y-111863142D01*
X131694276Y-111767904D01*
X131694276Y-111529809D01*
X131741895Y-111434571D01*
X131789514Y-111386952D01*
X131884752Y-111339333D01*
X132075228Y-111339333D01*
X132170466Y-111386952D01*
X132218085Y-111434571D01*
X132265704Y-111529809D01*
X131313323Y-111053619D02*
X131265704Y-111006000D01*
X131170466Y-110958380D01*
X130932371Y-110958380D01*
X130837133Y-111006000D01*
X130789514Y-111053619D01*
X130741895Y-111148857D01*
X130741895Y-111244095D01*
X130789514Y-111386952D01*
X131360942Y-111958380D01*
X130741895Y-111958380D01*
%TO.C,C15*%
X147937457Y-68885142D02*
X147985076Y-68932761D01*
X148127933Y-68980380D01*
X148223171Y-68980380D01*
X148366028Y-68932761D01*
X148461266Y-68837523D01*
X148508885Y-68742285D01*
X148556504Y-68551809D01*
X148556504Y-68408952D01*
X148508885Y-68218476D01*
X148461266Y-68123238D01*
X148366028Y-68028000D01*
X148223171Y-67980380D01*
X148127933Y-67980380D01*
X147985076Y-68028000D01*
X147937457Y-68075619D01*
X146985076Y-68980380D02*
X147556504Y-68980380D01*
X147270790Y-68980380D02*
X147270790Y-67980380D01*
X147366028Y-68123238D01*
X147461266Y-68218476D01*
X147556504Y-68266095D01*
X146080314Y-67980380D02*
X146556504Y-67980380D01*
X146604123Y-68456571D01*
X146556504Y-68408952D01*
X146461266Y-68361333D01*
X146223171Y-68361333D01*
X146127933Y-68408952D01*
X146080314Y-68456571D01*
X146032695Y-68551809D01*
X146032695Y-68789904D01*
X146080314Y-68885142D01*
X146127933Y-68932761D01*
X146223171Y-68980380D01*
X146461266Y-68980380D01*
X146556504Y-68932761D01*
X146604123Y-68885142D01*
D12*
%TO.C,AC1*%
X133495142Y-88552866D02*
X132890380Y-88552866D01*
X133616095Y-88915723D02*
X133192761Y-87645723D01*
X132769428Y-88915723D01*
X131620380Y-88794771D02*
X131680857Y-88855247D01*
X131862285Y-88915723D01*
X131983238Y-88915723D01*
X132164666Y-88855247D01*
X132285619Y-88734295D01*
X132346095Y-88613342D01*
X132406571Y-88371438D01*
X132406571Y-88190009D01*
X132346095Y-87948104D01*
X132285619Y-87827152D01*
X132164666Y-87706200D01*
X131983238Y-87645723D01*
X131862285Y-87645723D01*
X131680857Y-87706200D01*
X131620380Y-87766676D01*
X130410857Y-88915723D02*
X131136571Y-88915723D01*
X130773714Y-88915723D02*
X130773714Y-87645723D01*
X130894666Y-87827152D01*
X131015619Y-87948104D01*
X131136571Y-88008580D01*
D11*
%TO.C,C57*%
X167241457Y-92152742D02*
X167289076Y-92200361D01*
X167431933Y-92247980D01*
X167527171Y-92247980D01*
X167670028Y-92200361D01*
X167765266Y-92105123D01*
X167812885Y-92009885D01*
X167860504Y-91819409D01*
X167860504Y-91676552D01*
X167812885Y-91486076D01*
X167765266Y-91390838D01*
X167670028Y-91295600D01*
X167527171Y-91247980D01*
X167431933Y-91247980D01*
X167289076Y-91295600D01*
X167241457Y-91343219D01*
X166336695Y-91247980D02*
X166812885Y-91247980D01*
X166860504Y-91724171D01*
X166812885Y-91676552D01*
X166717647Y-91628933D01*
X166479552Y-91628933D01*
X166384314Y-91676552D01*
X166336695Y-91724171D01*
X166289076Y-91819409D01*
X166289076Y-92057504D01*
X166336695Y-92152742D01*
X166384314Y-92200361D01*
X166479552Y-92247980D01*
X166717647Y-92247980D01*
X166812885Y-92200361D01*
X166860504Y-92152742D01*
X165955742Y-91247980D02*
X165289076Y-91247980D01*
X165717647Y-92247980D01*
%TO.C,C43*%
X153901342Y-93972142D02*
X153948961Y-93924523D01*
X153996580Y-93781666D01*
X153996580Y-93686428D01*
X153948961Y-93543571D01*
X153853723Y-93448333D01*
X153758485Y-93400714D01*
X153568009Y-93353095D01*
X153425152Y-93353095D01*
X153234676Y-93400714D01*
X153139438Y-93448333D01*
X153044200Y-93543571D01*
X152996580Y-93686428D01*
X152996580Y-93781666D01*
X153044200Y-93924523D01*
X153091819Y-93972142D01*
X153329914Y-94829285D02*
X153996580Y-94829285D01*
X152948961Y-94591190D02*
X153663247Y-94353095D01*
X153663247Y-94972142D01*
X152996580Y-95257857D02*
X152996580Y-95876904D01*
X153377533Y-95543571D01*
X153377533Y-95686428D01*
X153425152Y-95781666D01*
X153472771Y-95829285D01*
X153568009Y-95876904D01*
X153806104Y-95876904D01*
X153901342Y-95829285D01*
X153948961Y-95781666D01*
X153996580Y-95686428D01*
X153996580Y-95400714D01*
X153948961Y-95305476D01*
X153901342Y-95257857D01*
%TO.C,R32*%
X172600857Y-83078580D02*
X172934190Y-82602390D01*
X173172285Y-83078580D02*
X173172285Y-82078580D01*
X172791333Y-82078580D01*
X172696095Y-82126200D01*
X172648476Y-82173819D01*
X172600857Y-82269057D01*
X172600857Y-82411914D01*
X172648476Y-82507152D01*
X172696095Y-82554771D01*
X172791333Y-82602390D01*
X173172285Y-82602390D01*
X172267523Y-82078580D02*
X171648476Y-82078580D01*
X171981809Y-82459533D01*
X171838952Y-82459533D01*
X171743714Y-82507152D01*
X171696095Y-82554771D01*
X171648476Y-82650009D01*
X171648476Y-82888104D01*
X171696095Y-82983342D01*
X171743714Y-83030961D01*
X171838952Y-83078580D01*
X172124666Y-83078580D01*
X172219904Y-83030961D01*
X172267523Y-82983342D01*
X171267523Y-82173819D02*
X171219904Y-82126200D01*
X171124666Y-82078580D01*
X170886571Y-82078580D01*
X170791333Y-82126200D01*
X170743714Y-82173819D01*
X170696095Y-82269057D01*
X170696095Y-82364295D01*
X170743714Y-82507152D01*
X171315142Y-83078580D01*
X170696095Y-83078580D01*
D13*
%TO.C,C26*%
X131099000Y-85953000D02*
X131099000Y-81433000D01*
X131099000Y-81433000D02*
X139159000Y-81433000D01*
X139159000Y-85953000D02*
X131099000Y-85953000D01*
%TO.C,C13*%
X154820252Y-65000200D02*
X154297748Y-65000200D01*
X154820252Y-66470200D02*
X154297748Y-66470200D01*
%TO.C,C47*%
X129313000Y-84081252D02*
X129313000Y-83558748D01*
X130783000Y-84081252D02*
X130783000Y-83558748D01*
D14*
%TO.C,IC7*%
X143611000Y-100541000D02*
X144811000Y-100541000D01*
D13*
%TO.C,C31*%
X142443800Y-97348600D02*
X142443800Y-89288600D01*
X146963800Y-89288600D02*
X146963800Y-97348600D01*
X146963800Y-97348600D02*
X142443800Y-97348600D01*
%TO.C,C39*%
X138279200Y-97924252D02*
X138279200Y-97401748D01*
X139749200Y-97924252D02*
X139749200Y-97401748D01*
%TO.C,C19*%
X127082761Y-94000792D02*
X126713294Y-94370259D01*
X128122208Y-95040239D02*
X127752741Y-95409706D01*
%TO.C,C37*%
X153002348Y-102893800D02*
X153524852Y-102893800D01*
X153002348Y-101423800D02*
X153524852Y-101423800D01*
%TO.C,C63*%
X141724748Y-107469000D02*
X142247252Y-107469000D01*
X141724748Y-108939000D02*
X142247252Y-108939000D01*
%TO.C,C9*%
X129778200Y-75793000D02*
X129778200Y-71273000D01*
X129778200Y-71273000D02*
X137838200Y-71273000D01*
X137838200Y-75793000D02*
X129778200Y-75793000D01*
%TO.C,C59*%
X146565252Y-107542000D02*
X146042748Y-107542000D01*
X146565252Y-106072000D02*
X146042748Y-106072000D01*
%TO.C,C67*%
X141800252Y-105764000D02*
X141277748Y-105764000D01*
X141800252Y-104294000D02*
X141277748Y-104294000D01*
%TO.C,R23*%
X146584936Y-111279000D02*
X147039064Y-111279000D01*
X146584936Y-112749000D02*
X147039064Y-112749000D01*
%TO.C,C56*%
X163349000Y-86479748D02*
X163349000Y-87002252D01*
X164819000Y-86479748D02*
X164819000Y-87002252D01*
%TO.C,C8*%
X131234548Y-69216600D02*
X131757052Y-69216600D01*
X131234548Y-70686600D02*
X131757052Y-70686600D01*
%TO.C,C28*%
X149522548Y-101423800D02*
X150045052Y-101423800D01*
X149522548Y-102893800D02*
X150045052Y-102893800D01*
%TO.C,C27*%
X140336600Y-95917652D02*
X140336600Y-95395148D01*
X141806600Y-95917652D02*
X141806600Y-95395148D01*
D14*
%TO.C,IC13*%
X104005200Y-85343400D02*
X104005200Y-86543400D01*
D13*
%TO.C,C36*%
X157097400Y-97695652D02*
X157097400Y-97173148D01*
X155627400Y-97695652D02*
X155627400Y-97173148D01*
%TO.C,C53*%
X137660748Y-105437000D02*
X138183252Y-105437000D01*
X137660748Y-106907000D02*
X138183252Y-106907000D01*
%TO.C,C14*%
X150603852Y-68857800D02*
X150081348Y-68857800D01*
X150603852Y-67387800D02*
X150081348Y-67387800D01*
%TO.C,R19*%
X166216000Y-76226936D02*
X166216000Y-76681064D01*
X164746000Y-76226936D02*
X164746000Y-76681064D01*
%TO.C,C65*%
X102058800Y-87180052D02*
X102058800Y-86657548D01*
X103528800Y-87180052D02*
X103528800Y-86657548D01*
D15*
%TO.C,IC1*%
X125984000Y-68732400D02*
X127812800Y-68732400D01*
X125984000Y-67894200D02*
X127812800Y-67894200D01*
X125984000Y-73279000D02*
X127812800Y-73279000D01*
X125984000Y-72440800D02*
X127812800Y-72440800D01*
D13*
%TO.C,C21*%
X103724000Y-88799000D02*
X103724000Y-93319000D01*
X95664000Y-88799000D02*
X103724000Y-88799000D01*
X103724000Y-93319000D02*
X95664000Y-93319000D01*
%TO.C,C7*%
X127865200Y-75456148D02*
X127865200Y-75978652D01*
X129335200Y-75456148D02*
X129335200Y-75978652D01*
%TO.C,C29*%
X157275200Y-93439348D02*
X157275200Y-93961852D01*
X155805200Y-93439348D02*
X155805200Y-93961852D01*
%TO.C,C69*%
X121286600Y-64624852D02*
X121286600Y-64102348D01*
X122756600Y-64624852D02*
X122756600Y-64102348D01*
%TO.C,C45*%
X150421748Y-106199000D02*
X150944252Y-106199000D01*
X150421748Y-107669000D02*
X150944252Y-107669000D01*
%TO.C,C60*%
X149420252Y-108866000D02*
X148897748Y-108866000D01*
X149420252Y-110336000D02*
X148897748Y-110336000D01*
%TO.C,C35*%
X153245452Y-84609000D02*
X152722948Y-84609000D01*
X153245452Y-86079000D02*
X152722948Y-86079000D01*
%TO.C,C34*%
X147642948Y-87323600D02*
X148165452Y-87323600D01*
X147642948Y-85853600D02*
X148165452Y-85853600D01*
D14*
%TO.C,IC14*%
X132689000Y-105875000D02*
X133889000Y-105875000D01*
D13*
%TO.C,U3*%
X161232000Y-72326800D02*
X161232000Y-71226800D01*
X152642000Y-73826800D02*
X152642000Y-72326800D01*
X163042000Y-73826800D02*
X163042000Y-72326800D01*
X163042000Y-72326800D02*
X161232000Y-72326800D01*
X154452000Y-72326800D02*
X154452000Y-67201800D01*
X152642000Y-72326800D02*
X154452000Y-72326800D01*
%TO.C,C30*%
X152291148Y-87098200D02*
X152813652Y-87098200D01*
X152291148Y-88568200D02*
X152813652Y-88568200D01*
%TO.C,C38*%
X141840852Y-102843000D02*
X141318348Y-102843000D01*
X141840852Y-101373000D02*
X141318348Y-101373000D01*
%TO.C,R16*%
X115089000Y-71527936D02*
X115089000Y-71982064D01*
X116559000Y-71527936D02*
X116559000Y-71982064D01*
%TO.C,C20*%
X136625000Y-93591748D02*
X136625000Y-94114252D01*
X135155000Y-93591748D02*
X135155000Y-94114252D01*
%TO.C,C52*%
X142848000Y-99448252D02*
X142848000Y-98925748D01*
X141378000Y-99448252D02*
X141378000Y-98925748D01*
%TO.C,R18*%
X110740564Y-75465000D02*
X110286436Y-75465000D01*
X110740564Y-76935000D02*
X110286436Y-76935000D01*
%TO.C,C33*%
X154786000Y-91193252D02*
X154786000Y-90670748D01*
X153316000Y-91193252D02*
X153316000Y-90670748D01*
%TO.C,C62*%
X132153252Y-110463000D02*
X131630748Y-110463000D01*
X132153252Y-108993000D02*
X131630748Y-108993000D01*
%TO.C,C15*%
X143873200Y-69368000D02*
X151933200Y-69368000D01*
X151933200Y-73888000D02*
X143873200Y-73888000D01*
X151933200Y-69368000D02*
X151933200Y-73888000D01*
D16*
%TO.C,AC1*%
X134529200Y-89770200D02*
G75*
G03*
X134529200Y-89770200I-125000J0D01*
G01*
D13*
%TO.C,C57*%
X166885252Y-90270000D02*
X166362748Y-90270000D01*
X166885252Y-88800000D02*
X166362748Y-88800000D01*
%TO.C,C43*%
X152704200Y-90965000D02*
X152704200Y-99025000D01*
X148184200Y-99025000D02*
X148184200Y-90965000D01*
X152704200Y-99025000D02*
X148184200Y-99025000D01*
%TO.C,R32*%
X171473864Y-79986200D02*
X171019736Y-79986200D01*
X171473864Y-81456200D02*
X171019736Y-81456200D01*
%TD*%
%LPC*%
D17*
%TO.C,J2*%
X189239773Y-88900000D03*
D18*
X187969773Y-86700295D03*
X191439478Y-87630000D03*
X190169478Y-85430295D03*
X193639182Y-86360000D03*
X192369182Y-84160295D03*
X195838887Y-85090000D03*
X194568887Y-82890295D03*
X198038591Y-83820000D03*
X196768591Y-81620295D03*
X200238296Y-82550000D03*
X198968296Y-80350295D03*
X202438000Y-81280000D03*
X201168000Y-79080295D03*
X204637705Y-80010000D03*
X203367705Y-77810295D03*
X206837409Y-78740000D03*
X205567409Y-76540295D03*
X209037114Y-77470000D03*
X207767114Y-75270295D03*
%TD*%
D19*
%TO.C,U6*%
X103545000Y-56730000D03*
X109775000Y-67960000D03*
X101045000Y-56730000D03*
X109775000Y-65460000D03*
X98545000Y-56730000D03*
X109775000Y-62960000D03*
D20*
X94720000Y-60460000D03*
X107370000Y-60460000D03*
X107370000Y-70460000D03*
X94720000Y-70460000D03*
D19*
X97795000Y-71210000D03*
X104295000Y-71210000D03*
X97795000Y-75710000D03*
X104295000Y-75710000D03*
%TD*%
D21*
%TO.C,J1*%
X185964744Y-46162867D03*
D22*
X187760795Y-44366816D03*
X187760795Y-47958918D03*
X189556846Y-46162867D03*
X189556846Y-49754969D03*
X191352898Y-47958918D03*
X191352898Y-51551021D03*
X193148949Y-49754969D03*
X193148949Y-53347072D03*
X194945000Y-51551021D03*
X194945000Y-55143123D03*
X196741051Y-53347072D03*
X196741051Y-56939174D03*
X198537103Y-55143123D03*
X198537103Y-58735226D03*
X200333154Y-56939174D03*
X200333154Y-60531277D03*
X202129205Y-58735226D03*
X202129205Y-62327328D03*
X203925256Y-60531277D03*
%TD*%
D19*
%TO.C,U7*%
X177845000Y-58380000D03*
X184075000Y-69610000D03*
X175345000Y-58380000D03*
X184075000Y-67110000D03*
X172845000Y-58380000D03*
X184075000Y-64610000D03*
D20*
X181670000Y-62110000D03*
X169020000Y-62110000D03*
X181670000Y-72110000D03*
X169020000Y-72110000D03*
D19*
X172095000Y-72860000D03*
X178595000Y-72860000D03*
X172095000Y-77360000D03*
X178595000Y-77360000D03*
%TD*%
D23*
%TO.C,J3*%
X91059000Y-86487000D03*
D24*
X89789000Y-88686705D03*
X88859295Y-85217000D03*
X87589295Y-87416705D03*
X86659591Y-83947000D03*
X85389591Y-86146705D03*
X84459886Y-82677000D03*
X83189886Y-84876705D03*
X82260182Y-81407000D03*
X80990182Y-83606705D03*
X80060477Y-80137000D03*
X78790477Y-82336705D03*
X77860773Y-78867000D03*
X76590773Y-81066705D03*
X75661068Y-77597000D03*
X74391068Y-79796705D03*
X73461364Y-76327000D03*
X72191364Y-78526705D03*
X71261659Y-75057000D03*
X69991659Y-77256705D03*
%TD*%
D25*
%TO.C,BT2*%
X91774812Y-75518812D03*
X77632676Y-61376676D03*
%TD*%
D26*
%TO.C,C26*%
X132396500Y-83693000D03*
X138621500Y-83693000D03*
%TD*%
D27*
%TO.C,C13*%
X155509000Y-65735200D03*
X153609000Y-65735200D03*
%TD*%
D28*
%TO.C,C47*%
X130048000Y-84770000D03*
X130048000Y-82870000D03*
%TD*%
D29*
%TO.C,IC7*%
X144211000Y-100091000D03*
X144211000Y-99441000D03*
X144211000Y-98791000D03*
X146111000Y-98791000D03*
X146111000Y-100091000D03*
%TD*%
D30*
%TO.C,C31*%
X144703800Y-96051100D03*
X144703800Y-89826100D03*
%TD*%
D28*
%TO.C,C39*%
X139014200Y-98613000D03*
X139014200Y-96713000D03*
%TD*%
D31*
%TO.C,C19*%
X128089502Y-94033498D03*
X126746000Y-95377000D03*
%TD*%
D32*
%TO.C,C37*%
X152313600Y-102158800D03*
X154213600Y-102158800D03*
%TD*%
%TO.C,C63*%
X141036000Y-108204000D03*
X142936000Y-108204000D03*
%TD*%
D26*
%TO.C,C9*%
X131075700Y-73533000D03*
X137300700Y-73533000D03*
%TD*%
D27*
%TO.C,C59*%
X147254000Y-106807000D03*
X145354000Y-106807000D03*
%TD*%
D33*
%TO.C,R8*%
X132842000Y-98298000D03*
X132042000Y-98298000D03*
X131242000Y-98298000D03*
X130442000Y-98298000D03*
X129642000Y-98298000D03*
X128842000Y-98298000D03*
X128042000Y-98298000D03*
X127242000Y-98298000D03*
X127242000Y-97098000D03*
X128042000Y-97098000D03*
X128842000Y-97098000D03*
X129642000Y-97098000D03*
X130442000Y-97098000D03*
X131242000Y-97098000D03*
X132042000Y-97098000D03*
X132842000Y-97098000D03*
%TD*%
D27*
%TO.C,C67*%
X142489000Y-105029000D03*
X140589000Y-105029000D03*
%TD*%
D34*
%TO.C,R23*%
X145899500Y-112014000D03*
X147724500Y-112014000D03*
%TD*%
D35*
%TO.C,C56*%
X164084000Y-85791000D03*
X164084000Y-87691000D03*
%TD*%
D32*
%TO.C,C8*%
X130545800Y-69951600D03*
X132445800Y-69951600D03*
%TD*%
%TO.C,C28*%
X148833800Y-102158800D03*
X150733800Y-102158800D03*
%TD*%
D28*
%TO.C,C27*%
X141071600Y-96606400D03*
X141071600Y-94706400D03*
%TD*%
D36*
%TO.C,IC13*%
X104455200Y-85943400D03*
X105105200Y-85943400D03*
X105755200Y-85943400D03*
X105755200Y-87843400D03*
X104455200Y-87843400D03*
%TD*%
D28*
%TO.C,C36*%
X156362400Y-98384400D03*
X156362400Y-96484400D03*
%TD*%
D37*
%TO.C,BT1*%
X106160841Y-93872000D03*
X123481349Y-83872000D03*
%TD*%
D32*
%TO.C,C53*%
X136972000Y-106172000D03*
X138872000Y-106172000D03*
%TD*%
D27*
%TO.C,C14*%
X151292600Y-68122800D03*
X149392600Y-68122800D03*
%TD*%
D38*
%TO.C,R19*%
X165481000Y-75541500D03*
X165481000Y-77366500D03*
%TD*%
D28*
%TO.C,C65*%
X102793800Y-87868800D03*
X102793800Y-85968800D03*
%TD*%
D39*
%TO.C,IC1*%
X128778000Y-68300600D03*
D40*
X122123200Y-70586600D03*
D39*
X128778000Y-72872600D03*
%TD*%
D41*
%TO.C,C21*%
X102426500Y-91059000D03*
X96201500Y-91059000D03*
%TD*%
D35*
%TO.C,C7*%
X128600200Y-74767400D03*
X128600200Y-76667400D03*
%TD*%
%TO.C,C29*%
X156540200Y-92750600D03*
X156540200Y-94650600D03*
%TD*%
D28*
%TO.C,C69*%
X122021600Y-65313600D03*
X122021600Y-63413600D03*
%TD*%
D32*
%TO.C,C45*%
X149733000Y-106934000D03*
X151633000Y-106934000D03*
%TD*%
D27*
%TO.C,C60*%
X150109000Y-109601000D03*
X148209000Y-109601000D03*
%TD*%
%TO.C,C35*%
X153934200Y-85344000D03*
X152034200Y-85344000D03*
%TD*%
D32*
%TO.C,C34*%
X146954200Y-86588600D03*
X148854200Y-86588600D03*
%TD*%
D29*
%TO.C,IC14*%
X133289000Y-105425000D03*
X133289000Y-104775000D03*
X133289000Y-104125000D03*
X135189000Y-104125000D03*
X135189000Y-105425000D03*
%TD*%
D42*
%TO.C,U3*%
X155302000Y-69501800D03*
D43*
X157842000Y-78651800D03*
D42*
X157842000Y-69501800D03*
X160382000Y-69501800D03*
%TD*%
D32*
%TO.C,C30*%
X151602400Y-87833200D03*
X153502400Y-87833200D03*
%TD*%
D27*
%TO.C,C38*%
X142529600Y-102108000D03*
X140629600Y-102108000D03*
%TD*%
D38*
%TO.C,R16*%
X115824000Y-70842500D03*
X115824000Y-72667500D03*
%TD*%
D35*
%TO.C,C20*%
X135890000Y-92903000D03*
X135890000Y-94803000D03*
%TD*%
D28*
%TO.C,C52*%
X142113000Y-100137000D03*
X142113000Y-98237000D03*
%TD*%
D44*
%TO.C,R18*%
X111426000Y-76200000D03*
X109601000Y-76200000D03*
%TD*%
D28*
%TO.C,C33*%
X154051000Y-91882000D03*
X154051000Y-89982000D03*
%TD*%
D27*
%TO.C,C62*%
X132842000Y-109728000D03*
X130942000Y-109728000D03*
%TD*%
D41*
%TO.C,C15*%
X150635700Y-71628000D03*
X144410700Y-71628000D03*
%TD*%
D45*
%TO.C,AC1*%
X133979200Y-90520200D03*
X133979200Y-91020200D03*
X133979200Y-91520200D03*
X133979200Y-92020200D03*
X133979200Y-92520200D03*
X133979200Y-93020200D03*
D46*
X133279200Y-93720200D03*
X132779200Y-93720200D03*
X132279200Y-93720200D03*
X131779200Y-93720200D03*
X131279200Y-93720200D03*
X130779200Y-93720200D03*
D45*
X130079200Y-93020200D03*
X130079200Y-92520200D03*
X130079200Y-92020200D03*
X130079200Y-91520200D03*
X130079200Y-91020200D03*
X130079200Y-90520200D03*
D46*
X130779200Y-89820200D03*
X131279200Y-89820200D03*
X131779200Y-89820200D03*
X132279200Y-89820200D03*
X132779200Y-89820200D03*
X133279200Y-89820200D03*
D47*
X132029200Y-91770200D03*
%TD*%
D27*
%TO.C,C57*%
X167574000Y-89535000D03*
X165674000Y-89535000D03*
%TD*%
D30*
%TO.C,C43*%
X150444200Y-97727500D03*
X150444200Y-91502500D03*
%TD*%
D44*
%TO.C,R32*%
X172159300Y-80721200D03*
X170334300Y-80721200D03*
%TD*%
M02*
