M48
; DRILL file {KiCad (6.0.9)} date Tue Nov 22 19:38:11 2022
; FORMAT={2:4/ absolute / inch / keep zeros}
; #@! TF.CreationDate,2022-11-22T19:38:11+02:00
; #@! TF.GenerationSoftware,Kicad,Pcbnew,(6.0.9)
; #@! TF.FileFunction,Plated,1,10,PTH
FMAT,2
INCH
; #@! TA.AperFunction,Plated,PTH,ViaDrill
T1C0.0118
; #@! TA.AperFunction,Plated,PTH,ComponentDrill
T2C0.0315
; #@! TA.AperFunction,Plated,PTH,ComponentDrill
T3C0.0394
; #@! TA.AperFunction,Plated,PTH,ComponentDrill
T4C0.0512
; #@! TA.AperFunction,Plated,PTH,ComponentDrill
T5C0.0591
; #@! TA.AperFunction,Plated,PTH,ComponentDrill
T6C0.0787
%
G90
G05
T1
X026262Y-033424
X026262Y-034014
X026262Y-034605
X026262Y-035195
X026262Y-035786
X026262Y-036376
X026262Y-036967
X026262Y-037558
X026262Y-038148
X026262Y-038739
X026262Y-039329
X026262Y-039920
X026262Y-040510
X026262Y-041101
X026262Y-041691
X026262Y-042282
X026262Y-042873
X026262Y-043463
X026262Y-044054
X026262Y-044644
X026262Y-045235
X026262Y-045825
X026262Y-046416
X026262Y-047006
X026262Y-047597
X026262Y-048187
X026262Y-048778
X026853Y-029880
X026853Y-030471
X026853Y-031061
X026853Y-031652
X026853Y-032243
X026853Y-032833
X026853Y-033424
X026853Y-034014
X026853Y-034605
X026853Y-035195
X026853Y-035786
X026853Y-036376
X026853Y-036967
X026853Y-037558
X026853Y-038148
X026853Y-038739
X026853Y-039329
X026853Y-039920
X026853Y-040510
X026853Y-041101
X026853Y-041691
X026853Y-042282
X026853Y-042873
X026853Y-044054
X026853Y-044644
X026853Y-045235
X026853Y-045825
X026853Y-046416
X026853Y-047006
X026853Y-047597
X026853Y-048187
X026853Y-048778
X026853Y-049369
X026853Y-049959
X027443Y-027518
X027443Y-028109
X027443Y-028699
X027443Y-029290
X027443Y-029880
X027443Y-031061
X027443Y-031652
X027443Y-032243
X027443Y-032833
X027443Y-034605
X027443Y-035195
X027443Y-035786
X027443Y-036376
X027443Y-036967
X027443Y-037558
X027443Y-038148
X027443Y-038739
X027443Y-039329
X027443Y-039920
X027443Y-040510
X027443Y-041101
X027443Y-044644
X027443Y-045235
X027443Y-045825
X027443Y-048187
X027443Y-048778
X027443Y-049369
X027443Y-049959
X027443Y-050550
X027443Y-051140
X028034Y-025747
X028034Y-026337
X028034Y-026928
X028034Y-027518
X028034Y-028109
X028034Y-028699
X028034Y-031652
X028034Y-032243
X028034Y-032833
X028034Y-034605
X028034Y-035195
X028034Y-035786
X028034Y-036376
X028034Y-036967
X028034Y-037558
X028034Y-038148
X028034Y-038739
X028034Y-039329
X028034Y-044644
X028034Y-045235
X028034Y-045825
X028034Y-048187
X028034Y-048778
X028034Y-049369
X028034Y-049959
X028034Y-050550
X028034Y-051140
X028034Y-051731
X028624Y-023975
X028624Y-024565
X028624Y-025156
X028624Y-025747
X028624Y-026337
X028624Y-026928
X028624Y-027518
X028624Y-028109
X028624Y-028699
X028624Y-029290
X028624Y-031652
X028624Y-032243
X028624Y-032833
X028624Y-034014
X028624Y-034605
X028624Y-035195
X028624Y-035786
X028624Y-036376
X028624Y-036967
X028624Y-045235
X028624Y-045825
X028624Y-046416
X028624Y-047006
X028624Y-047597
X028624Y-048187
X028624Y-048778
X028624Y-049369
X028624Y-049959
X028624Y-050550
X028624Y-051140
X028624Y-051731
X029215Y-022203
X029215Y-022794
X029215Y-023384
X029215Y-023975
X029215Y-024565
X029215Y-025156
X029215Y-025747
X029215Y-026337
X029215Y-026928
X029215Y-027518
X029215Y-028109
X029215Y-028699
X029215Y-029290
X029215Y-032243
X029215Y-032833
X029215Y-034014
X029215Y-034605
X029215Y-035195
X029215Y-045235
X029215Y-045825
X029215Y-046416
X029215Y-047006
X029215Y-047597
X029215Y-048778
X029215Y-049369
X029215Y-049959
X029215Y-050550
X029215Y-051140
X029215Y-051731
X029805Y-021022
X029805Y-021613
X029805Y-022203
X029805Y-022794
X029805Y-023384
X029805Y-025156
X029805Y-025747
X029805Y-026337
X029805Y-026928
X029805Y-027518
X029805Y-028109
X029805Y-028699
X029805Y-029290
X029805Y-029880
X029805Y-032833
X029805Y-034014
X029805Y-045235
X029805Y-045825
X029805Y-046416
X029805Y-047006
X029805Y-047597
X029805Y-048778
X029805Y-049369
X029805Y-049959
X029805Y-050550
X029805Y-051140
X029805Y-051731
X029805Y-052321
X030396Y-019841
X030396Y-020432
X030396Y-021022
X030396Y-021613
X030396Y-022203
X030396Y-022794
X030396Y-025747
X030396Y-026337
X030396Y-026928
X030396Y-027518
X030396Y-028109
X030396Y-028699
X030396Y-029290
X030396Y-029880
X030396Y-030471
X030396Y-032833
X030396Y-034014
X030396Y-045825
X030396Y-046416
X030396Y-047006
X030396Y-047597
X030396Y-048778
X030396Y-049369
X030396Y-049959
X030396Y-051731
X030396Y-052321
X030987Y-018660
X030987Y-019250
X030987Y-019841
X030987Y-020432
X030987Y-021022
X030987Y-021613
X030987Y-022203
X030987Y-022794
X030987Y-025156
X030987Y-025747
X030987Y-026337
X030987Y-026928
X030987Y-027518
X030987Y-028109
X030987Y-028699
X030987Y-029290
X030987Y-029880
X030987Y-030471
X030987Y-031652
X030987Y-045825
X030987Y-046416
X030987Y-047006
X030987Y-047597
X030987Y-048187
X030987Y-048778
X030987Y-049369
X030987Y-049959
X030987Y-051731
X030987Y-052321
X031577Y-018069
X031577Y-018660
X031577Y-019250
X031577Y-019841
X031577Y-020432
X031577Y-021022
X031577Y-021613
X031577Y-022203
X031577Y-022794
X031577Y-023384
X031577Y-024565
X031577Y-025156
X031577Y-025747
X031577Y-026337
X031577Y-026928
X031577Y-027518
X031577Y-028109
X031577Y-028699
X031577Y-029290
X031577Y-029880
X031577Y-030471
X031577Y-032243
X031577Y-045825
X031577Y-046416
X031577Y-047006
X031577Y-047597
X031577Y-048187
X031577Y-048778
X031577Y-049369
X031577Y-049959
X031577Y-051731
X031577Y-052321
X032168Y-017479
X032168Y-018069
X032168Y-018660
X032168Y-019250
X032168Y-019841
X032168Y-020432
X032168Y-021022
X032168Y-021613
X032168Y-022203
X032168Y-022794
X032168Y-023384
X032168Y-023975
X032168Y-024565
X032168Y-025156
X032168Y-025747
X032168Y-026337
X032168Y-026928
X032168Y-027518
X032168Y-028109
X032168Y-028699
X032168Y-029290
X032168Y-029880
X032168Y-030471
X032168Y-031061
X032168Y-034014
X032168Y-045825
X032168Y-046416
X032168Y-047006
X032168Y-047597
X032168Y-048187
X032168Y-048778
X032168Y-049369
X032168Y-049959
X032168Y-050550
X032168Y-051140
X032758Y-017479
X032758Y-018069
X032758Y-018660
X032758Y-019250
X032758Y-019841
X032758Y-020432
X032758Y-021022
X032758Y-021613
X032758Y-022203
X032758Y-022794
X032758Y-023384
X032758Y-023975
X032758Y-024565
X032758Y-025156
X032758Y-025747
X032758Y-026337
X032758Y-026928
X032758Y-027518
X032758Y-028109
X032758Y-028699
X032758Y-029290
X032758Y-029880
X032758Y-030471
X032758Y-031061
X032758Y-034014
X032758Y-046416
X032758Y-047006
X032758Y-047597
X032758Y-048187
X032758Y-048778
X032758Y-049369
X032758Y-049959
X033349Y-016888
X033349Y-017479
X033349Y-018069
X033349Y-018660
X033349Y-019250
X033349Y-019841
X033349Y-020432
X033349Y-021022
X033349Y-021613
X033349Y-022203
X033349Y-022794
X033349Y-023384
X033349Y-023975
X033349Y-024565
X033349Y-025156
X033349Y-025747
X033349Y-026337
X033349Y-026928
X033349Y-027518
X033349Y-028109
X033349Y-028699
X033349Y-029290
X033349Y-029880
X033349Y-031652
X033349Y-045825
X033349Y-046416
X033349Y-047006
X033349Y-047597
X033349Y-048187
X033939Y-016888
X033939Y-017479
X033939Y-018069
X033939Y-018660
X033939Y-019250
X033939Y-019841
X033939Y-020432
X033939Y-021022
X033939Y-021613
X033939Y-022203
X033939Y-022794
X033939Y-023384
X033939Y-023975
X033939Y-024565
X033939Y-025156
X033939Y-025747
X033939Y-026337
X033939Y-026928
X033939Y-027518
X033939Y-028109
X033939Y-028699
X033939Y-029290
X033939Y-032243
X033939Y-034605
X033939Y-044644
X033939Y-045235
X033939Y-045825
X033939Y-046416
X034260Y-030220
X034440Y-029830
X034530Y-016888
X034530Y-017479
X034530Y-018069
X034530Y-018660
X034530Y-019250
X034530Y-019841
X034530Y-020432
X034530Y-021022
X034530Y-021613
X034530Y-022203
X034530Y-022794
X034530Y-023384
X034530Y-023975
X034530Y-024565
X034530Y-025156
X034530Y-025747
X034530Y-026337
X034530Y-026928
X034530Y-027518
X034530Y-028109
X034530Y-028699
X034530Y-042282
X034530Y-042873
X034530Y-043463
X034530Y-044054
X034530Y-044644
X034530Y-045235
X034550Y-031630
X034970Y-029830
X034970Y-030270
X034980Y-031060
X035030Y-029310
X035120Y-016888
X035120Y-017479
X035120Y-018069
X035120Y-018660
X035120Y-019250
X035120Y-019841
X035120Y-020432
X035120Y-021022
X035120Y-021613
X035120Y-022203
X035120Y-022794
X035120Y-023384
X035120Y-023975
X035120Y-024565
X035120Y-025156
X035120Y-025747
X035120Y-026337
X035120Y-026928
X035120Y-027518
X035120Y-028109
X035120Y-032833
X035120Y-041691
X035120Y-042282
X035120Y-042873
X035120Y-043463
X035490Y-030890
X035500Y-031340
X035510Y-028650
X035510Y-031800
X035520Y-029100
X035520Y-032250
X035711Y-016888
X035711Y-017479
X035711Y-019250
X035711Y-019841
X035711Y-020432
X035711Y-021022
X035711Y-021613
X035711Y-022203
X035711Y-022794
X035711Y-023384
X035711Y-023975
X035711Y-024565
X035711Y-025156
X035711Y-025747
X035711Y-026337
X035711Y-026928
X035711Y-027518
X035711Y-028109
X035711Y-039920
X035711Y-041691
X035711Y-042282
X036020Y-030890
X036020Y-031330
X036040Y-028650
X036040Y-031800
X036040Y-032240
X036050Y-039450
X036301Y-016888
X036301Y-017479
X036301Y-019250
X036301Y-019841
X036301Y-020432
X036301Y-021022
X036301Y-021613
X036301Y-022203
X036301Y-022794
X036301Y-023384
X036301Y-023975
X036301Y-024565
X036301Y-025156
X036301Y-025747
X036301Y-026337
X036301Y-026928
X036301Y-027518
X036301Y-028109
X036301Y-033424
X036400Y-039450
X036553Y-038636
X036590Y-031810
X036600Y-031300
X036600Y-032260
X036750Y-039300
X036870Y-028890
X036892Y-016298
X036892Y-016888
X036892Y-017479
X036892Y-019250
X036892Y-019841
X036892Y-020432
X036892Y-021022
X036892Y-021613
X036892Y-022203
X036892Y-022794
X036892Y-024565
X036892Y-025156
X036892Y-025747
X036892Y-026337
X036892Y-026928
X036892Y-033424
X036892Y-034014
X036892Y-034605
X036892Y-035195
X036892Y-040510
X037100Y-035700
X037120Y-031810
X037120Y-032250
X037150Y-036050
X037200Y-036400
X037380Y-028990
X037380Y-030080
X037390Y-029440
X037483Y-016298
X037483Y-016888
X037483Y-017479
X037483Y-018069
X037483Y-018660
X037483Y-019250
X037483Y-019841
X037483Y-020432
X037483Y-021022
X037483Y-021613
X037483Y-022203
X037483Y-022794
X037483Y-025156
X037483Y-025747
X037483Y-026337
X037483Y-026928
X037483Y-039329
X037830Y-031890
X037900Y-030610
X037910Y-028990
X037910Y-029430
X038073Y-016298
X038073Y-016888
X038073Y-017479
X038073Y-018069
X038073Y-018660
X038073Y-019250
X038073Y-019841
X038073Y-020432
X038073Y-021022
X038073Y-021613
X038073Y-022203
X038073Y-022794
X038073Y-023384
X038073Y-024565
X038073Y-025156
X038073Y-025747
X038073Y-026337
X038073Y-026928
X038073Y-038739
X038150Y-032450
X038400Y-037550
X038400Y-037900
X038510Y-030590
X038560Y-034160
X038590Y-031830
X038664Y-016298
X038664Y-016888
X038664Y-017479
X038664Y-018069
X038664Y-018660
X038664Y-019250
X038664Y-023384
X038664Y-023975
X038664Y-024565
X038664Y-025156
X038664Y-025747
X038664Y-026337
X038664Y-026928
X038664Y-035195
X039090Y-030220
X039100Y-030670
X039110Y-031820
X039200Y-034150
X039254Y-016298
X039254Y-016888
X039254Y-017479
X039254Y-018069
X039254Y-018660
X039254Y-019250
X039254Y-021613
X039254Y-023384
X039254Y-023975
X039254Y-024565
X039254Y-025156
X039254Y-025747
X039254Y-026337
X039254Y-026928
X039254Y-027518
X039254Y-035195
X039254Y-037558
X039254Y-038148
X039620Y-030220
X039620Y-030660
X039650Y-035950
X039650Y-036350
X039700Y-034600
X039700Y-036750
X039730Y-031890
X039845Y-016298
X039845Y-016888
X039845Y-017479
X039845Y-018069
X039845Y-018660
X039845Y-019250
X039845Y-019841
X039845Y-020432
X039845Y-021022
X039845Y-021613
X039845Y-037558
X039910Y-032800
X039910Y-033720
X040400Y-033400
X040435Y-015707
X040435Y-016298
X040435Y-016888
X040435Y-017479
X040435Y-018069
X040435Y-018660
X040435Y-019250
X040435Y-019841
X040435Y-020432
X040435Y-023384
X040435Y-023975
X040435Y-024565
X040435Y-025156
X040435Y-025747
X040435Y-026337
X040435Y-026928
X040435Y-027518
X040435Y-028699
X040450Y-035100
X040480Y-036990
X040560Y-037920
X040580Y-037450
X040680Y-036620
X040690Y-030490
X040900Y-035970
X040920Y-035500
X040950Y-035030
X041026Y-015707
X041026Y-016298
X041026Y-016888
X041026Y-017479
X041026Y-018069
X041026Y-018660
X041026Y-019250
X041026Y-019841
X041026Y-020432
X041026Y-023384
X041026Y-023975
X041026Y-024565
X041026Y-025156
X041026Y-025747
X041026Y-026337
X041026Y-026928
X041290Y-037910
X041300Y-037460
X041350Y-033350
X041430Y-035910
X041440Y-035500
X041616Y-015707
X041616Y-016298
X041616Y-016888
X041616Y-017479
X041616Y-018069
X041616Y-018660
X041616Y-019250
X041616Y-019841
X041616Y-020432
X041616Y-021613
X041616Y-022794
X041616Y-024565
X041616Y-025156
X041616Y-025747
X041616Y-026337
X041616Y-026928
X041616Y-029290
X041740Y-032050
X041900Y-033450
X041900Y-034600
X042207Y-015707
X042207Y-016298
X042207Y-016888
X042207Y-017479
X042207Y-018069
X042207Y-018660
X042207Y-019250
X042207Y-019841
X042207Y-020432
X042207Y-021022
X042207Y-021613
X042207Y-022794
X042207Y-025156
X042207Y-025747
X042207Y-026337
X042207Y-026928
X042207Y-029880
X042250Y-029300
X042350Y-030350
X042350Y-034850
X042410Y-036410
X042620Y-034060
X042660Y-037940
X042730Y-036950
X042790Y-037440
X042798Y-017479
X042798Y-018069
X042798Y-018660
X042798Y-019250
X042798Y-019841
X042798Y-020432
X042798Y-021022
X042798Y-021613
X042798Y-022794
X042903Y-033347
X043100Y-029550
X043240Y-037000
X043240Y-038110
X043250Y-034090
X043260Y-037640
X043350Y-033430
X043388Y-020432
X043388Y-021022
X043388Y-021613
X043388Y-023384
X043388Y-023975
X043388Y-027518
X043400Y-034540
X043500Y-033010
X043506Y-031824
X043640Y-035260
X043740Y-037260
X043840Y-034930
X043970Y-038100
X043979Y-021613
X043979Y-022203
X043979Y-023975
X043979Y-025156
X043980Y-037650
X044020Y-033870
X044200Y-032540
X044250Y-028450
X044250Y-032150
X044280Y-033430
X044370Y-035250
X044380Y-034800
X044430Y-034340
X044569Y-021613
X044569Y-022203
X044569Y-022794
X044569Y-026337
X044569Y-026928
X044569Y-038148
X044700Y-033190
X044800Y-032760
X044830Y-033910
X044890Y-035810
X044910Y-035340
X044930Y-030280
X044950Y-034770
X044970Y-034300
X045160Y-022203
X045160Y-022794
X045160Y-023384
X045160Y-026337
X045160Y-026928
X045240Y-032440
X045280Y-030630
X045300Y-034450
X045620Y-035800
X045630Y-035350
X045680Y-034760
X045690Y-034310
X045740Y-030380
X045750Y-022203
X045750Y-022794
X045750Y-023384
X045750Y-024565
X045834Y-037866
X046030Y-030650
X046100Y-027300
X046140Y-032590
X046190Y-035070
X046250Y-027900
X046280Y-034430
X046341Y-026337
X046341Y-035786
X046341Y-036376
X046341Y-036967
X046700Y-038700
X046790Y-032550
X046900Y-026050
X047030Y-030540
X047100Y-038300
X047150Y-034250
X047350Y-024850
X047500Y-030440
X047522Y-035786
X047522Y-036376
X047522Y-036967
X047522Y-037558
X047610Y-031120
X047680Y-040190
X047740Y-032990
X047805Y-022666
X047820Y-033930
X047900Y-033440
X047925Y-023194
X047950Y-022900
X048113Y-024565
X048113Y-034605
X048113Y-035786
X048113Y-036967
X048150Y-031170
X048200Y-035100
X048260Y-033850
X048300Y-036500
X048300Y-038050
X048350Y-037550
X048400Y-031600
X048400Y-038450
X048470Y-034190
X048703Y-024565
X048703Y-034605
X048837Y-031544
X048880Y-032140
X048920Y-031210
X049150Y-024800
X049150Y-034300
X049260Y-033910
X049310Y-032120
X049310Y-032720
X049350Y-031550
X049400Y-031200
X049450Y-037000
X049500Y-033170
X049500Y-035050
X049550Y-037850
X049570Y-033700
X049600Y-038750
X049725Y-036000
X049730Y-032120
X049750Y-038234
X049800Y-039150
X049884Y-041101
X049900Y-025750
X049950Y-030200
X049950Y-032660
X049950Y-035450
X050070Y-033660
X050090Y-033200
X050250Y-036710
X050300Y-035474
X050353Y-039153
X050475Y-041101
X050475Y-041691
X050500Y-036000
X050575Y-025750
X050600Y-040200
X050680Y-037490
X050750Y-035700
X050800Y-027200
X050800Y-031200
X050850Y-031550
X050900Y-039100
X050950Y-032350
X050950Y-041650
X051050Y-037880
X051065Y-041101
X051170Y-036870
X051390Y-037880
X051392Y-037238
X051400Y-039100
X051500Y-027000
X051650Y-033750
X051656Y-041101
X051770Y-037280
X051780Y-037860
X051821Y-039083
X051900Y-042750
X052010Y-026966
X052200Y-037000
X052246Y-022203
X052246Y-029880
X052246Y-044644
X052270Y-037957
X052300Y-039150
X052350Y-033900
X052450Y-028950
X052650Y-037050
X052680Y-037410
X052800Y-038184
X052800Y-038700
X052800Y-039050
X052837Y-033424
X052837Y-043463
X052837Y-044644
X052850Y-042200
X052852Y-036835
X052860Y-034690
X052950Y-022750
X052950Y-025000
X053050Y-024750
X053200Y-024469
X053355Y-024852
X053358Y-034668
X053400Y-028900
X053427Y-022794
X053427Y-029880
X053427Y-031061
X053427Y-032833
X053427Y-033424
X053427Y-043463
X053427Y-044644
X053550Y-041900
X053746Y-041270
X053750Y-042450
X053800Y-041000
X053890Y-035430
X054018Y-022203
X054018Y-022794
X054018Y-031061
X054018Y-043463
X054018Y-044644
X054018Y-045235
X054070Y-036550
X054090Y-037200
X054100Y-040250
X054250Y-036250
X054300Y-033750
X054500Y-040050
X054500Y-043700
X054500Y-044550
X054609Y-022203
X054609Y-022794
X054609Y-042873
X054609Y-045235
X054700Y-039250
X054750Y-036334
X054850Y-039584
X054900Y-036000
X054900Y-040900
X054930Y-037320
X055000Y-035666
X055001Y-038736
X055100Y-042500
X055150Y-029600
X055199Y-022203
X055199Y-022794
X055199Y-045235
X055300Y-025700
X055400Y-033500
X055500Y-031400
X055790Y-022203
X055790Y-022794
X055790Y-045235
X055850Y-033250
X055860Y-033880
X055900Y-040150
X056050Y-038270
X056100Y-035750
X056100Y-037800
X056140Y-034700
X056320Y-033520
X056350Y-043250
X056380Y-041190
X056380Y-022203
X056380Y-022794
X056380Y-044644
X056380Y-045235
X056400Y-038850
X056400Y-042000
X056520Y-040790
X056550Y-039662
X056600Y-034779
X056730Y-041130
X056950Y-043190
X056971Y-023384
X056971Y-029880
X057000Y-028900
X057050Y-044250
X057062Y-034589
X057094Y-043694
X057250Y-041070
X057300Y-022750
X057350Y-034750
X057400Y-024800
X057500Y-033550
X057550Y-042550
X057561Y-026928
X057561Y-029880
X057561Y-031652
X057561Y-044644
X057600Y-036050
X057610Y-041250
X057650Y-034900
X057800Y-034591
X057970Y-033550
X058000Y-039250
X058049Y-040934
X058050Y-028100
X058050Y-036047
X058084Y-038329
X058090Y-041480
X058142Y-035062
X058150Y-028950
X058152Y-022203
X058152Y-025747
X058350Y-034800
X058360Y-038540
X058550Y-035175
X058600Y-043900
X058650Y-042800
X058650Y-033600
X058680Y-040750
X058700Y-025200
X058730Y-041350
X058742Y-026337
X058750Y-039600
X058993Y-034820
X059030Y-041650
X059050Y-033250
X059150Y-039400
X059193Y-035468
X059200Y-028900
X059200Y-033600
X059300Y-040750
X059333Y-023384
X059333Y-024565
X059333Y-026337
X059400Y-043300
X059410Y-041330
X059448Y-039645
X059600Y-035101
X059650Y-036800
X059700Y-032500
X059750Y-039350
X059750Y-030700
X059840Y-033210
X059924Y-023384
X059924Y-024565
X059924Y-025156
X059924Y-026337
X059950Y-038450
X059972Y-028322
X060000Y-042250
X060032Y-034908
X060050Y-040800
X060134Y-033050
X060240Y-037790
X060300Y-035800
X060302Y-036782
X060350Y-039650
X060500Y-033200
X060500Y-040800
X060514Y-022794
X060514Y-023384
X060514Y-024565
X060514Y-025156
X060650Y-037800
X060670Y-037390
X060750Y-034690
X060750Y-039650
X060800Y-036607
X060900Y-038200
X060950Y-033250
X060950Y-039000
X061050Y-036850
X061050Y-037316
X061050Y-037950
X061070Y-035870
X061100Y-033500
X061100Y-039300
X061101Y-035250
X061105Y-022794
X061105Y-023384
X061105Y-024565
X061105Y-025156
X061250Y-033750
X061340Y-040670
X061600Y-034450
X061695Y-022794
X061695Y-023384
X061695Y-024565
X061695Y-025156
X061695Y-026337
X062100Y-035400
X062100Y-037750
X062143Y-030965
X062150Y-028550
X062150Y-035050
X062150Y-039675
X062200Y-037000
X062286Y-022794
X062286Y-023384
X062286Y-023975
X062286Y-024565
X062286Y-025156
X062286Y-025747
X062286Y-034605
X062500Y-027650
X062500Y-036300
X062597Y-037368
X062650Y-033100
X062650Y-038550
X062830Y-034320
X062876Y-023975
X062876Y-024565
X062876Y-025156
X062876Y-035195
X062950Y-038150
X063120Y-037760
X063467Y-023975
X063467Y-024565
X063650Y-027600
X063800Y-033200
X063800Y-036020
X063850Y-037300
X064000Y-034450
X064057Y-023975
X064100Y-027800
X064100Y-035500
X064150Y-033900
X064175Y-038126
X064350Y-023400
X064350Y-036050
X064600Y-036950
X064600Y-038600
X064648Y-022203
X064648Y-022794
X064648Y-025747
X064690Y-032270
X064700Y-029700
X064750Y-035550
X064900Y-033200
X064940Y-038200
X065150Y-034550
X065239Y-025156
X065239Y-025747
X065239Y-026928
X065250Y-028000
X065300Y-037550
X065350Y-032990
X065450Y-031600
X065600Y-035750
X065829Y-021613
X065829Y-025156
X065829Y-025747
X065829Y-026928
X065829Y-027518
X066050Y-030400
X066300Y-033200
X066420Y-021022
X066420Y-021613
X066420Y-023384
X066420Y-025747
X066420Y-026928
X066420Y-027518
X066420Y-038148
X066450Y-034950
X066500Y-036350
X066700Y-033350
X067010Y-020432
X067010Y-021613
X067010Y-022794
X067010Y-023384
X067010Y-025747
X067010Y-026928
X067010Y-027518
X067010Y-030471
X067050Y-032400
X067150Y-034900
X067250Y-031200
X067350Y-021000
X067601Y-016888
X067601Y-017479
X067601Y-018069
X067601Y-018660
X067601Y-019250
X067601Y-019841
X067601Y-020432
X067601Y-023975
X067601Y-024565
X067601Y-025156
X067601Y-025747
X067601Y-026928
X067601Y-027518
X068191Y-015707
X068191Y-016298
X068191Y-016888
X068191Y-017479
X068191Y-018069
X068191Y-018660
X068191Y-019250
X068191Y-019841
X068191Y-020432
X068191Y-023975
X068191Y-024565
X068191Y-025156
X068191Y-029880
X068300Y-032250
X068782Y-015707
X068782Y-016298
X068782Y-016888
X068782Y-017479
X068782Y-018069
X068782Y-018660
X068782Y-019250
X068782Y-019841
X068782Y-020432
X068782Y-035195
X069050Y-028350
X069250Y-033250
X069372Y-015707
X069372Y-016298
X069372Y-018069
X069372Y-018660
X069372Y-019250
X069372Y-019841
X069372Y-020432
X069372Y-023975
X069372Y-025747
X069372Y-026337
X069372Y-026928
X069372Y-027518
X069450Y-031950
X069500Y-035250
X069600Y-037100
X069800Y-037800
X069963Y-016298
X069963Y-018069
X069963Y-018660
X069963Y-019250
X069963Y-019841
X069963Y-020432
X069963Y-025156
X069963Y-025747
X069963Y-026337
X069963Y-026928
X069963Y-028109
X069963Y-029880
X069963Y-031061
X070553Y-016298
X070553Y-018069
X070553Y-018660
X070553Y-019250
X070553Y-019841
X070553Y-020432
X070553Y-021022
X070553Y-021613
X070553Y-024565
X070553Y-025156
X070553Y-025747
X070553Y-026337
X070553Y-027518
X070553Y-038148
X071144Y-016298
X071144Y-016888
X071144Y-017479
X071144Y-018069
X071144Y-018660
X071144Y-019250
X071144Y-019841
X071144Y-020432
X071144Y-025747
X071144Y-026928
X071144Y-027518
X071144Y-029880
X071144Y-031652
X071144Y-038148
X071735Y-016298
X071735Y-016888
X071735Y-017479
X071735Y-018069
X071735Y-018660
X071735Y-019250
X071735Y-019841
X071735Y-020432
X071735Y-023384
X071735Y-025747
X071735Y-026928
X071735Y-027518
X071735Y-031061
X071735Y-031652
X071735Y-032243
X071735Y-034605
X071735Y-035195
X071735Y-035786
X071735Y-036376
X071735Y-036967
X071735Y-038739
X072325Y-016298
X072325Y-016888
X072325Y-017479
X072325Y-018069
X072325Y-020432
X072325Y-022794
X072325Y-023384
X072325Y-023975
X072325Y-024565
X072325Y-028109
X072325Y-028699
X072325Y-033424
X072325Y-034605
X072325Y-035195
X072325Y-038739
X072550Y-021050
X072600Y-031600
X072700Y-029900
X072700Y-030850
X072916Y-016298
X072916Y-016888
X072916Y-017479
X072916Y-019250
X072916Y-022794
X072916Y-023384
X072916Y-023975
X072916Y-024565
X072916Y-028109
X072916Y-035786
X072916Y-036376
X072916Y-036967
X072916Y-038739
X072916Y-039329
X072916Y-039920
X073450Y-021450
X073506Y-016298
X073506Y-016888
X073506Y-019841
X073506Y-023384
X073506Y-023975
X073506Y-024565
X073506Y-025747
X073506Y-026337
X073506Y-026928
X073506Y-032243
X073506Y-032833
X073506Y-034605
X073506Y-035786
X073506Y-036376
X073506Y-036967
X073506Y-037558
X073506Y-038148
X073506Y-038739
X073506Y-039329
X073506Y-039920
X073506Y-040510
X074097Y-016888
X074097Y-018069
X074097Y-023975
X074097Y-024565
X074097Y-025747
X074097Y-026337
X074097Y-026928
X074097Y-029880
X074097Y-032243
X074097Y-032833
X074097Y-033424
X074097Y-035786
X074097Y-036967
X074097Y-037558
X074097Y-038148
X074097Y-038739
X074097Y-039329
X074097Y-039920
X074097Y-040510
X074097Y-041101
X074097Y-041691
X074550Y-032250
X074687Y-016888
X074687Y-017479
X074687Y-024565
X074687Y-025747
X074687Y-026337
X074687Y-029290
X074687Y-032833
X074687Y-035786
X074687Y-039329
X074687Y-039920
X074687Y-040510
X074687Y-041101
X074687Y-041691
X074687Y-042282
X074687Y-042873
X075050Y-031900
X075200Y-025250
X075278Y-016888
X075278Y-017479
X075278Y-018069
X075278Y-021022
X075278Y-023384
X075278Y-024565
X075278Y-025747
X075278Y-030471
X075278Y-031061
X075278Y-035195
X075278Y-041101
X075278Y-041691
X075278Y-042282
X075278Y-042873
X075278Y-043463
X075278Y-044054
X075868Y-016888
X075868Y-017479
X075868Y-018069
X075868Y-018660
X075868Y-020432
X075868Y-022203
X075868Y-024565
X075868Y-025156
X075868Y-028109
X075868Y-029880
X075868Y-030471
X075868Y-031061
X075868Y-031652
X075868Y-032243
X075868Y-035195
X075868Y-042873
X075868Y-043463
X075868Y-044054
X075868Y-044644
X075868Y-045235
X076459Y-016888
X076459Y-017479
X076459Y-018069
X076459Y-018660
X076459Y-022794
X076459Y-024565
X076459Y-027518
X076459Y-029290
X076459Y-031061
X076459Y-031652
X076459Y-033424
X076459Y-034605
X076459Y-035195
X076459Y-045235
X076459Y-045825
X076459Y-046416
X076459Y-047006
X077050Y-016888
X077050Y-017479
X077050Y-018069
X077050Y-018660
X077050Y-019250
X077050Y-023384
X077050Y-028699
X077050Y-029290
X077050Y-031061
X077050Y-031652
X077050Y-034605
X077050Y-046416
X077050Y-047006
X077050Y-047597
X077050Y-048187
X077640Y-017479
X077640Y-018069
X077640Y-018660
X077640Y-019250
X077640Y-019841
X077640Y-020432
X077640Y-026337
X077640Y-026928
X077640Y-027518
X077640Y-029290
X077640Y-031061
X077640Y-034014
X077640Y-034605
X077640Y-046416
X077640Y-047006
X077640Y-047597
X077640Y-048187
X077640Y-048778
X077640Y-049369
X077640Y-049959
X078231Y-017479
X078231Y-018069
X078231Y-018660
X078231Y-019250
X078231Y-019841
X078231Y-020432
X078231Y-021022
X078231Y-025747
X078231Y-026337
X078231Y-026928
X078231Y-027518
X078231Y-029290
X078231Y-029880
X078231Y-030471
X078231Y-031061
X078231Y-032243
X078231Y-034014
X078231Y-034605
X078231Y-045825
X078231Y-046416
X078231Y-047006
X078231Y-047597
X078231Y-048187
X078231Y-048778
X078231Y-049369
X078231Y-049959
X078231Y-050550
X078231Y-051140
X078821Y-018069
X078821Y-018660
X078821Y-019250
X078821Y-019841
X078821Y-020432
X078821Y-021022
X078821Y-021613
X078821Y-025156
X078821Y-025747
X078821Y-026337
X078821Y-026928
X078821Y-027518
X078821Y-028109
X078821Y-028699
X078821Y-029290
X078821Y-029880
X078821Y-030471
X078821Y-033424
X078821Y-034014
X078821Y-045825
X078821Y-046416
X078821Y-047006
X078821Y-048778
X078821Y-049369
X078821Y-049959
X078821Y-051731
X078821Y-052321
X079412Y-019250
X079412Y-019841
X079412Y-020432
X079412Y-021022
X079412Y-021613
X079412Y-022203
X079412Y-025156
X079412Y-025747
X079412Y-026337
X079412Y-026928
X079412Y-027518
X079412Y-028109
X079412Y-028699
X079412Y-029290
X079412Y-029880
X079412Y-030471
X079412Y-032833
X079412Y-033424
X079412Y-034014
X079412Y-045825
X079412Y-046416
X079412Y-047006
X079412Y-048778
X079412Y-049369
X079412Y-049959
X079412Y-051731
X079412Y-052321
X080002Y-020432
X080002Y-021022
X080002Y-021613
X080002Y-022203
X080002Y-025156
X080002Y-025747
X080002Y-026337
X080002Y-026928
X080002Y-027518
X080002Y-028109
X080002Y-028699
X080002Y-029290
X080002Y-029880
X080002Y-032833
X080002Y-033424
X080002Y-034014
X080002Y-045235
X080002Y-045825
X080002Y-046416
X080002Y-047006
X080002Y-048778
X080002Y-049369
X080002Y-049959
X080002Y-051731
X080002Y-052321
X080593Y-021613
X080593Y-022203
X080593Y-022794
X080593Y-024565
X080593Y-025156
X080593Y-025747
X080593Y-026337
X080593Y-026928
X080593Y-027518
X080593Y-028109
X080593Y-028699
X080593Y-029290
X080593Y-032243
X080593Y-032833
X080593Y-033424
X080593Y-034014
X080593Y-045235
X080593Y-045825
X080593Y-046416
X080593Y-047006
X080593Y-047597
X080593Y-048187
X080593Y-048778
X080593Y-049369
X080593Y-049959
X080593Y-050550
X080593Y-051140
X080593Y-051731
X080593Y-052321
X081183Y-022794
X081183Y-023384
X081183Y-023975
X081183Y-024565
X081183Y-025156
X081183Y-025747
X081183Y-026337
X081183Y-026928
X081183Y-027518
X081183Y-028109
X081183Y-028699
X081183Y-029290
X081183Y-031652
X081183Y-032243
X081183Y-032833
X081183Y-033424
X081183Y-034014
X081183Y-034605
X081183Y-035195
X081183Y-035786
X081183Y-045235
X081183Y-045825
X081183Y-046416
X081183Y-047006
X081183Y-047597
X081183Y-048187
X081183Y-048778
X081183Y-049369
X081183Y-049959
X081183Y-050550
X081183Y-051140
X081183Y-051731
X081774Y-024565
X081774Y-025156
X081774Y-025747
X081774Y-026337
X081774Y-026928
X081774Y-027518
X081774Y-028109
X081774Y-028699
X081774Y-031652
X081774Y-032243
X081774Y-032833
X081774Y-033424
X081774Y-034014
X081774Y-034605
X081774Y-035195
X081774Y-035786
X081774Y-036376
X081774Y-036967
X081774Y-037558
X081774Y-045235
X081774Y-045825
X081774Y-046416
X081774Y-047006
X081774Y-047597
X081774Y-048187
X081774Y-048778
X081774Y-049369
X081774Y-049959
X081774Y-050550
X081774Y-051140
X081774Y-051731
X082364Y-026337
X082364Y-026928
X082364Y-027518
X082364Y-028109
X082364Y-028699
X082364Y-029290
X082364Y-029880
X082364Y-031061
X082364Y-031652
X082364Y-032243
X082364Y-032833
X082364Y-033424
X082364Y-034014
X082364Y-035786
X082364Y-036376
X082364Y-036967
X082364Y-037558
X082364Y-038148
X082364Y-038739
X082364Y-039329
X082364Y-044644
X082364Y-045235
X082364Y-045825
X082364Y-048187
X082364Y-048778
X082364Y-049369
X082364Y-049959
X082364Y-050550
X082364Y-051140
X082955Y-028109
X082955Y-028699
X082955Y-029290
X082955Y-029880
X082955Y-030471
X082955Y-031061
X082955Y-031652
X082955Y-032243
X082955Y-032833
X082955Y-033424
X082955Y-034014
X082955Y-035786
X082955Y-036376
X082955Y-036967
X082955Y-037558
X082955Y-038148
X082955Y-038739
X082955Y-039329
X082955Y-039920
X082955Y-040510
X082955Y-041101
X082955Y-041691
X082955Y-044644
X082955Y-045235
X082955Y-045825
X082955Y-048187
X082955Y-048778
X082955Y-049369
X082955Y-049959
X082955Y-050550
X083546Y-031061
X083546Y-031652
X083546Y-032243
X083546Y-032833
X083546Y-033424
X083546Y-034014
X083546Y-035786
X083546Y-036376
X083546Y-036967
X083546Y-037558
X083546Y-038148
X083546Y-038739
X083546Y-039329
X083546Y-039920
X083546Y-040510
X083546Y-041101
X083546Y-041691
X083546Y-042282
X083546Y-042873
X083546Y-043463
X083546Y-044054
X083546Y-044644
X083546Y-045235
X083546Y-045825
X083546Y-046416
X083546Y-047006
X083546Y-047597
X083546Y-048187
X083546Y-048778
X083546Y-049369
X083546Y-049959
X084136Y-034605
X084136Y-035195
X084136Y-035786
X084136Y-036376
X084136Y-036967
X084136Y-037558
X084136Y-038148
X084136Y-038739
X084136Y-039329
X084136Y-039920
X084136Y-040510
X084136Y-041101
X084136Y-041691
X084136Y-042282
X084136Y-042873
X084136Y-043463
X084136Y-044054
X084136Y-044644
X084136Y-045235
X084136Y-045825
X084136Y-046416
X084136Y-047006
X084136Y-047597
X084136Y-048187
T3
X027556Y-030416
X028056Y-029550
X028422Y-030916
X028922Y-030050
X029288Y-031416
X029788Y-030550
X030154Y-031916
X030654Y-031050
X031020Y-032416
X031520Y-031550
X031886Y-032916
X032386Y-032050
X032752Y-033416
X033252Y-032550
X033618Y-033916
X034118Y-033050
X034484Y-034416
X034984Y-033550
X035350Y-034916
X035850Y-034050
X073214Y-018174
X073922Y-017467
X073922Y-018881
X074004Y-034134
X074504Y-035000
X074629Y-018174
X074629Y-019589
X074870Y-033634
X075336Y-018881
X075336Y-020296
X075370Y-034500
X075736Y-033134
X076043Y-019589
X076043Y-021003
X076236Y-034000
X076602Y-032634
X076750Y-020296
X076750Y-021710
X077102Y-033500
X077457Y-021003
X077457Y-022417
X077468Y-032134
X077968Y-033000
X078164Y-021710
X078164Y-023124
X078334Y-031634
X078834Y-032500
X078871Y-022417
X078871Y-023831
X079200Y-031134
X079578Y-023124
X079578Y-024538
X079700Y-032000
X080066Y-030634
X080286Y-023831
X080566Y-031500
X080932Y-030134
X081432Y-031000
X081798Y-029634
X082298Y-030500
T4
X038797Y-022335
X039781Y-022335
X040766Y-022335
X043219Y-024787
X043219Y-025772
X043219Y-026756
X068049Y-022984
X069033Y-022984
X070018Y-022984
X072470Y-025437
X072470Y-026421
X072470Y-027406
T5
X038502Y-028035
X038502Y-029807
X041061Y-028035
X041061Y-029807
X067754Y-028685
X067754Y-030457
X070313Y-028685
X070313Y-030457
T6
X037291Y-023803
X037291Y-027740
X042272Y-023803
X042272Y-027740
X066543Y-024453
X066543Y-028390
X071524Y-024453
X071524Y-028390
T2
G00X030313Y-024415
M15
G01X030815Y-023913
M16
G05
G00X035881Y-029982
M15
G01X036382Y-029481
M16
G05
G00X041618Y-036651
M15
G01X041973Y-037264
M16
G05
G00X048438Y-032714
M15
G01X048792Y-033327
M16
G05
T0
M30
