%TF.GenerationSoftware,KiCad,Pcbnew,(6.0.9)*%
%TF.CreationDate,2022-11-22T19:39:32+02:00*%
%TF.ProjectId,PCB,5043422e-6b69-4636-9164-5f7063625858,rev?*%
%TF.SameCoordinates,Original*%
%TF.FileFunction,Soldermask,Bot*%
%TF.FilePolarity,Negative*%
%FSLAX46Y46*%
G04 Gerber Fmt 4.6, Leading zero omitted, Abs format (unit mm)*
G04 Created by KiCad (PCBNEW (6.0.9)) date 2022-11-22 19:39:32*
%MOMM*%
%LPD*%
G01*
G04 APERTURE LIST*
G04 Aperture macros list*
%AMRoundRect*
0 Rectangle with rounded corners*
0 $1 Rounding radius*
0 $2 $3 $4 $5 $6 $7 $8 $9 X,Y pos of 4 corners*
0 Add a 4 corners polygon primitive as box body*
4,1,4,$2,$3,$4,$5,$6,$7,$8,$9,$2,$3,0*
0 Add four circle primitives for the rounded corners*
1,1,$1+$1,$2,$3*
1,1,$1+$1,$4,$5*
1,1,$1+$1,$6,$7*
1,1,$1+$1,$8,$9*
0 Add four rect primitives between the rounded corners*
20,1,$1+$1,$2,$3,$4,$5,0*
20,1,$1+$1,$4,$5,$6,$7,0*
20,1,$1+$1,$6,$7,$8,$9,0*
20,1,$1+$1,$8,$9,$2,$3,0*%
%AMHorizOval*
0 Thick line with rounded ends*
0 $1 width*
0 $2 $3 position (X,Y) of the first rounded end (center of the circle)*
0 $4 $5 position (X,Y) of the second rounded end (center of the circle)*
0 Add line between two ends*
20,1,$1,$2,$3,$4,$5,0*
0 Add two circle primitives to create the rounded ends*
1,1,$1,$2,$3*
1,1,$1,$4,$5*%
%AMRotRect*
0 Rectangle, with rotation*
0 The origin of the aperture is its center*
0 $1 length*
0 $2 width*
0 $3 Rotation angle, in degrees counterclockwise*
0 Add horizontal line*
21,1,$1,$2,0,0,$3*%
G04 Aperture macros list end*
%TA.AperFunction,Profile*%
%ADD10C,0.100000*%
%TD*%
%ADD11RotRect,1.700000X1.700000X120.000000*%
%ADD12HorizOval,1.700000X0.000000X0.000000X0.000000X0.000000X0*%
%ADD13C,2.000000*%
%ADD14C,3.000000*%
%ADD15RotRect,1.700000X1.700000X45.000000*%
%ADD16HorizOval,1.700000X0.000000X0.000000X0.000000X0.000000X0*%
%ADD17RotRect,1.700000X1.700000X240.000000*%
%ADD18HorizOval,1.700000X0.000000X0.000000X0.000000X0.000000X0*%
%ADD19RotRect,2.000000X4.000000X135.000000*%
%ADD20RoundRect,0.250000X-0.787500X-1.025000X0.787500X-1.025000X0.787500X1.025000X-0.787500X1.025000X0*%
%ADD21RoundRect,0.250000X0.250000X0.475000X-0.250000X0.475000X-0.250000X-0.475000X0.250000X-0.475000X0*%
%ADD22RoundRect,0.250000X0.475000X-0.250000X0.475000X0.250000X-0.475000X0.250000X-0.475000X-0.250000X0*%
%ADD23R,1.200000X0.400000*%
%ADD24RoundRect,0.250000X1.025000X-0.787500X1.025000X0.787500X-1.025000X0.787500X-1.025000X-0.787500X0*%
%ADD25RoundRect,0.250000X-0.159099X0.512652X-0.512652X0.159099X0.159099X-0.512652X0.512652X-0.159099X0*%
%ADD26RoundRect,0.250000X-0.250000X-0.475000X0.250000X-0.475000X0.250000X0.475000X-0.250000X0.475000X0*%
%ADD27RoundRect,0.100000X0.150000X-0.100000X0.150000X0.100000X-0.150000X0.100000X-0.150000X-0.100000X0*%
%ADD28RoundRect,0.250000X-0.262500X-0.450000X0.262500X-0.450000X0.262500X0.450000X-0.262500X0.450000X0*%
%ADD29RoundRect,0.250000X-0.475000X0.250000X-0.475000X-0.250000X0.475000X-0.250000X0.475000X0.250000X0*%
%ADD30R,0.400000X1.200000*%
%ADD31RotRect,2.000000X4.000000X30.000000*%
%ADD32RoundRect,0.250000X-0.450000X0.262500X-0.450000X-0.262500X0.450000X-0.262500X0.450000X0.262500X0*%
%ADD33R,1.219200X0.889000*%
%ADD34R,6.502400X6.731000*%
%ADD35RoundRect,0.250000X0.787500X1.025000X-0.787500X1.025000X-0.787500X-1.025000X0.787500X-1.025000X0*%
%ADD36R,1.100000X4.600000*%
%ADD37R,10.800000X9.400000*%
%ADD38RoundRect,0.250000X0.262500X0.450000X-0.262500X0.450000X-0.262500X-0.450000X0.262500X-0.450000X0*%
%ADD39R,0.850000X0.300000*%
%ADD40R,0.300000X0.850000*%
%ADD41R,2.400000X2.400000*%
G04 APERTURE END LIST*
D10*
X175615600Y-38887400D02*
X187248800Y-40665400D01*
X199390000Y-42799000D01*
X200710800Y-44831000D01*
X203250800Y-49199800D01*
X204622400Y-51892200D01*
X206857600Y-56769000D01*
X208889600Y-62204600D01*
X210515200Y-67437000D01*
X211988400Y-73025000D01*
X213360000Y-79629000D01*
X213969600Y-83235800D01*
X214731600Y-89433400D01*
X214985600Y-92532200D01*
X215138000Y-99491800D01*
X215442800Y-107365800D01*
X215392000Y-113614200D01*
X215138000Y-118237000D01*
X214680800Y-121386600D01*
X213918800Y-124739400D01*
X213004400Y-127330200D01*
X211937600Y-129311400D01*
X210769200Y-130784600D01*
X209600800Y-131800600D01*
X208127600Y-132664200D01*
X206197200Y-133375400D01*
X203047600Y-134289800D01*
X201523600Y-134594600D01*
X200558400Y-134747000D01*
X200304400Y-134696200D01*
X199948800Y-134543800D01*
X199491600Y-134035800D01*
X198780400Y-132969000D01*
X197815200Y-130987800D01*
X195986400Y-126669800D01*
X192989200Y-118541800D01*
X190398400Y-112141000D01*
X188264800Y-107670600D01*
X186639200Y-104825800D01*
X184810400Y-102133400D01*
X183083200Y-100203000D01*
X181559200Y-98983800D01*
X179679600Y-97866200D01*
X177800000Y-97256600D01*
X175666400Y-96901000D01*
X173126400Y-96901000D01*
X171450000Y-97002600D01*
X169113200Y-97510600D01*
X166522400Y-98475800D01*
X163880800Y-99796600D01*
X161036000Y-101625400D01*
X158242000Y-103962200D01*
X155346400Y-106756200D01*
X151790400Y-110769400D01*
X149758400Y-112750600D01*
X147878800Y-114071400D01*
X145897600Y-115087400D01*
X143713200Y-115747800D01*
X141325600Y-116052600D01*
X138734800Y-116052600D01*
X136398000Y-115747800D01*
X134213600Y-115087400D01*
X132181600Y-114122200D01*
X130302000Y-112750600D01*
X128320800Y-110769400D01*
X124714000Y-106807000D01*
X121818400Y-103911400D01*
X119024400Y-101676200D01*
X116230400Y-99847400D01*
X113538000Y-98475800D01*
X110998000Y-97561400D01*
X108610400Y-97053400D01*
X106934000Y-96901000D01*
X104394000Y-96901000D01*
X102311200Y-97256600D01*
X100431600Y-97866200D01*
X98552000Y-98933000D01*
X97028000Y-100203000D01*
X95250000Y-102133400D01*
X93421200Y-104775000D01*
X91795600Y-107619800D01*
X89712800Y-112141000D01*
X87122000Y-118491000D01*
X84124800Y-126568200D01*
X82346800Y-130987800D01*
X81280000Y-132969000D01*
X80568800Y-133985000D01*
X79959200Y-134543800D01*
X79552800Y-134696200D01*
X78536800Y-134594600D01*
X77063600Y-134289800D01*
X73863200Y-133375400D01*
X71882000Y-132664200D01*
X70459600Y-131800600D01*
X69291200Y-130784600D01*
X68122800Y-129260600D01*
X67056000Y-127330200D01*
X66141600Y-124790200D01*
X65379600Y-121437400D01*
X64922400Y-118237000D01*
X64668400Y-113563400D01*
X64668400Y-107365800D01*
X64973200Y-94665800D01*
X65176400Y-91059000D01*
X65633600Y-86537800D01*
X66344800Y-81457800D01*
X67310000Y-76377800D01*
X68884800Y-69824600D01*
X70307200Y-64998600D01*
X72186800Y-59461400D01*
X74269600Y-54330600D01*
X76098400Y-50520600D01*
X78079600Y-46964600D01*
X80670400Y-42799000D01*
X86360000Y-41783000D01*
X99822000Y-39547800D01*
X108762800Y-38328600D01*
X109575600Y-45745400D01*
X110083600Y-49453800D01*
X110337600Y-50469800D01*
X110794800Y-51485800D01*
X111455200Y-52501800D01*
X112369600Y-53416200D01*
X113334800Y-54076600D01*
X114858800Y-54940200D01*
X116941600Y-55651400D01*
X118973600Y-56057800D01*
X120751600Y-56261000D01*
X123342400Y-56311800D01*
X126390400Y-56159400D01*
X130606800Y-55753000D01*
X135280400Y-55397400D01*
X138836400Y-55295800D01*
X141681200Y-55295800D01*
X145491200Y-55448200D01*
X150418800Y-55854600D01*
X154076400Y-56159400D01*
X157073600Y-56261000D01*
X159715200Y-56210200D01*
X161340800Y-56007000D01*
X163271200Y-55600600D01*
X165303200Y-54838600D01*
X166370000Y-54330600D01*
X167538400Y-53517800D01*
X168605200Y-52501800D01*
X169214800Y-51587400D01*
X169621200Y-50571400D01*
X169976800Y-49453800D01*
X170332400Y-46710600D01*
X171145200Y-40360600D01*
X171297600Y-38328600D01*
X175615600Y-38887400D01*
X79886044Y-128933444D02*
G75*
G03*
X79886044Y-128933444I-1273044J0D01*
G01*
X177523644Y-53927244D02*
G75*
G03*
X177523644Y-53927244I-1273044J0D01*
G01*
X133073644Y-79606644D02*
G75*
G03*
X133073644Y-79606644I-1273044J0D01*
G01*
X202822044Y-128908044D02*
G75*
G03*
X202822044Y-128908044I-1273044J0D01*
G01*
X76758800Y-87553800D02*
X90627200Y-91770200D01*
X91033600Y-91973400D01*
X91236800Y-92227400D01*
X91287600Y-92481400D01*
X91338400Y-92684600D01*
X91338400Y-93040200D01*
X84480400Y-115392200D01*
X84429600Y-115544600D01*
X84277200Y-115798600D01*
X84023200Y-116001800D01*
X83667600Y-116103400D01*
X83261200Y-116103400D01*
X69392800Y-111836200D01*
X69138800Y-111683800D01*
X68986400Y-111531400D01*
X68783200Y-111277400D01*
X68681600Y-111023400D01*
X68681600Y-110566200D01*
X75539600Y-88214200D01*
X75590400Y-88011000D01*
X75742800Y-87858600D01*
X76047600Y-87655400D01*
X76403200Y-87503000D01*
X76758800Y-87553800D01*
X149659844Y-79606644D02*
G75*
G03*
X149659844Y-79606644I-1273044J0D01*
G01*
X203962000Y-87604600D02*
X204114400Y-87655400D01*
X204266800Y-87858600D01*
X204368400Y-88011000D01*
X204520800Y-88214200D01*
X211277200Y-110363000D01*
X211328000Y-110566200D01*
X211378800Y-110871000D01*
X211328000Y-111175800D01*
X211226400Y-111429800D01*
X211023200Y-111633000D01*
X210667600Y-111836200D01*
X196850000Y-116052600D01*
X196697600Y-116103400D01*
X196392800Y-116103400D01*
X195884800Y-115900200D01*
X195681600Y-115646200D01*
X195529200Y-115392200D01*
X188722000Y-93091000D01*
X188671200Y-92735400D01*
X188772800Y-92329000D01*
X188874400Y-92176600D01*
X189179200Y-91871800D01*
X189382400Y-91770200D01*
X203250800Y-87553800D01*
X203708000Y-87553800D01*
X203962000Y-87604600D01*
X211000844Y-119383044D02*
G75*
G03*
X211000844Y-119383044I-1273044J0D01*
G01*
X105209844Y-53927244D02*
G75*
G03*
X105209844Y-53927244I-1273044J0D01*
G01*
X71732644Y-119383044D02*
G75*
G03*
X71732644Y-119383044I-1273044J0D01*
G01*
X175615600Y-38887400D02*
X187248800Y-40665400D01*
X199390000Y-42799000D01*
X200710800Y-44831000D01*
X203250800Y-49199800D01*
X204622400Y-51892200D01*
X206857600Y-56769000D01*
X208889600Y-62204600D01*
X210515200Y-67437000D01*
X211988400Y-73025000D01*
X213360000Y-79629000D01*
X213969600Y-83235800D01*
X214731600Y-89433400D01*
X214985600Y-92532200D01*
X215138000Y-99491800D01*
X215442800Y-107365800D01*
X215392000Y-113614200D01*
X215138000Y-118237000D01*
X214680800Y-121386600D01*
X213918800Y-124739400D01*
X213004400Y-127330200D01*
X211937600Y-129311400D01*
X210769200Y-130784600D01*
X209600800Y-131800600D01*
X208127600Y-132664200D01*
X206197200Y-133375400D01*
X203047600Y-134289800D01*
X201523600Y-134594600D01*
X200558400Y-134747000D01*
X200304400Y-134696200D01*
X199948800Y-134543800D01*
X199491600Y-134035800D01*
X198780400Y-132969000D01*
X197815200Y-130987800D01*
X195986400Y-126669800D01*
X192989200Y-118541800D01*
X190398400Y-112141000D01*
X188264800Y-107670600D01*
X186639200Y-104825800D01*
X184810400Y-102133400D01*
X183083200Y-100203000D01*
X181559200Y-98983800D01*
X179679600Y-97866200D01*
X177800000Y-97256600D01*
X175666400Y-96901000D01*
X173126400Y-96901000D01*
X171450000Y-97002600D01*
X169113200Y-97510600D01*
X166522400Y-98475800D01*
X163880800Y-99796600D01*
X161036000Y-101625400D01*
X158242000Y-103962200D01*
X155346400Y-106756200D01*
X151790400Y-110769400D01*
X149758400Y-112750600D01*
X147878800Y-114071400D01*
X145897600Y-115087400D01*
X143713200Y-115747800D01*
X141325600Y-116052600D01*
X138734800Y-116052600D01*
X136398000Y-115747800D01*
X134213600Y-115087400D01*
X132181600Y-114122200D01*
X130302000Y-112750600D01*
X128320800Y-110769400D01*
X124714000Y-106807000D01*
X121818400Y-103911400D01*
X119024400Y-101676200D01*
X116230400Y-99847400D01*
X113538000Y-98475800D01*
X110998000Y-97561400D01*
X108610400Y-97053400D01*
X106934000Y-96901000D01*
X104394000Y-96901000D01*
X102311200Y-97256600D01*
X100431600Y-97866200D01*
X98552000Y-98933000D01*
X97028000Y-100203000D01*
X95250000Y-102133400D01*
X93421200Y-104775000D01*
X91795600Y-107619800D01*
X89712800Y-112141000D01*
X87122000Y-118491000D01*
X84124800Y-126568200D01*
X82346800Y-130987800D01*
X81280000Y-132969000D01*
X80568800Y-133985000D01*
X79959200Y-134543800D01*
X79552800Y-134696200D01*
X78536800Y-134594600D01*
X77063600Y-134289800D01*
X73863200Y-133375400D01*
X71882000Y-132664200D01*
X70459600Y-131800600D01*
X69291200Y-130784600D01*
X68122800Y-129260600D01*
X67056000Y-127330200D01*
X66141600Y-124790200D01*
X65379600Y-121437400D01*
X64922400Y-118237000D01*
X64668400Y-113563400D01*
X64668400Y-107365800D01*
X64973200Y-94665800D01*
X65176400Y-91059000D01*
X65633600Y-86537800D01*
X66344800Y-81457800D01*
X67310000Y-76377800D01*
X68884800Y-69824600D01*
X70307200Y-64998600D01*
X72186800Y-59461400D01*
X74269600Y-54330600D01*
X76098400Y-50520600D01*
X78079600Y-46964600D01*
X80670400Y-42799000D01*
X86360000Y-41783000D01*
X99822000Y-39547800D01*
X108762800Y-38328600D01*
X109575600Y-45745400D01*
X110083600Y-49453800D01*
X110337600Y-50469800D01*
X110794800Y-51485800D01*
X111455200Y-52501800D01*
X112369600Y-53416200D01*
X113334800Y-54076600D01*
X114858800Y-54940200D01*
X116941600Y-55651400D01*
X118973600Y-56057800D01*
X120751600Y-56261000D01*
X123342400Y-56311800D01*
X126390400Y-56159400D01*
X130606800Y-55753000D01*
X135280400Y-55397400D01*
X138836400Y-55295800D01*
X141681200Y-55295800D01*
X145491200Y-55448200D01*
X150418800Y-55854600D01*
X154076400Y-56159400D01*
X157073600Y-56261000D01*
X159715200Y-56210200D01*
X161340800Y-56007000D01*
X163271200Y-55600600D01*
X165303200Y-54838600D01*
X166370000Y-54330600D01*
X167538400Y-53517800D01*
X168605200Y-52501800D01*
X169214800Y-51587400D01*
X169621200Y-50571400D01*
X169976800Y-49453800D01*
X170332400Y-46710600D01*
X171145200Y-40360600D01*
X171297600Y-38328600D01*
X175615600Y-38887400D01*
X79886044Y-128933444D02*
G75*
G03*
X79886044Y-128933444I-1273044J0D01*
G01*
X177523644Y-53927244D02*
G75*
G03*
X177523644Y-53927244I-1273044J0D01*
G01*
X133073644Y-79606644D02*
G75*
G03*
X133073644Y-79606644I-1273044J0D01*
G01*
X202822044Y-128908044D02*
G75*
G03*
X202822044Y-128908044I-1273044J0D01*
G01*
X76758800Y-87553800D02*
X90627200Y-91770200D01*
X91033600Y-91973400D01*
X91236800Y-92227400D01*
X91287600Y-92481400D01*
X91338400Y-92684600D01*
X91338400Y-93040200D01*
X84480400Y-115392200D01*
X84429600Y-115544600D01*
X84277200Y-115798600D01*
X84023200Y-116001800D01*
X83667600Y-116103400D01*
X83261200Y-116103400D01*
X69392800Y-111836200D01*
X69138800Y-111683800D01*
X68986400Y-111531400D01*
X68783200Y-111277400D01*
X68681600Y-111023400D01*
X68681600Y-110566200D01*
X75539600Y-88214200D01*
X75590400Y-88011000D01*
X75742800Y-87858600D01*
X76047600Y-87655400D01*
X76403200Y-87503000D01*
X76758800Y-87553800D01*
X149659844Y-79606644D02*
G75*
G03*
X149659844Y-79606644I-1273044J0D01*
G01*
X203962000Y-87604600D02*
X204114400Y-87655400D01*
X204266800Y-87858600D01*
X204368400Y-88011000D01*
X204520800Y-88214200D01*
X211277200Y-110363000D01*
X211328000Y-110566200D01*
X211378800Y-110871000D01*
X211328000Y-111175800D01*
X211226400Y-111429800D01*
X211023200Y-111633000D01*
X210667600Y-111836200D01*
X196850000Y-116052600D01*
X196697600Y-116103400D01*
X196392800Y-116103400D01*
X195884800Y-115900200D01*
X195681600Y-115646200D01*
X195529200Y-115392200D01*
X188722000Y-93091000D01*
X188671200Y-92735400D01*
X188772800Y-92329000D01*
X188874400Y-92176600D01*
X189179200Y-91871800D01*
X189382400Y-91770200D01*
X203250800Y-87553800D01*
X203708000Y-87553800D01*
X203962000Y-87604600D01*
X211000844Y-119383044D02*
G75*
G03*
X211000844Y-119383044I-1273044J0D01*
G01*
X105209844Y-53927244D02*
G75*
G03*
X105209844Y-53927244I-1273044J0D01*
G01*
X71732644Y-119383044D02*
G75*
G03*
X71732644Y-119383044I-1273044J0D01*
G01*
D11*
%TO.C,J2*%
X189239773Y-88900000D03*
D12*
X187969773Y-86700295D03*
X191439478Y-87630000D03*
X190169478Y-85430295D03*
X193639182Y-86360000D03*
X192369182Y-84160295D03*
X195838887Y-85090000D03*
X194568887Y-82890295D03*
X198038591Y-83820000D03*
X196768591Y-81620295D03*
X200238296Y-82550000D03*
X198968296Y-80350295D03*
X202438000Y-81280000D03*
X201168000Y-79080295D03*
X204637705Y-80010000D03*
X203367705Y-77810295D03*
X206837409Y-78740000D03*
X205567409Y-76540295D03*
X209037114Y-77470000D03*
X207767114Y-75270295D03*
%TD*%
D13*
%TO.C,U6*%
X103545000Y-56730000D03*
X109775000Y-67960000D03*
X101045000Y-56730000D03*
X109775000Y-65460000D03*
X98545000Y-56730000D03*
X109775000Y-62960000D03*
D14*
X94720000Y-60460000D03*
X107370000Y-60460000D03*
X107370000Y-70460000D03*
X94720000Y-70460000D03*
D13*
X97795000Y-71210000D03*
X104295000Y-71210000D03*
X97795000Y-75710000D03*
X104295000Y-75710000D03*
%TD*%
D15*
%TO.C,J1*%
X185964744Y-46162867D03*
D16*
X187760795Y-44366816D03*
X187760795Y-47958918D03*
X189556846Y-46162867D03*
X189556846Y-49754969D03*
X191352898Y-47958918D03*
X191352898Y-51551021D03*
X193148949Y-49754969D03*
X193148949Y-53347072D03*
X194945000Y-51551021D03*
X194945000Y-55143123D03*
X196741051Y-53347072D03*
X196741051Y-56939174D03*
X198537103Y-55143123D03*
X198537103Y-58735226D03*
X200333154Y-56939174D03*
X200333154Y-60531277D03*
X202129205Y-58735226D03*
X202129205Y-62327328D03*
X203925256Y-60531277D03*
%TD*%
D13*
%TO.C,U7*%
X177845000Y-58380000D03*
X184075000Y-69610000D03*
X175345000Y-58380000D03*
X184075000Y-67110000D03*
X172845000Y-58380000D03*
X184075000Y-64610000D03*
D14*
X181670000Y-62110000D03*
X169020000Y-62110000D03*
X181670000Y-72110000D03*
X169020000Y-72110000D03*
D13*
X172095000Y-72860000D03*
X178595000Y-72860000D03*
X172095000Y-77360000D03*
X178595000Y-77360000D03*
%TD*%
D17*
%TO.C,J3*%
X91059000Y-86487000D03*
D18*
X89789000Y-88686705D03*
X88859295Y-85217000D03*
X87589295Y-87416705D03*
X86659591Y-83947000D03*
X85389591Y-86146705D03*
X84459886Y-82677000D03*
X83189886Y-84876705D03*
X82260182Y-81407000D03*
X80990182Y-83606705D03*
X80060477Y-80137000D03*
X78790477Y-82336705D03*
X77860773Y-78867000D03*
X76590773Y-81066705D03*
X75661068Y-77597000D03*
X74391068Y-79796705D03*
X73461364Y-76327000D03*
X72191364Y-78526705D03*
X71261659Y-75057000D03*
X69991659Y-77256705D03*
%TD*%
D19*
%TO.C,BT2*%
X91774812Y-75518812D03*
X77632676Y-61376676D03*
%TD*%
D20*
%TO.C,C26*%
X132396500Y-83693000D03*
X138621500Y-83693000D03*
%TD*%
D21*
%TO.C,C13*%
X155509000Y-65735200D03*
X153609000Y-65735200D03*
%TD*%
D22*
%TO.C,C47*%
X130048000Y-84770000D03*
X130048000Y-82870000D03*
%TD*%
D23*
%TO.C,IC7*%
X144211000Y-100091000D03*
X144211000Y-99441000D03*
X144211000Y-98791000D03*
X146111000Y-98791000D03*
X146111000Y-100091000D03*
%TD*%
D24*
%TO.C,C31*%
X144703800Y-96051100D03*
X144703800Y-89826100D03*
%TD*%
D22*
%TO.C,C39*%
X139014200Y-98613000D03*
X139014200Y-96713000D03*
%TD*%
D25*
%TO.C,C19*%
X128089502Y-94033498D03*
X126746000Y-95377000D03*
%TD*%
D26*
%TO.C,C37*%
X152313600Y-102158800D03*
X154213600Y-102158800D03*
%TD*%
%TO.C,C63*%
X141036000Y-108204000D03*
X142936000Y-108204000D03*
%TD*%
D20*
%TO.C,C9*%
X131075700Y-73533000D03*
X137300700Y-73533000D03*
%TD*%
D21*
%TO.C,C59*%
X147254000Y-106807000D03*
X145354000Y-106807000D03*
%TD*%
D27*
%TO.C,R8*%
X132842000Y-98298000D03*
X132042000Y-98298000D03*
X131242000Y-98298000D03*
X130442000Y-98298000D03*
X129642000Y-98298000D03*
X128842000Y-98298000D03*
X128042000Y-98298000D03*
X127242000Y-98298000D03*
X127242000Y-97098000D03*
X128042000Y-97098000D03*
X128842000Y-97098000D03*
X129642000Y-97098000D03*
X130442000Y-97098000D03*
X131242000Y-97098000D03*
X132042000Y-97098000D03*
X132842000Y-97098000D03*
%TD*%
D21*
%TO.C,C67*%
X142489000Y-105029000D03*
X140589000Y-105029000D03*
%TD*%
D28*
%TO.C,R23*%
X145899500Y-112014000D03*
X147724500Y-112014000D03*
%TD*%
D29*
%TO.C,C56*%
X164084000Y-85791000D03*
X164084000Y-87691000D03*
%TD*%
D26*
%TO.C,C8*%
X130545800Y-69951600D03*
X132445800Y-69951600D03*
%TD*%
%TO.C,C28*%
X148833800Y-102158800D03*
X150733800Y-102158800D03*
%TD*%
D22*
%TO.C,C27*%
X141071600Y-96606400D03*
X141071600Y-94706400D03*
%TD*%
D30*
%TO.C,IC13*%
X104455200Y-85943400D03*
X105105200Y-85943400D03*
X105755200Y-85943400D03*
X105755200Y-87843400D03*
X104455200Y-87843400D03*
%TD*%
D22*
%TO.C,C36*%
X156362400Y-98384400D03*
X156362400Y-96484400D03*
%TD*%
D31*
%TO.C,BT1*%
X106160841Y-93872000D03*
X123481349Y-83872000D03*
%TD*%
D26*
%TO.C,C53*%
X136972000Y-106172000D03*
X138872000Y-106172000D03*
%TD*%
D21*
%TO.C,C14*%
X151292600Y-68122800D03*
X149392600Y-68122800D03*
%TD*%
D32*
%TO.C,R19*%
X165481000Y-75541500D03*
X165481000Y-77366500D03*
%TD*%
D22*
%TO.C,C65*%
X102793800Y-87868800D03*
X102793800Y-85968800D03*
%TD*%
D33*
%TO.C,IC1*%
X128778000Y-68300600D03*
D34*
X122123200Y-70586600D03*
D33*
X128778000Y-72872600D03*
%TD*%
D35*
%TO.C,C21*%
X102426500Y-91059000D03*
X96201500Y-91059000D03*
%TD*%
D29*
%TO.C,C7*%
X128600200Y-74767400D03*
X128600200Y-76667400D03*
%TD*%
%TO.C,C29*%
X156540200Y-92750600D03*
X156540200Y-94650600D03*
%TD*%
D22*
%TO.C,C69*%
X122021600Y-65313600D03*
X122021600Y-63413600D03*
%TD*%
D26*
%TO.C,C45*%
X149733000Y-106934000D03*
X151633000Y-106934000D03*
%TD*%
D21*
%TO.C,C60*%
X150109000Y-109601000D03*
X148209000Y-109601000D03*
%TD*%
%TO.C,C35*%
X153934200Y-85344000D03*
X152034200Y-85344000D03*
%TD*%
D26*
%TO.C,C34*%
X146954200Y-86588600D03*
X148854200Y-86588600D03*
%TD*%
D23*
%TO.C,IC14*%
X133289000Y-105425000D03*
X133289000Y-104775000D03*
X133289000Y-104125000D03*
X135189000Y-104125000D03*
X135189000Y-105425000D03*
%TD*%
D36*
%TO.C,U3*%
X155302000Y-69501800D03*
D37*
X157842000Y-78651800D03*
D36*
X157842000Y-69501800D03*
X160382000Y-69501800D03*
%TD*%
D26*
%TO.C,C30*%
X151602400Y-87833200D03*
X153502400Y-87833200D03*
%TD*%
D21*
%TO.C,C38*%
X142529600Y-102108000D03*
X140629600Y-102108000D03*
%TD*%
D32*
%TO.C,R16*%
X115824000Y-70842500D03*
X115824000Y-72667500D03*
%TD*%
D29*
%TO.C,C20*%
X135890000Y-92903000D03*
X135890000Y-94803000D03*
%TD*%
D22*
%TO.C,C52*%
X142113000Y-100137000D03*
X142113000Y-98237000D03*
%TD*%
D38*
%TO.C,R18*%
X111426000Y-76200000D03*
X109601000Y-76200000D03*
%TD*%
D22*
%TO.C,C33*%
X154051000Y-91882000D03*
X154051000Y-89982000D03*
%TD*%
D21*
%TO.C,C62*%
X132842000Y-109728000D03*
X130942000Y-109728000D03*
%TD*%
D35*
%TO.C,C15*%
X150635700Y-71628000D03*
X144410700Y-71628000D03*
%TD*%
D39*
%TO.C,AC1*%
X133979200Y-90520200D03*
X133979200Y-91020200D03*
X133979200Y-91520200D03*
X133979200Y-92020200D03*
X133979200Y-92520200D03*
X133979200Y-93020200D03*
D40*
X133279200Y-93720200D03*
X132779200Y-93720200D03*
X132279200Y-93720200D03*
X131779200Y-93720200D03*
X131279200Y-93720200D03*
X130779200Y-93720200D03*
D39*
X130079200Y-93020200D03*
X130079200Y-92520200D03*
X130079200Y-92020200D03*
X130079200Y-91520200D03*
X130079200Y-91020200D03*
X130079200Y-90520200D03*
D40*
X130779200Y-89820200D03*
X131279200Y-89820200D03*
X131779200Y-89820200D03*
X132279200Y-89820200D03*
X132779200Y-89820200D03*
X133279200Y-89820200D03*
D41*
X132029200Y-91770200D03*
%TD*%
D21*
%TO.C,C57*%
X167574000Y-89535000D03*
X165674000Y-89535000D03*
%TD*%
D24*
%TO.C,C43*%
X150444200Y-97727500D03*
X150444200Y-91502500D03*
%TD*%
D38*
%TO.C,R32*%
X172159300Y-80721200D03*
X170334300Y-80721200D03*
%TD*%
G36*
X132631090Y-93297522D02*
G01*
X132631200Y-93298176D01*
X132631200Y-94142311D01*
X132630200Y-94144043D01*
X132628089Y-94143974D01*
X132621135Y-94139328D01*
X132620963Y-94139200D01*
X132578256Y-94103509D01*
X132509541Y-94094876D01*
X132446910Y-94124840D01*
X132430711Y-94143534D01*
X132428821Y-94144188D01*
X132427310Y-94142878D01*
X132427200Y-94142224D01*
X132427200Y-93298089D01*
X132428200Y-93296357D01*
X132430311Y-93296426D01*
X132437265Y-93301072D01*
X132437437Y-93301200D01*
X132480144Y-93336891D01*
X132548859Y-93345524D01*
X132611490Y-93315560D01*
X132627689Y-93296866D01*
X132629579Y-93296212D01*
X132631090Y-93297522D01*
G37*
G36*
X133131090Y-93297522D02*
G01*
X133131200Y-93298176D01*
X133131200Y-94142311D01*
X133130200Y-94144043D01*
X133128089Y-94143974D01*
X133121135Y-94139328D01*
X133120963Y-94139200D01*
X133078256Y-94103509D01*
X133009541Y-94094876D01*
X132946910Y-94124840D01*
X132930711Y-94143534D01*
X132928821Y-94144188D01*
X132927310Y-94142878D01*
X132927200Y-94142224D01*
X132927200Y-93298089D01*
X132928200Y-93296357D01*
X132930311Y-93296426D01*
X132937265Y-93301072D01*
X132937437Y-93301200D01*
X132980144Y-93336891D01*
X133048859Y-93345524D01*
X133111490Y-93315560D01*
X133127689Y-93296866D01*
X133129579Y-93296212D01*
X133131090Y-93297522D01*
G37*
G36*
X131131090Y-93297522D02*
G01*
X131131200Y-93298176D01*
X131131200Y-94142311D01*
X131130200Y-94144043D01*
X131128089Y-94143974D01*
X131121135Y-94139328D01*
X131120963Y-94139200D01*
X131078256Y-94103509D01*
X131009541Y-94094876D01*
X130946910Y-94124840D01*
X130930711Y-94143534D01*
X130928821Y-94144188D01*
X130927310Y-94142878D01*
X130927200Y-94142224D01*
X130927200Y-93298089D01*
X130928200Y-93296357D01*
X130930311Y-93296426D01*
X130937265Y-93301072D01*
X130937437Y-93301200D01*
X130980144Y-93336891D01*
X131048859Y-93345524D01*
X131111490Y-93315560D01*
X131127689Y-93296866D01*
X131129579Y-93296212D01*
X131131090Y-93297522D01*
G37*
G36*
X131631090Y-93297522D02*
G01*
X131631200Y-93298176D01*
X131631200Y-94142311D01*
X131630200Y-94144043D01*
X131628089Y-94143974D01*
X131621135Y-94139328D01*
X131620963Y-94139200D01*
X131578256Y-94103509D01*
X131509541Y-94094876D01*
X131446910Y-94124840D01*
X131430711Y-94143534D01*
X131428821Y-94144188D01*
X131427310Y-94142878D01*
X131427200Y-94142224D01*
X131427200Y-93298089D01*
X131428200Y-93296357D01*
X131430311Y-93296426D01*
X131437265Y-93301072D01*
X131437437Y-93301200D01*
X131480144Y-93336891D01*
X131548859Y-93345524D01*
X131611490Y-93315560D01*
X131627689Y-93296866D01*
X131629579Y-93296212D01*
X131631090Y-93297522D01*
G37*
G36*
X132131090Y-93297522D02*
G01*
X132131200Y-93298176D01*
X132131200Y-94142311D01*
X132130200Y-94144043D01*
X132128089Y-94143974D01*
X132121135Y-94139328D01*
X132120963Y-94139200D01*
X132078256Y-94103509D01*
X132009541Y-94094876D01*
X131946910Y-94124840D01*
X131930711Y-94143534D01*
X131928821Y-94144188D01*
X131927310Y-94142878D01*
X131927200Y-94142224D01*
X131927200Y-93298089D01*
X131928200Y-93296357D01*
X131930311Y-93296426D01*
X131937265Y-93301072D01*
X131937437Y-93301200D01*
X131980144Y-93336891D01*
X132048859Y-93345524D01*
X132111490Y-93315560D01*
X132127689Y-93296866D01*
X132129579Y-93296212D01*
X132131090Y-93297522D01*
G37*
G36*
X134403043Y-92669200D02*
G01*
X134402974Y-92671311D01*
X134398328Y-92678265D01*
X134398200Y-92678437D01*
X134362509Y-92721144D01*
X134353876Y-92789859D01*
X134383840Y-92852490D01*
X134402534Y-92868689D01*
X134403188Y-92870579D01*
X134401878Y-92872090D01*
X134401224Y-92872200D01*
X133557089Y-92872200D01*
X133555357Y-92871200D01*
X133555426Y-92869089D01*
X133560072Y-92862135D01*
X133560200Y-92861963D01*
X133595891Y-92819256D01*
X133604524Y-92750541D01*
X133574560Y-92687910D01*
X133555866Y-92671711D01*
X133555212Y-92669821D01*
X133556522Y-92668310D01*
X133557176Y-92668200D01*
X134401311Y-92668200D01*
X134403043Y-92669200D01*
G37*
G36*
X130503043Y-92669200D02*
G01*
X130502974Y-92671311D01*
X130498328Y-92678265D01*
X130498200Y-92678437D01*
X130462509Y-92721144D01*
X130453876Y-92789859D01*
X130483840Y-92852490D01*
X130502534Y-92868689D01*
X130503188Y-92870579D01*
X130501878Y-92872090D01*
X130501224Y-92872200D01*
X129657089Y-92872200D01*
X129655357Y-92871200D01*
X129655426Y-92869089D01*
X129660072Y-92862135D01*
X129660200Y-92861963D01*
X129695891Y-92819256D01*
X129704524Y-92750541D01*
X129674560Y-92687910D01*
X129655866Y-92671711D01*
X129655212Y-92669821D01*
X129656522Y-92668310D01*
X129657176Y-92668200D01*
X130501311Y-92668200D01*
X130503043Y-92669200D01*
G37*
G36*
X134403043Y-92169200D02*
G01*
X134402974Y-92171311D01*
X134398328Y-92178265D01*
X134398200Y-92178437D01*
X134362509Y-92221144D01*
X134353876Y-92289859D01*
X134383840Y-92352490D01*
X134402534Y-92368689D01*
X134403188Y-92370579D01*
X134401878Y-92372090D01*
X134401224Y-92372200D01*
X133557089Y-92372200D01*
X133555357Y-92371200D01*
X133555426Y-92369089D01*
X133560072Y-92362135D01*
X133560200Y-92361963D01*
X133595891Y-92319256D01*
X133604524Y-92250541D01*
X133574560Y-92187910D01*
X133555866Y-92171711D01*
X133555212Y-92169821D01*
X133556522Y-92168310D01*
X133557176Y-92168200D01*
X134401311Y-92168200D01*
X134403043Y-92169200D01*
G37*
G36*
X130503043Y-92169200D02*
G01*
X130502974Y-92171311D01*
X130498328Y-92178265D01*
X130498200Y-92178437D01*
X130462509Y-92221144D01*
X130453876Y-92289859D01*
X130483840Y-92352490D01*
X130502534Y-92368689D01*
X130503188Y-92370579D01*
X130501878Y-92372090D01*
X130501224Y-92372200D01*
X129657089Y-92372200D01*
X129655357Y-92371200D01*
X129655426Y-92369089D01*
X129660072Y-92362135D01*
X129660200Y-92361963D01*
X129695891Y-92319256D01*
X129704524Y-92250541D01*
X129674560Y-92187910D01*
X129655866Y-92171711D01*
X129655212Y-92169821D01*
X129656522Y-92168310D01*
X129657176Y-92168200D01*
X130501311Y-92168200D01*
X130503043Y-92169200D01*
G37*
G36*
X134403043Y-91669200D02*
G01*
X134402974Y-91671311D01*
X134398328Y-91678265D01*
X134398200Y-91678437D01*
X134362509Y-91721144D01*
X134353876Y-91789859D01*
X134383840Y-91852490D01*
X134402534Y-91868689D01*
X134403188Y-91870579D01*
X134401878Y-91872090D01*
X134401224Y-91872200D01*
X133557089Y-91872200D01*
X133555357Y-91871200D01*
X133555426Y-91869089D01*
X133560072Y-91862135D01*
X133560200Y-91861963D01*
X133595891Y-91819256D01*
X133604524Y-91750541D01*
X133574560Y-91687910D01*
X133555866Y-91671711D01*
X133555212Y-91669821D01*
X133556522Y-91668310D01*
X133557176Y-91668200D01*
X134401311Y-91668200D01*
X134403043Y-91669200D01*
G37*
G36*
X130503043Y-91669200D02*
G01*
X130502974Y-91671311D01*
X130498328Y-91678265D01*
X130498200Y-91678437D01*
X130462509Y-91721144D01*
X130453876Y-91789859D01*
X130483840Y-91852490D01*
X130502534Y-91868689D01*
X130503188Y-91870579D01*
X130501878Y-91872090D01*
X130501224Y-91872200D01*
X129657089Y-91872200D01*
X129655357Y-91871200D01*
X129655426Y-91869089D01*
X129660072Y-91862135D01*
X129660200Y-91861963D01*
X129695891Y-91819256D01*
X129704524Y-91750541D01*
X129674560Y-91687910D01*
X129655866Y-91671711D01*
X129655212Y-91669821D01*
X129656522Y-91668310D01*
X129657176Y-91668200D01*
X130501311Y-91668200D01*
X130503043Y-91669200D01*
G37*
G36*
X134403043Y-91169200D02*
G01*
X134402974Y-91171311D01*
X134398328Y-91178265D01*
X134398200Y-91178437D01*
X134362509Y-91221144D01*
X134353876Y-91289859D01*
X134383840Y-91352490D01*
X134402534Y-91368689D01*
X134403188Y-91370579D01*
X134401878Y-91372090D01*
X134401224Y-91372200D01*
X133557089Y-91372200D01*
X133555357Y-91371200D01*
X133555426Y-91369089D01*
X133560072Y-91362135D01*
X133560200Y-91361963D01*
X133595891Y-91319256D01*
X133604524Y-91250541D01*
X133574560Y-91187910D01*
X133555866Y-91171711D01*
X133555212Y-91169821D01*
X133556522Y-91168310D01*
X133557176Y-91168200D01*
X134401311Y-91168200D01*
X134403043Y-91169200D01*
G37*
G36*
X130503043Y-91169200D02*
G01*
X130502974Y-91171311D01*
X130498328Y-91178265D01*
X130498200Y-91178437D01*
X130462509Y-91221144D01*
X130453876Y-91289859D01*
X130483840Y-91352490D01*
X130502534Y-91368689D01*
X130503188Y-91370579D01*
X130501878Y-91372090D01*
X130501224Y-91372200D01*
X129657089Y-91372200D01*
X129655357Y-91371200D01*
X129655426Y-91369089D01*
X129660072Y-91362135D01*
X129660200Y-91361963D01*
X129695891Y-91319256D01*
X129704524Y-91250541D01*
X129674560Y-91187910D01*
X129655866Y-91171711D01*
X129655212Y-91169821D01*
X129656522Y-91168310D01*
X129657176Y-91168200D01*
X130501311Y-91168200D01*
X130503043Y-91169200D01*
G37*
G36*
X134403043Y-90669200D02*
G01*
X134402974Y-90671311D01*
X134398328Y-90678265D01*
X134398200Y-90678437D01*
X134362509Y-90721144D01*
X134353876Y-90789859D01*
X134383840Y-90852490D01*
X134402534Y-90868689D01*
X134403188Y-90870579D01*
X134401878Y-90872090D01*
X134401224Y-90872200D01*
X133557089Y-90872200D01*
X133555357Y-90871200D01*
X133555426Y-90869089D01*
X133560072Y-90862135D01*
X133560200Y-90861963D01*
X133595891Y-90819256D01*
X133604524Y-90750541D01*
X133574560Y-90687910D01*
X133555866Y-90671711D01*
X133555212Y-90669821D01*
X133556522Y-90668310D01*
X133557176Y-90668200D01*
X134401311Y-90668200D01*
X134403043Y-90669200D01*
G37*
G36*
X130503043Y-90669200D02*
G01*
X130502974Y-90671311D01*
X130498328Y-90678265D01*
X130498200Y-90678437D01*
X130462509Y-90721144D01*
X130453876Y-90789859D01*
X130483840Y-90852490D01*
X130502534Y-90868689D01*
X130503188Y-90870579D01*
X130501878Y-90872090D01*
X130501224Y-90872200D01*
X129657089Y-90872200D01*
X129655357Y-90871200D01*
X129655426Y-90869089D01*
X129660072Y-90862135D01*
X129660200Y-90861963D01*
X129695891Y-90819256D01*
X129704524Y-90750541D01*
X129674560Y-90687910D01*
X129655866Y-90671711D01*
X129655212Y-90669821D01*
X129656522Y-90668310D01*
X129657176Y-90668200D01*
X130501311Y-90668200D01*
X130503043Y-90669200D01*
G37*
G36*
X131131090Y-89397522D02*
G01*
X131131200Y-89398176D01*
X131131200Y-90242311D01*
X131130200Y-90244043D01*
X131128089Y-90243974D01*
X131121135Y-90239328D01*
X131120963Y-90239200D01*
X131078256Y-90203509D01*
X131009541Y-90194876D01*
X130946910Y-90224840D01*
X130930711Y-90243534D01*
X130928821Y-90244188D01*
X130927310Y-90242878D01*
X130927200Y-90242224D01*
X130927200Y-89398089D01*
X130928200Y-89396357D01*
X130930311Y-89396426D01*
X130937265Y-89401072D01*
X130937437Y-89401200D01*
X130980144Y-89436891D01*
X131048859Y-89445524D01*
X131111490Y-89415560D01*
X131127689Y-89396866D01*
X131129579Y-89396212D01*
X131131090Y-89397522D01*
G37*
G36*
X131631090Y-89397522D02*
G01*
X131631200Y-89398176D01*
X131631200Y-90242311D01*
X131630200Y-90244043D01*
X131628089Y-90243974D01*
X131621135Y-90239328D01*
X131620963Y-90239200D01*
X131578256Y-90203509D01*
X131509541Y-90194876D01*
X131446910Y-90224840D01*
X131430711Y-90243534D01*
X131428821Y-90244188D01*
X131427310Y-90242878D01*
X131427200Y-90242224D01*
X131427200Y-89398089D01*
X131428200Y-89396357D01*
X131430311Y-89396426D01*
X131437265Y-89401072D01*
X131437437Y-89401200D01*
X131480144Y-89436891D01*
X131548859Y-89445524D01*
X131611490Y-89415560D01*
X131627689Y-89396866D01*
X131629579Y-89396212D01*
X131631090Y-89397522D01*
G37*
G36*
X132631090Y-89397522D02*
G01*
X132631200Y-89398176D01*
X132631200Y-90242311D01*
X132630200Y-90244043D01*
X132628089Y-90243974D01*
X132621135Y-90239328D01*
X132620963Y-90239200D01*
X132578256Y-90203509D01*
X132509541Y-90194876D01*
X132446910Y-90224840D01*
X132430711Y-90243534D01*
X132428821Y-90244188D01*
X132427310Y-90242878D01*
X132427200Y-90242224D01*
X132427200Y-89398089D01*
X132428200Y-89396357D01*
X132430311Y-89396426D01*
X132437265Y-89401072D01*
X132437437Y-89401200D01*
X132480144Y-89436891D01*
X132548859Y-89445524D01*
X132611490Y-89415560D01*
X132627689Y-89396866D01*
X132629579Y-89396212D01*
X132631090Y-89397522D01*
G37*
G36*
X132131090Y-89397522D02*
G01*
X132131200Y-89398176D01*
X132131200Y-90242311D01*
X132130200Y-90244043D01*
X132128089Y-90243974D01*
X132121135Y-90239328D01*
X132120963Y-90239200D01*
X132078256Y-90203509D01*
X132009541Y-90194876D01*
X131946910Y-90224840D01*
X131930711Y-90243534D01*
X131928821Y-90244188D01*
X131927310Y-90242878D01*
X131927200Y-90242224D01*
X131927200Y-89398089D01*
X131928200Y-89396357D01*
X131930311Y-89396426D01*
X131937265Y-89401072D01*
X131937437Y-89401200D01*
X131980144Y-89436891D01*
X132048859Y-89445524D01*
X132111490Y-89415560D01*
X132127689Y-89396866D01*
X132129579Y-89396212D01*
X132131090Y-89397522D01*
G37*
G36*
X133131090Y-89397522D02*
G01*
X133131200Y-89398176D01*
X133131200Y-90242311D01*
X133130200Y-90244043D01*
X133128089Y-90243974D01*
X133121135Y-90239328D01*
X133120963Y-90239200D01*
X133078256Y-90203509D01*
X133009541Y-90194876D01*
X132946910Y-90224840D01*
X132930711Y-90243534D01*
X132928821Y-90244188D01*
X132927310Y-90242878D01*
X132927200Y-90242224D01*
X132927200Y-89398089D01*
X132928200Y-89396357D01*
X132930311Y-89396426D01*
X132937265Y-89401072D01*
X132937437Y-89401200D01*
X132980144Y-89436891D01*
X133048859Y-89445524D01*
X133111490Y-89415560D01*
X133127689Y-89396866D01*
X133129579Y-89396212D01*
X133131090Y-89397522D01*
G37*
M02*
